%
M48
M72
T01C0.01378
T02C0.03150
T03C0.03200
T04C0.03937
T05C0.04000
T06C0.07480
%
T01
X135048Y34800
X145048Y87400
X187548Y97300
X202548Y102300
X218548Y87300
X227548Y107300
X205958Y124300
X202548Y127300
X197548Y122300
X202341Y141593
X213548Y163800
X212548Y173300
X218548Y185800
X202548Y187300
X199398Y180135
X193146Y186702
X192548Y172800
X172548Y157300
X166548Y153890
X168648Y141300
X107548Y147300
X91548Y151300
X42548Y222300
X27510Y297396
X38048Y313300
X27169Y357300
X177548Y207300
X197548Y207300
X218548Y216300
X225383Y166749
X233548Y160300
T02
X42627Y325501
X37902Y328650
X42627Y331800
X37902Y334950
X42627Y338099
X17548Y364426
X17548Y372300
X17548Y380174
T03
X42548Y372300
X42548Y362300
X47548Y302300
X47548Y282300
X42548Y272300
X22548Y282300
X15048Y287300
X22548Y292300
X57548Y252300
X67548Y252300
X82548Y232300
X42548Y232300
X82548Y272300
X72548Y287300
X72548Y297300
X97548Y297300
X97548Y287300
X122548Y272300
X122548Y312300
X197548Y217300
X207548Y217300
X252548Y162300
X252548Y152300
X207548Y92300
X197548Y92300
X153248Y137500
X153248Y157500
X137548Y17300
X177548Y17300
T04
X17548Y356552
X17548Y388048
T05
X22548Y267300
X22548Y247300
X17548Y217300
X17548Y207300
X17548Y197300
X17548Y187300
X17548Y177300
X17548Y167300
X17548Y157300
X17548Y147300
X17548Y137300
X17548Y127300
X17548Y117300
X17548Y107300
X17548Y97300
X17548Y87300
X17548Y77300
X27548Y11800
X37548Y11800
X47548Y11800
X57548Y11800
X67548Y11800
X97548Y17300
X117548Y17300
X129048Y140300
X129048Y150300
X129048Y160300
X392548Y162300
X392548Y152300
X392548Y142300
X392548Y132300
X392548Y122300
X392548Y112300
X392548Y102300
X392548Y92300
X392548Y82300
X392548Y72300
X392548Y172300
X392548Y182300
X392548Y192300
X392548Y202300
X392548Y212300
T06
X22548Y346170
X22548Y317430
M30
