G75*
%MOIN*%
%OFA0B0*%
%FSLAX25Y25*%
%IPPOS*%
%LPD*%
%AMOC8*
5,1,8,0,0,1.08239X$1,22.5*
%
%ADD10C,0.00000*%
%ADD11OC8,0.05200*%
%ADD12C,0.05200*%
%ADD13C,0.05150*%
%ADD14C,0.11220*%
%ADD15C,0.05937*%
%ADD16C,0.07400*%
%ADD17C,0.00600*%
%ADD18C,0.01600*%
%ADD19C,0.02578*%
D10*
X0007548Y0002300D02*
X0007548Y0396001D01*
X0401249Y0396001D01*
X0401249Y0002300D01*
X0007548Y0002300D01*
D11*
X0137548Y0017300D03*
X0177548Y0017300D03*
X0197548Y0092300D03*
X0207548Y0092300D03*
X0252548Y0152300D03*
X0252548Y0162300D03*
X0207548Y0217300D03*
X0197548Y0217300D03*
X0153248Y0157500D03*
X0082548Y0232300D03*
X0067548Y0252300D03*
X0057548Y0252300D03*
X0042548Y0232300D03*
X0042548Y0272300D03*
X0047548Y0282300D03*
X0022548Y0282300D03*
X0015048Y0287300D03*
X0022548Y0292300D03*
X0072548Y0287300D03*
X0072548Y0297300D03*
X0097548Y0297300D03*
X0097548Y0287300D03*
X0082548Y0272300D03*
X0122548Y0272300D03*
X0122548Y0312300D03*
X0042548Y0362300D03*
X0042548Y0372300D03*
D12*
X0047548Y0302300D03*
X0153248Y0137500D03*
D13*
X0042627Y0325501D03*
X0037902Y0328650D03*
X0042627Y0331800D03*
X0037902Y0334950D03*
X0042627Y0338099D03*
X0017548Y0364426D03*
X0017548Y0372300D03*
X0017548Y0380174D03*
D14*
X0022548Y0346170D03*
X0022548Y0317430D03*
D15*
X0017548Y0356552D03*
X0017548Y0388048D03*
D16*
X0022548Y0267300D03*
X0022548Y0247300D03*
X0017548Y0217300D03*
X0017548Y0207300D03*
X0017548Y0197300D03*
X0017548Y0187300D03*
X0017548Y0177300D03*
X0017548Y0167300D03*
X0017548Y0157300D03*
X0017548Y0147300D03*
X0017548Y0137300D03*
X0017548Y0127300D03*
X0017548Y0117300D03*
X0017548Y0107300D03*
X0017548Y0097300D03*
X0017548Y0087300D03*
X0017548Y0077300D03*
X0027548Y0011800D03*
X0037548Y0011800D03*
X0047548Y0011800D03*
X0057548Y0011800D03*
X0067548Y0011800D03*
X0097548Y0017300D03*
X0117548Y0017300D03*
X0129048Y0140300D03*
X0129048Y0150300D03*
X0129048Y0160300D03*
X0392548Y0162300D03*
X0392548Y0152300D03*
X0392548Y0142300D03*
X0392548Y0132300D03*
X0392548Y0122300D03*
X0392548Y0112300D03*
X0392548Y0102300D03*
X0392548Y0092300D03*
X0392548Y0082300D03*
X0392548Y0072300D03*
X0392548Y0172300D03*
X0392548Y0182300D03*
X0392548Y0192300D03*
X0392548Y0202300D03*
X0392548Y0212300D03*
D17*
X0392248Y0212377D02*
X0220848Y0212377D01*
X0220848Y0211779D02*
X0387568Y0211779D01*
X0387548Y0211906D02*
X0387671Y0211129D01*
X0387914Y0210381D01*
X0388272Y0209679D01*
X0388734Y0209043D01*
X0389291Y0208486D01*
X0389927Y0208024D01*
X0390629Y0207666D01*
X0391350Y0207432D01*
X0389602Y0206708D01*
X0388140Y0205246D01*
X0387348Y0203334D01*
X0387348Y0201266D01*
X0388140Y0199354D01*
X0389602Y0197892D01*
X0391031Y0197300D01*
X0389602Y0196708D01*
X0388140Y0195246D01*
X0387348Y0193334D01*
X0387348Y0191266D01*
X0388140Y0189354D01*
X0389602Y0187892D01*
X0391031Y0187300D01*
X0389602Y0186708D01*
X0388140Y0185246D01*
X0387348Y0183334D01*
X0387348Y0181266D01*
X0388140Y0179354D01*
X0389602Y0177892D01*
X0391031Y0177300D01*
X0389602Y0176708D01*
X0388140Y0175246D01*
X0387348Y0173334D01*
X0387348Y0171266D01*
X0388140Y0169354D01*
X0389602Y0167892D01*
X0391031Y0167300D01*
X0389602Y0166708D01*
X0388140Y0165246D01*
X0387348Y0163334D01*
X0387348Y0161266D01*
X0388140Y0159354D01*
X0389602Y0157892D01*
X0391031Y0157300D01*
X0389602Y0156708D01*
X0388140Y0155246D01*
X0387348Y0153334D01*
X0387348Y0151266D01*
X0388140Y0149354D01*
X0389602Y0147892D01*
X0391031Y0147300D01*
X0389602Y0146708D01*
X0388140Y0145246D01*
X0387348Y0143334D01*
X0387348Y0141266D01*
X0388140Y0139354D01*
X0389602Y0137892D01*
X0391031Y0137300D01*
X0389602Y0136708D01*
X0388140Y0135246D01*
X0387348Y0133334D01*
X0387348Y0131266D01*
X0388140Y0129354D01*
X0389602Y0127892D01*
X0391031Y0127300D01*
X0389602Y0126708D01*
X0388140Y0125246D01*
X0387348Y0123334D01*
X0387348Y0121266D01*
X0388140Y0119354D01*
X0389602Y0117892D01*
X0391031Y0117300D01*
X0389602Y0116708D01*
X0388140Y0115246D01*
X0387348Y0113334D01*
X0387348Y0111266D01*
X0388140Y0109354D01*
X0389602Y0107892D01*
X0391031Y0107300D01*
X0389602Y0106708D01*
X0388140Y0105246D01*
X0387348Y0103334D01*
X0387348Y0101266D01*
X0388140Y0099354D01*
X0389602Y0097892D01*
X0391031Y0097300D01*
X0389602Y0096708D01*
X0388140Y0095246D01*
X0387348Y0093334D01*
X0387348Y0091266D01*
X0388140Y0089354D01*
X0389602Y0087892D01*
X0391031Y0087300D01*
X0389602Y0086708D01*
X0388140Y0085246D01*
X0387348Y0083334D01*
X0387348Y0081266D01*
X0388140Y0079354D01*
X0389602Y0077892D01*
X0391031Y0077300D01*
X0389602Y0076708D01*
X0388140Y0075246D01*
X0387348Y0073334D01*
X0387348Y0071266D01*
X0388140Y0069354D01*
X0389602Y0067892D01*
X0391514Y0067100D01*
X0393582Y0067100D01*
X0395494Y0067892D01*
X0396956Y0069354D01*
X0397748Y0071266D01*
X0397748Y0073334D01*
X0396956Y0075246D01*
X0395494Y0076708D01*
X0394065Y0077300D01*
X0395494Y0077892D01*
X0396956Y0079354D01*
X0397748Y0081266D01*
X0397748Y0083334D01*
X0396956Y0085246D01*
X0395494Y0086708D01*
X0394065Y0087300D01*
X0395494Y0087892D01*
X0396956Y0089354D01*
X0397748Y0091266D01*
X0397748Y0093334D01*
X0396956Y0095246D01*
X0395494Y0096708D01*
X0394065Y0097300D01*
X0395494Y0097892D01*
X0396956Y0099354D01*
X0397748Y0101266D01*
X0397748Y0103334D01*
X0396956Y0105246D01*
X0395494Y0106708D01*
X0394065Y0107300D01*
X0395494Y0107892D01*
X0396956Y0109354D01*
X0397748Y0111266D01*
X0397748Y0113334D01*
X0396956Y0115246D01*
X0395494Y0116708D01*
X0394065Y0117300D01*
X0395494Y0117892D01*
X0396956Y0119354D01*
X0397748Y0121266D01*
X0397748Y0123334D01*
X0396956Y0125246D01*
X0395494Y0126708D01*
X0394065Y0127300D01*
X0395494Y0127892D01*
X0396956Y0129354D01*
X0397748Y0131266D01*
X0397748Y0133334D01*
X0396956Y0135246D01*
X0395494Y0136708D01*
X0394065Y0137300D01*
X0395494Y0137892D01*
X0396956Y0139354D01*
X0397748Y0141266D01*
X0397748Y0143334D01*
X0396956Y0145246D01*
X0395494Y0146708D01*
X0394065Y0147300D01*
X0395494Y0147892D01*
X0396956Y0149354D01*
X0397748Y0151266D01*
X0397748Y0153334D01*
X0396956Y0155246D01*
X0395494Y0156708D01*
X0394065Y0157300D01*
X0395494Y0157892D01*
X0396956Y0159354D01*
X0397748Y0161266D01*
X0397748Y0163334D01*
X0396956Y0165246D01*
X0395494Y0166708D01*
X0394065Y0167300D01*
X0395494Y0167892D01*
X0396956Y0169354D01*
X0397748Y0171266D01*
X0397748Y0173334D01*
X0396956Y0175246D01*
X0395494Y0176708D01*
X0394065Y0177300D01*
X0395494Y0177892D01*
X0396956Y0179354D01*
X0397748Y0181266D01*
X0397748Y0183334D01*
X0396956Y0185246D01*
X0395494Y0186708D01*
X0394065Y0187300D01*
X0395494Y0187892D01*
X0396956Y0189354D01*
X0397748Y0191266D01*
X0397748Y0193334D01*
X0396956Y0195246D01*
X0395494Y0196708D01*
X0394065Y0197300D01*
X0395494Y0197892D01*
X0396956Y0199354D01*
X0397748Y0201266D01*
X0397748Y0203334D01*
X0396956Y0205246D01*
X0395494Y0206708D01*
X0393746Y0207432D01*
X0394467Y0207666D01*
X0395169Y0208024D01*
X0395805Y0208486D01*
X0396362Y0209043D01*
X0396824Y0209679D01*
X0397182Y0210381D01*
X0397425Y0211129D01*
X0397548Y0211906D01*
X0397548Y0212000D01*
X0392848Y0212000D01*
X0392848Y0212600D01*
X0392248Y0212600D01*
X0392248Y0212000D01*
X0387548Y0212000D01*
X0387548Y0211906D01*
X0387548Y0212600D02*
X0392248Y0212600D01*
X0392248Y0217300D01*
X0392155Y0217300D01*
X0391377Y0217177D01*
X0390629Y0216934D01*
X0389927Y0216576D01*
X0389291Y0216114D01*
X0388734Y0215557D01*
X0388272Y0214921D01*
X0387914Y0214219D01*
X0387671Y0213471D01*
X0387548Y0212694D01*
X0387548Y0212600D01*
X0387593Y0212976D02*
X0220848Y0212976D01*
X0220848Y0213574D02*
X0387705Y0213574D01*
X0387899Y0214173D02*
X0220848Y0214173D01*
X0220848Y0214656D02*
X0220912Y0214720D01*
X0221337Y0215745D01*
X0221337Y0216855D01*
X0220912Y0217880D01*
X0220128Y0218664D01*
X0219103Y0219089D01*
X0217993Y0219089D01*
X0216968Y0218664D01*
X0216184Y0217880D01*
X0215759Y0216855D01*
X0215759Y0215745D01*
X0216184Y0214720D01*
X0216248Y0214656D01*
X0216248Y0187444D01*
X0216184Y0187380D01*
X0215759Y0186355D01*
X0215759Y0185245D01*
X0216184Y0184220D01*
X0216968Y0183436D01*
X0217993Y0183011D01*
X0219103Y0183011D01*
X0220128Y0183436D01*
X0220912Y0184220D01*
X0221337Y0185245D01*
X0221337Y0186355D01*
X0220912Y0187380D01*
X0220848Y0187444D01*
X0220848Y0214656D01*
X0220934Y0214772D02*
X0388196Y0214772D01*
X0388598Y0215370D02*
X0221182Y0215370D01*
X0221337Y0215969D02*
X0389146Y0215969D01*
X0389915Y0216567D02*
X0221337Y0216567D01*
X0221208Y0217166D02*
X0391342Y0217166D01*
X0392248Y0217166D02*
X0392848Y0217166D01*
X0392848Y0217300D02*
X0392942Y0217300D01*
X0393719Y0217177D01*
X0394467Y0216934D01*
X0395169Y0216576D01*
X0395805Y0216114D01*
X0396362Y0215557D01*
X0396824Y0214921D01*
X0397182Y0214219D01*
X0397425Y0213471D01*
X0397548Y0212694D01*
X0397548Y0212600D01*
X0392848Y0212600D01*
X0392848Y0217300D01*
X0392848Y0216567D02*
X0392248Y0216567D01*
X0392248Y0215969D02*
X0392848Y0215969D01*
X0392848Y0215370D02*
X0392248Y0215370D01*
X0392248Y0214772D02*
X0392848Y0214772D01*
X0392848Y0214173D02*
X0392248Y0214173D01*
X0392248Y0213574D02*
X0392848Y0213574D01*
X0392848Y0212976D02*
X0392248Y0212976D01*
X0392848Y0212377D02*
X0399749Y0212377D01*
X0399749Y0211779D02*
X0397528Y0211779D01*
X0397433Y0211180D02*
X0399749Y0211180D01*
X0399749Y0210582D02*
X0397247Y0210582D01*
X0396979Y0209983D02*
X0399749Y0209983D01*
X0399749Y0209385D02*
X0396610Y0209385D01*
X0396105Y0208786D02*
X0399749Y0208786D01*
X0399749Y0208188D02*
X0395395Y0208188D01*
X0394231Y0207589D02*
X0399749Y0207589D01*
X0399749Y0206991D02*
X0394812Y0206991D01*
X0395810Y0206392D02*
X0399749Y0206392D01*
X0399749Y0205794D02*
X0396408Y0205794D01*
X0396977Y0205195D02*
X0399749Y0205195D01*
X0399749Y0204597D02*
X0397225Y0204597D01*
X0397473Y0203998D02*
X0399749Y0203998D01*
X0399749Y0203400D02*
X0397721Y0203400D01*
X0397748Y0202801D02*
X0399749Y0202801D01*
X0399749Y0202203D02*
X0397748Y0202203D01*
X0397748Y0201604D02*
X0399749Y0201604D01*
X0399749Y0201006D02*
X0397640Y0201006D01*
X0397392Y0200407D02*
X0399749Y0200407D01*
X0399749Y0199809D02*
X0397145Y0199809D01*
X0396812Y0199210D02*
X0399749Y0199210D01*
X0399749Y0198612D02*
X0396214Y0198612D01*
X0395615Y0198013D02*
X0399749Y0198013D01*
X0399749Y0197415D02*
X0394342Y0197415D01*
X0395233Y0196816D02*
X0399749Y0196816D01*
X0399749Y0196218D02*
X0395984Y0196218D01*
X0396583Y0195619D02*
X0399749Y0195619D01*
X0399749Y0195021D02*
X0397050Y0195021D01*
X0397297Y0194422D02*
X0399749Y0194422D01*
X0399749Y0193824D02*
X0397545Y0193824D01*
X0397748Y0193225D02*
X0399749Y0193225D01*
X0399749Y0192627D02*
X0397748Y0192627D01*
X0397748Y0192028D02*
X0399749Y0192028D01*
X0399749Y0191430D02*
X0397748Y0191430D01*
X0397568Y0190831D02*
X0399749Y0190831D01*
X0399749Y0190233D02*
X0397320Y0190233D01*
X0397072Y0189634D02*
X0399749Y0189634D01*
X0399749Y0189036D02*
X0396637Y0189036D01*
X0396039Y0188437D02*
X0399749Y0188437D01*
X0399749Y0187839D02*
X0395365Y0187839D01*
X0395560Y0186641D02*
X0399749Y0186641D01*
X0399749Y0186043D02*
X0396159Y0186043D01*
X0396757Y0185444D02*
X0399749Y0185444D01*
X0399749Y0184846D02*
X0397122Y0184846D01*
X0397370Y0184247D02*
X0399749Y0184247D01*
X0399749Y0183649D02*
X0397618Y0183649D01*
X0397748Y0183050D02*
X0399749Y0183050D01*
X0399749Y0182452D02*
X0397748Y0182452D01*
X0397748Y0181853D02*
X0399749Y0181853D01*
X0399749Y0181255D02*
X0397744Y0181255D01*
X0397496Y0180656D02*
X0399749Y0180656D01*
X0399749Y0180058D02*
X0397248Y0180058D01*
X0397000Y0179459D02*
X0399749Y0179459D01*
X0399749Y0178861D02*
X0396463Y0178861D01*
X0395864Y0178262D02*
X0399749Y0178262D01*
X0399749Y0177664D02*
X0394944Y0177664D01*
X0394632Y0177065D02*
X0399749Y0177065D01*
X0399749Y0176467D02*
X0395735Y0176467D01*
X0396334Y0175868D02*
X0399749Y0175868D01*
X0399749Y0175270D02*
X0396932Y0175270D01*
X0397194Y0174671D02*
X0399749Y0174671D01*
X0399749Y0174073D02*
X0397442Y0174073D01*
X0397690Y0173474D02*
X0399749Y0173474D01*
X0399749Y0172876D02*
X0397748Y0172876D01*
X0397748Y0172277D02*
X0399749Y0172277D01*
X0399749Y0171679D02*
X0397748Y0171679D01*
X0397671Y0171080D02*
X0399749Y0171080D01*
X0399749Y0170482D02*
X0397423Y0170482D01*
X0397175Y0169883D02*
X0399749Y0169883D01*
X0399749Y0169285D02*
X0396887Y0169285D01*
X0396288Y0168686D02*
X0399749Y0168686D01*
X0399749Y0168088D02*
X0395690Y0168088D01*
X0394522Y0167489D02*
X0399749Y0167489D01*
X0399749Y0166891D02*
X0395054Y0166891D01*
X0395910Y0166292D02*
X0399749Y0166292D01*
X0399749Y0165694D02*
X0396508Y0165694D01*
X0397019Y0165095D02*
X0399749Y0165095D01*
X0399749Y0164497D02*
X0397267Y0164497D01*
X0397515Y0163898D02*
X0399749Y0163898D01*
X0399749Y0163300D02*
X0397748Y0163300D01*
X0397748Y0162701D02*
X0399749Y0162701D01*
X0399749Y0162103D02*
X0397748Y0162103D01*
X0397748Y0161504D02*
X0399749Y0161504D01*
X0399749Y0160905D02*
X0397599Y0160905D01*
X0397351Y0160307D02*
X0399749Y0160307D01*
X0399749Y0159708D02*
X0397103Y0159708D01*
X0396712Y0159110D02*
X0399749Y0159110D01*
X0399749Y0158511D02*
X0396113Y0158511D01*
X0395515Y0157913D02*
X0399749Y0157913D01*
X0399749Y0157314D02*
X0394100Y0157314D01*
X0395475Y0156716D02*
X0399749Y0156716D01*
X0399749Y0156117D02*
X0396085Y0156117D01*
X0396683Y0155519D02*
X0399749Y0155519D01*
X0399749Y0154920D02*
X0397091Y0154920D01*
X0397339Y0154322D02*
X0399749Y0154322D01*
X0399749Y0153723D02*
X0397587Y0153723D01*
X0397748Y0153125D02*
X0399749Y0153125D01*
X0399749Y0152526D02*
X0397748Y0152526D01*
X0397748Y0151928D02*
X0399749Y0151928D01*
X0399749Y0151329D02*
X0397748Y0151329D01*
X0397526Y0150731D02*
X0399749Y0150731D01*
X0399749Y0150132D02*
X0397279Y0150132D01*
X0397031Y0149534D02*
X0399749Y0149534D01*
X0399749Y0148935D02*
X0396537Y0148935D01*
X0395939Y0148337D02*
X0399749Y0148337D01*
X0399749Y0147738D02*
X0395123Y0147738D01*
X0394452Y0147140D02*
X0399749Y0147140D01*
X0399749Y0146541D02*
X0395661Y0146541D01*
X0396259Y0145943D02*
X0399749Y0145943D01*
X0399749Y0145344D02*
X0396858Y0145344D01*
X0397163Y0144746D02*
X0399749Y0144746D01*
X0399749Y0144147D02*
X0397411Y0144147D01*
X0397659Y0143549D02*
X0399749Y0143549D01*
X0399749Y0142950D02*
X0397748Y0142950D01*
X0397748Y0142352D02*
X0399749Y0142352D01*
X0399749Y0141753D02*
X0397748Y0141753D01*
X0397702Y0141155D02*
X0399749Y0141155D01*
X0399749Y0140556D02*
X0397454Y0140556D01*
X0397206Y0139958D02*
X0399749Y0139958D01*
X0399749Y0139359D02*
X0396958Y0139359D01*
X0396363Y0138761D02*
X0399749Y0138761D01*
X0399749Y0138162D02*
X0395764Y0138162D01*
X0394701Y0137564D02*
X0399749Y0137564D01*
X0399749Y0136965D02*
X0394874Y0136965D01*
X0395835Y0136367D02*
X0399749Y0136367D01*
X0399749Y0135768D02*
X0396434Y0135768D01*
X0396988Y0135170D02*
X0399749Y0135170D01*
X0399749Y0134571D02*
X0397236Y0134571D01*
X0397484Y0133972D02*
X0399749Y0133972D01*
X0399749Y0133374D02*
X0397732Y0133374D01*
X0397748Y0132775D02*
X0399749Y0132775D01*
X0399749Y0132177D02*
X0397748Y0132177D01*
X0397748Y0131578D02*
X0399749Y0131578D01*
X0399749Y0130980D02*
X0397630Y0130980D01*
X0397382Y0130381D02*
X0399749Y0130381D01*
X0399749Y0129783D02*
X0397134Y0129783D01*
X0396786Y0129184D02*
X0399749Y0129184D01*
X0399749Y0128586D02*
X0396188Y0128586D01*
X0395589Y0127987D02*
X0399749Y0127987D01*
X0399749Y0127389D02*
X0394280Y0127389D01*
X0395296Y0126790D02*
X0399749Y0126790D01*
X0399749Y0126192D02*
X0396010Y0126192D01*
X0396609Y0125593D02*
X0399749Y0125593D01*
X0399749Y0124995D02*
X0397060Y0124995D01*
X0397308Y0124396D02*
X0399749Y0124396D01*
X0399749Y0123798D02*
X0397556Y0123798D01*
X0397748Y0123199D02*
X0399749Y0123199D01*
X0399749Y0122601D02*
X0397748Y0122601D01*
X0397748Y0122002D02*
X0399749Y0122002D01*
X0399749Y0121404D02*
X0397748Y0121404D01*
X0397557Y0120805D02*
X0399749Y0120805D01*
X0399749Y0120207D02*
X0397309Y0120207D01*
X0397061Y0119608D02*
X0399749Y0119608D01*
X0399749Y0119010D02*
X0396612Y0119010D01*
X0396013Y0118411D02*
X0399749Y0118411D01*
X0399749Y0117813D02*
X0395303Y0117813D01*
X0394272Y0117214D02*
X0399749Y0117214D01*
X0399749Y0116616D02*
X0395586Y0116616D01*
X0396185Y0116017D02*
X0399749Y0116017D01*
X0399749Y0115419D02*
X0396783Y0115419D01*
X0397133Y0114820D02*
X0399749Y0114820D01*
X0399749Y0114222D02*
X0397381Y0114222D01*
X0397628Y0113623D02*
X0399749Y0113623D01*
X0399749Y0113025D02*
X0397748Y0113025D01*
X0397748Y0112426D02*
X0399749Y0112426D01*
X0399749Y0111828D02*
X0397748Y0111828D01*
X0397733Y0111229D02*
X0399749Y0111229D01*
X0399749Y0110631D02*
X0397485Y0110631D01*
X0397237Y0110032D02*
X0399749Y0110032D01*
X0399749Y0109434D02*
X0396989Y0109434D01*
X0396437Y0108835D02*
X0399749Y0108835D01*
X0399749Y0108237D02*
X0395838Y0108237D01*
X0394881Y0107638D02*
X0399749Y0107638D01*
X0399749Y0107039D02*
X0394694Y0107039D01*
X0395761Y0106441D02*
X0399749Y0106441D01*
X0399749Y0105842D02*
X0396359Y0105842D01*
X0396957Y0105244D02*
X0399749Y0105244D01*
X0399749Y0104645D02*
X0397205Y0104645D01*
X0397453Y0104047D02*
X0399749Y0104047D01*
X0399749Y0103448D02*
X0397701Y0103448D01*
X0397748Y0102850D02*
X0399749Y0102850D01*
X0399749Y0102251D02*
X0397748Y0102251D01*
X0397748Y0101653D02*
X0399749Y0101653D01*
X0399749Y0101054D02*
X0397660Y0101054D01*
X0397413Y0100456D02*
X0399749Y0100456D01*
X0399749Y0099857D02*
X0397165Y0099857D01*
X0396861Y0099259D02*
X0399749Y0099259D01*
X0399749Y0098660D02*
X0396262Y0098660D01*
X0395664Y0098062D02*
X0399749Y0098062D01*
X0399749Y0097463D02*
X0394459Y0097463D01*
X0395116Y0096865D02*
X0399749Y0096865D01*
X0399749Y0096266D02*
X0395936Y0096266D01*
X0396534Y0095668D02*
X0399749Y0095668D01*
X0399749Y0095069D02*
X0397029Y0095069D01*
X0397277Y0094471D02*
X0399749Y0094471D01*
X0399749Y0093872D02*
X0397525Y0093872D01*
X0397748Y0093274D02*
X0399749Y0093274D01*
X0399749Y0092675D02*
X0397748Y0092675D01*
X0397748Y0092077D02*
X0399749Y0092077D01*
X0399749Y0091478D02*
X0397748Y0091478D01*
X0397588Y0090880D02*
X0399749Y0090880D01*
X0399749Y0090281D02*
X0397340Y0090281D01*
X0397092Y0089683D02*
X0399749Y0089683D01*
X0399749Y0089084D02*
X0396686Y0089084D01*
X0396088Y0088486D02*
X0399749Y0088486D01*
X0399749Y0087887D02*
X0395483Y0087887D01*
X0395512Y0086690D02*
X0399749Y0086690D01*
X0399749Y0086092D02*
X0396110Y0086092D01*
X0396709Y0085493D02*
X0399749Y0085493D01*
X0399749Y0084895D02*
X0397102Y0084895D01*
X0397350Y0084296D02*
X0399749Y0084296D01*
X0399749Y0083698D02*
X0397598Y0083698D01*
X0397748Y0083099D02*
X0399749Y0083099D01*
X0399749Y0082501D02*
X0397748Y0082501D01*
X0397748Y0081902D02*
X0399749Y0081902D01*
X0399749Y0081303D02*
X0397748Y0081303D01*
X0397516Y0080705D02*
X0399749Y0080705D01*
X0399749Y0080106D02*
X0397268Y0080106D01*
X0397020Y0079508D02*
X0399749Y0079508D01*
X0399749Y0078909D02*
X0396511Y0078909D01*
X0395913Y0078311D02*
X0399749Y0078311D01*
X0399749Y0077712D02*
X0395061Y0077712D01*
X0394514Y0077114D02*
X0399749Y0077114D01*
X0399749Y0076515D02*
X0395687Y0076515D01*
X0396285Y0075917D02*
X0399749Y0075917D01*
X0399749Y0075318D02*
X0396884Y0075318D01*
X0397174Y0074720D02*
X0399749Y0074720D01*
X0399749Y0074121D02*
X0397422Y0074121D01*
X0397670Y0073523D02*
X0399749Y0073523D01*
X0399749Y0072924D02*
X0397748Y0072924D01*
X0397748Y0072326D02*
X0399749Y0072326D01*
X0399749Y0071727D02*
X0397748Y0071727D01*
X0397691Y0071129D02*
X0399749Y0071129D01*
X0399749Y0070530D02*
X0397443Y0070530D01*
X0397196Y0069932D02*
X0399749Y0069932D01*
X0399749Y0069333D02*
X0396935Y0069333D01*
X0396337Y0068735D02*
X0399749Y0068735D01*
X0399749Y0068136D02*
X0395738Y0068136D01*
X0394639Y0067538D02*
X0399749Y0067538D01*
X0399749Y0066939D02*
X0204940Y0066939D01*
X0204341Y0066341D02*
X0399749Y0066341D01*
X0399749Y0065742D02*
X0203743Y0065742D01*
X0203144Y0065144D02*
X0399749Y0065144D01*
X0399749Y0064545D02*
X0202546Y0064545D01*
X0201947Y0063947D02*
X0399749Y0063947D01*
X0399749Y0063348D02*
X0201349Y0063348D01*
X0200750Y0062750D02*
X0399749Y0062750D01*
X0399749Y0062151D02*
X0200152Y0062151D01*
X0199553Y0061553D02*
X0399749Y0061553D01*
X0399749Y0060954D02*
X0198955Y0060954D01*
X0198356Y0060356D02*
X0399749Y0060356D01*
X0399749Y0059757D02*
X0197758Y0059757D01*
X0197159Y0059159D02*
X0399749Y0059159D01*
X0399749Y0058560D02*
X0196561Y0058560D01*
X0195962Y0057962D02*
X0399749Y0057962D01*
X0399749Y0057363D02*
X0195364Y0057363D01*
X0194765Y0056765D02*
X0399749Y0056765D01*
X0399749Y0056166D02*
X0194167Y0056166D01*
X0193568Y0055568D02*
X0399749Y0055568D01*
X0399749Y0054969D02*
X0192970Y0054969D01*
X0192371Y0054370D02*
X0399749Y0054370D01*
X0399749Y0053772D02*
X0191773Y0053772D01*
X0191174Y0053173D02*
X0399749Y0053173D01*
X0399749Y0052575D02*
X0190576Y0052575D01*
X0189977Y0051976D02*
X0399749Y0051976D01*
X0399749Y0051378D02*
X0189379Y0051378D01*
X0188780Y0050779D02*
X0399749Y0050779D01*
X0399749Y0050181D02*
X0188182Y0050181D01*
X0187583Y0049582D02*
X0399749Y0049582D01*
X0399749Y0048984D02*
X0186985Y0048984D01*
X0186386Y0048385D02*
X0399749Y0048385D01*
X0399749Y0047787D02*
X0185788Y0047787D01*
X0185189Y0047188D02*
X0399749Y0047188D01*
X0399749Y0046590D02*
X0184591Y0046590D01*
X0183992Y0045991D02*
X0399749Y0045991D01*
X0399749Y0045393D02*
X0183394Y0045393D01*
X0182795Y0044794D02*
X0399749Y0044794D01*
X0399749Y0044196D02*
X0182197Y0044196D01*
X0181598Y0043597D02*
X0399749Y0043597D01*
X0399749Y0042999D02*
X0180999Y0042999D01*
X0180401Y0042400D02*
X0399749Y0042400D01*
X0399749Y0041802D02*
X0179802Y0041802D01*
X0179204Y0041203D02*
X0399749Y0041203D01*
X0399749Y0040605D02*
X0178605Y0040605D01*
X0178007Y0040006D02*
X0399749Y0040006D01*
X0399749Y0039408D02*
X0177408Y0039408D01*
X0176810Y0038809D02*
X0399749Y0038809D01*
X0399749Y0038211D02*
X0176211Y0038211D01*
X0175613Y0037612D02*
X0399749Y0037612D01*
X0399749Y0037014D02*
X0175014Y0037014D01*
X0174416Y0036415D02*
X0399749Y0036415D01*
X0399749Y0035817D02*
X0173817Y0035817D01*
X0173219Y0035218D02*
X0399749Y0035218D01*
X0399749Y0034620D02*
X0172620Y0034620D01*
X0172022Y0034021D02*
X0399749Y0034021D01*
X0399749Y0033423D02*
X0171423Y0033423D01*
X0170825Y0032824D02*
X0399749Y0032824D01*
X0399749Y0032226D02*
X0136121Y0032226D01*
X0136628Y0032436D02*
X0136692Y0032500D01*
X0170501Y0032500D01*
X0219501Y0081500D01*
X0220848Y0082847D01*
X0220848Y0085656D01*
X0220912Y0085720D01*
X0221337Y0086745D01*
X0221337Y0087855D01*
X0220912Y0088880D01*
X0220128Y0089664D01*
X0219103Y0090089D01*
X0217993Y0090089D01*
X0216968Y0089664D01*
X0216184Y0088880D01*
X0215759Y0087855D01*
X0215759Y0086745D01*
X0216184Y0085720D01*
X0216248Y0085656D01*
X0216248Y0084753D01*
X0168595Y0037100D01*
X0136692Y0037100D01*
X0136628Y0037164D01*
X0135603Y0037589D01*
X0134493Y0037589D01*
X0133468Y0037164D01*
X0132684Y0036380D01*
X0132259Y0035355D01*
X0132259Y0034245D01*
X0132684Y0033220D01*
X0133468Y0032436D01*
X0134493Y0032011D01*
X0135603Y0032011D01*
X0136628Y0032436D01*
X0133975Y0032226D02*
X0009548Y0032226D01*
X0009548Y0032824D02*
X0133080Y0032824D01*
X0132600Y0033423D02*
X0009548Y0033423D01*
X0009548Y0034021D02*
X0132352Y0034021D01*
X0132259Y0034620D02*
X0009548Y0034620D01*
X0009548Y0035218D02*
X0132259Y0035218D01*
X0132450Y0035817D02*
X0009548Y0035817D01*
X0009548Y0036415D02*
X0132719Y0036415D01*
X0133317Y0037014D02*
X0009548Y0037014D01*
X0009548Y0037612D02*
X0169108Y0037612D01*
X0169706Y0038211D02*
X0009548Y0038211D01*
X0009548Y0038809D02*
X0170305Y0038809D01*
X0170903Y0039408D02*
X0009548Y0039408D01*
X0009548Y0040006D02*
X0171502Y0040006D01*
X0172100Y0040605D02*
X0009548Y0040605D01*
X0009548Y0041203D02*
X0172699Y0041203D01*
X0173297Y0041802D02*
X0009548Y0041802D01*
X0009548Y0042400D02*
X0173896Y0042400D01*
X0174494Y0042999D02*
X0009548Y0042999D01*
X0009548Y0043597D02*
X0175093Y0043597D01*
X0175691Y0044196D02*
X0009548Y0044196D01*
X0009548Y0044794D02*
X0176290Y0044794D01*
X0176888Y0045393D02*
X0009548Y0045393D01*
X0009548Y0045991D02*
X0177487Y0045991D01*
X0178085Y0046590D02*
X0009548Y0046590D01*
X0009548Y0047188D02*
X0178684Y0047188D01*
X0179282Y0047787D02*
X0009548Y0047787D01*
X0009548Y0048385D02*
X0179881Y0048385D01*
X0180479Y0048984D02*
X0009548Y0048984D01*
X0009548Y0049582D02*
X0181078Y0049582D01*
X0181676Y0050181D02*
X0009548Y0050181D01*
X0009548Y0050779D02*
X0182275Y0050779D01*
X0182873Y0051378D02*
X0009548Y0051378D01*
X0009548Y0051976D02*
X0183472Y0051976D01*
X0184070Y0052575D02*
X0009548Y0052575D01*
X0009548Y0053173D02*
X0184669Y0053173D01*
X0185267Y0053772D02*
X0009548Y0053772D01*
X0009548Y0054370D02*
X0185866Y0054370D01*
X0186464Y0054969D02*
X0009548Y0054969D01*
X0009548Y0055568D02*
X0187063Y0055568D01*
X0187661Y0056166D02*
X0009548Y0056166D01*
X0009548Y0056765D02*
X0188260Y0056765D01*
X0188858Y0057363D02*
X0009548Y0057363D01*
X0009548Y0057962D02*
X0189457Y0057962D01*
X0190055Y0058560D02*
X0009548Y0058560D01*
X0009548Y0059159D02*
X0190654Y0059159D01*
X0191252Y0059757D02*
X0009548Y0059757D01*
X0009548Y0060356D02*
X0191851Y0060356D01*
X0192449Y0060954D02*
X0009548Y0060954D01*
X0009548Y0061553D02*
X0193048Y0061553D01*
X0193646Y0062151D02*
X0009548Y0062151D01*
X0009548Y0062750D02*
X0194245Y0062750D01*
X0194844Y0063348D02*
X0009548Y0063348D01*
X0009548Y0063947D02*
X0195442Y0063947D01*
X0196041Y0064545D02*
X0009548Y0064545D01*
X0009548Y0065144D02*
X0196639Y0065144D01*
X0197238Y0065742D02*
X0009548Y0065742D01*
X0009548Y0066341D02*
X0197836Y0066341D01*
X0198435Y0066939D02*
X0009548Y0066939D01*
X0009548Y0067538D02*
X0199033Y0067538D01*
X0199632Y0068136D02*
X0009548Y0068136D01*
X0009548Y0068735D02*
X0200230Y0068735D01*
X0200829Y0069333D02*
X0009548Y0069333D01*
X0009548Y0069932D02*
X0201427Y0069932D01*
X0202026Y0070530D02*
X0009548Y0070530D01*
X0009548Y0071129D02*
X0202624Y0071129D01*
X0203223Y0071727D02*
X0009548Y0071727D01*
X0009548Y0072326D02*
X0016991Y0072326D01*
X0017155Y0072300D02*
X0017248Y0072300D01*
X0017248Y0077000D01*
X0012548Y0077000D01*
X0012548Y0076906D01*
X0012671Y0076129D01*
X0012914Y0075381D01*
X0013272Y0074679D01*
X0013734Y0074043D01*
X0014291Y0073486D01*
X0014927Y0073024D01*
X0015629Y0072666D01*
X0016377Y0072423D01*
X0017155Y0072300D01*
X0017248Y0072326D02*
X0017848Y0072326D01*
X0017848Y0072300D02*
X0017942Y0072300D01*
X0018719Y0072423D01*
X0019467Y0072666D01*
X0020169Y0073024D01*
X0020805Y0073486D01*
X0021362Y0074043D01*
X0021824Y0074679D01*
X0022182Y0075381D01*
X0022425Y0076129D01*
X0022548Y0076906D01*
X0022548Y0077000D01*
X0017848Y0077000D01*
X0017848Y0072300D01*
X0018105Y0072326D02*
X0203821Y0072326D01*
X0204420Y0072924D02*
X0019974Y0072924D01*
X0020842Y0073523D02*
X0205018Y0073523D01*
X0205617Y0074121D02*
X0021419Y0074121D01*
X0021845Y0074720D02*
X0206215Y0074720D01*
X0206814Y0075318D02*
X0022150Y0075318D01*
X0022356Y0075917D02*
X0207412Y0075917D01*
X0208011Y0076515D02*
X0022486Y0076515D01*
X0022548Y0077600D02*
X0022548Y0077694D01*
X0022425Y0078471D01*
X0022182Y0079219D01*
X0021824Y0079921D01*
X0021362Y0080557D01*
X0020805Y0081114D01*
X0020169Y0081576D01*
X0019467Y0081934D01*
X0018746Y0082168D01*
X0020494Y0082892D01*
X0021956Y0084354D01*
X0022748Y0086266D01*
X0022748Y0088334D01*
X0021956Y0090246D01*
X0020494Y0091708D01*
X0019065Y0092300D01*
X0020494Y0092892D01*
X0021956Y0094354D01*
X0022748Y0096266D01*
X0166348Y0096266D01*
X0166348Y0095668D02*
X0022500Y0095668D01*
X0022748Y0096266D02*
X0022748Y0098334D01*
X0021956Y0100246D01*
X0020494Y0101708D01*
X0019065Y0102300D01*
X0020494Y0102892D01*
X0021956Y0104354D01*
X0022748Y0106266D01*
X0022748Y0108334D01*
X0021956Y0110246D01*
X0020494Y0111708D01*
X0019065Y0112300D01*
X0020494Y0112892D01*
X0021956Y0114354D01*
X0022748Y0116266D01*
X0022748Y0118334D01*
X0021956Y0120246D01*
X0020494Y0121708D01*
X0019065Y0122300D01*
X0020494Y0122892D01*
X0021956Y0124354D01*
X0022748Y0126266D01*
X0022748Y0128334D01*
X0021956Y0130246D01*
X0020494Y0131708D01*
X0019065Y0132300D01*
X0020494Y0132892D01*
X0021956Y0134354D01*
X0022748Y0136266D01*
X0022748Y0138334D01*
X0021956Y0140246D01*
X0020494Y0141708D01*
X0019065Y0142300D01*
X0020494Y0142892D01*
X0021956Y0144354D01*
X0022748Y0146266D01*
X0022748Y0148334D01*
X0021956Y0150246D01*
X0020494Y0151708D01*
X0019065Y0152300D01*
X0020494Y0152892D01*
X0021956Y0154354D01*
X0022748Y0156266D01*
X0022748Y0158334D01*
X0021956Y0160246D01*
X0020494Y0161708D01*
X0019065Y0162300D01*
X0020494Y0162892D01*
X0021956Y0164354D01*
X0022748Y0166266D01*
X0022748Y0168334D01*
X0021956Y0170246D01*
X0020494Y0171708D01*
X0019065Y0172300D01*
X0020494Y0172892D01*
X0021956Y0174354D01*
X0022748Y0176266D01*
X0022748Y0178334D01*
X0021956Y0180246D01*
X0020494Y0181708D01*
X0019065Y0182300D01*
X0020494Y0182892D01*
X0021956Y0184354D01*
X0022748Y0186266D01*
X0022748Y0188334D01*
X0021956Y0190246D01*
X0020494Y0191708D01*
X0019065Y0192300D01*
X0020494Y0192892D01*
X0021956Y0194354D01*
X0022748Y0196266D01*
X0022748Y0198334D01*
X0021956Y0200246D01*
X0020494Y0201708D01*
X0019065Y0202300D01*
X0020494Y0202892D01*
X0021956Y0204354D01*
X0022748Y0206266D01*
X0022748Y0208334D01*
X0021956Y0210246D01*
X0020494Y0211708D01*
X0019065Y0212300D01*
X0020494Y0212892D01*
X0021956Y0214354D01*
X0022748Y0216266D01*
X0022748Y0218334D01*
X0021956Y0220246D01*
X0020494Y0221708D01*
X0018582Y0222500D01*
X0016514Y0222500D01*
X0014602Y0221708D01*
X0013140Y0220246D01*
X0012348Y0218334D01*
X0012348Y0216266D01*
X0013140Y0214354D01*
X0014602Y0212892D01*
X0016031Y0212300D01*
X0014602Y0211708D01*
X0013140Y0210246D01*
X0012348Y0208334D01*
X0012348Y0206266D01*
X0013140Y0204354D01*
X0014602Y0202892D01*
X0016031Y0202300D01*
X0014602Y0201708D01*
X0013140Y0200246D01*
X0012348Y0198334D01*
X0012348Y0196266D01*
X0013140Y0194354D01*
X0014602Y0192892D01*
X0016031Y0192300D01*
X0014602Y0191708D01*
X0013140Y0190246D01*
X0012348Y0188334D01*
X0012348Y0186266D01*
X0013140Y0184354D01*
X0014602Y0182892D01*
X0016031Y0182300D01*
X0014602Y0181708D01*
X0013140Y0180246D01*
X0012348Y0178334D01*
X0012348Y0176266D01*
X0013140Y0174354D01*
X0014602Y0172892D01*
X0016031Y0172300D01*
X0014602Y0171708D01*
X0013140Y0170246D01*
X0012348Y0168334D01*
X0012348Y0166266D01*
X0013140Y0164354D01*
X0014602Y0162892D01*
X0016031Y0162300D01*
X0014602Y0161708D01*
X0013140Y0160246D01*
X0012348Y0158334D01*
X0012348Y0156266D01*
X0013140Y0154354D01*
X0014602Y0152892D01*
X0016031Y0152300D01*
X0014602Y0151708D01*
X0013140Y0150246D01*
X0012348Y0148334D01*
X0012348Y0146266D01*
X0013140Y0144354D01*
X0014602Y0142892D01*
X0016031Y0142300D01*
X0014602Y0141708D01*
X0013140Y0140246D01*
X0012348Y0138334D01*
X0012348Y0136266D01*
X0013140Y0134354D01*
X0014602Y0132892D01*
X0016031Y0132300D01*
X0014602Y0131708D01*
X0013140Y0130246D01*
X0012348Y0128334D01*
X0012348Y0126266D01*
X0013140Y0124354D01*
X0014602Y0122892D01*
X0016031Y0122300D01*
X0014602Y0121708D01*
X0013140Y0120246D01*
X0012348Y0118334D01*
X0012348Y0116266D01*
X0013140Y0114354D01*
X0014602Y0112892D01*
X0016031Y0112300D01*
X0014602Y0111708D01*
X0013140Y0110246D01*
X0012348Y0108334D01*
X0012348Y0106266D01*
X0013140Y0104354D01*
X0014602Y0102892D01*
X0016031Y0102300D01*
X0014602Y0101708D01*
X0013140Y0100246D01*
X0012348Y0098334D01*
X0012348Y0096266D01*
X0009548Y0096266D01*
X0009548Y0095668D02*
X0012596Y0095668D01*
X0012348Y0096266D02*
X0013140Y0094354D01*
X0014602Y0092892D01*
X0016031Y0092300D01*
X0014602Y0091708D01*
X0013140Y0090246D01*
X0012348Y0088334D01*
X0012348Y0086266D01*
X0013140Y0084354D01*
X0014602Y0082892D01*
X0016350Y0082168D01*
X0015629Y0081934D01*
X0014927Y0081576D01*
X0014291Y0081114D01*
X0013734Y0080557D01*
X0013272Y0079921D01*
X0012914Y0079219D01*
X0012671Y0078471D01*
X0012548Y0077694D01*
X0012548Y0077600D01*
X0017248Y0077600D01*
X0017248Y0077000D01*
X0017848Y0077000D01*
X0017848Y0077600D01*
X0022548Y0077600D01*
X0022545Y0077712D02*
X0209208Y0077712D01*
X0208609Y0077114D02*
X0017848Y0077114D01*
X0017848Y0076515D02*
X0017248Y0076515D01*
X0017248Y0075917D02*
X0017848Y0075917D01*
X0017848Y0075318D02*
X0017248Y0075318D01*
X0017248Y0074720D02*
X0017848Y0074720D01*
X0017848Y0074121D02*
X0017248Y0074121D01*
X0017248Y0073523D02*
X0017848Y0073523D01*
X0017848Y0072924D02*
X0017248Y0072924D01*
X0015122Y0072924D02*
X0009548Y0072924D01*
X0009548Y0073523D02*
X0014254Y0073523D01*
X0013677Y0074121D02*
X0009548Y0074121D01*
X0009548Y0074720D02*
X0013251Y0074720D01*
X0012946Y0075318D02*
X0009548Y0075318D01*
X0009548Y0075917D02*
X0012740Y0075917D01*
X0012610Y0076515D02*
X0009548Y0076515D01*
X0009548Y0077114D02*
X0017248Y0077114D01*
X0012551Y0077712D02*
X0009548Y0077712D01*
X0009548Y0078311D02*
X0012646Y0078311D01*
X0012814Y0078909D02*
X0009548Y0078909D01*
X0009548Y0079508D02*
X0013061Y0079508D01*
X0013407Y0080106D02*
X0009548Y0080106D01*
X0009548Y0080705D02*
X0013882Y0080705D01*
X0014552Y0081303D02*
X0009548Y0081303D01*
X0009548Y0081902D02*
X0015567Y0081902D01*
X0015547Y0082501D02*
X0009548Y0082501D01*
X0009548Y0083099D02*
X0014395Y0083099D01*
X0013797Y0083698D02*
X0009548Y0083698D01*
X0009548Y0084296D02*
X0013198Y0084296D01*
X0012916Y0084895D02*
X0009548Y0084895D01*
X0009548Y0085493D02*
X0012668Y0085493D01*
X0012420Y0086092D02*
X0009548Y0086092D01*
X0009548Y0086690D02*
X0012348Y0086690D01*
X0012348Y0087289D02*
X0009548Y0087289D01*
X0009548Y0087887D02*
X0012348Y0087887D01*
X0012411Y0088486D02*
X0009548Y0088486D01*
X0009548Y0089084D02*
X0012659Y0089084D01*
X0012907Y0089683D02*
X0009548Y0089683D01*
X0009548Y0090281D02*
X0013175Y0090281D01*
X0013774Y0090880D02*
X0009548Y0090880D01*
X0009548Y0091478D02*
X0014372Y0091478D01*
X0015492Y0092077D02*
X0009548Y0092077D01*
X0009548Y0092675D02*
X0015125Y0092675D01*
X0014220Y0093274D02*
X0009548Y0093274D01*
X0009548Y0093872D02*
X0013622Y0093872D01*
X0013091Y0094471D02*
X0009548Y0094471D01*
X0009548Y0095069D02*
X0012844Y0095069D01*
X0012348Y0096865D02*
X0009548Y0096865D01*
X0009548Y0097463D02*
X0012348Y0097463D01*
X0012348Y0098062D02*
X0009548Y0098062D01*
X0009548Y0098660D02*
X0012483Y0098660D01*
X0012731Y0099259D02*
X0009548Y0099259D01*
X0009548Y0099857D02*
X0012979Y0099857D01*
X0013350Y0100456D02*
X0009548Y0100456D01*
X0009548Y0101054D02*
X0013948Y0101054D01*
X0014547Y0101653D02*
X0009548Y0101653D01*
X0009548Y0102251D02*
X0015914Y0102251D01*
X0014703Y0102850D02*
X0009548Y0102850D01*
X0009548Y0103448D02*
X0014046Y0103448D01*
X0013447Y0104047D02*
X0009548Y0104047D01*
X0009548Y0104645D02*
X0013019Y0104645D01*
X0012771Y0105244D02*
X0009548Y0105244D01*
X0009548Y0105842D02*
X0012523Y0105842D01*
X0012348Y0106441D02*
X0009548Y0106441D01*
X0009548Y0107039D02*
X0012348Y0107039D01*
X0012348Y0107638D02*
X0009548Y0107638D01*
X0009548Y0108237D02*
X0012348Y0108237D01*
X0012555Y0108835D02*
X0009548Y0108835D01*
X0009548Y0109434D02*
X0012803Y0109434D01*
X0013051Y0110032D02*
X0009548Y0110032D01*
X0009548Y0110631D02*
X0013525Y0110631D01*
X0014123Y0111229D02*
X0009548Y0111229D01*
X0009548Y0111828D02*
X0014890Y0111828D01*
X0015726Y0112426D02*
X0009548Y0112426D01*
X0009548Y0113025D02*
X0014470Y0113025D01*
X0013871Y0113623D02*
X0009548Y0113623D01*
X0009548Y0114222D02*
X0013272Y0114222D01*
X0012947Y0114820D02*
X0009548Y0114820D01*
X0009548Y0115419D02*
X0012699Y0115419D01*
X0012451Y0116017D02*
X0009548Y0116017D01*
X0009548Y0116616D02*
X0012348Y0116616D01*
X0012348Y0117214D02*
X0009548Y0117214D01*
X0009548Y0117813D02*
X0012348Y0117813D01*
X0012380Y0118411D02*
X0009548Y0118411D01*
X0009548Y0119010D02*
X0012628Y0119010D01*
X0012876Y0119608D02*
X0009548Y0119608D01*
X0009548Y0120207D02*
X0013124Y0120207D01*
X0013699Y0120805D02*
X0009548Y0120805D01*
X0009548Y0121404D02*
X0014298Y0121404D01*
X0015312Y0122002D02*
X0009548Y0122002D01*
X0009548Y0122601D02*
X0015305Y0122601D01*
X0014295Y0123199D02*
X0009548Y0123199D01*
X0009548Y0123798D02*
X0013696Y0123798D01*
X0013122Y0124396D02*
X0009548Y0124396D01*
X0009548Y0124995D02*
X0012874Y0124995D01*
X0012627Y0125593D02*
X0009548Y0125593D01*
X0009548Y0126192D02*
X0012379Y0126192D01*
X0012348Y0126790D02*
X0009548Y0126790D01*
X0009548Y0127389D02*
X0012348Y0127389D01*
X0012348Y0127987D02*
X0009548Y0127987D01*
X0009548Y0128586D02*
X0012452Y0128586D01*
X0012700Y0129184D02*
X0009548Y0129184D01*
X0009548Y0129783D02*
X0012948Y0129783D01*
X0013276Y0130381D02*
X0009548Y0130381D01*
X0009548Y0130980D02*
X0013874Y0130980D01*
X0014473Y0131578D02*
X0009548Y0131578D01*
X0009548Y0132177D02*
X0015734Y0132177D01*
X0014883Y0132775D02*
X0009548Y0132775D01*
X0009548Y0133374D02*
X0014120Y0133374D01*
X0013522Y0133972D02*
X0009548Y0133972D01*
X0009548Y0134571D02*
X0013050Y0134571D01*
X0012802Y0135170D02*
X0009548Y0135170D01*
X0009548Y0135768D02*
X0012554Y0135768D01*
X0012348Y0136367D02*
X0009548Y0136367D01*
X0009548Y0136965D02*
X0012348Y0136965D01*
X0012348Y0137564D02*
X0009548Y0137564D01*
X0009548Y0138162D02*
X0012348Y0138162D01*
X0012525Y0138761D02*
X0009548Y0138761D01*
X0009548Y0139359D02*
X0012773Y0139359D01*
X0013020Y0139958D02*
X0009548Y0139958D01*
X0009548Y0140556D02*
X0013450Y0140556D01*
X0014049Y0141155D02*
X0009548Y0141155D01*
X0009548Y0141753D02*
X0014711Y0141753D01*
X0014544Y0142950D02*
X0009548Y0142950D01*
X0009548Y0142352D02*
X0015906Y0142352D01*
X0013945Y0143549D02*
X0009548Y0143549D01*
X0009548Y0144147D02*
X0013347Y0144147D01*
X0012978Y0144746D02*
X0009548Y0144746D01*
X0009548Y0145344D02*
X0012730Y0145344D01*
X0012482Y0145943D02*
X0009548Y0145943D01*
X0009548Y0146541D02*
X0012348Y0146541D01*
X0012348Y0147140D02*
X0009548Y0147140D01*
X0009548Y0147738D02*
X0012348Y0147738D01*
X0012349Y0148337D02*
X0009548Y0148337D01*
X0009548Y0148935D02*
X0012597Y0148935D01*
X0012845Y0149534D02*
X0009548Y0149534D01*
X0009548Y0150132D02*
X0013093Y0150132D01*
X0013625Y0150731D02*
X0009548Y0150731D01*
X0009548Y0151329D02*
X0014223Y0151329D01*
X0015132Y0151928D02*
X0009548Y0151928D01*
X0009548Y0152526D02*
X0015484Y0152526D01*
X0014369Y0153125D02*
X0009548Y0153125D01*
X0009548Y0153723D02*
X0013771Y0153723D01*
X0013172Y0154322D02*
X0009548Y0154322D01*
X0009548Y0154920D02*
X0012905Y0154920D01*
X0012657Y0155519D02*
X0009548Y0155519D01*
X0009548Y0156117D02*
X0012409Y0156117D01*
X0012348Y0156716D02*
X0009548Y0156716D01*
X0009548Y0157314D02*
X0012348Y0157314D01*
X0012348Y0157913D02*
X0009548Y0157913D01*
X0009548Y0158511D02*
X0012421Y0158511D01*
X0012669Y0159110D02*
X0009548Y0159110D01*
X0009548Y0159708D02*
X0012917Y0159708D01*
X0013201Y0160307D02*
X0009548Y0160307D01*
X0009548Y0160905D02*
X0013800Y0160905D01*
X0014398Y0161504D02*
X0009548Y0161504D01*
X0009548Y0162103D02*
X0015554Y0162103D01*
X0015063Y0162701D02*
X0009548Y0162701D01*
X0009548Y0163300D02*
X0014195Y0163300D01*
X0013596Y0163898D02*
X0009548Y0163898D01*
X0009548Y0164497D02*
X0013081Y0164497D01*
X0012833Y0165095D02*
X0009548Y0165095D01*
X0009548Y0165694D02*
X0012585Y0165694D01*
X0012348Y0166292D02*
X0009548Y0166292D01*
X0009548Y0166891D02*
X0012348Y0166891D01*
X0012348Y0167489D02*
X0009548Y0167489D01*
X0009548Y0168088D02*
X0012348Y0168088D01*
X0012494Y0168686D02*
X0009548Y0168686D01*
X0009548Y0169285D02*
X0012742Y0169285D01*
X0012990Y0169883D02*
X0009548Y0169883D01*
X0009548Y0170482D02*
X0013376Y0170482D01*
X0013974Y0171080D02*
X0009548Y0171080D01*
X0009548Y0171679D02*
X0014573Y0171679D01*
X0014641Y0172876D02*
X0009548Y0172876D01*
X0009548Y0173474D02*
X0014020Y0173474D01*
X0013421Y0174073D02*
X0009548Y0174073D01*
X0009548Y0174671D02*
X0013008Y0174671D01*
X0012761Y0175270D02*
X0009548Y0175270D01*
X0009548Y0175868D02*
X0012513Y0175868D01*
X0012348Y0176467D02*
X0009548Y0176467D01*
X0009548Y0177065D02*
X0012348Y0177065D01*
X0012348Y0177664D02*
X0009548Y0177664D01*
X0009548Y0178262D02*
X0012348Y0178262D01*
X0012566Y0178861D02*
X0009548Y0178861D01*
X0009548Y0179459D02*
X0012814Y0179459D01*
X0013062Y0180058D02*
X0009548Y0180058D01*
X0009548Y0180656D02*
X0013550Y0180656D01*
X0014149Y0181255D02*
X0009548Y0181255D01*
X0009548Y0181853D02*
X0014953Y0181853D01*
X0015664Y0182452D02*
X0009548Y0182452D01*
X0009548Y0183050D02*
X0014444Y0183050D01*
X0013845Y0183649D02*
X0009548Y0183649D01*
X0009548Y0184247D02*
X0013247Y0184247D01*
X0012936Y0184846D02*
X0009548Y0184846D01*
X0009548Y0185444D02*
X0012688Y0185444D01*
X0012440Y0186043D02*
X0009548Y0186043D01*
X0009548Y0186641D02*
X0012348Y0186641D01*
X0012348Y0187240D02*
X0009548Y0187240D01*
X0009548Y0187839D02*
X0012348Y0187839D01*
X0012391Y0188437D02*
X0009548Y0188437D01*
X0009548Y0189036D02*
X0012638Y0189036D01*
X0012886Y0189634D02*
X0009548Y0189634D01*
X0009548Y0190233D02*
X0013134Y0190233D01*
X0013725Y0190831D02*
X0009548Y0190831D01*
X0009548Y0191430D02*
X0014324Y0191430D01*
X0015374Y0192028D02*
X0009548Y0192028D01*
X0009548Y0192627D02*
X0015242Y0192627D01*
X0014269Y0193225D02*
X0009548Y0193225D01*
X0009548Y0193824D02*
X0013670Y0193824D01*
X0013112Y0194422D02*
X0009548Y0194422D01*
X0009548Y0195021D02*
X0012864Y0195021D01*
X0012616Y0195619D02*
X0009548Y0195619D01*
X0009548Y0196218D02*
X0012368Y0196218D01*
X0012348Y0196816D02*
X0009548Y0196816D01*
X0009548Y0197415D02*
X0012348Y0197415D01*
X0012348Y0198013D02*
X0009548Y0198013D01*
X0009548Y0198612D02*
X0012463Y0198612D01*
X0012711Y0199210D02*
X0009548Y0199210D01*
X0009548Y0199809D02*
X0012959Y0199809D01*
X0013301Y0200407D02*
X0009548Y0200407D01*
X0009548Y0201006D02*
X0013900Y0201006D01*
X0014498Y0201604D02*
X0009548Y0201604D01*
X0009548Y0202203D02*
X0015796Y0202203D01*
X0014821Y0202801D02*
X0009548Y0202801D01*
X0009548Y0203400D02*
X0014094Y0203400D01*
X0013496Y0203998D02*
X0009548Y0203998D01*
X0009548Y0204597D02*
X0013039Y0204597D01*
X0012791Y0205195D02*
X0009548Y0205195D01*
X0009548Y0205794D02*
X0012543Y0205794D01*
X0012348Y0206392D02*
X0009548Y0206392D01*
X0009548Y0206991D02*
X0012348Y0206991D01*
X0012348Y0207589D02*
X0009548Y0207589D01*
X0009548Y0208188D02*
X0012348Y0208188D01*
X0012535Y0208786D02*
X0009548Y0208786D01*
X0009548Y0209385D02*
X0012783Y0209385D01*
X0013031Y0209983D02*
X0009548Y0209983D01*
X0009548Y0210582D02*
X0013476Y0210582D01*
X0014075Y0211180D02*
X0009548Y0211180D01*
X0009548Y0211779D02*
X0014773Y0211779D01*
X0014518Y0212976D02*
X0009548Y0212976D01*
X0009548Y0213574D02*
X0013920Y0213574D01*
X0013321Y0214173D02*
X0009548Y0214173D01*
X0009548Y0214772D02*
X0012967Y0214772D01*
X0012719Y0215370D02*
X0009548Y0215370D01*
X0009548Y0215969D02*
X0012471Y0215969D01*
X0012348Y0216567D02*
X0009548Y0216567D01*
X0009548Y0217166D02*
X0012348Y0217166D01*
X0012348Y0217764D02*
X0009548Y0217764D01*
X0009548Y0218363D02*
X0012360Y0218363D01*
X0012608Y0218961D02*
X0009548Y0218961D01*
X0009548Y0219560D02*
X0012856Y0219560D01*
X0013103Y0220158D02*
X0009548Y0220158D01*
X0009548Y0220757D02*
X0013651Y0220757D01*
X0014249Y0221355D02*
X0009548Y0221355D01*
X0009548Y0221954D02*
X0015195Y0221954D01*
X0019901Y0221954D02*
X0025210Y0221954D01*
X0025210Y0222552D02*
X0009548Y0222552D01*
X0009548Y0223151D02*
X0025210Y0223151D01*
X0025210Y0223749D02*
X0009548Y0223749D01*
X0009548Y0224348D02*
X0025210Y0224348D01*
X0025210Y0224946D02*
X0009548Y0224946D01*
X0009548Y0225545D02*
X0025210Y0225545D01*
X0025210Y0226143D02*
X0009548Y0226143D01*
X0009548Y0226742D02*
X0025210Y0226742D01*
X0025210Y0227340D02*
X0009548Y0227340D01*
X0009548Y0227939D02*
X0025210Y0227939D01*
X0025210Y0228537D02*
X0009548Y0228537D01*
X0009548Y0229136D02*
X0025210Y0229136D01*
X0025210Y0229734D02*
X0009548Y0229734D01*
X0009548Y0230333D02*
X0025210Y0230333D01*
X0025210Y0230931D02*
X0009548Y0230931D01*
X0009548Y0231530D02*
X0025210Y0231530D01*
X0025210Y0232128D02*
X0009548Y0232128D01*
X0009548Y0232727D02*
X0025210Y0232727D01*
X0025210Y0233325D02*
X0009548Y0233325D01*
X0009548Y0233924D02*
X0025210Y0233924D01*
X0025210Y0234522D02*
X0009548Y0234522D01*
X0009548Y0235121D02*
X0025210Y0235121D01*
X0025210Y0235719D02*
X0009548Y0235719D01*
X0009548Y0236318D02*
X0025210Y0236318D01*
X0025210Y0236916D02*
X0009548Y0236916D01*
X0009548Y0237515D02*
X0025210Y0237515D01*
X0025210Y0238113D02*
X0009548Y0238113D01*
X0009548Y0238712D02*
X0025210Y0238712D01*
X0025210Y0239310D02*
X0009548Y0239310D01*
X0009548Y0239909D02*
X0025210Y0239909D01*
X0025210Y0240508D02*
X0009548Y0240508D01*
X0009548Y0241106D02*
X0025210Y0241106D01*
X0025210Y0241705D02*
X0009548Y0241705D01*
X0009548Y0242303D02*
X0021023Y0242303D01*
X0021514Y0242100D02*
X0023582Y0242100D01*
X0025210Y0242774D01*
X0025210Y0211386D01*
X0087595Y0149000D01*
X0089904Y0149000D01*
X0089968Y0148936D01*
X0090993Y0148511D01*
X0092103Y0148511D01*
X0093128Y0148936D01*
X0093912Y0149720D01*
X0094337Y0150745D01*
X0094337Y0151855D01*
X0093912Y0152880D01*
X0093128Y0153664D01*
X0092103Y0154089D01*
X0090993Y0154089D01*
X0089968Y0153664D01*
X0089904Y0153600D01*
X0089501Y0153600D01*
X0029810Y0213291D01*
X0029810Y0244096D01*
X0029948Y0244235D01*
X0029948Y0270365D01*
X0029810Y0270504D01*
X0029810Y0295752D01*
X0029874Y0295816D01*
X0030299Y0296841D01*
X0030299Y0297951D01*
X0029874Y0298976D01*
X0029089Y0299761D01*
X0028064Y0300185D01*
X0026955Y0300185D01*
X0025930Y0299761D01*
X0025145Y0298976D01*
X0024721Y0297951D01*
X0024721Y0296841D01*
X0025145Y0295816D01*
X0025210Y0295752D01*
X0025210Y0295437D01*
X0024246Y0296400D01*
X0020850Y0296400D01*
X0018448Y0293998D01*
X0018448Y0290602D01*
X0020850Y0288200D01*
X0024246Y0288200D01*
X0025210Y0289163D01*
X0025210Y0285154D01*
X0024163Y0286200D01*
X0022848Y0286200D01*
X0022848Y0282600D01*
X0022248Y0282600D01*
X0022248Y0282000D01*
X0018648Y0282000D01*
X0018648Y0280685D01*
X0020933Y0278400D01*
X0022248Y0278400D01*
X0022248Y0282000D01*
X0022848Y0282000D01*
X0022848Y0278400D01*
X0024163Y0278400D01*
X0025210Y0279446D01*
X0025210Y0271547D01*
X0025169Y0271576D01*
X0024467Y0271934D01*
X0023719Y0272177D01*
X0022942Y0272300D01*
X0022848Y0272300D01*
X0022848Y0267600D01*
X0022248Y0267600D01*
X0022248Y0267000D01*
X0017548Y0267000D01*
X0017548Y0266906D01*
X0017671Y0266129D01*
X0017914Y0265381D01*
X0018272Y0264679D01*
X0018734Y0264043D01*
X0019291Y0263486D01*
X0019927Y0263024D01*
X0020629Y0262666D01*
X0021377Y0262423D01*
X0022155Y0262300D01*
X0022248Y0262300D01*
X0022248Y0267000D01*
X0022848Y0267000D01*
X0022848Y0262300D01*
X0022942Y0262300D01*
X0023719Y0262423D01*
X0024467Y0262666D01*
X0025169Y0263024D01*
X0025348Y0263154D01*
X0025348Y0251769D01*
X0023582Y0252500D01*
X0021514Y0252500D01*
X0019602Y0251708D01*
X0018140Y0250246D01*
X0017348Y0248334D01*
X0017348Y0246266D01*
X0018140Y0244354D01*
X0019602Y0242892D01*
X0021514Y0242100D01*
X0019593Y0242902D02*
X0009548Y0242902D01*
X0009548Y0243500D02*
X0018994Y0243500D01*
X0018396Y0244099D02*
X0009548Y0244099D01*
X0009548Y0244697D02*
X0017998Y0244697D01*
X0017750Y0245296D02*
X0009548Y0245296D01*
X0009548Y0245894D02*
X0017502Y0245894D01*
X0017348Y0246493D02*
X0009548Y0246493D01*
X0009548Y0247091D02*
X0017348Y0247091D01*
X0017348Y0247690D02*
X0009548Y0247690D01*
X0009548Y0248288D02*
X0017348Y0248288D01*
X0017577Y0248887D02*
X0009548Y0248887D01*
X0009548Y0249485D02*
X0017825Y0249485D01*
X0018073Y0250084D02*
X0009548Y0250084D01*
X0009548Y0250682D02*
X0018576Y0250682D01*
X0019175Y0251281D02*
X0009548Y0251281D01*
X0009548Y0251879D02*
X0020015Y0251879D01*
X0021460Y0252478D02*
X0009548Y0252478D01*
X0009548Y0253076D02*
X0025348Y0253076D01*
X0025348Y0252478D02*
X0023636Y0252478D01*
X0025081Y0251879D02*
X0025348Y0251879D01*
X0025348Y0253675D02*
X0009548Y0253675D01*
X0009548Y0254273D02*
X0025348Y0254273D01*
X0025348Y0254872D02*
X0009548Y0254872D01*
X0009548Y0255470D02*
X0025348Y0255470D01*
X0025348Y0256069D02*
X0009548Y0256069D01*
X0009548Y0256667D02*
X0025348Y0256667D01*
X0025348Y0257266D02*
X0009548Y0257266D01*
X0009548Y0257864D02*
X0025348Y0257864D01*
X0025348Y0258463D02*
X0009548Y0258463D01*
X0009548Y0259061D02*
X0025348Y0259061D01*
X0025348Y0259660D02*
X0009548Y0259660D01*
X0009548Y0260258D02*
X0025348Y0260258D01*
X0025348Y0260857D02*
X0009548Y0260857D01*
X0009548Y0261455D02*
X0025348Y0261455D01*
X0025348Y0262054D02*
X0009548Y0262054D01*
X0009548Y0262652D02*
X0020671Y0262652D01*
X0019615Y0263251D02*
X0009548Y0263251D01*
X0009548Y0263849D02*
X0018928Y0263849D01*
X0018440Y0264448D02*
X0009548Y0264448D01*
X0009548Y0265046D02*
X0018085Y0265046D01*
X0017828Y0265645D02*
X0009548Y0265645D01*
X0009548Y0266243D02*
X0017653Y0266243D01*
X0017558Y0266842D02*
X0009548Y0266842D01*
X0009548Y0267441D02*
X0022248Y0267441D01*
X0022248Y0267600D02*
X0017548Y0267600D01*
X0017548Y0267694D01*
X0017671Y0268471D01*
X0017914Y0269219D01*
X0018272Y0269921D01*
X0018734Y0270557D01*
X0019291Y0271114D01*
X0019927Y0271576D01*
X0020629Y0271934D01*
X0021377Y0272177D01*
X0022155Y0272300D01*
X0022248Y0272300D01*
X0022248Y0267600D01*
X0022248Y0268039D02*
X0022848Y0268039D01*
X0022848Y0268638D02*
X0022248Y0268638D01*
X0022248Y0269236D02*
X0022848Y0269236D01*
X0022848Y0269835D02*
X0022248Y0269835D01*
X0022248Y0270433D02*
X0022848Y0270433D01*
X0022848Y0271032D02*
X0022248Y0271032D01*
X0022248Y0271630D02*
X0022848Y0271630D01*
X0022848Y0272229D02*
X0022248Y0272229D01*
X0021704Y0272229D02*
X0009548Y0272229D01*
X0009548Y0272827D02*
X0025210Y0272827D01*
X0025210Y0272229D02*
X0023392Y0272229D01*
X0025063Y0271630D02*
X0025210Y0271630D01*
X0025210Y0273426D02*
X0009548Y0273426D01*
X0009548Y0274024D02*
X0025210Y0274024D01*
X0025210Y0274623D02*
X0009548Y0274623D01*
X0009548Y0275221D02*
X0025210Y0275221D01*
X0025210Y0275820D02*
X0009548Y0275820D01*
X0009548Y0276418D02*
X0025210Y0276418D01*
X0025210Y0277017D02*
X0009548Y0277017D01*
X0009548Y0277615D02*
X0025210Y0277615D01*
X0025210Y0278214D02*
X0009548Y0278214D01*
X0009548Y0278812D02*
X0020520Y0278812D01*
X0019922Y0279411D02*
X0009548Y0279411D01*
X0009548Y0280009D02*
X0019323Y0280009D01*
X0018725Y0280608D02*
X0009548Y0280608D01*
X0009548Y0281206D02*
X0018648Y0281206D01*
X0018648Y0281805D02*
X0009548Y0281805D01*
X0009548Y0282403D02*
X0022248Y0282403D01*
X0022248Y0282600D02*
X0018648Y0282600D01*
X0018648Y0283915D01*
X0020933Y0286200D01*
X0022248Y0286200D01*
X0022248Y0282600D01*
X0022248Y0283002D02*
X0022848Y0283002D01*
X0022848Y0283600D02*
X0022248Y0283600D01*
X0022248Y0284199D02*
X0022848Y0284199D01*
X0022848Y0284797D02*
X0022248Y0284797D01*
X0022248Y0285396D02*
X0022848Y0285396D01*
X0022848Y0285994D02*
X0022248Y0285994D01*
X0020727Y0285994D02*
X0019148Y0285994D01*
X0019148Y0285602D02*
X0019148Y0288998D01*
X0016746Y0291400D01*
X0013350Y0291400D01*
X0010948Y0288998D01*
X0010948Y0285602D01*
X0013350Y0283200D01*
X0016746Y0283200D01*
X0019148Y0285602D01*
X0018942Y0285396D02*
X0020128Y0285396D01*
X0019530Y0284797D02*
X0018344Y0284797D01*
X0018931Y0284199D02*
X0017745Y0284199D01*
X0017147Y0283600D02*
X0018648Y0283600D01*
X0018648Y0283002D02*
X0009548Y0283002D01*
X0009548Y0283600D02*
X0012949Y0283600D01*
X0012351Y0284199D02*
X0009548Y0284199D01*
X0009548Y0284797D02*
X0011752Y0284797D01*
X0011154Y0285396D02*
X0009548Y0285396D01*
X0009548Y0285994D02*
X0010948Y0285994D01*
X0010948Y0286593D02*
X0009548Y0286593D01*
X0009548Y0287191D02*
X0010948Y0287191D01*
X0010948Y0287790D02*
X0009548Y0287790D01*
X0009548Y0288388D02*
X0010948Y0288388D01*
X0010948Y0288987D02*
X0009548Y0288987D01*
X0009548Y0289585D02*
X0011535Y0289585D01*
X0012134Y0290184D02*
X0009548Y0290184D01*
X0009548Y0290782D02*
X0012732Y0290782D01*
X0013331Y0291381D02*
X0009548Y0291381D01*
X0009548Y0291979D02*
X0018448Y0291979D01*
X0018448Y0291381D02*
X0016765Y0291381D01*
X0017364Y0290782D02*
X0018448Y0290782D01*
X0018866Y0290184D02*
X0017962Y0290184D01*
X0018561Y0289585D02*
X0019464Y0289585D01*
X0019148Y0288987D02*
X0020063Y0288987D01*
X0020661Y0288388D02*
X0019148Y0288388D01*
X0019148Y0287790D02*
X0025210Y0287790D01*
X0025210Y0288388D02*
X0024435Y0288388D01*
X0025033Y0288987D02*
X0025210Y0288987D01*
X0025210Y0287191D02*
X0019148Y0287191D01*
X0019148Y0286593D02*
X0025210Y0286593D01*
X0025210Y0285994D02*
X0024369Y0285994D01*
X0024968Y0285396D02*
X0025210Y0285396D01*
X0022848Y0281805D02*
X0022248Y0281805D01*
X0022248Y0281206D02*
X0022848Y0281206D01*
X0022848Y0280608D02*
X0022248Y0280608D01*
X0022248Y0280009D02*
X0022848Y0280009D01*
X0022848Y0279411D02*
X0022248Y0279411D01*
X0022248Y0278812D02*
X0022848Y0278812D01*
X0024576Y0278812D02*
X0025210Y0278812D01*
X0025210Y0279411D02*
X0025174Y0279411D01*
X0029810Y0279411D02*
X0030647Y0279411D01*
X0030647Y0280009D02*
X0029810Y0280009D01*
X0029810Y0280608D02*
X0030647Y0280608D01*
X0030647Y0281206D02*
X0029810Y0281206D01*
X0029810Y0281805D02*
X0030647Y0281805D01*
X0030647Y0282403D02*
X0029810Y0282403D01*
X0029810Y0283002D02*
X0030647Y0283002D01*
X0030647Y0283600D02*
X0029810Y0283600D01*
X0029810Y0284199D02*
X0030647Y0284199D01*
X0030647Y0284797D02*
X0029810Y0284797D01*
X0029810Y0285396D02*
X0030647Y0285396D01*
X0030647Y0285994D02*
X0029810Y0285994D01*
X0029810Y0286593D02*
X0030647Y0286593D01*
X0030647Y0287191D02*
X0029810Y0287191D01*
X0029810Y0287790D02*
X0030647Y0287790D01*
X0030647Y0288388D02*
X0029810Y0288388D01*
X0029810Y0288987D02*
X0030647Y0288987D01*
X0030647Y0289585D02*
X0029810Y0289585D01*
X0029810Y0290184D02*
X0030647Y0290184D01*
X0030647Y0290782D02*
X0029810Y0290782D01*
X0029810Y0291381D02*
X0030647Y0291381D01*
X0030647Y0291979D02*
X0029810Y0291979D01*
X0029810Y0292578D02*
X0030647Y0292578D01*
X0030647Y0293177D02*
X0029810Y0293177D01*
X0029810Y0293775D02*
X0030647Y0293775D01*
X0030647Y0294374D02*
X0029810Y0294374D01*
X0029810Y0294972D02*
X0030647Y0294972D01*
X0030647Y0295571D02*
X0029810Y0295571D01*
X0030020Y0296169D02*
X0030647Y0296169D01*
X0030647Y0296768D02*
X0030268Y0296768D01*
X0030299Y0297366D02*
X0030647Y0297366D01*
X0030647Y0297965D02*
X0030293Y0297965D01*
X0030045Y0298563D02*
X0030647Y0298563D01*
X0030647Y0299162D02*
X0029688Y0299162D01*
X0029090Y0299760D02*
X0030647Y0299760D01*
X0030647Y0300359D02*
X0009548Y0300359D01*
X0009548Y0300957D02*
X0030647Y0300957D01*
X0030647Y0301556D02*
X0009548Y0301556D01*
X0009548Y0302154D02*
X0030647Y0302154D01*
X0030647Y0302753D02*
X0009548Y0302753D01*
X0009548Y0303351D02*
X0030647Y0303351D01*
X0030647Y0303950D02*
X0009548Y0303950D01*
X0009548Y0304548D02*
X0030647Y0304548D01*
X0030647Y0305147D02*
X0009548Y0305147D01*
X0009548Y0305745D02*
X0030647Y0305745D01*
X0030647Y0306344D02*
X0009548Y0306344D01*
X0009548Y0306942D02*
X0030647Y0306942D01*
X0030647Y0307541D02*
X0009548Y0307541D01*
X0009548Y0308139D02*
X0030647Y0308139D01*
X0030647Y0308738D02*
X0009548Y0308738D01*
X0009548Y0309336D02*
X0030647Y0309336D01*
X0030647Y0309935D02*
X0009548Y0309935D01*
X0009548Y0310533D02*
X0020618Y0310533D01*
X0021134Y0310320D02*
X0023962Y0310320D01*
X0026576Y0311402D01*
X0028576Y0313402D01*
X0029658Y0316016D01*
X0029658Y0318844D01*
X0028576Y0321458D01*
X0026576Y0323458D01*
X0023962Y0324540D01*
X0021134Y0324540D01*
X0018520Y0323458D01*
X0016520Y0321458D01*
X0015438Y0318844D01*
X0015438Y0316016D01*
X0016520Y0313402D01*
X0018520Y0311402D01*
X0021134Y0310320D01*
X0019173Y0311132D02*
X0009548Y0311132D01*
X0009548Y0311730D02*
X0018192Y0311730D01*
X0017594Y0312329D02*
X0009548Y0312329D01*
X0009548Y0312927D02*
X0016995Y0312927D01*
X0016469Y0313526D02*
X0009548Y0313526D01*
X0009548Y0314124D02*
X0016221Y0314124D01*
X0015973Y0314723D02*
X0009548Y0314723D01*
X0009548Y0315321D02*
X0015725Y0315321D01*
X0015477Y0315920D02*
X0009548Y0315920D01*
X0009548Y0316518D02*
X0015438Y0316518D01*
X0015438Y0317117D02*
X0009548Y0317117D01*
X0009548Y0317715D02*
X0015438Y0317715D01*
X0015438Y0318314D02*
X0009548Y0318314D01*
X0009548Y0318912D02*
X0015466Y0318912D01*
X0015714Y0319511D02*
X0009548Y0319511D01*
X0009548Y0320110D02*
X0015962Y0320110D01*
X0016210Y0320708D02*
X0009548Y0320708D01*
X0009548Y0321307D02*
X0016458Y0321307D01*
X0016968Y0321905D02*
X0009548Y0321905D01*
X0009548Y0322504D02*
X0017566Y0322504D01*
X0018165Y0323102D02*
X0009548Y0323102D01*
X0009548Y0323701D02*
X0019107Y0323701D01*
X0020552Y0324299D02*
X0009548Y0324299D01*
X0009548Y0324898D02*
X0030647Y0324898D01*
X0030647Y0325496D02*
X0009548Y0325496D01*
X0009548Y0326095D02*
X0030647Y0326095D01*
X0030647Y0326693D02*
X0009548Y0326693D01*
X0009548Y0327292D02*
X0030647Y0327292D01*
X0030647Y0327890D02*
X0009548Y0327890D01*
X0009548Y0328489D02*
X0030647Y0328489D01*
X0030647Y0329087D02*
X0009548Y0329087D01*
X0009548Y0329686D02*
X0030647Y0329686D01*
X0030647Y0330284D02*
X0009548Y0330284D01*
X0009548Y0330883D02*
X0030647Y0330883D01*
X0030647Y0330947D02*
X0030647Y0220948D01*
X0031995Y0219601D01*
X0104759Y0146836D01*
X0104759Y0146745D01*
X0105184Y0145720D01*
X0105968Y0144936D01*
X0106993Y0144511D01*
X0108103Y0144511D01*
X0109128Y0144936D01*
X0109912Y0145720D01*
X0110337Y0146745D01*
X0110337Y0147855D01*
X0109912Y0148880D01*
X0109128Y0149664D01*
X0108103Y0150089D01*
X0108012Y0150089D01*
X0035247Y0222853D01*
X0035247Y0325543D01*
X0035594Y0325196D01*
X0037092Y0324576D01*
X0038713Y0324576D01*
X0038849Y0324632D01*
X0038901Y0324371D01*
X0039193Y0323665D01*
X0039617Y0323031D01*
X0040157Y0322491D01*
X0040791Y0322067D01*
X0041497Y0321775D01*
X0042245Y0321626D01*
X0042327Y0321626D01*
X0042327Y0325201D01*
X0042927Y0325201D01*
X0042927Y0325801D01*
X0046502Y0325801D01*
X0046502Y0325882D01*
X0046353Y0326631D01*
X0046061Y0327336D01*
X0045637Y0327971D01*
X0045098Y0328509D01*
X0046081Y0329492D01*
X0046702Y0330989D01*
X0046702Y0332611D01*
X0046081Y0334108D01*
X0045240Y0334950D01*
X0046081Y0335791D01*
X0046702Y0337289D01*
X0046702Y0338201D01*
X0049848Y0341347D01*
X0049848Y0348253D01*
X0048501Y0349600D01*
X0038122Y0349600D01*
X0029958Y0357764D01*
X0029958Y0357855D01*
X0029534Y0358880D01*
X0028749Y0359664D01*
X0027724Y0360089D01*
X0026615Y0360089D01*
X0025589Y0359664D01*
X0024805Y0358880D01*
X0024380Y0357855D01*
X0024380Y0356745D01*
X0024805Y0355720D01*
X0025589Y0354936D01*
X0026615Y0354511D01*
X0026706Y0354511D01*
X0034869Y0346347D01*
X0036217Y0345000D01*
X0045248Y0345000D01*
X0045248Y0343253D01*
X0043955Y0341960D01*
X0043437Y0342174D01*
X0041816Y0342174D01*
X0040319Y0341554D01*
X0039172Y0340407D01*
X0038599Y0339024D01*
X0037092Y0339024D01*
X0035594Y0338404D01*
X0034448Y0337258D01*
X0033828Y0335760D01*
X0033828Y0334139D01*
X0033831Y0334131D01*
X0031995Y0332294D01*
X0030647Y0330947D01*
X0031181Y0331481D02*
X0009548Y0331481D01*
X0009548Y0332080D02*
X0031780Y0332080D01*
X0032378Y0332678D02*
X0009548Y0332678D01*
X0009548Y0333277D02*
X0032977Y0333277D01*
X0033575Y0333875D02*
X0009548Y0333875D01*
X0009548Y0334474D02*
X0033828Y0334474D01*
X0033828Y0335072D02*
X0009548Y0335072D01*
X0009548Y0335671D02*
X0033828Y0335671D01*
X0034038Y0336269D02*
X0009548Y0336269D01*
X0009548Y0336868D02*
X0034286Y0336868D01*
X0034656Y0337466D02*
X0009548Y0337466D01*
X0009548Y0338065D02*
X0035255Y0338065D01*
X0036220Y0338663D02*
X0009548Y0338663D01*
X0009548Y0339262D02*
X0020646Y0339262D01*
X0021134Y0339060D02*
X0023962Y0339060D01*
X0026576Y0340142D01*
X0028576Y0342142D01*
X0029658Y0344756D01*
X0029658Y0347584D01*
X0028576Y0350198D01*
X0026576Y0352198D01*
X0023962Y0353280D01*
X0021134Y0353280D01*
X0020215Y0352900D01*
X0021336Y0354021D01*
X0022017Y0355663D01*
X0022017Y0357441D01*
X0021336Y0359083D01*
X0020079Y0360340D01*
X0019206Y0360702D01*
X0019856Y0360972D01*
X0021002Y0362118D01*
X0021623Y0363615D01*
X0021623Y0365237D01*
X0021002Y0366734D01*
X0019856Y0367880D01*
X0018691Y0368363D01*
X0019856Y0368846D01*
X0021002Y0369992D01*
X0021623Y0371489D01*
X0021623Y0373111D01*
X0021002Y0374608D01*
X0019856Y0375754D01*
X0018691Y0376237D01*
X0019856Y0376720D01*
X0021002Y0377866D01*
X0021623Y0379363D01*
X0021623Y0380985D01*
X0021002Y0382482D01*
X0019856Y0383628D01*
X0019206Y0383898D01*
X0020079Y0384260D01*
X0021336Y0385517D01*
X0022017Y0387159D01*
X0022017Y0388937D01*
X0021336Y0390579D01*
X0020079Y0391836D01*
X0018960Y0392300D01*
X0399749Y0392300D01*
X0399749Y0003800D01*
X0009548Y0003800D01*
X0009548Y0392300D01*
X0016136Y0392300D01*
X0015017Y0391836D01*
X0013760Y0390579D01*
X0013080Y0388937D01*
X0013080Y0387159D01*
X0013760Y0385517D01*
X0015017Y0384260D01*
X0015890Y0383898D01*
X0015240Y0383628D01*
X0014094Y0382482D01*
X0013473Y0380985D01*
X0013473Y0379363D01*
X0014094Y0377866D01*
X0015240Y0376720D01*
X0016405Y0376237D01*
X0015240Y0375754D01*
X0014094Y0374608D01*
X0013473Y0373111D01*
X0013473Y0371489D01*
X0014094Y0369992D01*
X0015240Y0368846D01*
X0016405Y0368363D01*
X0015240Y0367880D01*
X0014094Y0366734D01*
X0013473Y0365237D01*
X0013473Y0363615D01*
X0014094Y0362118D01*
X0015240Y0360972D01*
X0015890Y0360702D01*
X0015017Y0360340D01*
X0013760Y0359083D01*
X0013080Y0357441D01*
X0013080Y0355663D01*
X0013760Y0354021D01*
X0015017Y0352764D01*
X0016659Y0352083D01*
X0018406Y0352083D01*
X0016520Y0350198D01*
X0015438Y0347584D01*
X0015438Y0344756D01*
X0016520Y0342142D01*
X0018520Y0340142D01*
X0021134Y0339060D01*
X0019201Y0339860D02*
X0009548Y0339860D01*
X0009548Y0340459D02*
X0018204Y0340459D01*
X0017605Y0341057D02*
X0009548Y0341057D01*
X0009548Y0341656D02*
X0017007Y0341656D01*
X0016474Y0342254D02*
X0009548Y0342254D01*
X0009548Y0342853D02*
X0016226Y0342853D01*
X0015978Y0343451D02*
X0009548Y0343451D01*
X0009548Y0344050D02*
X0015730Y0344050D01*
X0015482Y0344648D02*
X0009548Y0344648D01*
X0009548Y0345247D02*
X0015438Y0345247D01*
X0015438Y0345845D02*
X0009548Y0345845D01*
X0009548Y0346444D02*
X0015438Y0346444D01*
X0015438Y0347043D02*
X0009548Y0347043D01*
X0009548Y0347641D02*
X0015461Y0347641D01*
X0015709Y0348240D02*
X0009548Y0348240D01*
X0009548Y0348838D02*
X0015957Y0348838D01*
X0016205Y0349437D02*
X0009548Y0349437D01*
X0009548Y0350035D02*
X0016453Y0350035D01*
X0016956Y0350634D02*
X0009548Y0350634D01*
X0009548Y0351232D02*
X0017555Y0351232D01*
X0018153Y0351831D02*
X0009548Y0351831D01*
X0009548Y0352429D02*
X0015825Y0352429D01*
X0014753Y0353028D02*
X0009548Y0353028D01*
X0009548Y0353626D02*
X0014154Y0353626D01*
X0013675Y0354225D02*
X0009548Y0354225D01*
X0009548Y0354823D02*
X0013427Y0354823D01*
X0013180Y0355422D02*
X0009548Y0355422D01*
X0009548Y0356020D02*
X0013080Y0356020D01*
X0013080Y0356619D02*
X0009548Y0356619D01*
X0009548Y0357217D02*
X0013080Y0357217D01*
X0013235Y0357816D02*
X0009548Y0357816D01*
X0009548Y0358414D02*
X0013483Y0358414D01*
X0013731Y0359013D02*
X0009548Y0359013D01*
X0009548Y0359611D02*
X0014288Y0359611D01*
X0014886Y0360210D02*
X0009548Y0360210D01*
X0009548Y0360808D02*
X0015634Y0360808D01*
X0014805Y0361407D02*
X0009548Y0361407D01*
X0009548Y0362005D02*
X0014206Y0362005D01*
X0013892Y0362604D02*
X0009548Y0362604D01*
X0009548Y0363202D02*
X0013644Y0363202D01*
X0013473Y0363801D02*
X0009548Y0363801D01*
X0009548Y0364399D02*
X0013473Y0364399D01*
X0013473Y0364998D02*
X0009548Y0364998D01*
X0009548Y0365596D02*
X0013622Y0365596D01*
X0013870Y0366195D02*
X0009548Y0366195D01*
X0009548Y0366793D02*
X0014153Y0366793D01*
X0014751Y0367392D02*
X0009548Y0367392D01*
X0009548Y0367990D02*
X0015505Y0367990D01*
X0015859Y0368589D02*
X0009548Y0368589D01*
X0009548Y0369187D02*
X0014898Y0369187D01*
X0014299Y0369786D02*
X0009548Y0369786D01*
X0009548Y0370384D02*
X0013931Y0370384D01*
X0013683Y0370983D02*
X0009548Y0370983D01*
X0009548Y0371581D02*
X0013473Y0371581D01*
X0013473Y0372180D02*
X0009548Y0372180D01*
X0009548Y0372779D02*
X0013473Y0372779D01*
X0013584Y0373377D02*
X0009548Y0373377D01*
X0009548Y0373976D02*
X0013832Y0373976D01*
X0014079Y0374574D02*
X0009548Y0374574D01*
X0009548Y0375173D02*
X0014658Y0375173D01*
X0015280Y0375771D02*
X0009548Y0375771D01*
X0009548Y0376370D02*
X0016085Y0376370D01*
X0014991Y0376968D02*
X0009548Y0376968D01*
X0009548Y0377567D02*
X0014393Y0377567D01*
X0013970Y0378165D02*
X0009548Y0378165D01*
X0009548Y0378764D02*
X0013722Y0378764D01*
X0013474Y0379362D02*
X0009548Y0379362D01*
X0009548Y0379961D02*
X0013473Y0379961D01*
X0013473Y0380559D02*
X0009548Y0380559D01*
X0009548Y0381158D02*
X0013545Y0381158D01*
X0013793Y0381756D02*
X0009548Y0381756D01*
X0009548Y0382355D02*
X0014041Y0382355D01*
X0014565Y0382953D02*
X0009548Y0382953D01*
X0009548Y0383552D02*
X0015163Y0383552D01*
X0015281Y0384150D02*
X0009548Y0384150D01*
X0009548Y0384749D02*
X0014528Y0384749D01*
X0013929Y0385347D02*
X0009548Y0385347D01*
X0009548Y0385946D02*
X0013582Y0385946D01*
X0013334Y0386544D02*
X0009548Y0386544D01*
X0009548Y0387143D02*
X0013086Y0387143D01*
X0013080Y0387741D02*
X0009548Y0387741D01*
X0009548Y0388340D02*
X0013080Y0388340D01*
X0013080Y0388938D02*
X0009548Y0388938D01*
X0009548Y0389537D02*
X0013328Y0389537D01*
X0013576Y0390135D02*
X0009548Y0390135D01*
X0009548Y0390734D02*
X0013914Y0390734D01*
X0014513Y0391332D02*
X0009548Y0391332D01*
X0009548Y0391931D02*
X0015245Y0391931D01*
X0019851Y0391931D02*
X0399749Y0391931D01*
X0399749Y0391332D02*
X0020583Y0391332D01*
X0021182Y0390734D02*
X0399749Y0390734D01*
X0399749Y0390135D02*
X0021520Y0390135D01*
X0021768Y0389537D02*
X0399749Y0389537D01*
X0399749Y0388938D02*
X0022016Y0388938D01*
X0022017Y0388340D02*
X0399749Y0388340D01*
X0399749Y0387741D02*
X0022017Y0387741D01*
X0022010Y0387143D02*
X0399749Y0387143D01*
X0399749Y0386544D02*
X0021762Y0386544D01*
X0021514Y0385946D02*
X0399749Y0385946D01*
X0399749Y0385347D02*
X0021167Y0385347D01*
X0020568Y0384749D02*
X0399749Y0384749D01*
X0399749Y0384150D02*
X0019815Y0384150D01*
X0019933Y0383552D02*
X0399749Y0383552D01*
X0399749Y0382953D02*
X0020531Y0382953D01*
X0021055Y0382355D02*
X0399749Y0382355D01*
X0399749Y0381756D02*
X0021303Y0381756D01*
X0021551Y0381158D02*
X0399749Y0381158D01*
X0399749Y0380559D02*
X0021623Y0380559D01*
X0021623Y0379961D02*
X0399749Y0379961D01*
X0399749Y0379362D02*
X0021622Y0379362D01*
X0021374Y0378764D02*
X0399749Y0378764D01*
X0399749Y0378165D02*
X0021126Y0378165D01*
X0020703Y0377567D02*
X0399749Y0377567D01*
X0399749Y0376968D02*
X0020105Y0376968D01*
X0019816Y0375771D02*
X0040221Y0375771D01*
X0040819Y0376370D02*
X0019011Y0376370D01*
X0020438Y0375173D02*
X0039622Y0375173D01*
X0039024Y0374574D02*
X0021017Y0374574D01*
X0021265Y0373976D02*
X0038448Y0373976D01*
X0038448Y0373998D02*
X0038448Y0370602D01*
X0040850Y0368200D01*
X0044246Y0368200D01*
X0046648Y0370602D01*
X0046648Y0373998D01*
X0044246Y0376400D01*
X0040850Y0376400D01*
X0038448Y0373998D01*
X0038448Y0373377D02*
X0021512Y0373377D01*
X0021623Y0372779D02*
X0038448Y0372779D01*
X0038448Y0372180D02*
X0021623Y0372180D01*
X0021623Y0371581D02*
X0038448Y0371581D01*
X0038448Y0370983D02*
X0021413Y0370983D01*
X0021165Y0370384D02*
X0038665Y0370384D01*
X0039264Y0369786D02*
X0020797Y0369786D01*
X0020198Y0369187D02*
X0039862Y0369187D01*
X0040461Y0368589D02*
X0019237Y0368589D01*
X0019591Y0367990D02*
X0399749Y0367990D01*
X0399749Y0367392D02*
X0020345Y0367392D01*
X0020943Y0366793D02*
X0399749Y0366793D01*
X0399749Y0366195D02*
X0044169Y0366195D01*
X0044163Y0366200D02*
X0042848Y0366200D01*
X0042848Y0362600D01*
X0042248Y0362600D01*
X0042248Y0362000D01*
X0038648Y0362000D01*
X0038648Y0360685D01*
X0040933Y0358400D01*
X0042248Y0358400D01*
X0042248Y0362000D01*
X0042848Y0362000D01*
X0042848Y0358400D01*
X0044163Y0358400D01*
X0046448Y0360685D01*
X0046448Y0362000D01*
X0042848Y0362000D01*
X0042848Y0362600D01*
X0046448Y0362600D01*
X0046448Y0363915D01*
X0044163Y0366200D01*
X0044767Y0365596D02*
X0399749Y0365596D01*
X0399749Y0364998D02*
X0045366Y0364998D01*
X0045964Y0364399D02*
X0399749Y0364399D01*
X0399749Y0363801D02*
X0046448Y0363801D01*
X0046448Y0363202D02*
X0399749Y0363202D01*
X0399749Y0362604D02*
X0046448Y0362604D01*
X0046448Y0361407D02*
X0399749Y0361407D01*
X0399749Y0362005D02*
X0042848Y0362005D01*
X0042848Y0361407D02*
X0042248Y0361407D01*
X0042248Y0362005D02*
X0020890Y0362005D01*
X0021204Y0362604D02*
X0038648Y0362604D01*
X0038648Y0362600D02*
X0042248Y0362600D01*
X0042248Y0366200D01*
X0040933Y0366200D01*
X0038648Y0363915D01*
X0038648Y0362600D01*
X0038648Y0363202D02*
X0021452Y0363202D01*
X0021623Y0363801D02*
X0038648Y0363801D01*
X0039132Y0364399D02*
X0021623Y0364399D01*
X0021623Y0364998D02*
X0039730Y0364998D01*
X0040329Y0365596D02*
X0021474Y0365596D01*
X0021226Y0366195D02*
X0040927Y0366195D01*
X0042248Y0366195D02*
X0042848Y0366195D01*
X0042848Y0365596D02*
X0042248Y0365596D01*
X0042248Y0364998D02*
X0042848Y0364998D01*
X0042848Y0364399D02*
X0042248Y0364399D01*
X0042248Y0363801D02*
X0042848Y0363801D01*
X0042848Y0363202D02*
X0042248Y0363202D01*
X0042248Y0362604D02*
X0042848Y0362604D01*
X0042848Y0360808D02*
X0042248Y0360808D01*
X0042248Y0360210D02*
X0042848Y0360210D01*
X0042848Y0359611D02*
X0042248Y0359611D01*
X0042248Y0359013D02*
X0042848Y0359013D01*
X0042848Y0358414D02*
X0042248Y0358414D01*
X0040918Y0358414D02*
X0029727Y0358414D01*
X0029958Y0357816D02*
X0399749Y0357816D01*
X0399749Y0358414D02*
X0044178Y0358414D01*
X0044776Y0359013D02*
X0399749Y0359013D01*
X0399749Y0359611D02*
X0045375Y0359611D01*
X0045973Y0360210D02*
X0399749Y0360210D01*
X0399749Y0360808D02*
X0046448Y0360808D01*
X0040320Y0359013D02*
X0029401Y0359013D01*
X0028802Y0359611D02*
X0039721Y0359611D01*
X0039123Y0360210D02*
X0020210Y0360210D01*
X0020808Y0359611D02*
X0025536Y0359611D01*
X0024938Y0359013D02*
X0021365Y0359013D01*
X0021613Y0358414D02*
X0024612Y0358414D01*
X0024380Y0357816D02*
X0021861Y0357816D01*
X0022017Y0357217D02*
X0024380Y0357217D01*
X0024433Y0356619D02*
X0022017Y0356619D01*
X0022017Y0356020D02*
X0024681Y0356020D01*
X0025103Y0355422D02*
X0021917Y0355422D01*
X0021669Y0354823D02*
X0025861Y0354823D01*
X0026992Y0354225D02*
X0021421Y0354225D01*
X0020942Y0353626D02*
X0027590Y0353626D01*
X0028189Y0353028D02*
X0024572Y0353028D01*
X0026017Y0352429D02*
X0028787Y0352429D01*
X0029386Y0351831D02*
X0026943Y0351831D01*
X0027541Y0351232D02*
X0029984Y0351232D01*
X0030583Y0350634D02*
X0028140Y0350634D01*
X0028643Y0350035D02*
X0031182Y0350035D01*
X0031780Y0349437D02*
X0028891Y0349437D01*
X0029139Y0348838D02*
X0032379Y0348838D01*
X0032977Y0348240D02*
X0029387Y0348240D01*
X0029635Y0347641D02*
X0033576Y0347641D01*
X0034174Y0347043D02*
X0029658Y0347043D01*
X0029658Y0346444D02*
X0034773Y0346444D01*
X0035371Y0345845D02*
X0029658Y0345845D01*
X0029658Y0345247D02*
X0035970Y0345247D01*
X0039822Y0341057D02*
X0027491Y0341057D01*
X0026892Y0340459D02*
X0039224Y0340459D01*
X0038946Y0339860D02*
X0025895Y0339860D01*
X0024450Y0339262D02*
X0038698Y0339262D01*
X0040565Y0341656D02*
X0028089Y0341656D01*
X0028622Y0342254D02*
X0044250Y0342254D01*
X0044848Y0342853D02*
X0028870Y0342853D01*
X0029118Y0343451D02*
X0045248Y0343451D01*
X0045248Y0344050D02*
X0029366Y0344050D01*
X0029614Y0344648D02*
X0045248Y0344648D01*
X0049848Y0344648D02*
X0399749Y0344648D01*
X0399749Y0344050D02*
X0049848Y0344050D01*
X0049848Y0343451D02*
X0399749Y0343451D01*
X0399749Y0342853D02*
X0049848Y0342853D01*
X0049848Y0342254D02*
X0399749Y0342254D01*
X0399749Y0341656D02*
X0049848Y0341656D01*
X0049558Y0341057D02*
X0399749Y0341057D01*
X0399749Y0340459D02*
X0048960Y0340459D01*
X0048361Y0339860D02*
X0399749Y0339860D01*
X0399749Y0339262D02*
X0047763Y0339262D01*
X0047164Y0338663D02*
X0399749Y0338663D01*
X0399749Y0338065D02*
X0046702Y0338065D01*
X0046702Y0337466D02*
X0399749Y0337466D01*
X0399749Y0336868D02*
X0046527Y0336868D01*
X0046279Y0336269D02*
X0399749Y0336269D01*
X0399749Y0335671D02*
X0045961Y0335671D01*
X0045362Y0335072D02*
X0399749Y0335072D01*
X0399749Y0334474D02*
X0045716Y0334474D01*
X0046178Y0333875D02*
X0399749Y0333875D01*
X0399749Y0333277D02*
X0046426Y0333277D01*
X0046674Y0332678D02*
X0399749Y0332678D01*
X0399749Y0332080D02*
X0046702Y0332080D01*
X0046702Y0331481D02*
X0399749Y0331481D01*
X0399749Y0330883D02*
X0046657Y0330883D01*
X0046409Y0330284D02*
X0399749Y0330284D01*
X0399749Y0329686D02*
X0046162Y0329686D01*
X0045677Y0329087D02*
X0399749Y0329087D01*
X0399749Y0328489D02*
X0045119Y0328489D01*
X0045690Y0327890D02*
X0399749Y0327890D01*
X0399749Y0327292D02*
X0046079Y0327292D01*
X0046327Y0326693D02*
X0399749Y0326693D01*
X0399749Y0326095D02*
X0046459Y0326095D01*
X0046502Y0325201D02*
X0042927Y0325201D01*
X0042927Y0321626D01*
X0043008Y0321626D01*
X0043757Y0321775D01*
X0044462Y0322067D01*
X0045097Y0322491D01*
X0045637Y0323031D01*
X0046061Y0323665D01*
X0046353Y0324371D01*
X0046502Y0325119D01*
X0046502Y0325201D01*
X0046457Y0324898D02*
X0399749Y0324898D01*
X0399749Y0325496D02*
X0042927Y0325496D01*
X0042927Y0324898D02*
X0042327Y0324898D01*
X0042327Y0324299D02*
X0042927Y0324299D01*
X0042927Y0323701D02*
X0042327Y0323701D01*
X0042327Y0323102D02*
X0042927Y0323102D01*
X0042927Y0322504D02*
X0042327Y0322504D01*
X0042327Y0321905D02*
X0042927Y0321905D01*
X0044071Y0321905D02*
X0399749Y0321905D01*
X0399749Y0321307D02*
X0035247Y0321307D01*
X0035247Y0321905D02*
X0041182Y0321905D01*
X0040144Y0322504D02*
X0035247Y0322504D01*
X0035247Y0323102D02*
X0039569Y0323102D01*
X0039178Y0323701D02*
X0035247Y0323701D01*
X0035247Y0324299D02*
X0038930Y0324299D01*
X0036314Y0324898D02*
X0035247Y0324898D01*
X0035247Y0325496D02*
X0035294Y0325496D01*
X0035247Y0320708D02*
X0399749Y0320708D01*
X0399749Y0320110D02*
X0035247Y0320110D01*
X0035247Y0319511D02*
X0399749Y0319511D01*
X0399749Y0318912D02*
X0035247Y0318912D01*
X0035247Y0318314D02*
X0399749Y0318314D01*
X0399749Y0317715D02*
X0035247Y0317715D01*
X0035247Y0317117D02*
X0399749Y0317117D01*
X0399749Y0316518D02*
X0035247Y0316518D01*
X0035247Y0315920D02*
X0037085Y0315920D01*
X0037493Y0316089D02*
X0036468Y0315664D01*
X0035684Y0314880D01*
X0035259Y0313855D01*
X0035259Y0312745D01*
X0035684Y0311720D01*
X0036468Y0310936D01*
X0037493Y0310511D01*
X0037584Y0310511D01*
X0041248Y0306847D01*
X0041248Y0299690D01*
X0154591Y0186347D01*
X0155938Y0185000D01*
X0161595Y0185000D01*
X0175995Y0170600D01*
X0097501Y0170600D01*
X0045337Y0222764D01*
X0045337Y0222855D01*
X0044912Y0223880D01*
X0044128Y0224664D01*
X0043103Y0225089D01*
X0041993Y0225089D01*
X0040968Y0224664D01*
X0040184Y0223880D01*
X0039759Y0222855D01*
X0039759Y0221745D01*
X0040184Y0220720D01*
X0040968Y0219936D01*
X0041993Y0219511D01*
X0042084Y0219511D01*
X0094248Y0167347D01*
X0095595Y0166000D01*
X0131495Y0166000D01*
X0130728Y0165233D01*
X0130082Y0165500D01*
X0128014Y0165500D01*
X0126102Y0164708D01*
X0124640Y0163246D01*
X0123848Y0161334D01*
X0123848Y0159266D01*
X0124640Y0157354D01*
X0126102Y0155892D01*
X0127850Y0155168D01*
X0127129Y0154934D01*
X0126427Y0154576D01*
X0125791Y0154114D01*
X0125234Y0153557D01*
X0124772Y0152921D01*
X0124414Y0152219D01*
X0124171Y0151471D01*
X0124048Y0150694D01*
X0124048Y0150600D01*
X0128748Y0150600D01*
X0128748Y0150000D01*
X0124048Y0150000D01*
X0124048Y0149906D01*
X0124171Y0149129D01*
X0124414Y0148381D01*
X0124772Y0147679D01*
X0125234Y0147043D01*
X0125791Y0146486D01*
X0126427Y0146024D01*
X0127129Y0145666D01*
X0127850Y0145432D01*
X0126102Y0144708D01*
X0124640Y0143246D01*
X0123848Y0141334D01*
X0123848Y0139266D01*
X0124640Y0137354D01*
X0126102Y0135892D01*
X0128014Y0135100D01*
X0130082Y0135100D01*
X0131994Y0135892D01*
X0133456Y0137354D01*
X0133724Y0138000D01*
X0136501Y0138000D01*
X0144848Y0146347D01*
X0144848Y0156347D01*
X0150001Y0161500D01*
X0211904Y0161500D01*
X0211968Y0161436D01*
X0212993Y0161011D01*
X0214103Y0161011D01*
X0215128Y0161436D01*
X0215912Y0162220D01*
X0216337Y0163245D01*
X0216337Y0164355D01*
X0216266Y0164525D01*
X0223662Y0164525D01*
X0223803Y0164384D01*
X0224828Y0163960D01*
X0225937Y0163960D01*
X0226962Y0164384D01*
X0227747Y0165169D01*
X0228172Y0166194D01*
X0228172Y0167304D01*
X0227747Y0168329D01*
X0226962Y0169113D01*
X0225937Y0169538D01*
X0224828Y0169538D01*
X0223832Y0169125D01*
X0211626Y0169125D01*
X0213012Y0170511D01*
X0213103Y0170511D01*
X0214128Y0170936D01*
X0214912Y0171720D01*
X0215337Y0172745D01*
X0215337Y0173855D01*
X0214912Y0174880D01*
X0214128Y0175664D01*
X0213103Y0176089D01*
X0211993Y0176089D01*
X0210968Y0175664D01*
X0210184Y0174880D01*
X0209759Y0173855D01*
X0209759Y0173764D01*
X0206595Y0170600D01*
X0194292Y0170600D01*
X0194912Y0171220D01*
X0195337Y0172245D01*
X0195337Y0173355D01*
X0194912Y0174380D01*
X0194128Y0175164D01*
X0193103Y0175589D01*
X0191993Y0175589D01*
X0190968Y0175164D01*
X0190904Y0175100D01*
X0178001Y0175100D01*
X0163501Y0189600D01*
X0157844Y0189600D01*
X0048986Y0298458D01*
X0049870Y0298824D01*
X0051024Y0299978D01*
X0051648Y0301484D01*
X0051648Y0303116D01*
X0051024Y0304622D01*
X0049870Y0305776D01*
X0048364Y0306400D01*
X0046732Y0306400D01*
X0045848Y0306034D01*
X0045848Y0308753D01*
X0044501Y0310100D01*
X0040837Y0313764D01*
X0040837Y0313855D01*
X0040412Y0314880D01*
X0039628Y0315664D01*
X0038603Y0316089D01*
X0037493Y0316089D01*
X0039011Y0315920D02*
X0120370Y0315920D01*
X0120850Y0316400D02*
X0118448Y0313998D01*
X0118448Y0310602D01*
X0120850Y0308200D01*
X0124246Y0308200D01*
X0126648Y0310602D01*
X0126648Y0313998D01*
X0124246Y0316400D01*
X0120850Y0316400D01*
X0119771Y0315321D02*
X0039971Y0315321D01*
X0040477Y0314723D02*
X0119173Y0314723D01*
X0118574Y0314124D02*
X0040725Y0314124D01*
X0041075Y0313526D02*
X0118448Y0313526D01*
X0118448Y0312927D02*
X0041673Y0312927D01*
X0042272Y0312329D02*
X0118448Y0312329D01*
X0118448Y0311730D02*
X0042870Y0311730D01*
X0043469Y0311132D02*
X0118448Y0311132D01*
X0118516Y0310533D02*
X0044067Y0310533D01*
X0044666Y0309935D02*
X0119115Y0309935D01*
X0119713Y0309336D02*
X0045264Y0309336D01*
X0045848Y0308738D02*
X0120312Y0308738D01*
X0124784Y0308738D02*
X0399749Y0308738D01*
X0399749Y0309336D02*
X0125383Y0309336D01*
X0125981Y0309935D02*
X0399749Y0309935D01*
X0399749Y0310533D02*
X0126580Y0310533D01*
X0126648Y0311132D02*
X0399749Y0311132D01*
X0399749Y0311730D02*
X0126648Y0311730D01*
X0126648Y0312329D02*
X0399749Y0312329D01*
X0399749Y0312927D02*
X0126648Y0312927D01*
X0126648Y0313526D02*
X0399749Y0313526D01*
X0399749Y0314124D02*
X0126522Y0314124D01*
X0125923Y0314723D02*
X0399749Y0314723D01*
X0399749Y0315321D02*
X0125325Y0315321D01*
X0124726Y0315920D02*
X0399749Y0315920D01*
X0399749Y0322504D02*
X0045109Y0322504D01*
X0045684Y0323102D02*
X0399749Y0323102D01*
X0399749Y0323701D02*
X0046075Y0323701D01*
X0046323Y0324299D02*
X0399749Y0324299D01*
X0399749Y0308139D02*
X0045848Y0308139D01*
X0045848Y0307541D02*
X0399749Y0307541D01*
X0399749Y0306942D02*
X0045848Y0306942D01*
X0045848Y0306344D02*
X0046597Y0306344D01*
X0048499Y0306344D02*
X0399749Y0306344D01*
X0399749Y0305745D02*
X0049901Y0305745D01*
X0050500Y0305147D02*
X0399749Y0305147D01*
X0399749Y0304548D02*
X0051055Y0304548D01*
X0051302Y0303950D02*
X0399749Y0303950D01*
X0399749Y0303351D02*
X0051550Y0303351D01*
X0051648Y0302753D02*
X0399749Y0302753D01*
X0399749Y0302154D02*
X0051648Y0302154D01*
X0051648Y0301556D02*
X0399749Y0301556D01*
X0399749Y0300957D02*
X0099689Y0300957D01*
X0099246Y0301400D02*
X0095850Y0301400D01*
X0093448Y0298998D01*
X0093448Y0295602D01*
X0095850Y0293200D01*
X0099246Y0293200D01*
X0101648Y0295602D01*
X0101648Y0298998D01*
X0099246Y0301400D01*
X0100288Y0300359D02*
X0399749Y0300359D01*
X0399749Y0299760D02*
X0100886Y0299760D01*
X0101485Y0299162D02*
X0399749Y0299162D01*
X0399749Y0298563D02*
X0101648Y0298563D01*
X0101648Y0297965D02*
X0399749Y0297965D01*
X0399749Y0297366D02*
X0101648Y0297366D01*
X0101648Y0296768D02*
X0399749Y0296768D01*
X0399749Y0296169D02*
X0101648Y0296169D01*
X0101617Y0295571D02*
X0399749Y0295571D01*
X0399749Y0294972D02*
X0101018Y0294972D01*
X0100420Y0294374D02*
X0399749Y0294374D01*
X0399749Y0293775D02*
X0099821Y0293775D01*
X0099246Y0291400D02*
X0095850Y0291400D01*
X0093448Y0288998D01*
X0093448Y0285602D01*
X0095850Y0283200D01*
X0099246Y0283200D01*
X0101648Y0285602D01*
X0101648Y0288998D01*
X0099246Y0291400D01*
X0099265Y0291381D02*
X0399749Y0291381D01*
X0399749Y0291979D02*
X0055464Y0291979D01*
X0056063Y0291381D02*
X0095831Y0291381D01*
X0095232Y0290782D02*
X0074581Y0290782D01*
X0074163Y0291200D02*
X0072848Y0291200D01*
X0072848Y0287600D01*
X0072248Y0287600D01*
X0072248Y0287000D01*
X0068648Y0287000D01*
X0068648Y0285685D01*
X0070933Y0283400D01*
X0072248Y0283400D01*
X0072248Y0287000D01*
X0072848Y0287000D01*
X0072848Y0283400D01*
X0074163Y0283400D01*
X0076448Y0285685D01*
X0076448Y0287000D01*
X0072848Y0287000D01*
X0072848Y0287600D01*
X0076448Y0287600D01*
X0076448Y0288915D01*
X0074163Y0291200D01*
X0072848Y0290782D02*
X0072248Y0290782D01*
X0072248Y0291200D02*
X0070933Y0291200D01*
X0068648Y0288915D01*
X0068648Y0287600D01*
X0072248Y0287600D01*
X0072248Y0291200D01*
X0072248Y0290184D02*
X0072848Y0290184D01*
X0072848Y0289585D02*
X0072248Y0289585D01*
X0072248Y0288987D02*
X0072848Y0288987D01*
X0072848Y0288388D02*
X0072248Y0288388D01*
X0072248Y0287790D02*
X0072848Y0287790D01*
X0072848Y0287191D02*
X0093448Y0287191D01*
X0093448Y0286593D02*
X0076448Y0286593D01*
X0076448Y0285994D02*
X0093448Y0285994D01*
X0093654Y0285396D02*
X0076159Y0285396D01*
X0075561Y0284797D02*
X0094252Y0284797D01*
X0094851Y0284199D02*
X0074962Y0284199D01*
X0074364Y0283600D02*
X0095449Y0283600D01*
X0099647Y0283600D02*
X0399749Y0283600D01*
X0399749Y0283002D02*
X0064442Y0283002D01*
X0063844Y0283600D02*
X0070732Y0283600D01*
X0070134Y0284199D02*
X0063245Y0284199D01*
X0062646Y0284797D02*
X0069535Y0284797D01*
X0068937Y0285396D02*
X0062048Y0285396D01*
X0061449Y0285994D02*
X0068648Y0285994D01*
X0068648Y0286593D02*
X0060851Y0286593D01*
X0060252Y0287191D02*
X0072248Y0287191D01*
X0072248Y0286593D02*
X0072848Y0286593D01*
X0072848Y0285994D02*
X0072248Y0285994D01*
X0072248Y0285396D02*
X0072848Y0285396D01*
X0072848Y0284797D02*
X0072248Y0284797D01*
X0072248Y0284199D02*
X0072848Y0284199D01*
X0072848Y0283600D02*
X0072248Y0283600D01*
X0068648Y0287790D02*
X0059654Y0287790D01*
X0059055Y0288388D02*
X0068648Y0288388D01*
X0068720Y0288987D02*
X0058457Y0288987D01*
X0057858Y0289585D02*
X0069318Y0289585D01*
X0069917Y0290184D02*
X0057260Y0290184D01*
X0056661Y0290782D02*
X0070515Y0290782D01*
X0070850Y0293200D02*
X0074246Y0293200D01*
X0076648Y0295602D01*
X0076648Y0298998D01*
X0074246Y0301400D01*
X0070850Y0301400D01*
X0068448Y0298998D01*
X0068448Y0295602D01*
X0070850Y0293200D01*
X0070275Y0293775D02*
X0053669Y0293775D01*
X0054267Y0293177D02*
X0399749Y0293177D01*
X0399749Y0292578D02*
X0054866Y0292578D01*
X0053070Y0294374D02*
X0069676Y0294374D01*
X0069078Y0294972D02*
X0052472Y0294972D01*
X0051873Y0295571D02*
X0068479Y0295571D01*
X0068448Y0296169D02*
X0051275Y0296169D01*
X0050676Y0296768D02*
X0068448Y0296768D01*
X0068448Y0297366D02*
X0050078Y0297366D01*
X0049479Y0297965D02*
X0068448Y0297965D01*
X0068448Y0298563D02*
X0049240Y0298563D01*
X0050208Y0299162D02*
X0068611Y0299162D01*
X0069210Y0299760D02*
X0050806Y0299760D01*
X0051182Y0300359D02*
X0069808Y0300359D01*
X0070407Y0300957D02*
X0051430Y0300957D01*
X0045966Y0294972D02*
X0035247Y0294972D01*
X0035247Y0294374D02*
X0046565Y0294374D01*
X0047163Y0293775D02*
X0035247Y0293775D01*
X0035247Y0293177D02*
X0047762Y0293177D01*
X0048360Y0292578D02*
X0035247Y0292578D01*
X0035247Y0291979D02*
X0048959Y0291979D01*
X0049558Y0291381D02*
X0035247Y0291381D01*
X0035247Y0290782D02*
X0050156Y0290782D01*
X0050755Y0290184D02*
X0035247Y0290184D01*
X0035247Y0289585D02*
X0051353Y0289585D01*
X0051952Y0288987D02*
X0035247Y0288987D01*
X0035247Y0288388D02*
X0052550Y0288388D01*
X0053149Y0287790D02*
X0035247Y0287790D01*
X0035247Y0287191D02*
X0053747Y0287191D01*
X0054346Y0286593D02*
X0035247Y0286593D01*
X0035247Y0285994D02*
X0045727Y0285994D01*
X0045933Y0286200D02*
X0043648Y0283915D01*
X0043648Y0282600D01*
X0047248Y0282600D01*
X0047248Y0282000D01*
X0043648Y0282000D01*
X0043648Y0280685D01*
X0045933Y0278400D01*
X0047248Y0278400D01*
X0047248Y0282000D01*
X0047848Y0282000D01*
X0047848Y0278400D01*
X0049163Y0278400D01*
X0051448Y0280685D01*
X0051448Y0282000D01*
X0047848Y0282000D01*
X0047848Y0282600D01*
X0047248Y0282600D01*
X0047248Y0286200D01*
X0045933Y0286200D01*
X0045128Y0285396D02*
X0035247Y0285396D01*
X0035247Y0284797D02*
X0044530Y0284797D01*
X0043931Y0284199D02*
X0035247Y0284199D01*
X0035247Y0283600D02*
X0043648Y0283600D01*
X0043648Y0283002D02*
X0035247Y0283002D01*
X0035247Y0282403D02*
X0047248Y0282403D01*
X0047248Y0281805D02*
X0047848Y0281805D01*
X0047848Y0282403D02*
X0058535Y0282403D01*
X0059134Y0281805D02*
X0051448Y0281805D01*
X0051448Y0281206D02*
X0059732Y0281206D01*
X0060331Y0280608D02*
X0051371Y0280608D01*
X0050773Y0280009D02*
X0060929Y0280009D01*
X0061528Y0279411D02*
X0050174Y0279411D01*
X0049576Y0278812D02*
X0062126Y0278812D01*
X0062725Y0278214D02*
X0035247Y0278214D01*
X0035247Y0278812D02*
X0045520Y0278812D01*
X0044922Y0279411D02*
X0035247Y0279411D01*
X0035247Y0280009D02*
X0044323Y0280009D01*
X0043725Y0280608D02*
X0035247Y0280608D01*
X0035247Y0281206D02*
X0043648Y0281206D01*
X0043648Y0281805D02*
X0035247Y0281805D01*
X0035247Y0277615D02*
X0063323Y0277615D01*
X0063922Y0277017D02*
X0035247Y0277017D01*
X0035247Y0276418D02*
X0064520Y0276418D01*
X0065119Y0275820D02*
X0044827Y0275820D01*
X0044246Y0276400D02*
X0046648Y0273998D01*
X0046648Y0270602D01*
X0044246Y0268200D01*
X0040850Y0268200D01*
X0038448Y0270602D01*
X0038448Y0273998D01*
X0040850Y0276400D01*
X0044246Y0276400D01*
X0045425Y0275221D02*
X0065717Y0275221D01*
X0066316Y0274623D02*
X0046024Y0274623D01*
X0046622Y0274024D02*
X0066914Y0274024D01*
X0067513Y0273426D02*
X0046648Y0273426D01*
X0046648Y0272827D02*
X0068111Y0272827D01*
X0068710Y0272229D02*
X0046648Y0272229D01*
X0046648Y0271630D02*
X0069308Y0271630D01*
X0069907Y0271032D02*
X0046648Y0271032D01*
X0046479Y0270433D02*
X0070505Y0270433D01*
X0071104Y0269835D02*
X0045881Y0269835D01*
X0045282Y0269236D02*
X0071702Y0269236D01*
X0072301Y0268638D02*
X0044684Y0268638D01*
X0040412Y0268638D02*
X0035247Y0268638D01*
X0035247Y0269236D02*
X0039814Y0269236D01*
X0039215Y0269835D02*
X0035247Y0269835D01*
X0035247Y0270433D02*
X0038617Y0270433D01*
X0038448Y0271032D02*
X0035247Y0271032D01*
X0035247Y0271630D02*
X0038448Y0271630D01*
X0038448Y0272229D02*
X0035247Y0272229D01*
X0035247Y0272827D02*
X0038448Y0272827D01*
X0038448Y0273426D02*
X0035247Y0273426D01*
X0035247Y0274024D02*
X0038474Y0274024D01*
X0039072Y0274623D02*
X0035247Y0274623D01*
X0035247Y0275221D02*
X0039671Y0275221D01*
X0040269Y0275820D02*
X0035247Y0275820D01*
X0030647Y0275820D02*
X0029810Y0275820D01*
X0029810Y0276418D02*
X0030647Y0276418D01*
X0030647Y0277017D02*
X0029810Y0277017D01*
X0029810Y0277615D02*
X0030647Y0277615D01*
X0030647Y0278214D02*
X0029810Y0278214D01*
X0029810Y0278812D02*
X0030647Y0278812D01*
X0030647Y0275221D02*
X0029810Y0275221D01*
X0029810Y0274623D02*
X0030647Y0274623D01*
X0030647Y0274024D02*
X0029810Y0274024D01*
X0029810Y0273426D02*
X0030647Y0273426D01*
X0030647Y0272827D02*
X0029810Y0272827D01*
X0029810Y0272229D02*
X0030647Y0272229D01*
X0030647Y0271630D02*
X0029810Y0271630D01*
X0029810Y0271032D02*
X0030647Y0271032D01*
X0030647Y0270433D02*
X0029880Y0270433D01*
X0029948Y0269835D02*
X0030647Y0269835D01*
X0030647Y0269236D02*
X0029948Y0269236D01*
X0029948Y0268638D02*
X0030647Y0268638D01*
X0030647Y0268039D02*
X0029948Y0268039D01*
X0029948Y0267441D02*
X0030647Y0267441D01*
X0030647Y0266842D02*
X0029948Y0266842D01*
X0029948Y0266243D02*
X0030647Y0266243D01*
X0030647Y0265645D02*
X0029948Y0265645D01*
X0029948Y0265046D02*
X0030647Y0265046D01*
X0030647Y0264448D02*
X0029948Y0264448D01*
X0029948Y0263849D02*
X0030647Y0263849D01*
X0030647Y0263251D02*
X0029948Y0263251D01*
X0029948Y0262652D02*
X0030647Y0262652D01*
X0030647Y0262054D02*
X0029948Y0262054D01*
X0029948Y0261455D02*
X0030647Y0261455D01*
X0030647Y0260857D02*
X0029948Y0260857D01*
X0029948Y0260258D02*
X0030647Y0260258D01*
X0030647Y0259660D02*
X0029948Y0259660D01*
X0029948Y0259061D02*
X0030647Y0259061D01*
X0030647Y0258463D02*
X0029948Y0258463D01*
X0029948Y0257864D02*
X0030647Y0257864D01*
X0030647Y0257266D02*
X0029948Y0257266D01*
X0029948Y0256667D02*
X0030647Y0256667D01*
X0030647Y0256069D02*
X0029948Y0256069D01*
X0029948Y0255470D02*
X0030647Y0255470D01*
X0030647Y0254872D02*
X0029948Y0254872D01*
X0029948Y0254273D02*
X0030647Y0254273D01*
X0030647Y0253675D02*
X0029948Y0253675D01*
X0029948Y0253076D02*
X0030647Y0253076D01*
X0030647Y0252478D02*
X0029948Y0252478D01*
X0029948Y0251879D02*
X0030647Y0251879D01*
X0030647Y0251281D02*
X0029948Y0251281D01*
X0029948Y0250682D02*
X0030647Y0250682D01*
X0030647Y0250084D02*
X0029948Y0250084D01*
X0029948Y0249485D02*
X0030647Y0249485D01*
X0030647Y0248887D02*
X0029948Y0248887D01*
X0029948Y0248288D02*
X0030647Y0248288D01*
X0030647Y0247690D02*
X0029948Y0247690D01*
X0029948Y0247091D02*
X0030647Y0247091D01*
X0030647Y0246493D02*
X0029948Y0246493D01*
X0029948Y0245894D02*
X0030647Y0245894D01*
X0030647Y0245296D02*
X0029948Y0245296D01*
X0029948Y0244697D02*
X0030647Y0244697D01*
X0030647Y0244099D02*
X0029812Y0244099D01*
X0029810Y0243500D02*
X0030647Y0243500D01*
X0030647Y0242902D02*
X0029810Y0242902D01*
X0029810Y0242303D02*
X0030647Y0242303D01*
X0030647Y0241705D02*
X0029810Y0241705D01*
X0029810Y0241106D02*
X0030647Y0241106D01*
X0030647Y0240508D02*
X0029810Y0240508D01*
X0029810Y0239909D02*
X0030647Y0239909D01*
X0030647Y0239310D02*
X0029810Y0239310D01*
X0029810Y0238712D02*
X0030647Y0238712D01*
X0030647Y0238113D02*
X0029810Y0238113D01*
X0029810Y0237515D02*
X0030647Y0237515D01*
X0030647Y0236916D02*
X0029810Y0236916D01*
X0029810Y0236318D02*
X0030647Y0236318D01*
X0030647Y0235719D02*
X0029810Y0235719D01*
X0029810Y0235121D02*
X0030647Y0235121D01*
X0030647Y0234522D02*
X0029810Y0234522D01*
X0029810Y0233924D02*
X0030647Y0233924D01*
X0030647Y0233325D02*
X0029810Y0233325D01*
X0029810Y0232727D02*
X0030647Y0232727D01*
X0030647Y0232128D02*
X0029810Y0232128D01*
X0029810Y0231530D02*
X0030647Y0231530D01*
X0030647Y0230931D02*
X0029810Y0230931D01*
X0029810Y0230333D02*
X0030647Y0230333D01*
X0030647Y0229734D02*
X0029810Y0229734D01*
X0029810Y0229136D02*
X0030647Y0229136D01*
X0030647Y0228537D02*
X0029810Y0228537D01*
X0029810Y0227939D02*
X0030647Y0227939D01*
X0030647Y0227340D02*
X0029810Y0227340D01*
X0029810Y0226742D02*
X0030647Y0226742D01*
X0030647Y0226143D02*
X0029810Y0226143D01*
X0029810Y0225545D02*
X0030647Y0225545D01*
X0030647Y0224946D02*
X0029810Y0224946D01*
X0029810Y0224348D02*
X0030647Y0224348D01*
X0030647Y0223749D02*
X0029810Y0223749D01*
X0029810Y0223151D02*
X0030647Y0223151D01*
X0030647Y0222552D02*
X0029810Y0222552D01*
X0029810Y0221954D02*
X0030647Y0221954D01*
X0030647Y0221355D02*
X0029810Y0221355D01*
X0029810Y0220757D02*
X0030839Y0220757D01*
X0031437Y0220158D02*
X0029810Y0220158D01*
X0029810Y0219560D02*
X0032036Y0219560D01*
X0032634Y0218961D02*
X0029810Y0218961D01*
X0029810Y0218363D02*
X0033233Y0218363D01*
X0033831Y0217764D02*
X0029810Y0217764D01*
X0029810Y0217166D02*
X0034430Y0217166D01*
X0035028Y0216567D02*
X0029810Y0216567D01*
X0029810Y0215969D02*
X0035627Y0215969D01*
X0036225Y0215370D02*
X0029810Y0215370D01*
X0029810Y0214772D02*
X0036824Y0214772D01*
X0037422Y0214173D02*
X0029810Y0214173D01*
X0029810Y0213574D02*
X0038021Y0213574D01*
X0038619Y0212976D02*
X0030125Y0212976D01*
X0030723Y0212377D02*
X0039218Y0212377D01*
X0039816Y0211779D02*
X0031322Y0211779D01*
X0031920Y0211180D02*
X0040415Y0211180D01*
X0041013Y0210582D02*
X0032519Y0210582D01*
X0033117Y0209983D02*
X0041612Y0209983D01*
X0042210Y0209385D02*
X0033716Y0209385D01*
X0034314Y0208786D02*
X0042809Y0208786D01*
X0043407Y0208188D02*
X0034913Y0208188D01*
X0035511Y0207589D02*
X0044006Y0207589D01*
X0044604Y0206991D02*
X0036110Y0206991D01*
X0036708Y0206392D02*
X0045203Y0206392D01*
X0045801Y0205794D02*
X0037307Y0205794D01*
X0037905Y0205195D02*
X0046400Y0205195D01*
X0046999Y0204597D02*
X0038504Y0204597D01*
X0039102Y0203998D02*
X0047597Y0203998D01*
X0048196Y0203400D02*
X0039701Y0203400D01*
X0040299Y0202801D02*
X0048794Y0202801D01*
X0049393Y0202203D02*
X0040898Y0202203D01*
X0041496Y0201604D02*
X0049991Y0201604D01*
X0050590Y0201006D02*
X0042095Y0201006D01*
X0042693Y0200407D02*
X0051188Y0200407D01*
X0051787Y0199809D02*
X0043292Y0199809D01*
X0043890Y0199210D02*
X0052385Y0199210D01*
X0052984Y0198612D02*
X0044489Y0198612D01*
X0045087Y0198013D02*
X0053582Y0198013D01*
X0054181Y0197415D02*
X0045686Y0197415D01*
X0046285Y0196816D02*
X0054779Y0196816D01*
X0055378Y0196218D02*
X0046883Y0196218D01*
X0047482Y0195619D02*
X0055976Y0195619D01*
X0056575Y0195021D02*
X0048080Y0195021D01*
X0048679Y0194422D02*
X0057173Y0194422D01*
X0057772Y0193824D02*
X0049277Y0193824D01*
X0049876Y0193225D02*
X0058370Y0193225D01*
X0058969Y0192627D02*
X0050474Y0192627D01*
X0051073Y0192028D02*
X0059567Y0192028D01*
X0060166Y0191430D02*
X0051671Y0191430D01*
X0052270Y0190831D02*
X0060764Y0190831D01*
X0061363Y0190233D02*
X0052868Y0190233D01*
X0053467Y0189634D02*
X0061961Y0189634D01*
X0062560Y0189036D02*
X0054065Y0189036D01*
X0054664Y0188437D02*
X0063158Y0188437D01*
X0063757Y0187839D02*
X0055262Y0187839D01*
X0055861Y0187240D02*
X0064355Y0187240D01*
X0064954Y0186641D02*
X0056459Y0186641D01*
X0057058Y0186043D02*
X0065552Y0186043D01*
X0066151Y0185444D02*
X0057656Y0185444D01*
X0058255Y0184846D02*
X0066749Y0184846D01*
X0067348Y0184247D02*
X0058853Y0184247D01*
X0059452Y0183649D02*
X0067946Y0183649D01*
X0068545Y0183050D02*
X0060050Y0183050D01*
X0060649Y0182452D02*
X0069143Y0182452D01*
X0069742Y0181853D02*
X0061247Y0181853D01*
X0061846Y0181255D02*
X0070340Y0181255D01*
X0070939Y0180656D02*
X0062444Y0180656D01*
X0063043Y0180058D02*
X0071537Y0180058D01*
X0072136Y0179459D02*
X0063641Y0179459D01*
X0064240Y0178861D02*
X0072734Y0178861D01*
X0073333Y0178262D02*
X0064838Y0178262D01*
X0065437Y0177664D02*
X0073932Y0177664D01*
X0074530Y0177065D02*
X0066035Y0177065D01*
X0066634Y0176467D02*
X0075129Y0176467D01*
X0075727Y0175868D02*
X0067232Y0175868D01*
X0067831Y0175270D02*
X0076326Y0175270D01*
X0076924Y0174671D02*
X0068429Y0174671D01*
X0069028Y0174073D02*
X0077523Y0174073D01*
X0078121Y0173474D02*
X0069626Y0173474D01*
X0070225Y0172876D02*
X0078720Y0172876D01*
X0079318Y0172277D02*
X0070823Y0172277D01*
X0071422Y0171679D02*
X0079917Y0171679D01*
X0080515Y0171080D02*
X0072021Y0171080D01*
X0072619Y0170482D02*
X0081114Y0170482D01*
X0081712Y0169883D02*
X0073218Y0169883D01*
X0073816Y0169285D02*
X0082311Y0169285D01*
X0082909Y0168686D02*
X0074415Y0168686D01*
X0075013Y0168088D02*
X0083508Y0168088D01*
X0084106Y0167489D02*
X0075612Y0167489D01*
X0076210Y0166891D02*
X0084705Y0166891D01*
X0085303Y0166292D02*
X0076809Y0166292D01*
X0077407Y0165694D02*
X0085902Y0165694D01*
X0086500Y0165095D02*
X0078006Y0165095D01*
X0078604Y0164497D02*
X0087099Y0164497D01*
X0087697Y0163898D02*
X0079203Y0163898D01*
X0079801Y0163300D02*
X0088296Y0163300D01*
X0088894Y0162701D02*
X0080400Y0162701D01*
X0080998Y0162103D02*
X0089493Y0162103D01*
X0090091Y0161504D02*
X0081597Y0161504D01*
X0082195Y0160905D02*
X0090690Y0160905D01*
X0091288Y0160307D02*
X0082794Y0160307D01*
X0083392Y0159708D02*
X0091887Y0159708D01*
X0092485Y0159110D02*
X0083991Y0159110D01*
X0084589Y0158511D02*
X0093084Y0158511D01*
X0093682Y0157913D02*
X0085188Y0157913D01*
X0085786Y0157314D02*
X0094281Y0157314D01*
X0094879Y0156716D02*
X0086385Y0156716D01*
X0086983Y0156117D02*
X0095478Y0156117D01*
X0096076Y0155519D02*
X0087582Y0155519D01*
X0088180Y0154920D02*
X0096675Y0154920D01*
X0097273Y0154322D02*
X0088779Y0154322D01*
X0089377Y0153723D02*
X0090111Y0153723D01*
X0092985Y0153723D02*
X0097872Y0153723D01*
X0098470Y0153125D02*
X0093667Y0153125D01*
X0094059Y0152526D02*
X0099069Y0152526D01*
X0099668Y0151928D02*
X0094307Y0151928D01*
X0094337Y0151329D02*
X0100266Y0151329D01*
X0100865Y0150731D02*
X0094331Y0150731D01*
X0094083Y0150132D02*
X0101463Y0150132D01*
X0102062Y0149534D02*
X0093726Y0149534D01*
X0093127Y0148935D02*
X0102660Y0148935D01*
X0103259Y0148337D02*
X0022747Y0148337D01*
X0022748Y0147738D02*
X0103857Y0147738D01*
X0104456Y0147140D02*
X0022748Y0147140D01*
X0022748Y0146541D02*
X0104844Y0146541D01*
X0105091Y0145943D02*
X0022614Y0145943D01*
X0022366Y0145344D02*
X0105560Y0145344D01*
X0106427Y0144746D02*
X0022118Y0144746D01*
X0021749Y0144147D02*
X0125541Y0144147D01*
X0124943Y0143549D02*
X0021151Y0143549D01*
X0020552Y0142950D02*
X0124517Y0142950D01*
X0124269Y0142352D02*
X0019190Y0142352D01*
X0020385Y0141753D02*
X0124022Y0141753D01*
X0123848Y0141155D02*
X0021047Y0141155D01*
X0021646Y0140556D02*
X0123848Y0140556D01*
X0123848Y0139958D02*
X0022076Y0139958D01*
X0022324Y0139359D02*
X0123848Y0139359D01*
X0124057Y0138761D02*
X0022571Y0138761D01*
X0022748Y0138162D02*
X0124305Y0138162D01*
X0124553Y0137564D02*
X0022748Y0137564D01*
X0022748Y0136965D02*
X0125029Y0136965D01*
X0125628Y0136367D02*
X0022748Y0136367D01*
X0022542Y0135768D02*
X0126401Y0135768D01*
X0127846Y0135170D02*
X0022294Y0135170D01*
X0022046Y0134571D02*
X0150379Y0134571D01*
X0150926Y0134024D02*
X0152432Y0133400D01*
X0154064Y0133400D01*
X0155570Y0134024D01*
X0156724Y0135178D01*
X0156733Y0135200D01*
X0161927Y0135200D01*
X0163501Y0136774D01*
X0164848Y0138121D01*
X0164848Y0148937D01*
X0167012Y0151101D01*
X0167103Y0151101D01*
X0168128Y0151525D01*
X0168912Y0152310D01*
X0169337Y0153335D01*
X0169337Y0154445D01*
X0168912Y0155470D01*
X0168128Y0156254D01*
X0167103Y0156679D01*
X0165993Y0156679D01*
X0164968Y0156254D01*
X0164184Y0155470D01*
X0163759Y0154445D01*
X0163759Y0154353D01*
X0161595Y0152190D01*
X0160248Y0150842D01*
X0160248Y0140027D01*
X0160021Y0139800D01*
X0156733Y0139800D01*
X0156724Y0139822D01*
X0155570Y0140976D01*
X0154064Y0141600D01*
X0152432Y0141600D01*
X0150926Y0140976D01*
X0149772Y0139822D01*
X0149148Y0138316D01*
X0149148Y0136684D01*
X0149772Y0135178D01*
X0150926Y0134024D01*
X0151050Y0133972D02*
X0021574Y0133972D01*
X0020976Y0133374D02*
X0166348Y0133374D01*
X0166348Y0133972D02*
X0155446Y0133972D01*
X0156117Y0134571D02*
X0166348Y0134571D01*
X0166348Y0135170D02*
X0156716Y0135170D01*
X0156589Y0139958D02*
X0160179Y0139958D01*
X0160248Y0140556D02*
X0155990Y0140556D01*
X0155139Y0141155D02*
X0160248Y0141155D01*
X0160248Y0141753D02*
X0140254Y0141753D01*
X0140852Y0142352D02*
X0160248Y0142352D01*
X0160248Y0142950D02*
X0141451Y0142950D01*
X0142049Y0143549D02*
X0160248Y0143549D01*
X0160248Y0144147D02*
X0142648Y0144147D01*
X0143246Y0144746D02*
X0160248Y0144746D01*
X0160248Y0145344D02*
X0143845Y0145344D01*
X0144443Y0145943D02*
X0160248Y0145943D01*
X0160248Y0146541D02*
X0144848Y0146541D01*
X0144848Y0147140D02*
X0160248Y0147140D01*
X0160248Y0147738D02*
X0144848Y0147738D01*
X0144848Y0148337D02*
X0160248Y0148337D01*
X0160248Y0148935D02*
X0144848Y0148935D01*
X0144848Y0149534D02*
X0160248Y0149534D01*
X0160248Y0150132D02*
X0144848Y0150132D01*
X0144848Y0150731D02*
X0160248Y0150731D01*
X0160735Y0151329D02*
X0144848Y0151329D01*
X0144848Y0151928D02*
X0161333Y0151928D01*
X0161932Y0152526D02*
X0144848Y0152526D01*
X0144848Y0153125D02*
X0162530Y0153125D01*
X0163129Y0153723D02*
X0154987Y0153723D01*
X0154863Y0153600D02*
X0157148Y0155885D01*
X0157148Y0157200D01*
X0153548Y0157200D01*
X0153548Y0153600D01*
X0154863Y0153600D01*
X0155585Y0154322D02*
X0163727Y0154322D01*
X0163956Y0154920D02*
X0156184Y0154920D01*
X0156782Y0155519D02*
X0164233Y0155519D01*
X0164831Y0156117D02*
X0157148Y0156117D01*
X0157148Y0156716D02*
X0389621Y0156716D01*
X0389012Y0156117D02*
X0254529Y0156117D01*
X0254246Y0156400D02*
X0250850Y0156400D01*
X0248448Y0153998D01*
X0248448Y0150602D01*
X0250850Y0148200D01*
X0254246Y0148200D01*
X0256648Y0150602D01*
X0256648Y0153998D01*
X0254246Y0156400D01*
X0255127Y0155519D02*
X0388413Y0155519D01*
X0388005Y0154920D02*
X0255726Y0154920D01*
X0256324Y0154322D02*
X0387757Y0154322D01*
X0387509Y0153723D02*
X0256648Y0153723D01*
X0256648Y0153125D02*
X0387348Y0153125D01*
X0387348Y0152526D02*
X0256648Y0152526D01*
X0256648Y0151928D02*
X0387348Y0151928D01*
X0387348Y0151329D02*
X0256648Y0151329D01*
X0256648Y0150731D02*
X0387570Y0150731D01*
X0387817Y0150132D02*
X0256179Y0150132D01*
X0255580Y0149534D02*
X0388065Y0149534D01*
X0388559Y0148935D02*
X0254982Y0148935D01*
X0254383Y0148337D02*
X0389157Y0148337D01*
X0389973Y0147738D02*
X0164848Y0147738D01*
X0164848Y0147140D02*
X0390644Y0147140D01*
X0389435Y0146541D02*
X0164848Y0146541D01*
X0164848Y0145943D02*
X0388837Y0145943D01*
X0388238Y0145344D02*
X0164848Y0145344D01*
X0164848Y0144746D02*
X0387933Y0144746D01*
X0387685Y0144147D02*
X0203462Y0144147D01*
X0203921Y0143957D02*
X0202896Y0144382D01*
X0201786Y0144382D01*
X0200761Y0143957D01*
X0200697Y0143893D01*
X0195888Y0143893D01*
X0194541Y0142545D01*
X0186595Y0134600D01*
X0185248Y0133253D01*
X0185248Y0098944D01*
X0185184Y0098880D01*
X0184759Y0097855D01*
X0184759Y0096745D01*
X0185184Y0095720D01*
X0185968Y0094936D01*
X0186993Y0094511D01*
X0188103Y0094511D01*
X0189128Y0094936D01*
X0189912Y0095720D01*
X0190337Y0096745D01*
X0190337Y0097855D01*
X0189912Y0098880D01*
X0189848Y0098944D01*
X0189848Y0131347D01*
X0197794Y0139293D01*
X0200697Y0139293D01*
X0200761Y0139228D01*
X0201786Y0138804D01*
X0202896Y0138804D01*
X0203921Y0139228D01*
X0204705Y0140013D01*
X0205130Y0141038D01*
X0205130Y0142148D01*
X0204705Y0143173D01*
X0203921Y0143957D01*
X0204329Y0143549D02*
X0387437Y0143549D01*
X0387348Y0142950D02*
X0204797Y0142950D01*
X0205045Y0142352D02*
X0387348Y0142352D01*
X0387348Y0141753D02*
X0205130Y0141753D01*
X0205130Y0141155D02*
X0387394Y0141155D01*
X0387642Y0140556D02*
X0204930Y0140556D01*
X0204650Y0139958D02*
X0387890Y0139958D01*
X0388138Y0139359D02*
X0204051Y0139359D01*
X0201220Y0144147D02*
X0164848Y0144147D01*
X0164848Y0143549D02*
X0166952Y0143549D01*
X0167068Y0143664D02*
X0166284Y0142880D01*
X0165859Y0141855D01*
X0165859Y0140745D01*
X0166284Y0139720D01*
X0166348Y0139656D01*
X0166348Y0094653D01*
X0161395Y0089700D01*
X0146692Y0089700D01*
X0146628Y0089764D01*
X0145603Y0090189D01*
X0144493Y0090189D01*
X0143468Y0089764D01*
X0142684Y0088980D01*
X0142259Y0087955D01*
X0142259Y0086845D01*
X0142684Y0085820D01*
X0143468Y0085036D01*
X0144493Y0084611D01*
X0145603Y0084611D01*
X0146628Y0085036D01*
X0146692Y0085100D01*
X0163301Y0085100D01*
X0170948Y0092747D01*
X0170948Y0139656D01*
X0171012Y0139720D01*
X0171437Y0140745D01*
X0171437Y0141855D01*
X0171012Y0142880D01*
X0170228Y0143664D01*
X0169203Y0144089D01*
X0168093Y0144089D01*
X0167068Y0143664D01*
X0166354Y0142950D02*
X0164848Y0142950D01*
X0164848Y0142352D02*
X0166065Y0142352D01*
X0165859Y0141753D02*
X0164848Y0141753D01*
X0164848Y0141155D02*
X0165859Y0141155D01*
X0165937Y0140556D02*
X0164848Y0140556D01*
X0164848Y0139958D02*
X0166185Y0139958D01*
X0166348Y0139359D02*
X0164848Y0139359D01*
X0164848Y0138761D02*
X0166348Y0138761D01*
X0166348Y0138162D02*
X0164848Y0138162D01*
X0164290Y0137564D02*
X0166348Y0137564D01*
X0166348Y0136965D02*
X0163692Y0136965D01*
X0163093Y0136367D02*
X0166348Y0136367D01*
X0166348Y0135768D02*
X0162495Y0135768D01*
X0166348Y0132775D02*
X0020213Y0132775D01*
X0019362Y0132177D02*
X0166348Y0132177D01*
X0166348Y0131578D02*
X0020623Y0131578D01*
X0021222Y0130980D02*
X0166348Y0130980D01*
X0166348Y0130381D02*
X0021821Y0130381D01*
X0022148Y0129783D02*
X0166348Y0129783D01*
X0166348Y0129184D02*
X0022396Y0129184D01*
X0022644Y0128586D02*
X0166348Y0128586D01*
X0166348Y0127987D02*
X0022748Y0127987D01*
X0022748Y0127389D02*
X0166348Y0127389D01*
X0166348Y0126790D02*
X0022748Y0126790D01*
X0022717Y0126192D02*
X0166348Y0126192D01*
X0166348Y0125593D02*
X0022470Y0125593D01*
X0022222Y0124995D02*
X0166348Y0124995D01*
X0166348Y0124396D02*
X0021974Y0124396D01*
X0021400Y0123798D02*
X0166348Y0123798D01*
X0166348Y0123199D02*
X0020801Y0123199D01*
X0019791Y0122601D02*
X0166348Y0122601D01*
X0166348Y0122002D02*
X0019784Y0122002D01*
X0020798Y0121404D02*
X0166348Y0121404D01*
X0166348Y0120805D02*
X0021397Y0120805D01*
X0021972Y0120207D02*
X0166348Y0120207D01*
X0166348Y0119608D02*
X0022220Y0119608D01*
X0022468Y0119010D02*
X0166348Y0119010D01*
X0166348Y0118411D02*
X0022716Y0118411D01*
X0022748Y0117813D02*
X0166348Y0117813D01*
X0166348Y0117214D02*
X0022748Y0117214D01*
X0022748Y0116616D02*
X0166348Y0116616D01*
X0166348Y0116017D02*
X0022645Y0116017D01*
X0022397Y0115419D02*
X0166348Y0115419D01*
X0166348Y0114820D02*
X0022149Y0114820D01*
X0021824Y0114222D02*
X0166348Y0114222D01*
X0166348Y0113623D02*
X0021225Y0113623D01*
X0020627Y0113025D02*
X0166348Y0113025D01*
X0166348Y0112426D02*
X0019370Y0112426D01*
X0020206Y0111828D02*
X0166348Y0111828D01*
X0166348Y0111229D02*
X0020973Y0111229D01*
X0021571Y0110631D02*
X0166348Y0110631D01*
X0166348Y0110032D02*
X0022045Y0110032D01*
X0022293Y0109434D02*
X0166348Y0109434D01*
X0166348Y0108835D02*
X0022541Y0108835D01*
X0022748Y0108237D02*
X0166348Y0108237D01*
X0166348Y0107638D02*
X0022748Y0107638D01*
X0022748Y0107039D02*
X0166348Y0107039D01*
X0166348Y0106441D02*
X0022748Y0106441D01*
X0022573Y0105842D02*
X0166348Y0105842D01*
X0166348Y0105244D02*
X0022325Y0105244D01*
X0022077Y0104645D02*
X0166348Y0104645D01*
X0166348Y0104047D02*
X0021649Y0104047D01*
X0021050Y0103448D02*
X0166348Y0103448D01*
X0166348Y0102850D02*
X0020393Y0102850D01*
X0020549Y0101653D02*
X0166348Y0101653D01*
X0166348Y0102251D02*
X0019183Y0102251D01*
X0021148Y0101054D02*
X0166348Y0101054D01*
X0166348Y0100456D02*
X0021746Y0100456D01*
X0022117Y0099857D02*
X0166348Y0099857D01*
X0166348Y0099259D02*
X0022365Y0099259D01*
X0022613Y0098660D02*
X0166348Y0098660D01*
X0166348Y0098062D02*
X0022748Y0098062D01*
X0022748Y0097463D02*
X0166348Y0097463D01*
X0166348Y0096865D02*
X0022748Y0096865D01*
X0022252Y0095069D02*
X0166348Y0095069D01*
X0166166Y0094471D02*
X0022005Y0094471D01*
X0021474Y0093872D02*
X0165568Y0093872D01*
X0164969Y0093274D02*
X0020876Y0093274D01*
X0019971Y0092675D02*
X0164371Y0092675D01*
X0163772Y0092077D02*
X0019604Y0092077D01*
X0020724Y0091478D02*
X0163174Y0091478D01*
X0162575Y0090880D02*
X0021322Y0090880D01*
X0021921Y0090281D02*
X0161977Y0090281D01*
X0165489Y0087289D02*
X0215759Y0087289D01*
X0215772Y0087887D02*
X0166088Y0087887D01*
X0166686Y0088486D02*
X0195847Y0088486D01*
X0195933Y0088400D02*
X0197248Y0088400D01*
X0197248Y0092000D01*
X0193648Y0092000D01*
X0193648Y0090685D01*
X0195933Y0088400D01*
X0195248Y0089084D02*
X0167285Y0089084D01*
X0167883Y0089683D02*
X0194650Y0089683D01*
X0194051Y0090281D02*
X0168482Y0090281D01*
X0169080Y0090880D02*
X0193648Y0090880D01*
X0193648Y0091478D02*
X0169679Y0091478D01*
X0170277Y0092077D02*
X0197248Y0092077D01*
X0197248Y0092000D02*
X0197248Y0092600D01*
X0193648Y0092600D01*
X0193648Y0093915D01*
X0195933Y0096200D01*
X0197248Y0096200D01*
X0197248Y0092600D01*
X0197848Y0092600D01*
X0197848Y0096200D01*
X0199163Y0096200D01*
X0201448Y0093915D01*
X0201448Y0092600D01*
X0197848Y0092600D01*
X0197848Y0092000D01*
X0197848Y0088400D01*
X0199163Y0088400D01*
X0201448Y0090685D01*
X0201448Y0092000D01*
X0197848Y0092000D01*
X0197248Y0092000D01*
X0197248Y0091478D02*
X0197848Y0091478D01*
X0197848Y0090880D02*
X0197248Y0090880D01*
X0197248Y0090281D02*
X0197848Y0090281D01*
X0197848Y0089683D02*
X0197248Y0089683D01*
X0197248Y0089084D02*
X0197848Y0089084D01*
X0197848Y0088486D02*
X0197248Y0088486D01*
X0199249Y0088486D02*
X0205564Y0088486D01*
X0205850Y0088200D02*
X0209246Y0088200D01*
X0211648Y0090602D01*
X0211648Y0093998D01*
X0209246Y0096400D01*
X0205850Y0096400D01*
X0203448Y0093998D01*
X0203448Y0090602D01*
X0205850Y0088200D01*
X0204966Y0089084D02*
X0199848Y0089084D01*
X0200446Y0089683D02*
X0204367Y0089683D01*
X0203769Y0090281D02*
X0201045Y0090281D01*
X0201448Y0090880D02*
X0203448Y0090880D01*
X0203448Y0091478D02*
X0201448Y0091478D01*
X0201448Y0092675D02*
X0203448Y0092675D01*
X0203448Y0092077D02*
X0197848Y0092077D01*
X0197848Y0092675D02*
X0197248Y0092675D01*
X0197248Y0093274D02*
X0197848Y0093274D01*
X0197848Y0093872D02*
X0197248Y0093872D01*
X0197248Y0094471D02*
X0197848Y0094471D01*
X0197848Y0095069D02*
X0197248Y0095069D01*
X0197248Y0095668D02*
X0197848Y0095668D01*
X0199696Y0095668D02*
X0205118Y0095668D01*
X0205716Y0096266D02*
X0190139Y0096266D01*
X0190337Y0096865D02*
X0389980Y0096865D01*
X0390637Y0097463D02*
X0190337Y0097463D01*
X0190251Y0098062D02*
X0389432Y0098062D01*
X0388834Y0098660D02*
X0190003Y0098660D01*
X0189848Y0099259D02*
X0388235Y0099259D01*
X0387931Y0099857D02*
X0203939Y0099857D01*
X0204128Y0099936D02*
X0204912Y0100720D01*
X0205337Y0101745D01*
X0205337Y0102855D01*
X0204912Y0103880D01*
X0204848Y0103944D01*
X0204848Y0121247D01*
X0221095Y0105000D01*
X0225904Y0105000D01*
X0225968Y0104936D01*
X0226993Y0104511D01*
X0228103Y0104511D01*
X0229128Y0104936D01*
X0229912Y0105720D01*
X0230337Y0106745D01*
X0230337Y0107855D01*
X0229912Y0108880D01*
X0229128Y0109664D01*
X0228103Y0110089D01*
X0226993Y0110089D01*
X0225968Y0109664D01*
X0225904Y0109600D01*
X0223001Y0109600D01*
X0208747Y0123853D01*
X0208747Y0124855D01*
X0208323Y0125880D01*
X0207538Y0126664D01*
X0206513Y0127089D01*
X0205403Y0127089D01*
X0205337Y0127061D01*
X0205337Y0127855D01*
X0204912Y0128880D01*
X0204128Y0129664D01*
X0203103Y0130089D01*
X0201993Y0130089D01*
X0200968Y0129664D01*
X0200184Y0128880D01*
X0199759Y0127855D01*
X0199759Y0126745D01*
X0200184Y0125720D01*
X0200248Y0125656D01*
X0200248Y0103944D01*
X0200184Y0103880D01*
X0199759Y0102855D01*
X0199759Y0101745D01*
X0200184Y0100720D01*
X0200968Y0099936D01*
X0201993Y0099511D01*
X0203103Y0099511D01*
X0204128Y0099936D01*
X0204648Y0100456D02*
X0387683Y0100456D01*
X0387436Y0101054D02*
X0205051Y0101054D01*
X0205299Y0101653D02*
X0387348Y0101653D01*
X0387348Y0102251D02*
X0205337Y0102251D01*
X0205337Y0102850D02*
X0387348Y0102850D01*
X0387395Y0103448D02*
X0205091Y0103448D01*
X0204848Y0104047D02*
X0387643Y0104047D01*
X0387891Y0104645D02*
X0228427Y0104645D01*
X0229436Y0105244D02*
X0388139Y0105244D01*
X0388737Y0105842D02*
X0229963Y0105842D01*
X0230211Y0106441D02*
X0389335Y0106441D01*
X0390402Y0107039D02*
X0230337Y0107039D01*
X0230337Y0107638D02*
X0390215Y0107638D01*
X0389258Y0108237D02*
X0230179Y0108237D01*
X0229931Y0108835D02*
X0388659Y0108835D01*
X0388107Y0109434D02*
X0229359Y0109434D01*
X0228240Y0110032D02*
X0387859Y0110032D01*
X0387611Y0110631D02*
X0221970Y0110631D01*
X0221372Y0111229D02*
X0387363Y0111229D01*
X0387348Y0111828D02*
X0220773Y0111828D01*
X0220175Y0112426D02*
X0387348Y0112426D01*
X0387348Y0113025D02*
X0219576Y0113025D01*
X0218978Y0113623D02*
X0387468Y0113623D01*
X0387716Y0114222D02*
X0218379Y0114222D01*
X0217781Y0114820D02*
X0387963Y0114820D01*
X0388313Y0115419D02*
X0217182Y0115419D01*
X0216584Y0116017D02*
X0388911Y0116017D01*
X0389510Y0116616D02*
X0215985Y0116616D01*
X0215387Y0117214D02*
X0390824Y0117214D01*
X0389793Y0117813D02*
X0214788Y0117813D01*
X0214190Y0118411D02*
X0389083Y0118411D01*
X0388484Y0119010D02*
X0213591Y0119010D01*
X0212992Y0119608D02*
X0388035Y0119608D01*
X0387787Y0120207D02*
X0212394Y0120207D01*
X0211795Y0120805D02*
X0387539Y0120805D01*
X0387348Y0121404D02*
X0211197Y0121404D01*
X0210598Y0122002D02*
X0387348Y0122002D01*
X0387348Y0122601D02*
X0210000Y0122601D01*
X0209401Y0123199D02*
X0387348Y0123199D01*
X0387540Y0123798D02*
X0208803Y0123798D01*
X0208747Y0124396D02*
X0387788Y0124396D01*
X0388036Y0124995D02*
X0208689Y0124995D01*
X0208441Y0125593D02*
X0388487Y0125593D01*
X0389086Y0126192D02*
X0208011Y0126192D01*
X0207234Y0126790D02*
X0389800Y0126790D01*
X0390816Y0127389D02*
X0205337Y0127389D01*
X0205282Y0127987D02*
X0389507Y0127987D01*
X0388908Y0128586D02*
X0205034Y0128586D01*
X0204608Y0129184D02*
X0388310Y0129184D01*
X0387962Y0129783D02*
X0203842Y0129783D01*
X0201254Y0129783D02*
X0189848Y0129783D01*
X0189848Y0130381D02*
X0387714Y0130381D01*
X0387466Y0130980D02*
X0189848Y0130980D01*
X0190079Y0131578D02*
X0387348Y0131578D01*
X0387348Y0132177D02*
X0190678Y0132177D01*
X0191276Y0132775D02*
X0387348Y0132775D01*
X0387364Y0133374D02*
X0191875Y0133374D01*
X0192473Y0133972D02*
X0387612Y0133972D01*
X0387860Y0134571D02*
X0193072Y0134571D01*
X0193670Y0135170D02*
X0388108Y0135170D01*
X0388662Y0135768D02*
X0194269Y0135768D01*
X0194867Y0136367D02*
X0389261Y0136367D01*
X0390222Y0136965D02*
X0195466Y0136965D01*
X0196064Y0137564D02*
X0390395Y0137564D01*
X0389332Y0138162D02*
X0196663Y0138162D01*
X0197261Y0138761D02*
X0388734Y0138761D01*
X0390996Y0157314D02*
X0153548Y0157314D01*
X0153548Y0157200D02*
X0153548Y0157800D01*
X0152948Y0157800D01*
X0152948Y0157200D01*
X0149348Y0157200D01*
X0149348Y0155885D01*
X0151633Y0153600D01*
X0152948Y0153600D01*
X0152948Y0157200D01*
X0153548Y0157200D01*
X0153548Y0156716D02*
X0152948Y0156716D01*
X0152948Y0157314D02*
X0145815Y0157314D01*
X0145217Y0156716D02*
X0149348Y0156716D01*
X0149348Y0156117D02*
X0144848Y0156117D01*
X0144848Y0155519D02*
X0149714Y0155519D01*
X0150312Y0154920D02*
X0144848Y0154920D01*
X0144848Y0154322D02*
X0150911Y0154322D01*
X0151509Y0153723D02*
X0144848Y0153723D01*
X0146414Y0157913D02*
X0149348Y0157913D01*
X0149348Y0157800D02*
X0152948Y0157800D01*
X0152948Y0161400D01*
X0151633Y0161400D01*
X0149348Y0159115D01*
X0149348Y0157800D01*
X0149348Y0158511D02*
X0147012Y0158511D01*
X0147611Y0159110D02*
X0149348Y0159110D01*
X0149941Y0159708D02*
X0148209Y0159708D01*
X0148808Y0160307D02*
X0150540Y0160307D01*
X0151138Y0160905D02*
X0149406Y0160905D01*
X0152948Y0160905D02*
X0153548Y0160905D01*
X0153548Y0161400D02*
X0153548Y0157800D01*
X0157148Y0157800D01*
X0157148Y0159115D01*
X0154863Y0161400D01*
X0153548Y0161400D01*
X0153548Y0160307D02*
X0152948Y0160307D01*
X0152948Y0159708D02*
X0153548Y0159708D01*
X0153548Y0159110D02*
X0152948Y0159110D01*
X0152948Y0158511D02*
X0153548Y0158511D01*
X0153548Y0157913D02*
X0152948Y0157913D01*
X0152948Y0156117D02*
X0153548Y0156117D01*
X0153548Y0155519D02*
X0152948Y0155519D01*
X0152948Y0154920D02*
X0153548Y0154920D01*
X0153548Y0154322D02*
X0152948Y0154322D01*
X0152948Y0153723D02*
X0153548Y0153723D01*
X0157148Y0157913D02*
X0389581Y0157913D01*
X0388983Y0158511D02*
X0254275Y0158511D01*
X0254163Y0158400D02*
X0256448Y0160685D01*
X0256448Y0162000D01*
X0252848Y0162000D01*
X0252848Y0158400D01*
X0254163Y0158400D01*
X0254873Y0159110D02*
X0388384Y0159110D01*
X0387993Y0159708D02*
X0255472Y0159708D01*
X0256070Y0160307D02*
X0387745Y0160307D01*
X0387497Y0160905D02*
X0256448Y0160905D01*
X0256448Y0161504D02*
X0387348Y0161504D01*
X0387348Y0162103D02*
X0252848Y0162103D01*
X0252848Y0162000D02*
X0252848Y0162600D01*
X0252248Y0162600D01*
X0252248Y0162000D01*
X0248648Y0162000D01*
X0248648Y0160685D01*
X0250933Y0158400D01*
X0252248Y0158400D01*
X0252248Y0162000D01*
X0252848Y0162000D01*
X0252848Y0161504D02*
X0252248Y0161504D01*
X0252248Y0160905D02*
X0252848Y0160905D01*
X0252848Y0160307D02*
X0252248Y0160307D01*
X0252248Y0159708D02*
X0252848Y0159708D01*
X0252848Y0159110D02*
X0252248Y0159110D01*
X0252248Y0158511D02*
X0252848Y0158511D01*
X0250821Y0158511D02*
X0157148Y0158511D01*
X0157148Y0159110D02*
X0250223Y0159110D01*
X0249624Y0159708D02*
X0156555Y0159708D01*
X0155956Y0160307D02*
X0249026Y0160307D01*
X0248648Y0160905D02*
X0155358Y0160905D01*
X0145795Y0163800D02*
X0140248Y0158253D01*
X0140248Y0148253D01*
X0134595Y0142600D01*
X0133724Y0142600D01*
X0133456Y0143246D01*
X0131994Y0144708D01*
X0130246Y0145432D01*
X0130967Y0145666D01*
X0131669Y0146024D01*
X0132305Y0146486D01*
X0132862Y0147043D01*
X0133324Y0147679D01*
X0133682Y0148381D01*
X0133925Y0149129D01*
X0134048Y0149906D01*
X0134048Y0150000D01*
X0129348Y0150000D01*
X0129348Y0150600D01*
X0134048Y0150600D01*
X0134048Y0150694D01*
X0133925Y0151471D01*
X0133682Y0152219D01*
X0133324Y0152921D01*
X0132862Y0153557D01*
X0132305Y0154114D01*
X0131669Y0154576D01*
X0130967Y0154934D01*
X0130246Y0155168D01*
X0131994Y0155892D01*
X0133456Y0157354D01*
X0134248Y0159266D01*
X0134248Y0161334D01*
X0133981Y0161980D01*
X0135801Y0163800D01*
X0145795Y0163800D01*
X0145295Y0163300D02*
X0135300Y0163300D01*
X0134702Y0162701D02*
X0144696Y0162701D01*
X0144098Y0162103D02*
X0134103Y0162103D01*
X0134178Y0161504D02*
X0143499Y0161504D01*
X0142901Y0160905D02*
X0134248Y0160905D01*
X0134248Y0160307D02*
X0142302Y0160307D01*
X0141704Y0159708D02*
X0134248Y0159708D01*
X0134184Y0159110D02*
X0141105Y0159110D01*
X0140507Y0158511D02*
X0133936Y0158511D01*
X0133688Y0157913D02*
X0140248Y0157913D01*
X0140248Y0157314D02*
X0133416Y0157314D01*
X0132818Y0156716D02*
X0140248Y0156716D01*
X0140248Y0156117D02*
X0132219Y0156117D01*
X0131094Y0155519D02*
X0140248Y0155519D01*
X0140248Y0154920D02*
X0130993Y0154920D01*
X0132019Y0154322D02*
X0140248Y0154322D01*
X0140248Y0153723D02*
X0132696Y0153723D01*
X0133176Y0153125D02*
X0140248Y0153125D01*
X0140248Y0152526D02*
X0133525Y0152526D01*
X0133776Y0151928D02*
X0140248Y0151928D01*
X0140248Y0151329D02*
X0133947Y0151329D01*
X0134042Y0150731D02*
X0140248Y0150731D01*
X0140248Y0150132D02*
X0129348Y0150132D01*
X0128748Y0150132D02*
X0107968Y0150132D01*
X0107370Y0150731D02*
X0124054Y0150731D01*
X0124149Y0151329D02*
X0106771Y0151329D01*
X0106173Y0151928D02*
X0124320Y0151928D01*
X0124571Y0152526D02*
X0105574Y0152526D01*
X0104976Y0153125D02*
X0124920Y0153125D01*
X0125400Y0153723D02*
X0104377Y0153723D01*
X0103779Y0154322D02*
X0126077Y0154322D01*
X0127103Y0154920D02*
X0103180Y0154920D01*
X0102582Y0155519D02*
X0127002Y0155519D01*
X0125877Y0156117D02*
X0101983Y0156117D01*
X0101385Y0156716D02*
X0125278Y0156716D01*
X0124680Y0157314D02*
X0100786Y0157314D01*
X0100188Y0157913D02*
X0124408Y0157913D01*
X0124160Y0158511D02*
X0099589Y0158511D01*
X0098991Y0159110D02*
X0123913Y0159110D01*
X0123848Y0159708D02*
X0098392Y0159708D01*
X0097794Y0160307D02*
X0123848Y0160307D01*
X0123848Y0160905D02*
X0097195Y0160905D01*
X0096597Y0161504D02*
X0123918Y0161504D01*
X0124166Y0162103D02*
X0095998Y0162103D01*
X0095400Y0162701D02*
X0124414Y0162701D01*
X0124694Y0163300D02*
X0094801Y0163300D01*
X0094203Y0163898D02*
X0125292Y0163898D01*
X0125891Y0164497D02*
X0093604Y0164497D01*
X0093006Y0165095D02*
X0127036Y0165095D01*
X0131189Y0165694D02*
X0092407Y0165694D01*
X0091809Y0166292D02*
X0095303Y0166292D01*
X0094705Y0166891D02*
X0091210Y0166891D01*
X0090612Y0167489D02*
X0094106Y0167489D01*
X0094248Y0167347D02*
X0094248Y0167347D01*
X0093508Y0168088D02*
X0090013Y0168088D01*
X0089415Y0168686D02*
X0092909Y0168686D01*
X0092311Y0169285D02*
X0088816Y0169285D01*
X0088218Y0169883D02*
X0091712Y0169883D01*
X0091114Y0170482D02*
X0087619Y0170482D01*
X0087021Y0171080D02*
X0090515Y0171080D01*
X0089917Y0171679D02*
X0086422Y0171679D01*
X0085823Y0172277D02*
X0089318Y0172277D01*
X0088720Y0172876D02*
X0085225Y0172876D01*
X0084626Y0173474D02*
X0088121Y0173474D01*
X0087523Y0174073D02*
X0084028Y0174073D01*
X0083429Y0174671D02*
X0086924Y0174671D01*
X0086326Y0175270D02*
X0082831Y0175270D01*
X0082232Y0175868D02*
X0085727Y0175868D01*
X0085129Y0176467D02*
X0081634Y0176467D01*
X0081035Y0177065D02*
X0084530Y0177065D01*
X0083932Y0177664D02*
X0080437Y0177664D01*
X0079838Y0178262D02*
X0083333Y0178262D01*
X0082734Y0178861D02*
X0079240Y0178861D01*
X0078641Y0179459D02*
X0082136Y0179459D01*
X0081537Y0180058D02*
X0078043Y0180058D01*
X0077444Y0180656D02*
X0080939Y0180656D01*
X0080340Y0181255D02*
X0076846Y0181255D01*
X0076247Y0181853D02*
X0079742Y0181853D01*
X0079143Y0182452D02*
X0075649Y0182452D01*
X0075050Y0183050D02*
X0078545Y0183050D01*
X0077946Y0183649D02*
X0074452Y0183649D01*
X0073853Y0184247D02*
X0077348Y0184247D01*
X0076749Y0184846D02*
X0073255Y0184846D01*
X0072656Y0185444D02*
X0076151Y0185444D01*
X0075552Y0186043D02*
X0072058Y0186043D01*
X0071459Y0186641D02*
X0074954Y0186641D01*
X0074355Y0187240D02*
X0070861Y0187240D01*
X0070262Y0187839D02*
X0073757Y0187839D01*
X0073158Y0188437D02*
X0069664Y0188437D01*
X0069065Y0189036D02*
X0072560Y0189036D01*
X0071961Y0189634D02*
X0068467Y0189634D01*
X0067868Y0190233D02*
X0071363Y0190233D01*
X0070764Y0190831D02*
X0067270Y0190831D01*
X0066671Y0191430D02*
X0070166Y0191430D01*
X0069567Y0192028D02*
X0066073Y0192028D01*
X0065474Y0192627D02*
X0068969Y0192627D01*
X0068370Y0193225D02*
X0064876Y0193225D01*
X0064277Y0193824D02*
X0067772Y0193824D01*
X0067173Y0194422D02*
X0063679Y0194422D01*
X0063080Y0195021D02*
X0066575Y0195021D01*
X0065976Y0195619D02*
X0062482Y0195619D01*
X0061883Y0196218D02*
X0065378Y0196218D01*
X0064779Y0196816D02*
X0061285Y0196816D01*
X0060686Y0197415D02*
X0064181Y0197415D01*
X0063582Y0198013D02*
X0060087Y0198013D01*
X0059489Y0198612D02*
X0062984Y0198612D01*
X0062385Y0199210D02*
X0058890Y0199210D01*
X0058292Y0199809D02*
X0061787Y0199809D01*
X0061188Y0200407D02*
X0057693Y0200407D01*
X0057095Y0201006D02*
X0060590Y0201006D01*
X0059991Y0201604D02*
X0056496Y0201604D01*
X0055898Y0202203D02*
X0059393Y0202203D01*
X0058794Y0202801D02*
X0055299Y0202801D01*
X0054701Y0203400D02*
X0058196Y0203400D01*
X0057597Y0203998D02*
X0054102Y0203998D01*
X0053504Y0204597D02*
X0056999Y0204597D01*
X0056400Y0205195D02*
X0052905Y0205195D01*
X0052307Y0205794D02*
X0055801Y0205794D01*
X0055203Y0206392D02*
X0051708Y0206392D01*
X0051110Y0206991D02*
X0054604Y0206991D01*
X0054006Y0207589D02*
X0050511Y0207589D01*
X0049913Y0208188D02*
X0053407Y0208188D01*
X0052809Y0208786D02*
X0049314Y0208786D01*
X0048716Y0209385D02*
X0052210Y0209385D01*
X0051612Y0209983D02*
X0048117Y0209983D01*
X0047519Y0210582D02*
X0051013Y0210582D01*
X0050415Y0211180D02*
X0046920Y0211180D01*
X0046322Y0211779D02*
X0049816Y0211779D01*
X0049218Y0212377D02*
X0045723Y0212377D01*
X0045125Y0212976D02*
X0048619Y0212976D01*
X0048021Y0213574D02*
X0044526Y0213574D01*
X0043928Y0214173D02*
X0047422Y0214173D01*
X0046824Y0214772D02*
X0043329Y0214772D01*
X0042731Y0215370D02*
X0046225Y0215370D01*
X0045627Y0215969D02*
X0042132Y0215969D01*
X0041534Y0216567D02*
X0045028Y0216567D01*
X0044430Y0217166D02*
X0040935Y0217166D01*
X0040337Y0217764D02*
X0043831Y0217764D01*
X0043233Y0218363D02*
X0039738Y0218363D01*
X0039140Y0218961D02*
X0042634Y0218961D01*
X0041876Y0219560D02*
X0038541Y0219560D01*
X0037943Y0220158D02*
X0040746Y0220158D01*
X0040169Y0220757D02*
X0037344Y0220757D01*
X0036746Y0221355D02*
X0039921Y0221355D01*
X0039759Y0221954D02*
X0036147Y0221954D01*
X0035549Y0222552D02*
X0039759Y0222552D01*
X0039882Y0223151D02*
X0035247Y0223151D01*
X0035247Y0223749D02*
X0040130Y0223749D01*
X0040652Y0224348D02*
X0035247Y0224348D01*
X0035247Y0224946D02*
X0041649Y0224946D01*
X0043447Y0224946D02*
X0115992Y0224946D01*
X0115394Y0225545D02*
X0035247Y0225545D01*
X0035247Y0226143D02*
X0114795Y0226143D01*
X0114197Y0226742D02*
X0035247Y0226742D01*
X0035247Y0227340D02*
X0113598Y0227340D01*
X0113000Y0227939D02*
X0035247Y0227939D01*
X0035247Y0228537D02*
X0040512Y0228537D01*
X0040850Y0228200D02*
X0044246Y0228200D01*
X0046648Y0230602D01*
X0046648Y0233998D01*
X0044246Y0236400D01*
X0040850Y0236400D01*
X0038448Y0233998D01*
X0038448Y0230602D01*
X0040850Y0228200D01*
X0039914Y0229136D02*
X0035247Y0229136D01*
X0035247Y0229734D02*
X0039315Y0229734D01*
X0038717Y0230333D02*
X0035247Y0230333D01*
X0035247Y0230931D02*
X0038448Y0230931D01*
X0038448Y0231530D02*
X0035247Y0231530D01*
X0035247Y0232128D02*
X0038448Y0232128D01*
X0038448Y0232727D02*
X0035247Y0232727D01*
X0035247Y0233325D02*
X0038448Y0233325D01*
X0038448Y0233924D02*
X0035247Y0233924D01*
X0035247Y0234522D02*
X0038972Y0234522D01*
X0039571Y0235121D02*
X0035247Y0235121D01*
X0035247Y0235719D02*
X0040169Y0235719D01*
X0040768Y0236318D02*
X0035247Y0236318D01*
X0035247Y0236916D02*
X0104022Y0236916D01*
X0104621Y0236318D02*
X0084328Y0236318D01*
X0084246Y0236400D02*
X0080850Y0236400D01*
X0078448Y0233998D01*
X0078448Y0230602D01*
X0080850Y0228200D01*
X0084246Y0228200D01*
X0086648Y0230602D01*
X0086648Y0233998D01*
X0084246Y0236400D01*
X0084927Y0235719D02*
X0105219Y0235719D01*
X0105818Y0235121D02*
X0085525Y0235121D01*
X0086124Y0234522D02*
X0106416Y0234522D01*
X0107015Y0233924D02*
X0086648Y0233924D01*
X0086648Y0233325D02*
X0107613Y0233325D01*
X0108212Y0232727D02*
X0086648Y0232727D01*
X0086648Y0232128D02*
X0108810Y0232128D01*
X0109409Y0231530D02*
X0086648Y0231530D01*
X0086648Y0230931D02*
X0110007Y0230931D01*
X0110606Y0230333D02*
X0086379Y0230333D01*
X0085781Y0229734D02*
X0111204Y0229734D01*
X0111803Y0229136D02*
X0085182Y0229136D01*
X0084584Y0228537D02*
X0112401Y0228537D01*
X0115914Y0231530D02*
X0399749Y0231530D01*
X0399749Y0232128D02*
X0115315Y0232128D01*
X0114717Y0232727D02*
X0399749Y0232727D01*
X0399749Y0233325D02*
X0114118Y0233325D01*
X0113520Y0233924D02*
X0399749Y0233924D01*
X0399749Y0234522D02*
X0112921Y0234522D01*
X0112323Y0235121D02*
X0399749Y0235121D01*
X0399749Y0235719D02*
X0111724Y0235719D01*
X0111126Y0236318D02*
X0399749Y0236318D01*
X0399749Y0236916D02*
X0110527Y0236916D01*
X0109929Y0237515D02*
X0399749Y0237515D01*
X0399749Y0238113D02*
X0109330Y0238113D01*
X0108732Y0238712D02*
X0399749Y0238712D01*
X0399749Y0239310D02*
X0108133Y0239310D01*
X0107535Y0239909D02*
X0399749Y0239909D01*
X0399749Y0240508D02*
X0106936Y0240508D01*
X0106338Y0241106D02*
X0399749Y0241106D01*
X0399749Y0241705D02*
X0105739Y0241705D01*
X0105141Y0242303D02*
X0399749Y0242303D01*
X0399749Y0242902D02*
X0104542Y0242902D01*
X0103944Y0243500D02*
X0399749Y0243500D01*
X0399749Y0244099D02*
X0103345Y0244099D01*
X0102747Y0244697D02*
X0399749Y0244697D01*
X0399749Y0245296D02*
X0102148Y0245296D01*
X0101550Y0245894D02*
X0399749Y0245894D01*
X0399749Y0246493D02*
X0100951Y0246493D01*
X0100353Y0247091D02*
X0399749Y0247091D01*
X0399749Y0247690D02*
X0099754Y0247690D01*
X0099156Y0248288D02*
X0399749Y0248288D01*
X0399749Y0248887D02*
X0098557Y0248887D01*
X0097959Y0249485D02*
X0399749Y0249485D01*
X0399749Y0250084D02*
X0097360Y0250084D01*
X0096762Y0250682D02*
X0399749Y0250682D01*
X0399749Y0251281D02*
X0096163Y0251281D01*
X0095565Y0251879D02*
X0399749Y0251879D01*
X0399749Y0252478D02*
X0094966Y0252478D01*
X0094368Y0253076D02*
X0399749Y0253076D01*
X0399749Y0253675D02*
X0093769Y0253675D01*
X0093171Y0254273D02*
X0399749Y0254273D01*
X0399749Y0254872D02*
X0092572Y0254872D01*
X0091974Y0255470D02*
X0399749Y0255470D01*
X0399749Y0256069D02*
X0091375Y0256069D01*
X0090777Y0256667D02*
X0399749Y0256667D01*
X0399749Y0257266D02*
X0090178Y0257266D01*
X0089580Y0257864D02*
X0399749Y0257864D01*
X0399749Y0258463D02*
X0088981Y0258463D01*
X0088382Y0259061D02*
X0399749Y0259061D01*
X0399749Y0259660D02*
X0087784Y0259660D01*
X0087185Y0260258D02*
X0399749Y0260258D01*
X0399749Y0260857D02*
X0086587Y0260857D01*
X0085988Y0261455D02*
X0399749Y0261455D01*
X0399749Y0262054D02*
X0085390Y0262054D01*
X0084791Y0262652D02*
X0399749Y0262652D01*
X0399749Y0263251D02*
X0084193Y0263251D01*
X0083594Y0263849D02*
X0399749Y0263849D01*
X0399749Y0264448D02*
X0082996Y0264448D01*
X0082397Y0265046D02*
X0399749Y0265046D01*
X0399749Y0265645D02*
X0081799Y0265645D01*
X0081200Y0266243D02*
X0399749Y0266243D01*
X0399749Y0266842D02*
X0080602Y0266842D01*
X0080003Y0267441D02*
X0399749Y0267441D01*
X0399749Y0268039D02*
X0079405Y0268039D01*
X0078806Y0268638D02*
X0080695Y0268638D01*
X0080933Y0268400D02*
X0078648Y0270685D01*
X0078648Y0272000D01*
X0082248Y0272000D01*
X0082248Y0272600D01*
X0078648Y0272600D01*
X0078648Y0273915D01*
X0080933Y0276200D01*
X0082248Y0276200D01*
X0082248Y0272600D01*
X0082848Y0272600D01*
X0082848Y0276200D01*
X0084163Y0276200D01*
X0086448Y0273915D01*
X0086448Y0272600D01*
X0082848Y0272600D01*
X0082848Y0272000D01*
X0082848Y0268400D01*
X0084163Y0268400D01*
X0086448Y0270685D01*
X0086448Y0272000D01*
X0082848Y0272000D01*
X0082248Y0272000D01*
X0082248Y0268400D01*
X0080933Y0268400D01*
X0080097Y0269236D02*
X0078208Y0269236D01*
X0077609Y0269835D02*
X0079498Y0269835D01*
X0078900Y0270433D02*
X0077011Y0270433D01*
X0076412Y0271032D02*
X0078648Y0271032D01*
X0078648Y0271630D02*
X0075814Y0271630D01*
X0075215Y0272229D02*
X0082248Y0272229D01*
X0082248Y0272827D02*
X0082848Y0272827D01*
X0082848Y0272229D02*
X0122248Y0272229D01*
X0122248Y0272000D02*
X0118648Y0272000D01*
X0118648Y0270685D01*
X0120933Y0268400D01*
X0122248Y0268400D01*
X0122248Y0272000D01*
X0122248Y0272600D01*
X0118648Y0272600D01*
X0118648Y0273915D01*
X0120933Y0276200D01*
X0122248Y0276200D01*
X0122248Y0272600D01*
X0122848Y0272600D01*
X0122848Y0276200D01*
X0124163Y0276200D01*
X0126448Y0273915D01*
X0126448Y0272600D01*
X0122848Y0272600D01*
X0122848Y0272000D01*
X0122848Y0268400D01*
X0124163Y0268400D01*
X0126448Y0270685D01*
X0126448Y0272000D01*
X0122848Y0272000D01*
X0122248Y0272000D01*
X0122248Y0271630D02*
X0122848Y0271630D01*
X0122848Y0271032D02*
X0122248Y0271032D01*
X0122248Y0270433D02*
X0122848Y0270433D01*
X0122848Y0269835D02*
X0122248Y0269835D01*
X0122248Y0269236D02*
X0122848Y0269236D01*
X0122848Y0268638D02*
X0122248Y0268638D01*
X0120695Y0268638D02*
X0084401Y0268638D01*
X0084999Y0269236D02*
X0120097Y0269236D01*
X0119498Y0269835D02*
X0085598Y0269835D01*
X0086197Y0270433D02*
X0118900Y0270433D01*
X0118648Y0271032D02*
X0086448Y0271032D01*
X0086448Y0271630D02*
X0118648Y0271630D01*
X0118648Y0272827D02*
X0086448Y0272827D01*
X0086448Y0273426D02*
X0118648Y0273426D01*
X0118757Y0274024D02*
X0086339Y0274024D01*
X0085741Y0274623D02*
X0119355Y0274623D01*
X0119954Y0275221D02*
X0085142Y0275221D01*
X0084544Y0275820D02*
X0120552Y0275820D01*
X0122248Y0275820D02*
X0122848Y0275820D01*
X0122848Y0275221D02*
X0122248Y0275221D01*
X0122248Y0274623D02*
X0122848Y0274623D01*
X0122848Y0274024D02*
X0122248Y0274024D01*
X0122248Y0273426D02*
X0122848Y0273426D01*
X0122848Y0272827D02*
X0122248Y0272827D01*
X0122848Y0272229D02*
X0399749Y0272229D01*
X0399749Y0272827D02*
X0126448Y0272827D01*
X0126448Y0273426D02*
X0399749Y0273426D01*
X0399749Y0274024D02*
X0126339Y0274024D01*
X0125741Y0274623D02*
X0399749Y0274623D01*
X0399749Y0275221D02*
X0125142Y0275221D01*
X0124544Y0275820D02*
X0399749Y0275820D01*
X0399749Y0276418D02*
X0071026Y0276418D01*
X0071624Y0275820D02*
X0080552Y0275820D01*
X0079954Y0275221D02*
X0072223Y0275221D01*
X0072821Y0274623D02*
X0079355Y0274623D01*
X0078757Y0274024D02*
X0073420Y0274024D01*
X0074018Y0273426D02*
X0078648Y0273426D01*
X0078648Y0272827D02*
X0074617Y0272827D01*
X0072899Y0268039D02*
X0035247Y0268039D01*
X0035247Y0267441D02*
X0073498Y0267441D01*
X0074096Y0266842D02*
X0035247Y0266842D01*
X0035247Y0266243D02*
X0074695Y0266243D01*
X0075293Y0265645D02*
X0035247Y0265645D01*
X0035247Y0265046D02*
X0075892Y0265046D01*
X0076491Y0264448D02*
X0035247Y0264448D01*
X0035247Y0263849D02*
X0077089Y0263849D01*
X0077688Y0263251D02*
X0035247Y0263251D01*
X0035247Y0262652D02*
X0078286Y0262652D01*
X0078885Y0262054D02*
X0035247Y0262054D01*
X0035247Y0261455D02*
X0079483Y0261455D01*
X0080082Y0260857D02*
X0035247Y0260857D01*
X0035247Y0260258D02*
X0080680Y0260258D01*
X0081279Y0259660D02*
X0035247Y0259660D01*
X0035247Y0259061D02*
X0081877Y0259061D01*
X0082476Y0258463D02*
X0035247Y0258463D01*
X0035247Y0257864D02*
X0083074Y0257864D01*
X0083673Y0257266D02*
X0035247Y0257266D01*
X0035247Y0256667D02*
X0084271Y0256667D01*
X0084870Y0256069D02*
X0069577Y0256069D01*
X0069246Y0256400D02*
X0065850Y0256400D01*
X0063448Y0253998D01*
X0063448Y0250602D01*
X0065850Y0248200D01*
X0069246Y0248200D01*
X0071648Y0250602D01*
X0071648Y0253998D01*
X0069246Y0256400D01*
X0070176Y0255470D02*
X0085468Y0255470D01*
X0086067Y0254872D02*
X0070775Y0254872D01*
X0071373Y0254273D02*
X0086665Y0254273D01*
X0087264Y0253675D02*
X0071648Y0253675D01*
X0071648Y0253076D02*
X0087862Y0253076D01*
X0088461Y0252478D02*
X0071648Y0252478D01*
X0071648Y0251879D02*
X0089059Y0251879D01*
X0089658Y0251281D02*
X0071648Y0251281D01*
X0071648Y0250682D02*
X0090256Y0250682D01*
X0090855Y0250084D02*
X0071130Y0250084D01*
X0070531Y0249485D02*
X0091453Y0249485D01*
X0092052Y0248887D02*
X0069933Y0248887D01*
X0069334Y0248288D02*
X0092650Y0248288D01*
X0093249Y0247690D02*
X0035247Y0247690D01*
X0035247Y0248288D02*
X0055762Y0248288D01*
X0055850Y0248200D02*
X0059246Y0248200D01*
X0061648Y0250602D01*
X0061648Y0253998D01*
X0059246Y0256400D01*
X0055850Y0256400D01*
X0053448Y0253998D01*
X0053448Y0250602D01*
X0055850Y0248200D01*
X0055163Y0248887D02*
X0035247Y0248887D01*
X0035247Y0249485D02*
X0054565Y0249485D01*
X0053966Y0250084D02*
X0035247Y0250084D01*
X0035247Y0250682D02*
X0053448Y0250682D01*
X0053448Y0251281D02*
X0035247Y0251281D01*
X0035247Y0251879D02*
X0053448Y0251879D01*
X0053448Y0252478D02*
X0035247Y0252478D01*
X0035247Y0253076D02*
X0053448Y0253076D01*
X0053448Y0253675D02*
X0035247Y0253675D01*
X0035247Y0254273D02*
X0053723Y0254273D01*
X0054322Y0254872D02*
X0035247Y0254872D01*
X0035247Y0255470D02*
X0054920Y0255470D01*
X0055519Y0256069D02*
X0035247Y0256069D01*
X0035247Y0247091D02*
X0093847Y0247091D01*
X0094446Y0246493D02*
X0035247Y0246493D01*
X0035247Y0245894D02*
X0095044Y0245894D01*
X0095643Y0245296D02*
X0035247Y0245296D01*
X0035247Y0244697D02*
X0096241Y0244697D01*
X0096840Y0244099D02*
X0035247Y0244099D01*
X0035247Y0243500D02*
X0097438Y0243500D01*
X0098037Y0242902D02*
X0035247Y0242902D01*
X0035247Y0242303D02*
X0098635Y0242303D01*
X0099234Y0241705D02*
X0035247Y0241705D01*
X0035247Y0241106D02*
X0099832Y0241106D01*
X0100431Y0240508D02*
X0035247Y0240508D01*
X0035247Y0239909D02*
X0101029Y0239909D01*
X0101628Y0239310D02*
X0035247Y0239310D01*
X0035247Y0238712D02*
X0102227Y0238712D01*
X0102825Y0238113D02*
X0035247Y0238113D01*
X0035247Y0237515D02*
X0103424Y0237515D01*
X0116513Y0230931D02*
X0399749Y0230931D01*
X0399749Y0230333D02*
X0117111Y0230333D01*
X0117710Y0229734D02*
X0399749Y0229734D01*
X0399749Y0229136D02*
X0118308Y0229136D01*
X0118907Y0228537D02*
X0399749Y0228537D01*
X0399749Y0227939D02*
X0119505Y0227939D01*
X0120104Y0227340D02*
X0399749Y0227340D01*
X0399749Y0226742D02*
X0120702Y0226742D01*
X0121301Y0226143D02*
X0399749Y0226143D01*
X0399749Y0225545D02*
X0121899Y0225545D01*
X0122498Y0224946D02*
X0399749Y0224946D01*
X0399749Y0224348D02*
X0123096Y0224348D01*
X0123695Y0223749D02*
X0399749Y0223749D01*
X0399749Y0223151D02*
X0124293Y0223151D01*
X0124892Y0222552D02*
X0399749Y0222552D01*
X0399749Y0221954D02*
X0125490Y0221954D01*
X0126089Y0221355D02*
X0195805Y0221355D01*
X0195850Y0221400D02*
X0193448Y0218998D01*
X0193448Y0215602D01*
X0195850Y0213200D01*
X0199246Y0213200D01*
X0201648Y0215602D01*
X0201648Y0218998D01*
X0199246Y0221400D01*
X0195850Y0221400D01*
X0195206Y0220757D02*
X0126687Y0220757D01*
X0127286Y0220158D02*
X0194608Y0220158D01*
X0194009Y0219560D02*
X0127884Y0219560D01*
X0128483Y0218961D02*
X0193448Y0218961D01*
X0193448Y0218363D02*
X0129081Y0218363D01*
X0129680Y0217764D02*
X0193448Y0217764D01*
X0193448Y0217166D02*
X0130278Y0217166D01*
X0130877Y0216567D02*
X0193448Y0216567D01*
X0193448Y0215969D02*
X0131475Y0215969D01*
X0132074Y0215370D02*
X0193680Y0215370D01*
X0194278Y0214772D02*
X0132672Y0214772D01*
X0133271Y0214173D02*
X0194877Y0214173D01*
X0195475Y0213574D02*
X0133869Y0213574D01*
X0134468Y0212976D02*
X0216248Y0212976D01*
X0216248Y0213574D02*
X0209338Y0213574D01*
X0209163Y0213400D02*
X0211448Y0215685D01*
X0211448Y0217000D01*
X0207848Y0217000D01*
X0207848Y0213400D01*
X0209163Y0213400D01*
X0209936Y0214173D02*
X0216248Y0214173D01*
X0216162Y0214772D02*
X0210535Y0214772D01*
X0211133Y0215370D02*
X0215914Y0215370D01*
X0215759Y0215969D02*
X0211448Y0215969D01*
X0211448Y0216567D02*
X0215759Y0216567D01*
X0215888Y0217166D02*
X0207848Y0217166D01*
X0207848Y0217000D02*
X0207848Y0217600D01*
X0207248Y0217600D01*
X0207248Y0217000D01*
X0203648Y0217000D01*
X0203648Y0215685D01*
X0205933Y0213400D01*
X0207248Y0213400D01*
X0207248Y0217000D01*
X0207848Y0217000D01*
X0207848Y0216567D02*
X0207248Y0216567D01*
X0207248Y0215969D02*
X0207848Y0215969D01*
X0207848Y0215370D02*
X0207248Y0215370D01*
X0207248Y0214772D02*
X0207848Y0214772D01*
X0207848Y0214173D02*
X0207248Y0214173D01*
X0207248Y0213574D02*
X0207848Y0213574D01*
X0205758Y0213574D02*
X0199621Y0213574D01*
X0200219Y0214173D02*
X0205160Y0214173D01*
X0204561Y0214772D02*
X0200818Y0214772D01*
X0201416Y0215370D02*
X0203963Y0215370D01*
X0203648Y0215969D02*
X0201648Y0215969D01*
X0201648Y0216567D02*
X0203648Y0216567D01*
X0203648Y0217600D02*
X0207248Y0217600D01*
X0207248Y0221200D01*
X0205933Y0221200D01*
X0203648Y0218915D01*
X0203648Y0217600D01*
X0203648Y0217764D02*
X0201648Y0217764D01*
X0201648Y0217166D02*
X0207248Y0217166D01*
X0207248Y0217764D02*
X0207848Y0217764D01*
X0207848Y0217600D02*
X0207848Y0221200D01*
X0209163Y0221200D01*
X0211448Y0218915D01*
X0211448Y0217600D01*
X0207848Y0217600D01*
X0207848Y0218363D02*
X0207248Y0218363D01*
X0207248Y0218961D02*
X0207848Y0218961D01*
X0207848Y0219560D02*
X0207248Y0219560D01*
X0207248Y0220158D02*
X0207848Y0220158D01*
X0207848Y0220757D02*
X0207248Y0220757D01*
X0205489Y0220757D02*
X0199890Y0220757D01*
X0199291Y0221355D02*
X0399749Y0221355D01*
X0399749Y0220757D02*
X0209607Y0220757D01*
X0210205Y0220158D02*
X0399749Y0220158D01*
X0399749Y0219560D02*
X0210804Y0219560D01*
X0211402Y0218961D02*
X0217685Y0218961D01*
X0216666Y0218363D02*
X0211448Y0218363D01*
X0211448Y0217764D02*
X0216136Y0217764D01*
X0219411Y0218961D02*
X0399749Y0218961D01*
X0399749Y0218363D02*
X0220430Y0218363D01*
X0220960Y0217764D02*
X0399749Y0217764D01*
X0399749Y0217166D02*
X0393754Y0217166D01*
X0395181Y0216567D02*
X0399749Y0216567D01*
X0399749Y0215969D02*
X0395951Y0215969D01*
X0396498Y0215370D02*
X0399749Y0215370D01*
X0399749Y0214772D02*
X0396900Y0214772D01*
X0397197Y0214173D02*
X0399749Y0214173D01*
X0399749Y0213574D02*
X0397391Y0213574D01*
X0397503Y0212976D02*
X0399749Y0212976D01*
X0390865Y0207589D02*
X0220848Y0207589D01*
X0220848Y0206991D02*
X0390285Y0206991D01*
X0389286Y0206392D02*
X0220848Y0206392D01*
X0220848Y0205794D02*
X0388688Y0205794D01*
X0388119Y0205195D02*
X0220848Y0205195D01*
X0220848Y0204597D02*
X0387871Y0204597D01*
X0387623Y0203998D02*
X0220848Y0203998D01*
X0220848Y0203400D02*
X0387375Y0203400D01*
X0387348Y0202801D02*
X0220848Y0202801D01*
X0220848Y0202203D02*
X0387348Y0202203D01*
X0387348Y0201604D02*
X0220848Y0201604D01*
X0220848Y0201006D02*
X0387456Y0201006D01*
X0387704Y0200407D02*
X0220848Y0200407D01*
X0220848Y0199809D02*
X0387951Y0199809D01*
X0388284Y0199210D02*
X0220848Y0199210D01*
X0220848Y0198612D02*
X0388882Y0198612D01*
X0389481Y0198013D02*
X0220848Y0198013D01*
X0220848Y0197415D02*
X0390754Y0197415D01*
X0389863Y0196816D02*
X0220848Y0196816D01*
X0220848Y0196218D02*
X0389112Y0196218D01*
X0388513Y0195619D02*
X0220848Y0195619D01*
X0220848Y0195021D02*
X0388047Y0195021D01*
X0387799Y0194422D02*
X0220848Y0194422D01*
X0220848Y0193824D02*
X0387551Y0193824D01*
X0387348Y0193225D02*
X0220848Y0193225D01*
X0220848Y0192627D02*
X0387348Y0192627D01*
X0387348Y0192028D02*
X0220848Y0192028D01*
X0220848Y0191430D02*
X0387348Y0191430D01*
X0387528Y0190831D02*
X0220848Y0190831D01*
X0220848Y0190233D02*
X0387776Y0190233D01*
X0388024Y0189634D02*
X0220848Y0189634D01*
X0220848Y0189036D02*
X0388459Y0189036D01*
X0389057Y0188437D02*
X0220848Y0188437D01*
X0220848Y0187839D02*
X0389731Y0187839D01*
X0389536Y0186641D02*
X0221218Y0186641D01*
X0221337Y0186043D02*
X0388937Y0186043D01*
X0388339Y0185444D02*
X0221337Y0185444D01*
X0221172Y0184846D02*
X0387974Y0184846D01*
X0387726Y0184247D02*
X0220924Y0184247D01*
X0220341Y0183649D02*
X0387478Y0183649D01*
X0387348Y0183050D02*
X0219198Y0183050D01*
X0217898Y0183050D02*
X0201698Y0183050D01*
X0201698Y0183176D02*
X0200351Y0184524D01*
X0199848Y0185027D01*
X0199848Y0205656D01*
X0199912Y0205720D01*
X0200337Y0206745D01*
X0200337Y0207855D01*
X0199912Y0208880D01*
X0199128Y0209664D01*
X0198103Y0210089D01*
X0196993Y0210089D01*
X0195968Y0209664D01*
X0195184Y0208880D01*
X0194759Y0207855D01*
X0194759Y0206745D01*
X0195184Y0205720D01*
X0195248Y0205656D01*
X0195248Y0188544D01*
X0194726Y0189066D01*
X0193701Y0189491D01*
X0193610Y0189491D01*
X0179848Y0203253D01*
X0179848Y0205656D01*
X0179912Y0205720D01*
X0180337Y0206745D01*
X0180337Y0207855D01*
X0179912Y0208880D01*
X0179128Y0209664D01*
X0178103Y0210089D01*
X0176993Y0210089D01*
X0175968Y0209664D01*
X0175184Y0208880D01*
X0174759Y0207855D01*
X0174759Y0206745D01*
X0175184Y0205720D01*
X0175248Y0205656D01*
X0175248Y0201347D01*
X0176595Y0200000D01*
X0190358Y0186238D01*
X0190358Y0186147D01*
X0190782Y0185122D01*
X0191567Y0184337D01*
X0192592Y0183913D01*
X0193701Y0183913D01*
X0194726Y0184337D01*
X0195248Y0184859D01*
X0195248Y0183121D01*
X0196923Y0181446D01*
X0196609Y0180689D01*
X0196609Y0179580D01*
X0197034Y0178555D01*
X0197819Y0177770D01*
X0198844Y0177346D01*
X0199953Y0177346D01*
X0200978Y0177770D01*
X0201763Y0178555D01*
X0202187Y0179580D01*
X0202187Y0180689D01*
X0201763Y0181714D01*
X0201698Y0181779D01*
X0201698Y0183176D01*
X0201226Y0183649D02*
X0216755Y0183649D01*
X0216172Y0184247D02*
X0200627Y0184247D01*
X0200029Y0184846D02*
X0215924Y0184846D01*
X0215759Y0185444D02*
X0199848Y0185444D01*
X0199848Y0186043D02*
X0215759Y0186043D01*
X0215878Y0186641D02*
X0199848Y0186641D01*
X0199848Y0187240D02*
X0216126Y0187240D01*
X0216248Y0187839D02*
X0199848Y0187839D01*
X0199848Y0188437D02*
X0216248Y0188437D01*
X0216248Y0189036D02*
X0199848Y0189036D01*
X0199848Y0189634D02*
X0216248Y0189634D01*
X0216248Y0190233D02*
X0199848Y0190233D01*
X0199848Y0190831D02*
X0216248Y0190831D01*
X0216248Y0191430D02*
X0199848Y0191430D01*
X0199848Y0192028D02*
X0216248Y0192028D01*
X0216248Y0192627D02*
X0199848Y0192627D01*
X0199848Y0193225D02*
X0216248Y0193225D01*
X0216248Y0193824D02*
X0199848Y0193824D01*
X0199848Y0194422D02*
X0216248Y0194422D01*
X0216248Y0195021D02*
X0199848Y0195021D01*
X0199848Y0195619D02*
X0216248Y0195619D01*
X0216248Y0196218D02*
X0199848Y0196218D01*
X0199848Y0196816D02*
X0216248Y0196816D01*
X0216248Y0197415D02*
X0199848Y0197415D01*
X0199848Y0198013D02*
X0216248Y0198013D01*
X0216248Y0198612D02*
X0199848Y0198612D01*
X0199848Y0199210D02*
X0216248Y0199210D01*
X0216248Y0199809D02*
X0199848Y0199809D01*
X0199848Y0200407D02*
X0216248Y0200407D01*
X0216248Y0201006D02*
X0199848Y0201006D01*
X0199848Y0201604D02*
X0216248Y0201604D01*
X0216248Y0202203D02*
X0199848Y0202203D01*
X0199848Y0202801D02*
X0216248Y0202801D01*
X0216248Y0203400D02*
X0199848Y0203400D01*
X0199848Y0203998D02*
X0216248Y0203998D01*
X0216248Y0204597D02*
X0199848Y0204597D01*
X0199848Y0205195D02*
X0216248Y0205195D01*
X0216248Y0205794D02*
X0199943Y0205794D01*
X0200191Y0206392D02*
X0216248Y0206392D01*
X0216248Y0206991D02*
X0200337Y0206991D01*
X0200337Y0207589D02*
X0216248Y0207589D01*
X0216248Y0208188D02*
X0200199Y0208188D01*
X0199951Y0208786D02*
X0216248Y0208786D01*
X0216248Y0209385D02*
X0199407Y0209385D01*
X0198358Y0209983D02*
X0216248Y0209983D01*
X0216248Y0210582D02*
X0136862Y0210582D01*
X0137460Y0209983D02*
X0176738Y0209983D01*
X0175689Y0209385D02*
X0138059Y0209385D01*
X0138657Y0208786D02*
X0175145Y0208786D01*
X0174897Y0208188D02*
X0139256Y0208188D01*
X0139854Y0207589D02*
X0174759Y0207589D01*
X0174759Y0206991D02*
X0140453Y0206991D01*
X0141051Y0206392D02*
X0174905Y0206392D01*
X0175153Y0205794D02*
X0141650Y0205794D01*
X0142248Y0205195D02*
X0175248Y0205195D01*
X0175248Y0204597D02*
X0142847Y0204597D01*
X0143446Y0203998D02*
X0175248Y0203998D01*
X0175248Y0203400D02*
X0144044Y0203400D01*
X0144643Y0202801D02*
X0175248Y0202801D01*
X0175248Y0202203D02*
X0145241Y0202203D01*
X0145840Y0201604D02*
X0175248Y0201604D01*
X0175590Y0201006D02*
X0146438Y0201006D01*
X0147037Y0200407D02*
X0176188Y0200407D01*
X0176787Y0199809D02*
X0147635Y0199809D01*
X0148234Y0199210D02*
X0177385Y0199210D01*
X0177984Y0198612D02*
X0148832Y0198612D01*
X0149431Y0198013D02*
X0178582Y0198013D01*
X0179181Y0197415D02*
X0150029Y0197415D01*
X0150628Y0196816D02*
X0179779Y0196816D01*
X0180378Y0196218D02*
X0151226Y0196218D01*
X0151825Y0195619D02*
X0180976Y0195619D01*
X0181575Y0195021D02*
X0152423Y0195021D01*
X0153022Y0194422D02*
X0182173Y0194422D01*
X0182772Y0193824D02*
X0153620Y0193824D01*
X0154219Y0193225D02*
X0183370Y0193225D01*
X0183969Y0192627D02*
X0154817Y0192627D01*
X0155416Y0192028D02*
X0184567Y0192028D01*
X0185166Y0191430D02*
X0156014Y0191430D01*
X0156613Y0190831D02*
X0185764Y0190831D01*
X0186363Y0190233D02*
X0157211Y0190233D01*
X0157810Y0189634D02*
X0186961Y0189634D01*
X0187560Y0189036D02*
X0164065Y0189036D01*
X0164664Y0188437D02*
X0188158Y0188437D01*
X0188757Y0187839D02*
X0165262Y0187839D01*
X0165861Y0187240D02*
X0189355Y0187240D01*
X0189954Y0186641D02*
X0166459Y0186641D01*
X0167058Y0186043D02*
X0190401Y0186043D01*
X0190648Y0185444D02*
X0167656Y0185444D01*
X0168255Y0184846D02*
X0191058Y0184846D01*
X0191783Y0184247D02*
X0168853Y0184247D01*
X0169452Y0183649D02*
X0195248Y0183649D01*
X0195248Y0184247D02*
X0194510Y0184247D01*
X0195235Y0184846D02*
X0195248Y0184846D01*
X0195319Y0183050D02*
X0170050Y0183050D01*
X0170649Y0182452D02*
X0195917Y0182452D01*
X0196516Y0181853D02*
X0171247Y0181853D01*
X0171846Y0181255D02*
X0196844Y0181255D01*
X0196609Y0180656D02*
X0172444Y0180656D01*
X0173043Y0180058D02*
X0196609Y0180058D01*
X0196659Y0179459D02*
X0173641Y0179459D01*
X0174240Y0178861D02*
X0196907Y0178861D01*
X0197327Y0178262D02*
X0174838Y0178262D01*
X0175437Y0177664D02*
X0198076Y0177664D01*
X0200721Y0177664D02*
X0390152Y0177664D01*
X0390464Y0177065D02*
X0176035Y0177065D01*
X0176634Y0176467D02*
X0389361Y0176467D01*
X0388762Y0175868D02*
X0213636Y0175868D01*
X0214522Y0175270D02*
X0388164Y0175270D01*
X0387902Y0174671D02*
X0214999Y0174671D01*
X0215247Y0174073D02*
X0387654Y0174073D01*
X0387406Y0173474D02*
X0215337Y0173474D01*
X0215337Y0172876D02*
X0387348Y0172876D01*
X0387348Y0172277D02*
X0215143Y0172277D01*
X0214871Y0171679D02*
X0387348Y0171679D01*
X0387425Y0171080D02*
X0214272Y0171080D01*
X0212982Y0170482D02*
X0387673Y0170482D01*
X0387921Y0169883D02*
X0212384Y0169883D01*
X0211785Y0169285D02*
X0224217Y0169285D01*
X0226549Y0169285D02*
X0388209Y0169285D01*
X0388808Y0168686D02*
X0227390Y0168686D01*
X0227847Y0168088D02*
X0389406Y0168088D01*
X0390574Y0167489D02*
X0228095Y0167489D01*
X0228172Y0166891D02*
X0390043Y0166891D01*
X0389186Y0166292D02*
X0228172Y0166292D01*
X0227964Y0165694D02*
X0250426Y0165694D01*
X0250933Y0166200D02*
X0248648Y0163915D01*
X0248648Y0162600D01*
X0252248Y0162600D01*
X0252248Y0166200D01*
X0250933Y0166200D01*
X0252248Y0165694D02*
X0252848Y0165694D01*
X0252848Y0166200D02*
X0252848Y0162600D01*
X0256448Y0162600D01*
X0256448Y0163915D01*
X0254163Y0166200D01*
X0252848Y0166200D01*
X0252848Y0165095D02*
X0252248Y0165095D01*
X0252248Y0164497D02*
X0252848Y0164497D01*
X0252848Y0163898D02*
X0252248Y0163898D01*
X0252248Y0163300D02*
X0252848Y0163300D01*
X0252848Y0162701D02*
X0252248Y0162701D01*
X0252248Y0162103D02*
X0215795Y0162103D01*
X0216112Y0162701D02*
X0248648Y0162701D01*
X0248648Y0163300D02*
X0216337Y0163300D01*
X0216337Y0163898D02*
X0248648Y0163898D01*
X0249229Y0164497D02*
X0227075Y0164497D01*
X0227673Y0165095D02*
X0249828Y0165095D01*
X0248648Y0161504D02*
X0215196Y0161504D01*
X0216278Y0164497D02*
X0223691Y0164497D01*
X0211460Y0175868D02*
X0177232Y0175868D01*
X0177831Y0175270D02*
X0191223Y0175270D01*
X0193873Y0175270D02*
X0210574Y0175270D01*
X0210097Y0174671D02*
X0194621Y0174671D01*
X0195040Y0174073D02*
X0209849Y0174073D01*
X0209470Y0173474D02*
X0195288Y0173474D01*
X0195337Y0172876D02*
X0208871Y0172876D01*
X0208273Y0172277D02*
X0195337Y0172277D01*
X0195102Y0171679D02*
X0207674Y0171679D01*
X0207076Y0171080D02*
X0194772Y0171080D01*
X0201470Y0178262D02*
X0389232Y0178262D01*
X0388633Y0178861D02*
X0201890Y0178861D01*
X0202137Y0179459D02*
X0388096Y0179459D01*
X0387848Y0180058D02*
X0202187Y0180058D01*
X0202187Y0180656D02*
X0387600Y0180656D01*
X0387352Y0181255D02*
X0201953Y0181255D01*
X0201698Y0181853D02*
X0387348Y0181853D01*
X0387348Y0182452D02*
X0201698Y0182452D01*
X0195248Y0189036D02*
X0194757Y0189036D01*
X0195248Y0189634D02*
X0193467Y0189634D01*
X0192868Y0190233D02*
X0195248Y0190233D01*
X0195248Y0190831D02*
X0192270Y0190831D01*
X0191671Y0191430D02*
X0195248Y0191430D01*
X0195248Y0192028D02*
X0191073Y0192028D01*
X0190474Y0192627D02*
X0195248Y0192627D01*
X0195248Y0193225D02*
X0189876Y0193225D01*
X0189277Y0193824D02*
X0195248Y0193824D01*
X0195248Y0194422D02*
X0188679Y0194422D01*
X0188080Y0195021D02*
X0195248Y0195021D01*
X0195248Y0195619D02*
X0187482Y0195619D01*
X0186883Y0196218D02*
X0195248Y0196218D01*
X0195248Y0196816D02*
X0186285Y0196816D01*
X0185686Y0197415D02*
X0195248Y0197415D01*
X0195248Y0198013D02*
X0185087Y0198013D01*
X0184489Y0198612D02*
X0195248Y0198612D01*
X0195248Y0199210D02*
X0183890Y0199210D01*
X0183292Y0199809D02*
X0195248Y0199809D01*
X0195248Y0200407D02*
X0182693Y0200407D01*
X0182095Y0201006D02*
X0195248Y0201006D01*
X0195248Y0201604D02*
X0181496Y0201604D01*
X0180898Y0202203D02*
X0195248Y0202203D01*
X0195248Y0202801D02*
X0180299Y0202801D01*
X0179848Y0203400D02*
X0195248Y0203400D01*
X0195248Y0203998D02*
X0179848Y0203998D01*
X0179848Y0204597D02*
X0195248Y0204597D01*
X0195248Y0205195D02*
X0179848Y0205195D01*
X0179943Y0205794D02*
X0195153Y0205794D01*
X0194905Y0206392D02*
X0180191Y0206392D01*
X0180337Y0206991D02*
X0194759Y0206991D01*
X0194759Y0207589D02*
X0180337Y0207589D01*
X0180199Y0208188D02*
X0194897Y0208188D01*
X0195145Y0208786D02*
X0179951Y0208786D01*
X0179407Y0209385D02*
X0195689Y0209385D01*
X0196738Y0209983D02*
X0178358Y0209983D01*
X0200488Y0220158D02*
X0204891Y0220158D01*
X0204292Y0219560D02*
X0201087Y0219560D01*
X0201648Y0218961D02*
X0203694Y0218961D01*
X0203648Y0218363D02*
X0201648Y0218363D01*
X0216248Y0212377D02*
X0135066Y0212377D01*
X0135665Y0211779D02*
X0216248Y0211779D01*
X0216248Y0211180D02*
X0136263Y0211180D01*
X0132751Y0208188D02*
X0059913Y0208188D01*
X0060511Y0207589D02*
X0133349Y0207589D01*
X0133948Y0206991D02*
X0061110Y0206991D01*
X0061708Y0206392D02*
X0134546Y0206392D01*
X0135145Y0205794D02*
X0062307Y0205794D01*
X0062905Y0205195D02*
X0135743Y0205195D01*
X0136342Y0204597D02*
X0063504Y0204597D01*
X0064102Y0203998D02*
X0136940Y0203998D01*
X0137539Y0203400D02*
X0064701Y0203400D01*
X0065299Y0202801D02*
X0138137Y0202801D01*
X0138736Y0202203D02*
X0065898Y0202203D01*
X0066496Y0201604D02*
X0139334Y0201604D01*
X0139933Y0201006D02*
X0067095Y0201006D01*
X0067693Y0200407D02*
X0140531Y0200407D01*
X0141130Y0199809D02*
X0068292Y0199809D01*
X0068890Y0199210D02*
X0141728Y0199210D01*
X0142327Y0198612D02*
X0069489Y0198612D01*
X0070088Y0198013D02*
X0142925Y0198013D01*
X0143524Y0197415D02*
X0070686Y0197415D01*
X0071285Y0196816D02*
X0144122Y0196816D01*
X0144721Y0196218D02*
X0071883Y0196218D01*
X0072482Y0195619D02*
X0145319Y0195619D01*
X0145918Y0195021D02*
X0073080Y0195021D01*
X0073679Y0194422D02*
X0146516Y0194422D01*
X0147115Y0193824D02*
X0074277Y0193824D01*
X0074876Y0193225D02*
X0147713Y0193225D01*
X0148312Y0192627D02*
X0075474Y0192627D01*
X0076073Y0192028D02*
X0148910Y0192028D01*
X0149509Y0191430D02*
X0076671Y0191430D01*
X0077270Y0190831D02*
X0150107Y0190831D01*
X0150706Y0190233D02*
X0077868Y0190233D01*
X0078467Y0189634D02*
X0151304Y0189634D01*
X0151903Y0189036D02*
X0079065Y0189036D01*
X0079664Y0188437D02*
X0152501Y0188437D01*
X0153100Y0187839D02*
X0080262Y0187839D01*
X0080861Y0187240D02*
X0153698Y0187240D01*
X0154297Y0186641D02*
X0081459Y0186641D01*
X0082058Y0186043D02*
X0154895Y0186043D01*
X0155494Y0185444D02*
X0082656Y0185444D01*
X0083255Y0184846D02*
X0161749Y0184846D01*
X0162348Y0184247D02*
X0083853Y0184247D01*
X0084452Y0183649D02*
X0162946Y0183649D01*
X0163545Y0183050D02*
X0085050Y0183050D01*
X0085649Y0182452D02*
X0164143Y0182452D01*
X0164742Y0181853D02*
X0086247Y0181853D01*
X0086846Y0181255D02*
X0165340Y0181255D01*
X0165939Y0180656D02*
X0087444Y0180656D01*
X0088043Y0180058D02*
X0166537Y0180058D01*
X0167136Y0179459D02*
X0088641Y0179459D01*
X0089240Y0178861D02*
X0167734Y0178861D01*
X0168333Y0178262D02*
X0089838Y0178262D01*
X0090437Y0177664D02*
X0168932Y0177664D01*
X0169530Y0177065D02*
X0091035Y0177065D01*
X0091634Y0176467D02*
X0170129Y0176467D01*
X0170727Y0175868D02*
X0092232Y0175868D01*
X0092831Y0175270D02*
X0171326Y0175270D01*
X0171924Y0174671D02*
X0093429Y0174671D01*
X0094028Y0174073D02*
X0172523Y0174073D01*
X0173121Y0173474D02*
X0094626Y0173474D01*
X0095225Y0172876D02*
X0173720Y0172876D01*
X0174318Y0172277D02*
X0095823Y0172277D01*
X0096422Y0171679D02*
X0174917Y0171679D01*
X0175515Y0171080D02*
X0097021Y0171080D01*
X0081076Y0155519D02*
X0022439Y0155519D01*
X0022687Y0156117D02*
X0080478Y0156117D01*
X0079879Y0156716D02*
X0022748Y0156716D01*
X0022748Y0157314D02*
X0079281Y0157314D01*
X0078682Y0157913D02*
X0022748Y0157913D01*
X0022675Y0158511D02*
X0078084Y0158511D01*
X0077485Y0159110D02*
X0022427Y0159110D01*
X0022179Y0159708D02*
X0076887Y0159708D01*
X0076288Y0160307D02*
X0021895Y0160307D01*
X0021296Y0160905D02*
X0075690Y0160905D01*
X0075091Y0161504D02*
X0020698Y0161504D01*
X0019542Y0162103D02*
X0074493Y0162103D01*
X0073894Y0162701D02*
X0020033Y0162701D01*
X0020901Y0163300D02*
X0073296Y0163300D01*
X0072697Y0163898D02*
X0021500Y0163898D01*
X0022015Y0164497D02*
X0072099Y0164497D01*
X0071500Y0165095D02*
X0022263Y0165095D01*
X0022511Y0165694D02*
X0070902Y0165694D01*
X0070303Y0166292D02*
X0022748Y0166292D01*
X0022748Y0166891D02*
X0069705Y0166891D01*
X0069106Y0167489D02*
X0022748Y0167489D01*
X0022748Y0168088D02*
X0068508Y0168088D01*
X0067909Y0168686D02*
X0022602Y0168686D01*
X0022354Y0169285D02*
X0067311Y0169285D01*
X0066712Y0169883D02*
X0022106Y0169883D01*
X0021720Y0170482D02*
X0066114Y0170482D01*
X0065515Y0171080D02*
X0021122Y0171080D01*
X0020523Y0171679D02*
X0064917Y0171679D01*
X0064318Y0172277D02*
X0019120Y0172277D01*
X0020455Y0172876D02*
X0063720Y0172876D01*
X0063121Y0173474D02*
X0021076Y0173474D01*
X0021675Y0174073D02*
X0062523Y0174073D01*
X0061924Y0174671D02*
X0022088Y0174671D01*
X0022336Y0175270D02*
X0061326Y0175270D01*
X0060727Y0175868D02*
X0022583Y0175868D01*
X0022748Y0176467D02*
X0060129Y0176467D01*
X0059530Y0177065D02*
X0022748Y0177065D01*
X0022748Y0177664D02*
X0058932Y0177664D01*
X0058333Y0178262D02*
X0022748Y0178262D01*
X0022530Y0178861D02*
X0057734Y0178861D01*
X0057136Y0179459D02*
X0022282Y0179459D01*
X0022034Y0180058D02*
X0056537Y0180058D01*
X0055939Y0180656D02*
X0021546Y0180656D01*
X0020947Y0181255D02*
X0055340Y0181255D01*
X0054742Y0181853D02*
X0020143Y0181853D01*
X0019432Y0182452D02*
X0054143Y0182452D01*
X0053545Y0183050D02*
X0020652Y0183050D01*
X0021251Y0183649D02*
X0052946Y0183649D01*
X0052348Y0184247D02*
X0021849Y0184247D01*
X0022160Y0184846D02*
X0051749Y0184846D01*
X0051151Y0185444D02*
X0022408Y0185444D01*
X0022656Y0186043D02*
X0050552Y0186043D01*
X0049954Y0186641D02*
X0022748Y0186641D01*
X0022748Y0187240D02*
X0049355Y0187240D01*
X0048757Y0187839D02*
X0022748Y0187839D01*
X0022705Y0188437D02*
X0048158Y0188437D01*
X0047560Y0189036D02*
X0022458Y0189036D01*
X0022210Y0189634D02*
X0046961Y0189634D01*
X0046363Y0190233D02*
X0021962Y0190233D01*
X0021371Y0190831D02*
X0045764Y0190831D01*
X0045166Y0191430D02*
X0020772Y0191430D01*
X0019722Y0192028D02*
X0044567Y0192028D01*
X0043969Y0192627D02*
X0019854Y0192627D01*
X0020827Y0193225D02*
X0043370Y0193225D01*
X0042772Y0193824D02*
X0021426Y0193824D01*
X0021984Y0194422D02*
X0042173Y0194422D01*
X0041575Y0195021D02*
X0022232Y0195021D01*
X0022480Y0195619D02*
X0040976Y0195619D01*
X0040378Y0196218D02*
X0022728Y0196218D01*
X0022748Y0196816D02*
X0039779Y0196816D01*
X0039181Y0197415D02*
X0022748Y0197415D01*
X0022748Y0198013D02*
X0038582Y0198013D01*
X0037984Y0198612D02*
X0022633Y0198612D01*
X0022385Y0199210D02*
X0037385Y0199210D01*
X0036787Y0199809D02*
X0022137Y0199809D01*
X0021795Y0200407D02*
X0036188Y0200407D01*
X0035590Y0201006D02*
X0021196Y0201006D01*
X0020598Y0201604D02*
X0034991Y0201604D01*
X0034393Y0202203D02*
X0019300Y0202203D01*
X0020275Y0202801D02*
X0033794Y0202801D01*
X0033196Y0203400D02*
X0021002Y0203400D01*
X0021600Y0203998D02*
X0032597Y0203998D01*
X0031999Y0204597D02*
X0022057Y0204597D01*
X0022305Y0205195D02*
X0031400Y0205195D01*
X0030801Y0205794D02*
X0022553Y0205794D01*
X0022748Y0206392D02*
X0030203Y0206392D01*
X0029604Y0206991D02*
X0022748Y0206991D01*
X0022748Y0207589D02*
X0029006Y0207589D01*
X0028407Y0208188D02*
X0022748Y0208188D01*
X0022561Y0208786D02*
X0027809Y0208786D01*
X0027210Y0209385D02*
X0022313Y0209385D01*
X0022065Y0209983D02*
X0026612Y0209983D01*
X0026013Y0210582D02*
X0021620Y0210582D01*
X0021021Y0211180D02*
X0025415Y0211180D01*
X0025210Y0211779D02*
X0020323Y0211779D01*
X0020578Y0212976D02*
X0025210Y0212976D01*
X0025210Y0213574D02*
X0021176Y0213574D01*
X0021775Y0214173D02*
X0025210Y0214173D01*
X0025210Y0214772D02*
X0022129Y0214772D01*
X0022377Y0215370D02*
X0025210Y0215370D01*
X0025210Y0215969D02*
X0022625Y0215969D01*
X0022748Y0216567D02*
X0025210Y0216567D01*
X0025210Y0217166D02*
X0022748Y0217166D01*
X0022748Y0217764D02*
X0025210Y0217764D01*
X0025210Y0218363D02*
X0022736Y0218363D01*
X0022488Y0218961D02*
X0025210Y0218961D01*
X0025210Y0219560D02*
X0022241Y0219560D01*
X0021993Y0220158D02*
X0025210Y0220158D01*
X0025210Y0220757D02*
X0021445Y0220757D01*
X0020847Y0221355D02*
X0025210Y0221355D01*
X0025210Y0212377D02*
X0019252Y0212377D01*
X0015844Y0212377D02*
X0009548Y0212377D01*
X0024073Y0242303D02*
X0025210Y0242303D01*
X0044328Y0236318D02*
X0080768Y0236318D01*
X0080169Y0235719D02*
X0044927Y0235719D01*
X0045525Y0235121D02*
X0079571Y0235121D01*
X0078972Y0234522D02*
X0046124Y0234522D01*
X0046648Y0233924D02*
X0078448Y0233924D01*
X0078448Y0233325D02*
X0046648Y0233325D01*
X0046648Y0232727D02*
X0078448Y0232727D01*
X0078448Y0232128D02*
X0046648Y0232128D01*
X0046648Y0231530D02*
X0078448Y0231530D01*
X0078448Y0230931D02*
X0046648Y0230931D01*
X0046379Y0230333D02*
X0078717Y0230333D01*
X0079315Y0229734D02*
X0045781Y0229734D01*
X0045182Y0229136D02*
X0079914Y0229136D01*
X0080512Y0228537D02*
X0044584Y0228537D01*
X0044445Y0224348D02*
X0116591Y0224348D01*
X0117189Y0223749D02*
X0044967Y0223749D01*
X0045214Y0223151D02*
X0117788Y0223151D01*
X0118386Y0222552D02*
X0045549Y0222552D01*
X0046147Y0221954D02*
X0118985Y0221954D01*
X0119583Y0221355D02*
X0046746Y0221355D01*
X0047344Y0220757D02*
X0120182Y0220757D01*
X0120780Y0220158D02*
X0047943Y0220158D01*
X0048541Y0219560D02*
X0121379Y0219560D01*
X0121977Y0218961D02*
X0049140Y0218961D01*
X0049738Y0218363D02*
X0122576Y0218363D01*
X0123174Y0217764D02*
X0050337Y0217764D01*
X0050935Y0217166D02*
X0123773Y0217166D01*
X0124371Y0216567D02*
X0051534Y0216567D01*
X0052132Y0215969D02*
X0124970Y0215969D01*
X0125568Y0215370D02*
X0052731Y0215370D01*
X0053329Y0214772D02*
X0126167Y0214772D01*
X0126765Y0214173D02*
X0053928Y0214173D01*
X0054526Y0213574D02*
X0127364Y0213574D01*
X0127962Y0212976D02*
X0055125Y0212976D01*
X0055723Y0212377D02*
X0128561Y0212377D01*
X0129160Y0211779D02*
X0056322Y0211779D01*
X0056920Y0211180D02*
X0129758Y0211180D01*
X0130357Y0210582D02*
X0057519Y0210582D01*
X0058117Y0209983D02*
X0130955Y0209983D01*
X0131554Y0209385D02*
X0058716Y0209385D01*
X0059314Y0208786D02*
X0132152Y0208786D01*
X0168265Y0156117D02*
X0250567Y0156117D01*
X0249969Y0155519D02*
X0168863Y0155519D01*
X0169140Y0154920D02*
X0249370Y0154920D01*
X0248772Y0154322D02*
X0169337Y0154322D01*
X0169337Y0153723D02*
X0248448Y0153723D01*
X0248448Y0153125D02*
X0169250Y0153125D01*
X0169002Y0152526D02*
X0248448Y0152526D01*
X0248448Y0151928D02*
X0168530Y0151928D01*
X0167655Y0151329D02*
X0248448Y0151329D01*
X0248448Y0150731D02*
X0166642Y0150731D01*
X0166043Y0150132D02*
X0248917Y0150132D01*
X0249516Y0149534D02*
X0165445Y0149534D01*
X0164848Y0148935D02*
X0250114Y0148935D01*
X0250713Y0148337D02*
X0164848Y0148337D01*
X0170344Y0143549D02*
X0195544Y0143549D01*
X0194946Y0142950D02*
X0170942Y0142950D01*
X0171231Y0142352D02*
X0194347Y0142352D01*
X0194541Y0142545D02*
X0194541Y0142545D01*
X0193748Y0141753D02*
X0171437Y0141753D01*
X0171437Y0141155D02*
X0193150Y0141155D01*
X0192551Y0140556D02*
X0171359Y0140556D01*
X0171111Y0139958D02*
X0191953Y0139958D01*
X0191354Y0139359D02*
X0170948Y0139359D01*
X0170948Y0138761D02*
X0190756Y0138761D01*
X0190157Y0138162D02*
X0170948Y0138162D01*
X0170948Y0137564D02*
X0189559Y0137564D01*
X0188960Y0136965D02*
X0170948Y0136965D01*
X0170948Y0136367D02*
X0188362Y0136367D01*
X0187763Y0135768D02*
X0170948Y0135768D01*
X0170948Y0135170D02*
X0187165Y0135170D01*
X0186595Y0134600D02*
X0186595Y0134600D01*
X0186566Y0134571D02*
X0170948Y0134571D01*
X0170948Y0133972D02*
X0185968Y0133972D01*
X0185369Y0133374D02*
X0170948Y0133374D01*
X0170948Y0132775D02*
X0185248Y0132775D01*
X0185248Y0132177D02*
X0170948Y0132177D01*
X0170948Y0131578D02*
X0185248Y0131578D01*
X0185248Y0130980D02*
X0170948Y0130980D01*
X0170948Y0130381D02*
X0185248Y0130381D01*
X0185248Y0129783D02*
X0170948Y0129783D01*
X0170948Y0129184D02*
X0185248Y0129184D01*
X0185248Y0128586D02*
X0170948Y0128586D01*
X0170948Y0127987D02*
X0185248Y0127987D01*
X0185248Y0127389D02*
X0170948Y0127389D01*
X0170948Y0126790D02*
X0185248Y0126790D01*
X0185248Y0126192D02*
X0170948Y0126192D01*
X0170948Y0125593D02*
X0185248Y0125593D01*
X0185248Y0124995D02*
X0170948Y0124995D01*
X0170948Y0124396D02*
X0185248Y0124396D01*
X0185248Y0123798D02*
X0170948Y0123798D01*
X0170948Y0123199D02*
X0185248Y0123199D01*
X0185248Y0122601D02*
X0170948Y0122601D01*
X0170948Y0122002D02*
X0185248Y0122002D01*
X0185248Y0121404D02*
X0170948Y0121404D01*
X0170948Y0120805D02*
X0185248Y0120805D01*
X0185248Y0120207D02*
X0170948Y0120207D01*
X0170948Y0119608D02*
X0185248Y0119608D01*
X0185248Y0119010D02*
X0170948Y0119010D01*
X0170948Y0118411D02*
X0185248Y0118411D01*
X0185248Y0117813D02*
X0170948Y0117813D01*
X0170948Y0117214D02*
X0185248Y0117214D01*
X0185248Y0116616D02*
X0170948Y0116616D01*
X0170948Y0116017D02*
X0185248Y0116017D01*
X0185248Y0115419D02*
X0170948Y0115419D01*
X0170948Y0114820D02*
X0185248Y0114820D01*
X0185248Y0114222D02*
X0170948Y0114222D01*
X0170948Y0113623D02*
X0185248Y0113623D01*
X0185248Y0113025D02*
X0170948Y0113025D01*
X0170948Y0112426D02*
X0185248Y0112426D01*
X0185248Y0111828D02*
X0170948Y0111828D01*
X0170948Y0111229D02*
X0185248Y0111229D01*
X0185248Y0110631D02*
X0170948Y0110631D01*
X0170948Y0110032D02*
X0185248Y0110032D01*
X0185248Y0109434D02*
X0170948Y0109434D01*
X0170948Y0108835D02*
X0185248Y0108835D01*
X0185248Y0108237D02*
X0170948Y0108237D01*
X0170948Y0107638D02*
X0185248Y0107638D01*
X0185248Y0107039D02*
X0170948Y0107039D01*
X0170948Y0106441D02*
X0185248Y0106441D01*
X0185248Y0105842D02*
X0170948Y0105842D01*
X0170948Y0105244D02*
X0185248Y0105244D01*
X0185248Y0104645D02*
X0170948Y0104645D01*
X0170948Y0104047D02*
X0185248Y0104047D01*
X0185248Y0103448D02*
X0170948Y0103448D01*
X0170948Y0102850D02*
X0185248Y0102850D01*
X0185248Y0102251D02*
X0170948Y0102251D01*
X0170948Y0101653D02*
X0185248Y0101653D01*
X0185248Y0101054D02*
X0170948Y0101054D01*
X0170948Y0100456D02*
X0185248Y0100456D01*
X0185248Y0099857D02*
X0170948Y0099857D01*
X0170948Y0099259D02*
X0185248Y0099259D01*
X0185093Y0098660D02*
X0170948Y0098660D01*
X0170948Y0098062D02*
X0184845Y0098062D01*
X0184759Y0097463D02*
X0170948Y0097463D01*
X0170948Y0096865D02*
X0184759Y0096865D01*
X0184957Y0096266D02*
X0170948Y0096266D01*
X0170948Y0095668D02*
X0185236Y0095668D01*
X0185835Y0095069D02*
X0170948Y0095069D01*
X0170948Y0094471D02*
X0194203Y0094471D01*
X0193648Y0093872D02*
X0170948Y0093872D01*
X0170948Y0093274D02*
X0193648Y0093274D01*
X0193648Y0092675D02*
X0170876Y0092675D01*
X0164891Y0086690D02*
X0215782Y0086690D01*
X0216030Y0086092D02*
X0164292Y0086092D01*
X0163694Y0085493D02*
X0216248Y0085493D01*
X0216248Y0084895D02*
X0146287Y0084895D01*
X0143809Y0084895D02*
X0022180Y0084895D01*
X0022428Y0085493D02*
X0143011Y0085493D01*
X0142571Y0086092D02*
X0022676Y0086092D01*
X0022748Y0086690D02*
X0142323Y0086690D01*
X0142259Y0087289D02*
X0022748Y0087289D01*
X0022748Y0087887D02*
X0142259Y0087887D01*
X0142479Y0088486D02*
X0022685Y0088486D01*
X0022437Y0089084D02*
X0142788Y0089084D01*
X0143386Y0089683D02*
X0022190Y0089683D01*
X0021898Y0084296D02*
X0215791Y0084296D01*
X0215193Y0083698D02*
X0021299Y0083698D01*
X0020701Y0083099D02*
X0214594Y0083099D01*
X0213996Y0082501D02*
X0019549Y0082501D01*
X0019530Y0081902D02*
X0213397Y0081902D01*
X0212799Y0081303D02*
X0020544Y0081303D01*
X0021214Y0080705D02*
X0212200Y0080705D01*
X0211602Y0080106D02*
X0021689Y0080106D01*
X0022035Y0079508D02*
X0211003Y0079508D01*
X0210405Y0078909D02*
X0022282Y0078909D01*
X0022450Y0078311D02*
X0209806Y0078311D01*
X0213319Y0075318D02*
X0388212Y0075318D01*
X0387922Y0074720D02*
X0212721Y0074720D01*
X0212122Y0074121D02*
X0387674Y0074121D01*
X0387426Y0073523D02*
X0211524Y0073523D01*
X0210925Y0072924D02*
X0387348Y0072924D01*
X0387348Y0072326D02*
X0210327Y0072326D01*
X0209728Y0071727D02*
X0387348Y0071727D01*
X0387405Y0071129D02*
X0209130Y0071129D01*
X0208531Y0070530D02*
X0387653Y0070530D01*
X0387901Y0069932D02*
X0207932Y0069932D01*
X0207334Y0069333D02*
X0388161Y0069333D01*
X0388759Y0068735D02*
X0206735Y0068735D01*
X0206137Y0068136D02*
X0389358Y0068136D01*
X0390457Y0067538D02*
X0205538Y0067538D01*
X0213918Y0075917D02*
X0388811Y0075917D01*
X0389410Y0076515D02*
X0214516Y0076515D01*
X0215115Y0077114D02*
X0390582Y0077114D01*
X0390035Y0077712D02*
X0215713Y0077712D01*
X0216312Y0078311D02*
X0389183Y0078311D01*
X0388585Y0078909D02*
X0216910Y0078909D01*
X0217509Y0079508D02*
X0388076Y0079508D01*
X0387828Y0080106D02*
X0218107Y0080106D01*
X0218706Y0080705D02*
X0387580Y0080705D01*
X0387348Y0081303D02*
X0219304Y0081303D01*
X0219903Y0081902D02*
X0387348Y0081902D01*
X0387348Y0082501D02*
X0220501Y0082501D01*
X0220848Y0083099D02*
X0387348Y0083099D01*
X0387498Y0083698D02*
X0220848Y0083698D01*
X0220848Y0084296D02*
X0387746Y0084296D01*
X0387994Y0084895D02*
X0220848Y0084895D01*
X0220848Y0085493D02*
X0388387Y0085493D01*
X0388986Y0086092D02*
X0221066Y0086092D01*
X0221314Y0086690D02*
X0389584Y0086690D01*
X0389613Y0087887D02*
X0221324Y0087887D01*
X0221337Y0087289D02*
X0391003Y0087289D01*
X0389008Y0088486D02*
X0221076Y0088486D01*
X0220708Y0089084D02*
X0388410Y0089084D01*
X0388004Y0089683D02*
X0220084Y0089683D01*
X0217012Y0089683D02*
X0210729Y0089683D01*
X0211327Y0090281D02*
X0387756Y0090281D01*
X0387508Y0090880D02*
X0211648Y0090880D01*
X0211648Y0091478D02*
X0387348Y0091478D01*
X0387348Y0092077D02*
X0211648Y0092077D01*
X0211648Y0092675D02*
X0387348Y0092675D01*
X0387348Y0093274D02*
X0211648Y0093274D01*
X0211648Y0093872D02*
X0387571Y0093872D01*
X0387819Y0094471D02*
X0211176Y0094471D01*
X0210577Y0095069D02*
X0388067Y0095069D01*
X0388562Y0095668D02*
X0209979Y0095668D01*
X0209380Y0096266D02*
X0389160Y0096266D01*
X0394093Y0087289D02*
X0399749Y0087289D01*
X0399749Y0031627D02*
X0009548Y0031627D01*
X0009548Y0031029D02*
X0399749Y0031029D01*
X0399749Y0030430D02*
X0009548Y0030430D01*
X0009548Y0029832D02*
X0399749Y0029832D01*
X0399749Y0029233D02*
X0009548Y0029233D01*
X0009548Y0028634D02*
X0399749Y0028634D01*
X0399749Y0028036D02*
X0009548Y0028036D01*
X0009548Y0027437D02*
X0399749Y0027437D01*
X0399749Y0026839D02*
X0009548Y0026839D01*
X0009548Y0026240D02*
X0399749Y0026240D01*
X0399749Y0025642D02*
X0009548Y0025642D01*
X0009548Y0025043D02*
X0399749Y0025043D01*
X0399749Y0024445D02*
X0009548Y0024445D01*
X0009548Y0023846D02*
X0399749Y0023846D01*
X0399749Y0023248D02*
X0009548Y0023248D01*
X0009548Y0022649D02*
X0399749Y0022649D01*
X0399749Y0022051D02*
X0119667Y0022051D01*
X0120494Y0021708D02*
X0118582Y0022500D01*
X0116514Y0022500D01*
X0114602Y0021708D01*
X0113140Y0020246D01*
X0112348Y0018334D01*
X0112348Y0016266D01*
X0113140Y0014354D01*
X0114602Y0012892D01*
X0116514Y0012100D01*
X0118582Y0012100D01*
X0120494Y0012892D01*
X0121956Y0014354D01*
X0122748Y0016266D01*
X0122748Y0018334D01*
X0121956Y0020246D01*
X0120494Y0021708D01*
X0120750Y0021452D02*
X0399749Y0021452D01*
X0399749Y0020854D02*
X0179792Y0020854D01*
X0179246Y0021400D02*
X0175850Y0021400D01*
X0173448Y0018998D01*
X0173448Y0015602D01*
X0175850Y0013200D01*
X0179246Y0013200D01*
X0181648Y0015602D01*
X0181648Y0018998D01*
X0179246Y0021400D01*
X0180391Y0020255D02*
X0399749Y0020255D01*
X0399749Y0019657D02*
X0180989Y0019657D01*
X0181588Y0019058D02*
X0399749Y0019058D01*
X0399749Y0018460D02*
X0181648Y0018460D01*
X0181648Y0017861D02*
X0399749Y0017861D01*
X0399749Y0017263D02*
X0181648Y0017263D01*
X0181648Y0016664D02*
X0399749Y0016664D01*
X0399749Y0016066D02*
X0181648Y0016066D01*
X0181514Y0015467D02*
X0399749Y0015467D01*
X0399749Y0014869D02*
X0180915Y0014869D01*
X0180317Y0014270D02*
X0399749Y0014270D01*
X0399749Y0013672D02*
X0179718Y0013672D01*
X0175378Y0013672D02*
X0139718Y0013672D01*
X0139246Y0013200D02*
X0141648Y0015602D01*
X0141648Y0018998D01*
X0139246Y0021400D01*
X0135850Y0021400D01*
X0133448Y0018998D01*
X0133448Y0015602D01*
X0135850Y0013200D01*
X0139246Y0013200D01*
X0140317Y0014270D02*
X0174780Y0014270D01*
X0174181Y0014869D02*
X0140915Y0014869D01*
X0141514Y0015467D02*
X0173583Y0015467D01*
X0173448Y0016066D02*
X0141648Y0016066D01*
X0141648Y0016664D02*
X0173448Y0016664D01*
X0173448Y0017263D02*
X0141648Y0017263D01*
X0141648Y0017861D02*
X0173448Y0017861D01*
X0173448Y0018460D02*
X0141648Y0018460D01*
X0141588Y0019058D02*
X0173508Y0019058D01*
X0174107Y0019657D02*
X0140989Y0019657D01*
X0140391Y0020255D02*
X0174705Y0020255D01*
X0175304Y0020854D02*
X0139792Y0020854D01*
X0135304Y0020854D02*
X0121348Y0020854D01*
X0121947Y0020255D02*
X0134705Y0020255D01*
X0134107Y0019657D02*
X0122200Y0019657D01*
X0122448Y0019058D02*
X0133508Y0019058D01*
X0133448Y0018460D02*
X0122696Y0018460D01*
X0122748Y0017861D02*
X0133448Y0017861D01*
X0133448Y0017263D02*
X0122748Y0017263D01*
X0122748Y0016664D02*
X0133448Y0016664D01*
X0133448Y0016066D02*
X0122665Y0016066D01*
X0122417Y0015467D02*
X0133583Y0015467D01*
X0134181Y0014869D02*
X0122169Y0014869D01*
X0121872Y0014270D02*
X0134780Y0014270D01*
X0135378Y0013672D02*
X0121274Y0013672D01*
X0120675Y0013073D02*
X0399749Y0013073D01*
X0399749Y0012475D02*
X0119487Y0012475D01*
X0115609Y0012475D02*
X0098878Y0012475D01*
X0098719Y0012423D02*
X0099467Y0012666D01*
X0100169Y0013024D01*
X0100805Y0013486D01*
X0101362Y0014043D01*
X0101824Y0014679D01*
X0102182Y0015381D01*
X0102425Y0016129D01*
X0102548Y0016906D01*
X0102548Y0017000D01*
X0097848Y0017000D01*
X0097848Y0012300D01*
X0097942Y0012300D01*
X0098719Y0012423D01*
X0097848Y0012475D02*
X0097248Y0012475D01*
X0097248Y0012300D02*
X0097248Y0017000D01*
X0092548Y0017000D01*
X0092548Y0016906D01*
X0092671Y0016129D01*
X0092914Y0015381D01*
X0093272Y0014679D01*
X0093734Y0014043D01*
X0094291Y0013486D01*
X0094927Y0013024D01*
X0095629Y0012666D01*
X0096377Y0012423D01*
X0097155Y0012300D01*
X0097248Y0012300D01*
X0097248Y0013073D02*
X0097848Y0013073D01*
X0097848Y0013672D02*
X0097248Y0013672D01*
X0097248Y0014270D02*
X0097848Y0014270D01*
X0097848Y0014869D02*
X0097248Y0014869D01*
X0097248Y0015467D02*
X0097848Y0015467D01*
X0097848Y0016066D02*
X0097248Y0016066D01*
X0097248Y0016664D02*
X0097848Y0016664D01*
X0097848Y0017000D02*
X0097248Y0017000D01*
X0097248Y0017600D01*
X0092548Y0017600D01*
X0092548Y0017694D01*
X0092671Y0018471D01*
X0092914Y0019219D01*
X0093272Y0019921D01*
X0093734Y0020557D01*
X0094291Y0021114D01*
X0094927Y0021576D01*
X0095629Y0021934D01*
X0096377Y0022177D01*
X0097155Y0022300D01*
X0097248Y0022300D01*
X0097248Y0017600D01*
X0097848Y0017600D01*
X0097848Y0022300D01*
X0097942Y0022300D01*
X0098719Y0022177D01*
X0099467Y0021934D01*
X0100169Y0021576D01*
X0100805Y0021114D01*
X0101362Y0020557D01*
X0101824Y0019921D01*
X0102182Y0019219D01*
X0102425Y0018471D01*
X0102548Y0017694D01*
X0102548Y0017600D01*
X0097848Y0017600D01*
X0097848Y0017000D01*
X0097848Y0017263D02*
X0112348Y0017263D01*
X0112348Y0017861D02*
X0102521Y0017861D01*
X0102427Y0018460D02*
X0112400Y0018460D01*
X0112648Y0019058D02*
X0102234Y0019058D01*
X0101959Y0019657D02*
X0112896Y0019657D01*
X0113149Y0020255D02*
X0101581Y0020255D01*
X0101065Y0020854D02*
X0113748Y0020854D01*
X0114346Y0021452D02*
X0100339Y0021452D01*
X0099107Y0022051D02*
X0115429Y0022051D01*
X0112348Y0016664D02*
X0102510Y0016664D01*
X0102404Y0016066D02*
X0112431Y0016066D01*
X0112679Y0015467D02*
X0102210Y0015467D01*
X0101921Y0014869D02*
X0112927Y0014869D01*
X0113224Y0014270D02*
X0101527Y0014270D01*
X0100991Y0013672D02*
X0113822Y0013672D01*
X0114421Y0013073D02*
X0100237Y0013073D01*
X0096218Y0012475D02*
X0072503Y0012475D01*
X0072548Y0012194D02*
X0072425Y0012971D01*
X0072182Y0013719D01*
X0071824Y0014421D01*
X0071362Y0015057D01*
X0070805Y0015614D01*
X0070169Y0016076D01*
X0069467Y0016434D01*
X0068719Y0016677D01*
X0067942Y0016800D01*
X0067848Y0016800D01*
X0067848Y0012100D01*
X0067248Y0012100D01*
X0067248Y0016800D01*
X0067155Y0016800D01*
X0066377Y0016677D01*
X0065629Y0016434D01*
X0064927Y0016076D01*
X0064291Y0015614D01*
X0063734Y0015057D01*
X0063272Y0014421D01*
X0062914Y0013719D01*
X0062680Y0012998D01*
X0061956Y0014746D01*
X0060494Y0016208D01*
X0058582Y0017000D01*
X0056514Y0017000D01*
X0054602Y0016208D01*
X0053140Y0014746D01*
X0052548Y0013317D01*
X0051956Y0014746D01*
X0050494Y0016208D01*
X0048582Y0017000D01*
X0046514Y0017000D01*
X0044602Y0016208D01*
X0043140Y0014746D01*
X0042548Y0013317D01*
X0041956Y0014746D01*
X0040494Y0016208D01*
X0038582Y0017000D01*
X0036514Y0017000D01*
X0034602Y0016208D01*
X0033140Y0014746D01*
X0032548Y0013317D01*
X0031956Y0014746D01*
X0030494Y0016208D01*
X0028582Y0017000D01*
X0026514Y0017000D01*
X0024602Y0016208D01*
X0023140Y0014746D01*
X0022348Y0012834D01*
X0022348Y0010766D01*
X0023140Y0008854D01*
X0024602Y0007392D01*
X0026514Y0006600D01*
X0028582Y0006600D01*
X0030494Y0007392D01*
X0031956Y0008854D01*
X0032548Y0010283D01*
X0033140Y0008854D01*
X0034602Y0007392D01*
X0036514Y0006600D01*
X0038582Y0006600D01*
X0040494Y0007392D01*
X0041956Y0008854D01*
X0042548Y0010283D01*
X0043140Y0008854D01*
X0044602Y0007392D01*
X0046514Y0006600D01*
X0048582Y0006600D01*
X0050494Y0007392D01*
X0051956Y0008854D01*
X0052548Y0010283D01*
X0053140Y0008854D01*
X0054602Y0007392D01*
X0056514Y0006600D01*
X0058582Y0006600D01*
X0060494Y0007392D01*
X0061956Y0008854D01*
X0062680Y0010602D01*
X0062914Y0009881D01*
X0063272Y0009179D01*
X0063734Y0008543D01*
X0064291Y0007986D01*
X0064927Y0007524D01*
X0065629Y0007166D01*
X0066377Y0006923D01*
X0067155Y0006800D01*
X0067248Y0006800D01*
X0067248Y0011500D01*
X0067848Y0011500D01*
X0067848Y0006800D01*
X0067942Y0006800D01*
X0068719Y0006923D01*
X0069467Y0007166D01*
X0070169Y0007524D01*
X0070805Y0007986D01*
X0071362Y0008543D01*
X0071824Y0009179D01*
X0072182Y0009881D01*
X0072425Y0010629D01*
X0072548Y0011406D01*
X0072548Y0011500D01*
X0067848Y0011500D01*
X0067848Y0012100D01*
X0072548Y0012100D01*
X0072548Y0012194D01*
X0072392Y0013073D02*
X0094859Y0013073D01*
X0094105Y0013672D02*
X0072197Y0013672D01*
X0071901Y0014270D02*
X0093569Y0014270D01*
X0093175Y0014869D02*
X0071499Y0014869D01*
X0070952Y0015467D02*
X0092886Y0015467D01*
X0092692Y0016066D02*
X0070183Y0016066D01*
X0068758Y0016664D02*
X0092586Y0016664D01*
X0092575Y0017861D02*
X0009548Y0017861D01*
X0009548Y0017263D02*
X0097248Y0017263D01*
X0097248Y0017861D02*
X0097848Y0017861D01*
X0097848Y0018460D02*
X0097248Y0018460D01*
X0097248Y0019058D02*
X0097848Y0019058D01*
X0097848Y0019657D02*
X0097248Y0019657D01*
X0097248Y0020255D02*
X0097848Y0020255D01*
X0097848Y0020854D02*
X0097248Y0020854D01*
X0097248Y0021452D02*
X0097848Y0021452D01*
X0097848Y0022051D02*
X0097248Y0022051D01*
X0095989Y0022051D02*
X0009548Y0022051D01*
X0009548Y0021452D02*
X0094757Y0021452D01*
X0094031Y0020854D02*
X0009548Y0020854D01*
X0009548Y0020255D02*
X0093515Y0020255D01*
X0093137Y0019657D02*
X0009548Y0019657D01*
X0009548Y0019058D02*
X0092862Y0019058D01*
X0092669Y0018460D02*
X0009548Y0018460D01*
X0009548Y0016664D02*
X0025703Y0016664D01*
X0024460Y0016066D02*
X0009548Y0016066D01*
X0009548Y0015467D02*
X0023861Y0015467D01*
X0023263Y0014869D02*
X0009548Y0014869D01*
X0009548Y0014270D02*
X0022943Y0014270D01*
X0022695Y0013672D02*
X0009548Y0013672D01*
X0009548Y0013073D02*
X0022447Y0013073D01*
X0022348Y0012475D02*
X0009548Y0012475D01*
X0009548Y0011876D02*
X0022348Y0011876D01*
X0022348Y0011278D02*
X0009548Y0011278D01*
X0009548Y0010679D02*
X0022384Y0010679D01*
X0022632Y0010081D02*
X0009548Y0010081D01*
X0009548Y0009482D02*
X0022880Y0009482D01*
X0023128Y0008884D02*
X0009548Y0008884D01*
X0009548Y0008285D02*
X0023709Y0008285D01*
X0024308Y0007687D02*
X0009548Y0007687D01*
X0009548Y0007088D02*
X0025335Y0007088D01*
X0029761Y0007088D02*
X0035335Y0007088D01*
X0034308Y0007687D02*
X0030789Y0007687D01*
X0031387Y0008285D02*
X0033709Y0008285D01*
X0033128Y0008884D02*
X0031968Y0008884D01*
X0032216Y0009482D02*
X0032880Y0009482D01*
X0032632Y0010081D02*
X0032464Y0010081D01*
X0032401Y0013672D02*
X0032695Y0013672D01*
X0032943Y0014270D02*
X0032153Y0014270D01*
X0031833Y0014869D02*
X0033263Y0014869D01*
X0033861Y0015467D02*
X0031235Y0015467D01*
X0030636Y0016066D02*
X0034460Y0016066D01*
X0035703Y0016664D02*
X0029393Y0016664D01*
X0039393Y0016664D02*
X0045703Y0016664D01*
X0044460Y0016066D02*
X0040636Y0016066D01*
X0041235Y0015467D02*
X0043861Y0015467D01*
X0043263Y0014869D02*
X0041833Y0014869D01*
X0042153Y0014270D02*
X0042943Y0014270D01*
X0042695Y0013672D02*
X0042401Y0013672D01*
X0042464Y0010081D02*
X0042632Y0010081D01*
X0042880Y0009482D02*
X0042216Y0009482D01*
X0041968Y0008884D02*
X0043128Y0008884D01*
X0043709Y0008285D02*
X0041387Y0008285D01*
X0040789Y0007687D02*
X0044308Y0007687D01*
X0045335Y0007088D02*
X0039761Y0007088D01*
X0049761Y0007088D02*
X0055335Y0007088D01*
X0054308Y0007687D02*
X0050789Y0007687D01*
X0051387Y0008285D02*
X0053709Y0008285D01*
X0053128Y0008884D02*
X0051968Y0008884D01*
X0052216Y0009482D02*
X0052880Y0009482D01*
X0052632Y0010081D02*
X0052464Y0010081D01*
X0052401Y0013672D02*
X0052695Y0013672D01*
X0052943Y0014270D02*
X0052153Y0014270D01*
X0051833Y0014869D02*
X0053263Y0014869D01*
X0053861Y0015467D02*
X0051235Y0015467D01*
X0050636Y0016066D02*
X0054460Y0016066D01*
X0055703Y0016664D02*
X0049393Y0016664D01*
X0059393Y0016664D02*
X0066338Y0016664D01*
X0067248Y0016664D02*
X0067848Y0016664D01*
X0067848Y0016066D02*
X0067248Y0016066D01*
X0067248Y0015467D02*
X0067848Y0015467D01*
X0067848Y0014869D02*
X0067248Y0014869D01*
X0067248Y0014270D02*
X0067848Y0014270D01*
X0067848Y0013672D02*
X0067248Y0013672D01*
X0067248Y0013073D02*
X0067848Y0013073D01*
X0067848Y0012475D02*
X0067248Y0012475D01*
X0067848Y0011876D02*
X0399749Y0011876D01*
X0399749Y0011278D02*
X0072528Y0011278D01*
X0072433Y0010679D02*
X0399749Y0010679D01*
X0399749Y0010081D02*
X0072247Y0010081D01*
X0071979Y0009482D02*
X0399749Y0009482D01*
X0399749Y0008884D02*
X0071609Y0008884D01*
X0071104Y0008285D02*
X0399749Y0008285D01*
X0399749Y0007687D02*
X0070393Y0007687D01*
X0069227Y0007088D02*
X0399749Y0007088D01*
X0399749Y0006490D02*
X0009548Y0006490D01*
X0009548Y0005891D02*
X0399749Y0005891D01*
X0399749Y0005293D02*
X0009548Y0005293D01*
X0009548Y0004694D02*
X0399749Y0004694D01*
X0399749Y0004096D02*
X0009548Y0004096D01*
X0059761Y0007088D02*
X0065869Y0007088D01*
X0064703Y0007687D02*
X0060789Y0007687D01*
X0061387Y0008285D02*
X0063992Y0008285D01*
X0063487Y0008884D02*
X0061968Y0008884D01*
X0062216Y0009482D02*
X0063117Y0009482D01*
X0062849Y0010081D02*
X0062464Y0010081D01*
X0062649Y0013073D02*
X0062704Y0013073D01*
X0062899Y0013672D02*
X0062401Y0013672D01*
X0062153Y0014270D02*
X0063195Y0014270D01*
X0063597Y0014869D02*
X0061833Y0014869D01*
X0061235Y0015467D02*
X0064144Y0015467D01*
X0064913Y0016066D02*
X0060636Y0016066D01*
X0067248Y0011278D02*
X0067848Y0011278D01*
X0067848Y0010679D02*
X0067248Y0010679D01*
X0067248Y0010081D02*
X0067848Y0010081D01*
X0067848Y0009482D02*
X0067248Y0009482D01*
X0067248Y0008884D02*
X0067848Y0008884D01*
X0067848Y0008285D02*
X0067248Y0008285D01*
X0067248Y0007687D02*
X0067848Y0007687D01*
X0067848Y0007088D02*
X0067248Y0007088D01*
X0189261Y0095069D02*
X0194802Y0095069D01*
X0195400Y0095668D02*
X0189860Y0095668D01*
X0189848Y0099857D02*
X0201157Y0099857D01*
X0200448Y0100456D02*
X0189848Y0100456D01*
X0189848Y0101054D02*
X0200045Y0101054D01*
X0199797Y0101653D02*
X0189848Y0101653D01*
X0189848Y0102251D02*
X0199759Y0102251D01*
X0199759Y0102850D02*
X0189848Y0102850D01*
X0189848Y0103448D02*
X0200005Y0103448D01*
X0200248Y0104047D02*
X0189848Y0104047D01*
X0189848Y0104645D02*
X0200248Y0104645D01*
X0200248Y0105244D02*
X0189848Y0105244D01*
X0189848Y0105842D02*
X0200248Y0105842D01*
X0200248Y0106441D02*
X0189848Y0106441D01*
X0189848Y0107039D02*
X0200248Y0107039D01*
X0200248Y0107638D02*
X0189848Y0107638D01*
X0189848Y0108237D02*
X0200248Y0108237D01*
X0200248Y0108835D02*
X0189848Y0108835D01*
X0189848Y0109434D02*
X0200248Y0109434D01*
X0200248Y0110032D02*
X0189848Y0110032D01*
X0189848Y0110631D02*
X0200248Y0110631D01*
X0200248Y0111229D02*
X0189848Y0111229D01*
X0189848Y0111828D02*
X0200248Y0111828D01*
X0200248Y0112426D02*
X0189848Y0112426D01*
X0189848Y0113025D02*
X0200248Y0113025D01*
X0200248Y0113623D02*
X0189848Y0113623D01*
X0189848Y0114222D02*
X0200248Y0114222D01*
X0200248Y0114820D02*
X0189848Y0114820D01*
X0189848Y0115419D02*
X0200248Y0115419D01*
X0200248Y0116017D02*
X0189848Y0116017D01*
X0189848Y0116616D02*
X0200248Y0116616D01*
X0200248Y0117214D02*
X0189848Y0117214D01*
X0189848Y0117813D02*
X0200248Y0117813D01*
X0200248Y0118411D02*
X0189848Y0118411D01*
X0189848Y0119010D02*
X0200248Y0119010D01*
X0200248Y0119608D02*
X0189848Y0119608D01*
X0189848Y0120207D02*
X0200248Y0120207D01*
X0200248Y0120805D02*
X0189848Y0120805D01*
X0189848Y0121404D02*
X0200248Y0121404D01*
X0200248Y0122002D02*
X0189848Y0122002D01*
X0189848Y0122601D02*
X0200248Y0122601D01*
X0200248Y0123199D02*
X0189848Y0123199D01*
X0189848Y0123798D02*
X0200248Y0123798D01*
X0200248Y0124396D02*
X0189848Y0124396D01*
X0189848Y0124995D02*
X0200248Y0124995D01*
X0200248Y0125593D02*
X0189848Y0125593D01*
X0189848Y0126192D02*
X0199988Y0126192D01*
X0199759Y0126790D02*
X0189848Y0126790D01*
X0189848Y0127389D02*
X0199759Y0127389D01*
X0199814Y0127987D02*
X0189848Y0127987D01*
X0189848Y0128586D02*
X0200062Y0128586D01*
X0200488Y0129184D02*
X0189848Y0129184D01*
X0204848Y0120805D02*
X0205290Y0120805D01*
X0204848Y0120207D02*
X0205889Y0120207D01*
X0206487Y0119608D02*
X0204848Y0119608D01*
X0204848Y0119010D02*
X0207086Y0119010D01*
X0207684Y0118411D02*
X0204848Y0118411D01*
X0204848Y0117813D02*
X0208283Y0117813D01*
X0208881Y0117214D02*
X0204848Y0117214D01*
X0204848Y0116616D02*
X0209480Y0116616D01*
X0210078Y0116017D02*
X0204848Y0116017D01*
X0204848Y0115419D02*
X0210677Y0115419D01*
X0211275Y0114820D02*
X0204848Y0114820D01*
X0204848Y0114222D02*
X0211874Y0114222D01*
X0212472Y0113623D02*
X0204848Y0113623D01*
X0204848Y0113025D02*
X0213071Y0113025D01*
X0213669Y0112426D02*
X0204848Y0112426D01*
X0204848Y0111828D02*
X0214268Y0111828D01*
X0214866Y0111229D02*
X0204848Y0111229D01*
X0204848Y0110631D02*
X0215465Y0110631D01*
X0216063Y0110032D02*
X0204848Y0110032D01*
X0204848Y0109434D02*
X0216662Y0109434D01*
X0217260Y0108835D02*
X0204848Y0108835D01*
X0204848Y0108237D02*
X0217859Y0108237D01*
X0218457Y0107638D02*
X0204848Y0107638D01*
X0204848Y0107039D02*
X0219056Y0107039D01*
X0219654Y0106441D02*
X0204848Y0106441D01*
X0204848Y0105842D02*
X0220253Y0105842D01*
X0220851Y0105244D02*
X0204848Y0105244D01*
X0204848Y0104645D02*
X0226669Y0104645D01*
X0226856Y0110032D02*
X0222569Y0110032D01*
X0216388Y0089084D02*
X0210130Y0089084D01*
X0209532Y0088486D02*
X0216020Y0088486D01*
X0204519Y0095069D02*
X0200294Y0095069D01*
X0200893Y0094471D02*
X0203921Y0094471D01*
X0203448Y0093872D02*
X0201448Y0093872D01*
X0201448Y0093274D02*
X0203448Y0093274D01*
X0149780Y0135170D02*
X0130250Y0135170D01*
X0131695Y0135768D02*
X0149528Y0135768D01*
X0149280Y0136367D02*
X0132468Y0136367D01*
X0133067Y0136965D02*
X0149148Y0136965D01*
X0149148Y0137564D02*
X0133543Y0137564D01*
X0136663Y0138162D02*
X0149148Y0138162D01*
X0149332Y0138761D02*
X0137261Y0138761D01*
X0137860Y0139359D02*
X0149580Y0139359D01*
X0149907Y0139958D02*
X0138458Y0139958D01*
X0139057Y0140556D02*
X0150506Y0140556D01*
X0151357Y0141155D02*
X0139655Y0141155D01*
X0136143Y0144147D02*
X0132555Y0144147D01*
X0133153Y0143549D02*
X0135544Y0143549D01*
X0134946Y0142950D02*
X0133579Y0142950D01*
X0131903Y0144746D02*
X0136741Y0144746D01*
X0137340Y0145344D02*
X0130458Y0145344D01*
X0131510Y0145943D02*
X0137938Y0145943D01*
X0138537Y0146541D02*
X0132360Y0146541D01*
X0132932Y0147140D02*
X0139135Y0147140D01*
X0139734Y0147738D02*
X0133354Y0147738D01*
X0133659Y0148337D02*
X0140248Y0148337D01*
X0140248Y0148935D02*
X0133862Y0148935D01*
X0133989Y0149534D02*
X0140248Y0149534D01*
X0127638Y0145344D02*
X0109536Y0145344D01*
X0110005Y0145943D02*
X0126586Y0145943D01*
X0125736Y0146541D02*
X0110252Y0146541D01*
X0110337Y0147140D02*
X0125164Y0147140D01*
X0124742Y0147738D02*
X0110337Y0147738D01*
X0110137Y0148337D02*
X0124437Y0148337D01*
X0124234Y0148935D02*
X0109857Y0148935D01*
X0109258Y0149534D02*
X0124107Y0149534D01*
X0126193Y0144746D02*
X0108669Y0144746D01*
X0089969Y0148935D02*
X0022499Y0148935D01*
X0022251Y0149534D02*
X0087062Y0149534D01*
X0086463Y0150132D02*
X0022003Y0150132D01*
X0021471Y0150731D02*
X0085865Y0150731D01*
X0085266Y0151329D02*
X0020873Y0151329D01*
X0019964Y0151928D02*
X0084668Y0151928D01*
X0084069Y0152526D02*
X0019612Y0152526D01*
X0020727Y0153125D02*
X0083470Y0153125D01*
X0082872Y0153723D02*
X0021325Y0153723D01*
X0021924Y0154322D02*
X0082273Y0154322D01*
X0081675Y0154920D02*
X0022191Y0154920D01*
X0015976Y0172277D02*
X0009548Y0172277D01*
X0059334Y0248288D02*
X0065762Y0248288D01*
X0065163Y0248887D02*
X0059933Y0248887D01*
X0060531Y0249485D02*
X0064565Y0249485D01*
X0063966Y0250084D02*
X0061130Y0250084D01*
X0061648Y0250682D02*
X0063448Y0250682D01*
X0063448Y0251281D02*
X0061648Y0251281D01*
X0061648Y0251879D02*
X0063448Y0251879D01*
X0063448Y0252478D02*
X0061648Y0252478D01*
X0061648Y0253076D02*
X0063448Y0253076D01*
X0063448Y0253675D02*
X0061648Y0253675D01*
X0061373Y0254273D02*
X0063723Y0254273D01*
X0064322Y0254872D02*
X0060775Y0254872D01*
X0060176Y0255470D02*
X0064920Y0255470D01*
X0065519Y0256069D02*
X0059577Y0256069D01*
X0070427Y0277017D02*
X0399749Y0277017D01*
X0399749Y0277615D02*
X0069829Y0277615D01*
X0069230Y0278214D02*
X0399749Y0278214D01*
X0399749Y0278812D02*
X0068632Y0278812D01*
X0068033Y0279411D02*
X0399749Y0279411D01*
X0399749Y0280009D02*
X0067435Y0280009D01*
X0066836Y0280608D02*
X0399749Y0280608D01*
X0399749Y0281206D02*
X0066238Y0281206D01*
X0065639Y0281805D02*
X0399749Y0281805D01*
X0399749Y0282403D02*
X0065041Y0282403D01*
X0057937Y0283002D02*
X0051448Y0283002D01*
X0051448Y0282600D02*
X0051448Y0283915D01*
X0049163Y0286200D01*
X0047848Y0286200D01*
X0047848Y0282600D01*
X0051448Y0282600D01*
X0051448Y0283600D02*
X0057338Y0283600D01*
X0056740Y0284199D02*
X0051165Y0284199D01*
X0050566Y0284797D02*
X0056141Y0284797D01*
X0055543Y0285396D02*
X0049968Y0285396D01*
X0049369Y0285994D02*
X0054944Y0285994D01*
X0047848Y0285994D02*
X0047248Y0285994D01*
X0047248Y0285396D02*
X0047848Y0285396D01*
X0047848Y0284797D02*
X0047248Y0284797D01*
X0047248Y0284199D02*
X0047848Y0284199D01*
X0047848Y0283600D02*
X0047248Y0283600D01*
X0047248Y0283002D02*
X0047848Y0283002D01*
X0047848Y0281206D02*
X0047248Y0281206D01*
X0047248Y0280608D02*
X0047848Y0280608D01*
X0047848Y0280009D02*
X0047248Y0280009D01*
X0047248Y0279411D02*
X0047848Y0279411D01*
X0047848Y0278812D02*
X0047248Y0278812D01*
X0045368Y0295571D02*
X0035247Y0295571D01*
X0035247Y0296169D02*
X0044769Y0296169D01*
X0044171Y0296768D02*
X0035247Y0296768D01*
X0035247Y0297366D02*
X0043572Y0297366D01*
X0042974Y0297965D02*
X0035247Y0297965D01*
X0035247Y0298563D02*
X0042375Y0298563D01*
X0041777Y0299162D02*
X0035247Y0299162D01*
X0035247Y0299760D02*
X0041248Y0299760D01*
X0041248Y0300359D02*
X0035247Y0300359D01*
X0035247Y0300957D02*
X0041248Y0300957D01*
X0041248Y0301556D02*
X0035247Y0301556D01*
X0035247Y0302154D02*
X0041248Y0302154D01*
X0041248Y0302753D02*
X0035247Y0302753D01*
X0035247Y0303351D02*
X0041248Y0303351D01*
X0041248Y0303950D02*
X0035247Y0303950D01*
X0035247Y0304548D02*
X0041248Y0304548D01*
X0041248Y0305147D02*
X0035247Y0305147D01*
X0035247Y0305745D02*
X0041248Y0305745D01*
X0041248Y0306344D02*
X0035247Y0306344D01*
X0035247Y0306942D02*
X0041153Y0306942D01*
X0040555Y0307541D02*
X0035247Y0307541D01*
X0035247Y0308139D02*
X0039956Y0308139D01*
X0039358Y0308738D02*
X0035247Y0308738D01*
X0035247Y0309336D02*
X0038759Y0309336D01*
X0038161Y0309935D02*
X0035247Y0309935D01*
X0035247Y0310533D02*
X0037439Y0310533D01*
X0036272Y0311132D02*
X0035247Y0311132D01*
X0035247Y0311730D02*
X0035679Y0311730D01*
X0035432Y0312329D02*
X0035247Y0312329D01*
X0035247Y0312927D02*
X0035259Y0312927D01*
X0035247Y0313526D02*
X0035259Y0313526D01*
X0035247Y0314124D02*
X0035371Y0314124D01*
X0035247Y0314723D02*
X0035619Y0314723D01*
X0035247Y0315321D02*
X0036125Y0315321D01*
X0030647Y0315321D02*
X0029371Y0315321D01*
X0029123Y0314723D02*
X0030647Y0314723D01*
X0030647Y0314124D02*
X0028875Y0314124D01*
X0028627Y0313526D02*
X0030647Y0313526D01*
X0030647Y0312927D02*
X0028101Y0312927D01*
X0027502Y0312329D02*
X0030647Y0312329D01*
X0030647Y0311730D02*
X0026904Y0311730D01*
X0025923Y0311132D02*
X0030647Y0311132D01*
X0030647Y0310533D02*
X0024478Y0310533D01*
X0029619Y0315920D02*
X0030647Y0315920D01*
X0030647Y0316518D02*
X0029658Y0316518D01*
X0029658Y0317117D02*
X0030647Y0317117D01*
X0030647Y0317715D02*
X0029658Y0317715D01*
X0029658Y0318314D02*
X0030647Y0318314D01*
X0030647Y0318912D02*
X0029630Y0318912D01*
X0029382Y0319511D02*
X0030647Y0319511D01*
X0030647Y0320110D02*
X0029134Y0320110D01*
X0028886Y0320708D02*
X0030647Y0320708D01*
X0030647Y0321307D02*
X0028638Y0321307D01*
X0028128Y0321905D02*
X0030647Y0321905D01*
X0030647Y0322504D02*
X0027530Y0322504D01*
X0026931Y0323102D02*
X0030647Y0323102D01*
X0030647Y0323701D02*
X0025989Y0323701D01*
X0024544Y0324299D02*
X0030647Y0324299D01*
X0049848Y0345247D02*
X0399749Y0345247D01*
X0399749Y0345845D02*
X0049848Y0345845D01*
X0049848Y0346444D02*
X0399749Y0346444D01*
X0399749Y0347043D02*
X0049848Y0347043D01*
X0049848Y0347641D02*
X0399749Y0347641D01*
X0399749Y0348240D02*
X0049848Y0348240D01*
X0049263Y0348838D02*
X0399749Y0348838D01*
X0399749Y0349437D02*
X0048664Y0349437D01*
X0037687Y0350035D02*
X0399749Y0350035D01*
X0399749Y0350634D02*
X0037088Y0350634D01*
X0036490Y0351232D02*
X0399749Y0351232D01*
X0399749Y0351831D02*
X0035891Y0351831D01*
X0035293Y0352429D02*
X0399749Y0352429D01*
X0399749Y0353028D02*
X0034694Y0353028D01*
X0034096Y0353626D02*
X0399749Y0353626D01*
X0399749Y0354225D02*
X0033497Y0354225D01*
X0032899Y0354823D02*
X0399749Y0354823D01*
X0399749Y0355422D02*
X0032300Y0355422D01*
X0031702Y0356020D02*
X0399749Y0356020D01*
X0399749Y0356619D02*
X0031103Y0356619D01*
X0030505Y0357217D02*
X0399749Y0357217D01*
X0399749Y0368589D02*
X0044635Y0368589D01*
X0045234Y0369187D02*
X0399749Y0369187D01*
X0399749Y0369786D02*
X0045832Y0369786D01*
X0046431Y0370384D02*
X0399749Y0370384D01*
X0399749Y0370983D02*
X0046648Y0370983D01*
X0046648Y0371581D02*
X0399749Y0371581D01*
X0399749Y0372180D02*
X0046648Y0372180D01*
X0046648Y0372779D02*
X0399749Y0372779D01*
X0399749Y0373377D02*
X0046648Y0373377D01*
X0046648Y0373976D02*
X0399749Y0373976D01*
X0399749Y0374574D02*
X0046072Y0374574D01*
X0045474Y0375173D02*
X0399749Y0375173D01*
X0399749Y0375771D02*
X0044875Y0375771D01*
X0044277Y0376370D02*
X0399749Y0376370D01*
X0399749Y0290782D02*
X0099864Y0290782D01*
X0100462Y0290184D02*
X0399749Y0290184D01*
X0399749Y0289585D02*
X0101061Y0289585D01*
X0101648Y0288987D02*
X0399749Y0288987D01*
X0399749Y0288388D02*
X0101648Y0288388D01*
X0101648Y0287790D02*
X0399749Y0287790D01*
X0399749Y0287191D02*
X0101648Y0287191D01*
X0101648Y0286593D02*
X0399749Y0286593D01*
X0399749Y0285994D02*
X0101648Y0285994D01*
X0101442Y0285396D02*
X0399749Y0285396D01*
X0399749Y0284797D02*
X0100844Y0284797D01*
X0100245Y0284199D02*
X0399749Y0284199D01*
X0399749Y0271630D02*
X0126448Y0271630D01*
X0126448Y0271032D02*
X0399749Y0271032D01*
X0399749Y0270433D02*
X0126197Y0270433D01*
X0125598Y0269835D02*
X0399749Y0269835D01*
X0399749Y0269236D02*
X0124999Y0269236D01*
X0124401Y0268638D02*
X0399749Y0268638D01*
X0387663Y0211180D02*
X0220848Y0211180D01*
X0220848Y0210582D02*
X0387849Y0210582D01*
X0388117Y0209983D02*
X0220848Y0209983D01*
X0220848Y0209385D02*
X0388486Y0209385D01*
X0388991Y0208786D02*
X0220848Y0208786D01*
X0220848Y0208188D02*
X0389701Y0208188D01*
X0390886Y0187240D02*
X0220970Y0187240D01*
X0254670Y0165694D02*
X0388588Y0165694D01*
X0388077Y0165095D02*
X0255268Y0165095D01*
X0255867Y0164497D02*
X0387829Y0164497D01*
X0387582Y0163898D02*
X0256448Y0163898D01*
X0256448Y0163300D02*
X0387348Y0163300D01*
X0387348Y0162701D02*
X0256448Y0162701D01*
X0394210Y0187240D02*
X0399749Y0187240D01*
X0094634Y0290184D02*
X0075179Y0290184D01*
X0075778Y0289585D02*
X0094035Y0289585D01*
X0093448Y0288987D02*
X0076377Y0288987D01*
X0076448Y0288388D02*
X0093448Y0288388D01*
X0093448Y0287790D02*
X0076448Y0287790D01*
X0074821Y0293775D02*
X0095275Y0293775D01*
X0094676Y0294374D02*
X0075420Y0294374D01*
X0076018Y0294972D02*
X0094078Y0294972D01*
X0093479Y0295571D02*
X0076617Y0295571D01*
X0076648Y0296169D02*
X0093448Y0296169D01*
X0093448Y0296768D02*
X0076648Y0296768D01*
X0076648Y0297366D02*
X0093448Y0297366D01*
X0093448Y0297965D02*
X0076648Y0297965D01*
X0076648Y0298563D02*
X0093448Y0298563D01*
X0093611Y0299162D02*
X0076485Y0299162D01*
X0075886Y0299760D02*
X0094210Y0299760D01*
X0094808Y0300359D02*
X0075288Y0300359D01*
X0074689Y0300957D02*
X0095407Y0300957D01*
X0082848Y0275820D02*
X0082248Y0275820D01*
X0082248Y0275221D02*
X0082848Y0275221D01*
X0082848Y0274623D02*
X0082248Y0274623D01*
X0082248Y0274024D02*
X0082848Y0274024D01*
X0082848Y0273426D02*
X0082248Y0273426D01*
X0082248Y0271630D02*
X0082848Y0271630D01*
X0082848Y0271032D02*
X0082248Y0271032D01*
X0082248Y0270433D02*
X0082848Y0270433D01*
X0082848Y0269835D02*
X0082248Y0269835D01*
X0082248Y0269236D02*
X0082848Y0269236D01*
X0082848Y0268638D02*
X0082248Y0268638D01*
X0025348Y0262652D02*
X0024425Y0262652D01*
X0022848Y0262652D02*
X0022248Y0262652D01*
X0022248Y0263251D02*
X0022848Y0263251D01*
X0022848Y0263849D02*
X0022248Y0263849D01*
X0022248Y0264448D02*
X0022848Y0264448D01*
X0022848Y0265046D02*
X0022248Y0265046D01*
X0022248Y0265645D02*
X0022848Y0265645D01*
X0022848Y0266243D02*
X0022248Y0266243D01*
X0022248Y0266842D02*
X0022848Y0266842D01*
X0017603Y0268039D02*
X0009548Y0268039D01*
X0009548Y0268638D02*
X0017725Y0268638D01*
X0017923Y0269236D02*
X0009548Y0269236D01*
X0009548Y0269835D02*
X0018228Y0269835D01*
X0018644Y0270433D02*
X0009548Y0270433D01*
X0009548Y0271032D02*
X0019209Y0271032D01*
X0020033Y0271630D02*
X0009548Y0271630D01*
X0009548Y0292578D02*
X0018448Y0292578D01*
X0018448Y0293177D02*
X0009548Y0293177D01*
X0009548Y0293775D02*
X0018448Y0293775D01*
X0018823Y0294374D02*
X0009548Y0294374D01*
X0009548Y0294972D02*
X0019422Y0294972D01*
X0020020Y0295571D02*
X0009548Y0295571D01*
X0009548Y0296169D02*
X0020619Y0296169D01*
X0024477Y0296169D02*
X0024999Y0296169D01*
X0025076Y0295571D02*
X0025210Y0295571D01*
X0024751Y0296768D02*
X0009548Y0296768D01*
X0009548Y0297366D02*
X0024721Y0297366D01*
X0024726Y0297965D02*
X0009548Y0297965D01*
X0009548Y0298563D02*
X0024974Y0298563D01*
X0025331Y0299162D02*
X0009548Y0299162D01*
X0009548Y0299760D02*
X0025929Y0299760D01*
X0020524Y0353028D02*
X0020343Y0353028D01*
X0019462Y0360808D02*
X0038648Y0360808D01*
X0038648Y0361407D02*
X0020291Y0361407D01*
D18*
X0027169Y0357300D02*
X0037169Y0347300D01*
X0047548Y0347300D01*
X0047548Y0342300D01*
X0043347Y0338099D01*
X0042627Y0338099D01*
X0037902Y0334950D02*
X0032947Y0329994D01*
X0032947Y0221901D01*
X0107548Y0147300D01*
X0091548Y0151300D02*
X0088548Y0151300D01*
X0027510Y0212338D01*
X0027510Y0245049D01*
X0027648Y0245187D01*
X0027648Y0269413D01*
X0027510Y0269551D01*
X0027510Y0297396D01*
X0043548Y0300643D02*
X0156891Y0187300D01*
X0162548Y0187300D01*
X0177048Y0172800D01*
X0192548Y0172800D01*
X0199398Y0180135D02*
X0199398Y0182224D01*
X0197548Y0184074D01*
X0197548Y0207300D01*
X0177548Y0207300D02*
X0177548Y0202300D01*
X0193146Y0186702D01*
X0207548Y0168300D02*
X0212548Y0173300D01*
X0207548Y0168300D02*
X0096548Y0168300D01*
X0042548Y0222300D01*
X0043548Y0300643D02*
X0043548Y0307800D01*
X0038048Y0313300D01*
X0134848Y0166100D02*
X0208459Y0166100D01*
X0209185Y0166825D01*
X0225306Y0166825D01*
X0225383Y0166749D01*
X0213548Y0163800D02*
X0149048Y0163800D01*
X0142548Y0157300D01*
X0142548Y0147300D01*
X0135548Y0140300D01*
X0129048Y0140300D01*
X0129048Y0160300D02*
X0134848Y0166100D01*
X0153248Y0157500D02*
X0172348Y0157500D01*
X0172548Y0157300D01*
X0166548Y0153890D02*
X0162548Y0149890D01*
X0162548Y0139074D01*
X0160974Y0137500D01*
X0153248Y0137500D01*
X0168648Y0141300D02*
X0168648Y0093700D01*
X0162348Y0087400D01*
X0145048Y0087400D01*
X0187548Y0097300D02*
X0187548Y0132300D01*
X0196841Y0141593D01*
X0202341Y0141593D01*
X0202548Y0127300D02*
X0202548Y0102300D01*
X0218548Y0087300D02*
X0218548Y0083800D01*
X0169548Y0034800D01*
X0135048Y0034800D01*
X0222048Y0107300D02*
X0205958Y0123390D01*
X0205958Y0124300D01*
X0222048Y0107300D02*
X0227548Y0107300D01*
X0218548Y0185800D02*
X0218548Y0216300D01*
D19*
X0218548Y0216300D03*
X0197548Y0207300D03*
X0177548Y0207300D03*
X0193146Y0186702D03*
X0199398Y0180135D03*
X0202548Y0187300D03*
X0218548Y0185800D03*
X0212548Y0173300D03*
X0213548Y0163800D03*
X0225383Y0166749D03*
X0233548Y0160300D03*
X0202341Y0141593D03*
X0202548Y0127300D03*
X0205958Y0124300D03*
X0197548Y0122300D03*
X0202548Y0102300D03*
X0187548Y0097300D03*
X0218548Y0087300D03*
X0227548Y0107300D03*
X0172548Y0157300D03*
X0166548Y0153890D03*
X0168648Y0141300D03*
X0192548Y0172800D03*
X0107548Y0147300D03*
X0091548Y0151300D03*
X0145048Y0087400D03*
X0135048Y0034800D03*
X0042548Y0222300D03*
X0027510Y0297396D03*
X0038048Y0313300D03*
X0027169Y0357300D03*
M02*
