G75*
%MOIN*%
%OFA0B0*%
%FSLAX25Y25*%
%IPPOS*%
%LPD*%
%AMOC8*
5,1,8,0,0,1.08239X$1,22.5*
%
%ADD10C,0.00000*%
%ADD11OC8,0.05600*%
%ADD12C,0.05600*%
%ADD13C,0.05550*%
%ADD14C,0.11620*%
%ADD15R,0.06306X0.02369*%
%ADD16R,0.02369X0.06306*%
%ADD17C,0.06337*%
%ADD18C,0.07800*%
D10*
X0007548Y0002300D02*
X0007548Y0396001D01*
X0401249Y0396001D01*
X0401249Y0002300D01*
X0007548Y0002300D01*
D11*
X0137548Y0017300D03*
X0177548Y0017300D03*
X0197548Y0092300D03*
X0207548Y0092300D03*
X0252548Y0152300D03*
X0252548Y0162300D03*
X0207548Y0217300D03*
X0197548Y0217300D03*
X0153248Y0157500D03*
X0082548Y0232300D03*
X0067548Y0252300D03*
X0057548Y0252300D03*
X0042548Y0232300D03*
X0042548Y0272300D03*
X0047548Y0282300D03*
X0022548Y0282300D03*
X0015048Y0287300D03*
X0022548Y0292300D03*
X0072548Y0287300D03*
X0072548Y0297300D03*
X0097548Y0297300D03*
X0097548Y0287300D03*
X0082548Y0272300D03*
X0122548Y0272300D03*
X0122548Y0312300D03*
X0042548Y0362300D03*
X0042548Y0372300D03*
D12*
X0047548Y0302300D03*
X0153248Y0137500D03*
D13*
X0042627Y0325501D03*
X0037902Y0328650D03*
X0042627Y0331800D03*
X0037902Y0334950D03*
X0042627Y0338099D03*
X0017548Y0364426D03*
X0017548Y0372300D03*
X0017548Y0380174D03*
D14*
X0022548Y0346170D03*
X0022548Y0317430D03*
D15*
X0179713Y0173048D03*
X0179713Y0169898D03*
X0179713Y0166749D03*
X0179713Y0163599D03*
X0179713Y0160450D03*
X0179713Y0157300D03*
X0179713Y0154150D03*
X0179713Y0151001D03*
X0179713Y0147851D03*
X0179713Y0144702D03*
X0179713Y0141552D03*
X0225383Y0141552D03*
X0225383Y0144702D03*
X0225383Y0147851D03*
X0225383Y0151001D03*
X0225383Y0154150D03*
X0225383Y0157300D03*
X0225383Y0160450D03*
X0225383Y0163599D03*
X0225383Y0166749D03*
X0225383Y0169898D03*
X0225383Y0173048D03*
D16*
X0218296Y0180135D03*
X0215146Y0180135D03*
X0211997Y0180135D03*
X0208847Y0180135D03*
X0205698Y0180135D03*
X0202548Y0180135D03*
X0199398Y0180135D03*
X0196249Y0180135D03*
X0193099Y0180135D03*
X0189950Y0180135D03*
X0186800Y0180135D03*
X0186800Y0134465D03*
X0189950Y0134465D03*
X0193099Y0134465D03*
X0196249Y0134465D03*
X0199398Y0134465D03*
X0202548Y0134465D03*
X0205698Y0134465D03*
X0208847Y0134465D03*
X0211997Y0134465D03*
X0215146Y0134465D03*
X0218296Y0134465D03*
D17*
X0017548Y0356552D03*
X0017548Y0388048D03*
D18*
X0022548Y0267300D03*
X0022548Y0247300D03*
X0017548Y0217300D03*
X0017548Y0207300D03*
X0017548Y0197300D03*
X0017548Y0187300D03*
X0017548Y0177300D03*
X0017548Y0167300D03*
X0017548Y0157300D03*
X0017548Y0147300D03*
X0017548Y0137300D03*
X0017548Y0127300D03*
X0017548Y0117300D03*
X0017548Y0107300D03*
X0017548Y0097300D03*
X0017548Y0087300D03*
X0017548Y0077300D03*
X0027548Y0011800D03*
X0037548Y0011800D03*
X0047548Y0011800D03*
X0057548Y0011800D03*
X0067548Y0011800D03*
X0097548Y0017300D03*
X0117548Y0017300D03*
X0129048Y0140300D03*
X0129048Y0150300D03*
X0129048Y0160300D03*
X0392548Y0162300D03*
X0392548Y0152300D03*
X0392548Y0142300D03*
X0392548Y0132300D03*
X0392548Y0122300D03*
X0392548Y0112300D03*
X0392548Y0102300D03*
X0392548Y0092300D03*
X0392548Y0082300D03*
X0392548Y0072300D03*
X0392548Y0172300D03*
X0392548Y0182300D03*
X0392548Y0192300D03*
X0392548Y0202300D03*
X0392548Y0212300D03*
M02*
