G75*
%MOIN*%
%OFA0B0*%
%FSLAX25Y25*%
%IPPOS*%
%LPD*%
%AMOC8*
5,1,8,0,0,1.08239X$1,22.5*
%
%ADD10C,0.00000*%
%ADD11C,0.00600*%
%ADD12R,0.01400X0.00100*%
%ADD13R,0.09800X0.00100*%
%ADD14R,0.09200X0.00100*%
%ADD15R,0.09700X0.00100*%
%ADD16R,0.09600X0.00100*%
%ADD17R,0.09500X0.00100*%
%ADD18R,0.09400X0.00100*%
%ADD19R,0.09100X0.00100*%
%ADD20R,0.08900X0.00100*%
%ADD21R,0.08700X0.00100*%
%ADD22R,0.08400X0.00100*%
%ADD23R,0.08300X0.00100*%
%ADD24R,0.08000X0.00100*%
%ADD25R,0.07300X0.00100*%
%ADD26R,0.07000X0.00100*%
%ADD27R,0.06900X0.00100*%
%ADD28R,0.06600X0.00100*%
%ADD29R,0.06400X0.00100*%
%ADD30R,0.05800X0.00100*%
%ADD31R,0.00300X0.00100*%
%ADD32R,0.05500X0.00100*%
%ADD33R,0.00100X0.00100*%
%ADD34R,0.05400X0.00100*%
%ADD35R,0.12800X0.00100*%
%ADD36R,0.05200X0.00100*%
%ADD37R,0.08500X0.00100*%
%ADD38R,0.12900X0.00100*%
%ADD39R,0.05000X0.00100*%
%ADD40R,0.08600X0.00100*%
%ADD41R,0.04900X0.00100*%
%ADD42R,0.04600X0.00100*%
%ADD43R,0.04500X0.00100*%
%ADD44R,0.04300X0.00100*%
%ADD45R,0.08800X0.00100*%
%ADD46R,0.04200X0.00100*%
%ADD47R,0.03900X0.00100*%
%ADD48R,0.03800X0.00100*%
%ADD49R,0.09000X0.00100*%
%ADD50R,0.00800X0.00100*%
%ADD51R,0.03700X0.00100*%
%ADD52R,0.03500X0.00100*%
%ADD53R,0.00900X0.00100*%
%ADD54R,0.02300X0.00100*%
%ADD55R,0.01000X0.00100*%
%ADD56R,0.02100X0.00100*%
%ADD57R,0.01900X0.00100*%
%ADD58R,0.00600X0.00100*%
%ADD59R,0.00200X0.00100*%
%ADD60R,0.01700X0.00100*%
%ADD61R,0.00500X0.00100*%
%ADD62R,0.00400X0.00100*%
%ADD63R,0.01600X0.00100*%
%ADD64R,0.00700X0.00100*%
%ADD65R,0.01200X0.00100*%
%ADD66R,0.01100X0.00100*%
%ADD67R,0.01500X0.00100*%
%ADD68R,0.01800X0.00100*%
%ADD69R,0.02000X0.00100*%
%ADD70R,0.02400X0.00100*%
%ADD71R,0.06700X0.00100*%
%ADD72R,0.02500X0.00100*%
%ADD73R,0.02700X0.00100*%
%ADD74R,0.02800X0.00100*%
%ADD75R,0.03000X0.00100*%
%ADD76R,0.03100X0.00100*%
%ADD77R,0.03300X0.00100*%
%ADD78R,0.01300X0.00100*%
%ADD79R,0.03400X0.00100*%
%ADD80R,0.04000X0.00100*%
%ADD81R,0.04100X0.00100*%
%ADD82R,0.04400X0.00100*%
%ADD83R,0.04700X0.00100*%
%ADD84R,0.04800X0.00100*%
%ADD85R,0.05100X0.00100*%
%ADD86R,0.06500X0.00100*%
%ADD87R,0.02200X0.00100*%
%ADD88R,0.05700X0.00100*%
%ADD89R,0.02600X0.00100*%
%ADD90R,0.05900X0.00100*%
%ADD91R,0.02900X0.00100*%
%ADD92R,0.06100X0.00100*%
%ADD93R,0.06200X0.00100*%
%ADD94R,0.03200X0.00100*%
%ADD95R,0.06300X0.00100*%
%ADD96R,0.06800X0.00100*%
%ADD97R,0.03600X0.00100*%
%ADD98R,0.07100X0.00100*%
%ADD99R,0.07200X0.00100*%
%ADD100R,0.07400X0.00100*%
%ADD101R,0.07500X0.00100*%
%ADD102R,0.07600X0.00100*%
%ADD103R,0.07800X0.00100*%
%ADD104R,0.06000X0.00100*%
%ADD105R,0.07900X0.00100*%
%ADD106R,0.08100X0.00100*%
%ADD107R,0.13500X0.00100*%
%ADD108R,0.13600X0.00100*%
%ADD109R,0.13800X0.00100*%
%ADD110R,0.14000X0.00100*%
%ADD111R,0.14200X0.00100*%
%ADD112R,0.14400X0.00100*%
%ADD113R,0.21700X0.00100*%
%ADD114R,0.21800X0.00100*%
%ADD115R,0.05600X0.00100*%
%ADD116R,0.21900X0.00100*%
%ADD117R,0.22000X0.00100*%
%ADD118R,0.22100X0.00100*%
%ADD119R,0.22300X0.00100*%
%ADD120R,0.22400X0.00100*%
%ADD121R,0.22500X0.00100*%
%ADD122R,0.22600X0.00100*%
%ADD123R,0.22800X0.00100*%
%ADD124R,0.22900X0.00100*%
%ADD125R,0.23000X0.00100*%
%ADD126R,0.23100X0.00100*%
%ADD127R,0.23300X0.00100*%
%ADD128R,0.23400X0.00100*%
%ADD129R,0.23600X0.00100*%
%ADD130R,0.23700X0.00100*%
%ADD131R,0.23800X0.00100*%
%ADD132R,0.23900X0.00100*%
%ADD133R,0.24000X0.00100*%
%ADD134R,0.24100X0.00100*%
%ADD135R,0.24200X0.00100*%
%ADD136R,0.24300X0.00100*%
%ADD137R,0.18900X0.00100*%
%ADD138R,0.19000X0.00100*%
%ADD139R,0.19100X0.00100*%
%ADD140R,0.19200X0.00100*%
%ADD141R,0.19300X0.00100*%
%ADD142R,0.19400X0.00100*%
%ADD143R,0.18500X0.00100*%
%ADD144R,0.18300X0.00100*%
%ADD145R,0.18000X0.00100*%
%ADD146R,0.17900X0.00100*%
%ADD147R,0.17700X0.00100*%
%ADD148R,0.17500X0.00100*%
%ADD149R,0.17400X0.00100*%
%ADD150R,0.17200X0.00100*%
%ADD151R,0.16900X0.00100*%
%ADD152R,0.08200X0.00100*%
%ADD153R,0.07700X0.00100*%
%ADD154R,0.09300X0.00100*%
%ADD155R,0.09900X0.00100*%
%ADD156R,0.10100X0.00100*%
%ADD157R,0.10200X0.00100*%
%ADD158R,0.10300X0.00100*%
%ADD159R,0.10500X0.00100*%
%ADD160R,0.10700X0.00100*%
%ADD161R,0.10800X0.00100*%
%ADD162R,0.10900X0.00100*%
%ADD163R,0.11100X0.00100*%
%ADD164R,0.10400X0.00100*%
%ADD165R,0.10600X0.00100*%
%ADD166R,0.14600X0.00100*%
%ADD167R,0.14700X0.00100*%
%ADD168R,0.14800X0.00100*%
%ADD169R,0.14900X0.00100*%
%ADD170R,0.15000X0.00100*%
%ADD171R,0.15300X0.00100*%
%ADD172R,0.15500X0.00100*%
%ADD173R,0.15600X0.00100*%
%ADD174R,0.15700X0.00100*%
%ADD175R,0.05300X0.00100*%
%ADD176R,0.15400X0.00100*%
%ADD177R,0.15200X0.00100*%
%ADD178R,0.15100X0.00100*%
%ADD179R,0.14500X0.00100*%
%ADD180R,0.14300X0.00100*%
%ADD181R,0.14100X0.00100*%
%ADD182R,0.12600X0.00100*%
%ADD183R,0.12500X0.00100*%
%ADD184C,0.00500*%
D10*
X0007548Y0002300D02*
X0007548Y0396001D01*
X0401249Y0396001D01*
X0401249Y0002300D01*
X0007548Y0002300D01*
D11*
X0028842Y0073100D02*
X0030619Y0073100D01*
X0030619Y0079500D01*
X0028842Y0079500D01*
X0028760Y0079498D01*
X0028678Y0079492D01*
X0028596Y0079483D01*
X0028515Y0079470D01*
X0028435Y0079453D01*
X0028355Y0079432D01*
X0028277Y0079408D01*
X0028200Y0079380D01*
X0028124Y0079349D01*
X0028049Y0079314D01*
X0027977Y0079275D01*
X0027906Y0079234D01*
X0027837Y0079189D01*
X0027771Y0079141D01*
X0027706Y0079090D01*
X0027644Y0079036D01*
X0027585Y0078979D01*
X0027528Y0078920D01*
X0027474Y0078858D01*
X0027423Y0078793D01*
X0027375Y0078727D01*
X0027330Y0078658D01*
X0027289Y0078587D01*
X0027250Y0078515D01*
X0027215Y0078440D01*
X0027184Y0078364D01*
X0027156Y0078287D01*
X0027132Y0078209D01*
X0027111Y0078129D01*
X0027094Y0078049D01*
X0027081Y0077968D01*
X0027072Y0077886D01*
X0027066Y0077804D01*
X0027064Y0077722D01*
X0027064Y0074878D01*
X0027066Y0074796D01*
X0027072Y0074714D01*
X0027081Y0074632D01*
X0027094Y0074551D01*
X0027111Y0074471D01*
X0027132Y0074391D01*
X0027156Y0074313D01*
X0027184Y0074236D01*
X0027215Y0074160D01*
X0027250Y0074085D01*
X0027289Y0074013D01*
X0027330Y0073942D01*
X0027375Y0073873D01*
X0027423Y0073807D01*
X0027474Y0073742D01*
X0027528Y0073680D01*
X0027585Y0073621D01*
X0027644Y0073564D01*
X0027706Y0073510D01*
X0027771Y0073459D01*
X0027837Y0073411D01*
X0027906Y0073366D01*
X0027977Y0073325D01*
X0028049Y0073286D01*
X0028124Y0073251D01*
X0028200Y0073220D01*
X0028277Y0073192D01*
X0028355Y0073168D01*
X0028435Y0073147D01*
X0028515Y0073130D01*
X0028596Y0073117D01*
X0028678Y0073108D01*
X0028760Y0073102D01*
X0028842Y0073100D01*
X0033628Y0073100D02*
X0033628Y0079500D01*
X0037184Y0079500D02*
X0033628Y0073100D01*
X0037184Y0073100D02*
X0037184Y0079500D01*
X0040192Y0079500D02*
X0042326Y0079500D01*
X0042400Y0079498D01*
X0042475Y0079492D01*
X0042548Y0079482D01*
X0042622Y0079469D01*
X0042694Y0079452D01*
X0042765Y0079430D01*
X0042836Y0079406D01*
X0042904Y0079377D01*
X0042972Y0079345D01*
X0043037Y0079309D01*
X0043100Y0079271D01*
X0043162Y0079228D01*
X0043221Y0079183D01*
X0043278Y0079135D01*
X0043332Y0079084D01*
X0043383Y0079030D01*
X0043431Y0078973D01*
X0043476Y0078914D01*
X0043519Y0078852D01*
X0043557Y0078789D01*
X0043593Y0078724D01*
X0043625Y0078656D01*
X0043654Y0078588D01*
X0043678Y0078517D01*
X0043700Y0078446D01*
X0043717Y0078374D01*
X0043730Y0078300D01*
X0043740Y0078227D01*
X0043746Y0078152D01*
X0043748Y0078078D01*
X0043748Y0074522D01*
X0043746Y0074448D01*
X0043740Y0074373D01*
X0043730Y0074300D01*
X0043717Y0074226D01*
X0043700Y0074154D01*
X0043678Y0074083D01*
X0043654Y0074012D01*
X0043625Y0073944D01*
X0043593Y0073876D01*
X0043557Y0073811D01*
X0043519Y0073748D01*
X0043476Y0073686D01*
X0043431Y0073627D01*
X0043383Y0073570D01*
X0043332Y0073516D01*
X0043278Y0073465D01*
X0043221Y0073417D01*
X0043162Y0073372D01*
X0043100Y0073329D01*
X0043037Y0073291D01*
X0042972Y0073255D01*
X0042904Y0073223D01*
X0042836Y0073194D01*
X0042765Y0073170D01*
X0042694Y0073148D01*
X0042622Y0073131D01*
X0042548Y0073118D01*
X0042475Y0073108D01*
X0042400Y0073102D01*
X0042326Y0073100D01*
X0040192Y0073100D01*
X0040192Y0076656D01*
X0041259Y0076656D01*
X0041970Y0083100D02*
X0043748Y0083100D01*
X0041970Y0083100D02*
X0041887Y0083102D01*
X0041804Y0083108D01*
X0041721Y0083118D01*
X0041638Y0083131D01*
X0041557Y0083149D01*
X0041476Y0083170D01*
X0041397Y0083195D01*
X0041319Y0083224D01*
X0041242Y0083256D01*
X0041167Y0083292D01*
X0041093Y0083331D01*
X0041022Y0083374D01*
X0040952Y0083420D01*
X0040885Y0083470D01*
X0040820Y0083522D01*
X0040758Y0083577D01*
X0040698Y0083636D01*
X0040641Y0083697D01*
X0040587Y0083760D01*
X0040536Y0083826D01*
X0040489Y0083895D01*
X0040444Y0083965D01*
X0040403Y0084038D01*
X0040366Y0084112D01*
X0040331Y0084188D01*
X0040301Y0084266D01*
X0040274Y0084344D01*
X0040251Y0084425D01*
X0040231Y0084506D01*
X0040216Y0084588D01*
X0040204Y0084670D01*
X0040196Y0084753D01*
X0040192Y0084836D01*
X0040192Y0084920D01*
X0040196Y0085003D01*
X0040204Y0085086D01*
X0040216Y0085168D01*
X0040231Y0085250D01*
X0040251Y0085331D01*
X0040274Y0085412D01*
X0040301Y0085490D01*
X0040331Y0085568D01*
X0040366Y0085644D01*
X0040403Y0085718D01*
X0040444Y0085791D01*
X0040489Y0085861D01*
X0040536Y0085930D01*
X0040587Y0085996D01*
X0040641Y0086059D01*
X0040698Y0086120D01*
X0040758Y0086179D01*
X0040820Y0086234D01*
X0040885Y0086286D01*
X0040952Y0086336D01*
X0041022Y0086382D01*
X0041093Y0086425D01*
X0041167Y0086464D01*
X0041242Y0086500D01*
X0041319Y0086532D01*
X0041397Y0086561D01*
X0041476Y0086586D01*
X0041557Y0086607D01*
X0041638Y0086625D01*
X0041721Y0086638D01*
X0041804Y0086648D01*
X0041887Y0086654D01*
X0041970Y0086656D01*
X0041615Y0086656D02*
X0043037Y0086656D01*
X0041615Y0086656D02*
X0041541Y0086658D01*
X0041466Y0086664D01*
X0041393Y0086674D01*
X0041319Y0086687D01*
X0041247Y0086704D01*
X0041176Y0086726D01*
X0041105Y0086750D01*
X0041037Y0086779D01*
X0040969Y0086811D01*
X0040904Y0086847D01*
X0040841Y0086885D01*
X0040779Y0086928D01*
X0040720Y0086973D01*
X0040663Y0087021D01*
X0040609Y0087072D01*
X0040558Y0087126D01*
X0040510Y0087183D01*
X0040465Y0087242D01*
X0040422Y0087304D01*
X0040384Y0087367D01*
X0040348Y0087432D01*
X0040316Y0087500D01*
X0040287Y0087568D01*
X0040263Y0087639D01*
X0040241Y0087710D01*
X0040224Y0087782D01*
X0040211Y0087856D01*
X0040201Y0087929D01*
X0040195Y0088004D01*
X0040193Y0088078D01*
X0040195Y0088152D01*
X0040201Y0088227D01*
X0040211Y0088300D01*
X0040224Y0088374D01*
X0040241Y0088446D01*
X0040263Y0088517D01*
X0040287Y0088588D01*
X0040316Y0088656D01*
X0040348Y0088724D01*
X0040384Y0088789D01*
X0040422Y0088852D01*
X0040465Y0088914D01*
X0040510Y0088973D01*
X0040558Y0089030D01*
X0040609Y0089084D01*
X0040663Y0089135D01*
X0040720Y0089183D01*
X0040779Y0089228D01*
X0040841Y0089271D01*
X0040904Y0089309D01*
X0040969Y0089345D01*
X0041037Y0089377D01*
X0041105Y0089406D01*
X0041176Y0089430D01*
X0041247Y0089452D01*
X0041319Y0089469D01*
X0041393Y0089482D01*
X0041466Y0089492D01*
X0041541Y0089498D01*
X0041615Y0089500D01*
X0043748Y0089500D01*
X0043748Y0093100D02*
X0043748Y0099500D01*
X0041970Y0099500D01*
X0041896Y0099498D01*
X0041821Y0099492D01*
X0041748Y0099482D01*
X0041674Y0099469D01*
X0041602Y0099452D01*
X0041531Y0099430D01*
X0041460Y0099406D01*
X0041392Y0099377D01*
X0041324Y0099345D01*
X0041259Y0099309D01*
X0041196Y0099271D01*
X0041134Y0099228D01*
X0041075Y0099183D01*
X0041018Y0099135D01*
X0040964Y0099084D01*
X0040913Y0099030D01*
X0040865Y0098973D01*
X0040820Y0098914D01*
X0040777Y0098852D01*
X0040739Y0098789D01*
X0040703Y0098724D01*
X0040671Y0098656D01*
X0040642Y0098588D01*
X0040618Y0098517D01*
X0040596Y0098446D01*
X0040579Y0098374D01*
X0040566Y0098300D01*
X0040556Y0098227D01*
X0040550Y0098152D01*
X0040548Y0098078D01*
X0040550Y0098004D01*
X0040556Y0097929D01*
X0040566Y0097856D01*
X0040579Y0097782D01*
X0040596Y0097710D01*
X0040618Y0097639D01*
X0040642Y0097568D01*
X0040671Y0097500D01*
X0040703Y0097432D01*
X0040739Y0097367D01*
X0040777Y0097304D01*
X0040820Y0097242D01*
X0040865Y0097183D01*
X0040913Y0097126D01*
X0040964Y0097072D01*
X0041018Y0097021D01*
X0041075Y0096973D01*
X0041134Y0096928D01*
X0041196Y0096885D01*
X0041259Y0096847D01*
X0041324Y0096811D01*
X0041392Y0096779D01*
X0041460Y0096750D01*
X0041531Y0096726D01*
X0041602Y0096704D01*
X0041674Y0096687D01*
X0041748Y0096674D01*
X0041821Y0096664D01*
X0041896Y0096658D01*
X0041970Y0096656D01*
X0043748Y0096656D01*
X0041970Y0096656D02*
X0041887Y0096654D01*
X0041804Y0096648D01*
X0041721Y0096638D01*
X0041638Y0096625D01*
X0041557Y0096607D01*
X0041476Y0096586D01*
X0041397Y0096561D01*
X0041319Y0096532D01*
X0041242Y0096500D01*
X0041167Y0096464D01*
X0041093Y0096425D01*
X0041022Y0096382D01*
X0040952Y0096336D01*
X0040885Y0096286D01*
X0040820Y0096234D01*
X0040758Y0096179D01*
X0040698Y0096120D01*
X0040641Y0096059D01*
X0040587Y0095996D01*
X0040536Y0095930D01*
X0040489Y0095861D01*
X0040444Y0095791D01*
X0040403Y0095718D01*
X0040366Y0095644D01*
X0040331Y0095568D01*
X0040301Y0095490D01*
X0040274Y0095412D01*
X0040251Y0095331D01*
X0040231Y0095250D01*
X0040216Y0095168D01*
X0040204Y0095086D01*
X0040196Y0095003D01*
X0040192Y0094920D01*
X0040192Y0094836D01*
X0040196Y0094753D01*
X0040204Y0094670D01*
X0040216Y0094588D01*
X0040231Y0094506D01*
X0040251Y0094425D01*
X0040274Y0094344D01*
X0040301Y0094266D01*
X0040331Y0094188D01*
X0040366Y0094112D01*
X0040403Y0094038D01*
X0040444Y0093965D01*
X0040489Y0093895D01*
X0040536Y0093826D01*
X0040587Y0093760D01*
X0040641Y0093697D01*
X0040698Y0093636D01*
X0040758Y0093577D01*
X0040820Y0093522D01*
X0040885Y0093470D01*
X0040952Y0093420D01*
X0041022Y0093374D01*
X0041093Y0093331D01*
X0041167Y0093292D01*
X0041242Y0093256D01*
X0041319Y0093224D01*
X0041397Y0093195D01*
X0041476Y0093170D01*
X0041557Y0093149D01*
X0041638Y0093131D01*
X0041721Y0093118D01*
X0041804Y0093108D01*
X0041887Y0093102D01*
X0041970Y0093100D01*
X0043748Y0093100D01*
X0037882Y0093100D02*
X0034327Y0093100D01*
X0037882Y0093100D02*
X0034860Y0096656D01*
X0035927Y0099500D02*
X0036016Y0099498D01*
X0036105Y0099492D01*
X0036194Y0099483D01*
X0036282Y0099469D01*
X0036369Y0099452D01*
X0036456Y0099431D01*
X0036542Y0099406D01*
X0036626Y0099378D01*
X0036709Y0099345D01*
X0036791Y0099310D01*
X0036871Y0099270D01*
X0036949Y0099228D01*
X0037026Y0099182D01*
X0037100Y0099133D01*
X0037172Y0099080D01*
X0037242Y0099025D01*
X0037309Y0098966D01*
X0037374Y0098905D01*
X0037436Y0098841D01*
X0037495Y0098774D01*
X0037551Y0098705D01*
X0037604Y0098633D01*
X0037654Y0098559D01*
X0037701Y0098483D01*
X0037744Y0098406D01*
X0037784Y0098326D01*
X0037821Y0098244D01*
X0037854Y0098162D01*
X0037883Y0098077D01*
X0034859Y0096655D02*
X0034802Y0096713D01*
X0034746Y0096774D01*
X0034694Y0096837D01*
X0034645Y0096902D01*
X0034599Y0096970D01*
X0034557Y0097040D01*
X0034517Y0097112D01*
X0034482Y0097185D01*
X0034449Y0097261D01*
X0034421Y0097337D01*
X0034396Y0097415D01*
X0034375Y0097494D01*
X0034357Y0097574D01*
X0034344Y0097655D01*
X0034334Y0097736D01*
X0034328Y0097818D01*
X0034326Y0097900D01*
X0034327Y0097900D02*
X0034329Y0097979D01*
X0034335Y0098057D01*
X0034344Y0098135D01*
X0034358Y0098212D01*
X0034375Y0098289D01*
X0034396Y0098364D01*
X0034421Y0098439D01*
X0034449Y0098512D01*
X0034481Y0098584D01*
X0034516Y0098654D01*
X0034555Y0098723D01*
X0034597Y0098789D01*
X0034642Y0098853D01*
X0034690Y0098915D01*
X0034741Y0098974D01*
X0034796Y0099031D01*
X0034853Y0099086D01*
X0034912Y0099137D01*
X0034974Y0099185D01*
X0035038Y0099230D01*
X0035104Y0099272D01*
X0035173Y0099311D01*
X0035243Y0099346D01*
X0035315Y0099378D01*
X0035388Y0099406D01*
X0035463Y0099431D01*
X0035538Y0099452D01*
X0035615Y0099469D01*
X0035692Y0099483D01*
X0035770Y0099492D01*
X0035848Y0099498D01*
X0035927Y0099500D01*
X0035461Y0103100D02*
X0035461Y0109500D01*
X0037238Y0108078D01*
X0040015Y0104700D02*
X0043215Y0104700D01*
X0043748Y0103100D02*
X0041615Y0109500D01*
X0039481Y0103100D01*
X0037238Y0103100D02*
X0033683Y0103100D01*
X0035461Y0113100D02*
X0035532Y0113102D01*
X0035603Y0113108D01*
X0035673Y0113117D01*
X0035743Y0113131D01*
X0035812Y0113148D01*
X0035879Y0113168D01*
X0035946Y0113193D01*
X0036011Y0113221D01*
X0036075Y0113252D01*
X0036137Y0113287D01*
X0036197Y0113325D01*
X0036255Y0113366D01*
X0036310Y0113410D01*
X0036363Y0113458D01*
X0036413Y0113508D01*
X0036461Y0113560D01*
X0036506Y0113615D01*
X0036547Y0113673D01*
X0036586Y0113733D01*
X0036621Y0113794D01*
X0036653Y0113858D01*
X0036681Y0113923D01*
X0036706Y0113989D01*
X0036883Y0114522D02*
X0034038Y0118078D01*
X0034216Y0118611D02*
X0034241Y0118677D01*
X0034269Y0118742D01*
X0034301Y0118806D01*
X0034336Y0118867D01*
X0034375Y0118927D01*
X0034416Y0118985D01*
X0034461Y0119040D01*
X0034509Y0119092D01*
X0034559Y0119142D01*
X0034612Y0119190D01*
X0034668Y0119234D01*
X0034725Y0119275D01*
X0034785Y0119313D01*
X0034847Y0119348D01*
X0034911Y0119379D01*
X0034976Y0119407D01*
X0035043Y0119432D01*
X0035110Y0119452D01*
X0035179Y0119469D01*
X0035249Y0119483D01*
X0035319Y0119492D01*
X0035390Y0119498D01*
X0035461Y0119500D01*
X0035532Y0119498D01*
X0035603Y0119492D01*
X0035673Y0119483D01*
X0035743Y0119469D01*
X0035812Y0119452D01*
X0035879Y0119432D01*
X0035946Y0119407D01*
X0036011Y0119379D01*
X0036075Y0119348D01*
X0036137Y0119313D01*
X0036197Y0119275D01*
X0036255Y0119234D01*
X0036310Y0119190D01*
X0036363Y0119142D01*
X0036413Y0119092D01*
X0036461Y0119040D01*
X0036506Y0118985D01*
X0036547Y0118927D01*
X0036586Y0118867D01*
X0036621Y0118806D01*
X0036653Y0118742D01*
X0036681Y0118677D01*
X0036706Y0118611D01*
X0034216Y0118611D02*
X0034156Y0118484D01*
X0034100Y0118355D01*
X0034047Y0118225D01*
X0033997Y0118093D01*
X0033951Y0117960D01*
X0033909Y0117826D01*
X0033870Y0117691D01*
X0033834Y0117554D01*
X0033803Y0117417D01*
X0033775Y0117279D01*
X0033750Y0117141D01*
X0033730Y0117002D01*
X0033713Y0116862D01*
X0033700Y0116722D01*
X0033691Y0116581D01*
X0033685Y0116441D01*
X0033683Y0116300D01*
X0037238Y0116300D02*
X0037236Y0116441D01*
X0037230Y0116581D01*
X0037221Y0116722D01*
X0037208Y0116862D01*
X0037191Y0117002D01*
X0037171Y0117141D01*
X0037146Y0117279D01*
X0037118Y0117417D01*
X0037087Y0117554D01*
X0037051Y0117691D01*
X0037012Y0117826D01*
X0036970Y0117960D01*
X0036924Y0118093D01*
X0036874Y0118225D01*
X0036821Y0118355D01*
X0036765Y0118484D01*
X0036705Y0118611D01*
X0033683Y0116300D02*
X0033685Y0116159D01*
X0033691Y0116019D01*
X0033700Y0115878D01*
X0033713Y0115738D01*
X0033730Y0115598D01*
X0033750Y0115459D01*
X0033775Y0115321D01*
X0033803Y0115183D01*
X0033834Y0115046D01*
X0033870Y0114909D01*
X0033909Y0114774D01*
X0033951Y0114640D01*
X0033997Y0114507D01*
X0034047Y0114375D01*
X0034100Y0114245D01*
X0034156Y0114116D01*
X0034216Y0113989D01*
X0034241Y0113923D01*
X0034269Y0113858D01*
X0034301Y0113794D01*
X0034336Y0113733D01*
X0034375Y0113673D01*
X0034416Y0113615D01*
X0034461Y0113560D01*
X0034509Y0113508D01*
X0034559Y0113458D01*
X0034612Y0113410D01*
X0034668Y0113366D01*
X0034725Y0113325D01*
X0034785Y0113287D01*
X0034847Y0113252D01*
X0034911Y0113221D01*
X0034976Y0113193D01*
X0035043Y0113168D01*
X0035110Y0113148D01*
X0035179Y0113131D01*
X0035249Y0113117D01*
X0035319Y0113108D01*
X0035390Y0113102D01*
X0035461Y0113100D01*
X0039481Y0113100D02*
X0041615Y0119500D01*
X0043748Y0113100D01*
X0043215Y0114700D02*
X0040015Y0114700D01*
X0037238Y0116300D02*
X0037236Y0116159D01*
X0037230Y0116019D01*
X0037221Y0115878D01*
X0037208Y0115738D01*
X0037191Y0115598D01*
X0037171Y0115459D01*
X0037146Y0115321D01*
X0037118Y0115183D01*
X0037087Y0115046D01*
X0037051Y0114909D01*
X0037012Y0114774D01*
X0036970Y0114640D01*
X0036924Y0114507D01*
X0036874Y0114375D01*
X0036821Y0114245D01*
X0036765Y0114116D01*
X0036705Y0113989D01*
X0036104Y0123100D02*
X0036104Y0129500D01*
X0037882Y0128078D01*
X0041970Y0129500D02*
X0041896Y0129498D01*
X0041821Y0129492D01*
X0041748Y0129482D01*
X0041674Y0129469D01*
X0041602Y0129452D01*
X0041531Y0129430D01*
X0041460Y0129406D01*
X0041392Y0129377D01*
X0041324Y0129345D01*
X0041259Y0129309D01*
X0041196Y0129271D01*
X0041134Y0129228D01*
X0041075Y0129183D01*
X0041018Y0129135D01*
X0040964Y0129084D01*
X0040913Y0129030D01*
X0040865Y0128973D01*
X0040820Y0128914D01*
X0040777Y0128852D01*
X0040739Y0128789D01*
X0040703Y0128724D01*
X0040671Y0128656D01*
X0040642Y0128588D01*
X0040618Y0128517D01*
X0040596Y0128446D01*
X0040579Y0128374D01*
X0040566Y0128300D01*
X0040556Y0128227D01*
X0040550Y0128152D01*
X0040548Y0128078D01*
X0040550Y0128004D01*
X0040556Y0127929D01*
X0040566Y0127856D01*
X0040579Y0127782D01*
X0040596Y0127710D01*
X0040618Y0127639D01*
X0040642Y0127568D01*
X0040671Y0127500D01*
X0040703Y0127432D01*
X0040739Y0127367D01*
X0040777Y0127304D01*
X0040820Y0127242D01*
X0040865Y0127183D01*
X0040913Y0127126D01*
X0040964Y0127072D01*
X0041018Y0127021D01*
X0041075Y0126973D01*
X0041134Y0126928D01*
X0041196Y0126885D01*
X0041259Y0126847D01*
X0041324Y0126811D01*
X0041392Y0126779D01*
X0041460Y0126750D01*
X0041531Y0126726D01*
X0041602Y0126704D01*
X0041674Y0126687D01*
X0041748Y0126674D01*
X0041821Y0126664D01*
X0041896Y0126658D01*
X0041970Y0126656D01*
X0043748Y0126656D01*
X0041970Y0126656D02*
X0041887Y0126654D01*
X0041804Y0126648D01*
X0041721Y0126638D01*
X0041638Y0126625D01*
X0041557Y0126607D01*
X0041476Y0126586D01*
X0041397Y0126561D01*
X0041319Y0126532D01*
X0041242Y0126500D01*
X0041167Y0126464D01*
X0041093Y0126425D01*
X0041022Y0126382D01*
X0040952Y0126336D01*
X0040885Y0126286D01*
X0040820Y0126234D01*
X0040758Y0126179D01*
X0040698Y0126120D01*
X0040641Y0126059D01*
X0040587Y0125996D01*
X0040536Y0125930D01*
X0040489Y0125861D01*
X0040444Y0125791D01*
X0040403Y0125718D01*
X0040366Y0125644D01*
X0040331Y0125568D01*
X0040301Y0125490D01*
X0040274Y0125412D01*
X0040251Y0125331D01*
X0040231Y0125250D01*
X0040216Y0125168D01*
X0040204Y0125086D01*
X0040196Y0125003D01*
X0040192Y0124920D01*
X0040192Y0124836D01*
X0040196Y0124753D01*
X0040204Y0124670D01*
X0040216Y0124588D01*
X0040231Y0124506D01*
X0040251Y0124425D01*
X0040274Y0124344D01*
X0040301Y0124266D01*
X0040331Y0124188D01*
X0040366Y0124112D01*
X0040403Y0124038D01*
X0040444Y0123965D01*
X0040489Y0123895D01*
X0040536Y0123826D01*
X0040587Y0123760D01*
X0040641Y0123697D01*
X0040698Y0123636D01*
X0040758Y0123577D01*
X0040820Y0123522D01*
X0040885Y0123470D01*
X0040952Y0123420D01*
X0041022Y0123374D01*
X0041093Y0123331D01*
X0041167Y0123292D01*
X0041242Y0123256D01*
X0041319Y0123224D01*
X0041397Y0123195D01*
X0041476Y0123170D01*
X0041557Y0123149D01*
X0041638Y0123131D01*
X0041721Y0123118D01*
X0041804Y0123108D01*
X0041887Y0123102D01*
X0041970Y0123100D01*
X0043748Y0123100D01*
X0043748Y0129500D01*
X0041970Y0129500D01*
X0041970Y0133100D02*
X0043748Y0133100D01*
X0043748Y0139500D01*
X0041970Y0139500D01*
X0041896Y0139498D01*
X0041821Y0139492D01*
X0041748Y0139482D01*
X0041674Y0139469D01*
X0041602Y0139452D01*
X0041531Y0139430D01*
X0041460Y0139406D01*
X0041392Y0139377D01*
X0041324Y0139345D01*
X0041259Y0139309D01*
X0041196Y0139271D01*
X0041134Y0139228D01*
X0041075Y0139183D01*
X0041018Y0139135D01*
X0040964Y0139084D01*
X0040913Y0139030D01*
X0040865Y0138973D01*
X0040820Y0138914D01*
X0040777Y0138852D01*
X0040739Y0138789D01*
X0040703Y0138724D01*
X0040671Y0138656D01*
X0040642Y0138588D01*
X0040618Y0138517D01*
X0040596Y0138446D01*
X0040579Y0138374D01*
X0040566Y0138300D01*
X0040556Y0138227D01*
X0040550Y0138152D01*
X0040548Y0138078D01*
X0040550Y0138004D01*
X0040556Y0137929D01*
X0040566Y0137856D01*
X0040579Y0137782D01*
X0040596Y0137710D01*
X0040618Y0137639D01*
X0040642Y0137568D01*
X0040671Y0137500D01*
X0040703Y0137432D01*
X0040739Y0137367D01*
X0040777Y0137304D01*
X0040820Y0137242D01*
X0040865Y0137183D01*
X0040913Y0137126D01*
X0040964Y0137072D01*
X0041018Y0137021D01*
X0041075Y0136973D01*
X0041134Y0136928D01*
X0041196Y0136885D01*
X0041259Y0136847D01*
X0041324Y0136811D01*
X0041392Y0136779D01*
X0041460Y0136750D01*
X0041531Y0136726D01*
X0041602Y0136704D01*
X0041674Y0136687D01*
X0041748Y0136674D01*
X0041821Y0136664D01*
X0041896Y0136658D01*
X0041970Y0136656D01*
X0043748Y0136656D01*
X0041970Y0136656D02*
X0041887Y0136654D01*
X0041804Y0136648D01*
X0041721Y0136638D01*
X0041638Y0136625D01*
X0041557Y0136607D01*
X0041476Y0136586D01*
X0041397Y0136561D01*
X0041319Y0136532D01*
X0041242Y0136500D01*
X0041167Y0136464D01*
X0041093Y0136425D01*
X0041022Y0136382D01*
X0040952Y0136336D01*
X0040885Y0136286D01*
X0040820Y0136234D01*
X0040758Y0136179D01*
X0040698Y0136120D01*
X0040641Y0136059D01*
X0040587Y0135996D01*
X0040536Y0135930D01*
X0040489Y0135861D01*
X0040444Y0135791D01*
X0040403Y0135718D01*
X0040366Y0135644D01*
X0040331Y0135568D01*
X0040301Y0135490D01*
X0040274Y0135412D01*
X0040251Y0135331D01*
X0040231Y0135250D01*
X0040216Y0135168D01*
X0040204Y0135086D01*
X0040196Y0135003D01*
X0040192Y0134920D01*
X0040192Y0134836D01*
X0040196Y0134753D01*
X0040204Y0134670D01*
X0040216Y0134588D01*
X0040231Y0134506D01*
X0040251Y0134425D01*
X0040274Y0134344D01*
X0040301Y0134266D01*
X0040331Y0134188D01*
X0040366Y0134112D01*
X0040403Y0134038D01*
X0040444Y0133965D01*
X0040489Y0133895D01*
X0040536Y0133826D01*
X0040587Y0133760D01*
X0040641Y0133697D01*
X0040698Y0133636D01*
X0040758Y0133577D01*
X0040820Y0133522D01*
X0040885Y0133470D01*
X0040952Y0133420D01*
X0041022Y0133374D01*
X0041093Y0133331D01*
X0041167Y0133292D01*
X0041242Y0133256D01*
X0041319Y0133224D01*
X0041397Y0133195D01*
X0041476Y0133170D01*
X0041557Y0133149D01*
X0041638Y0133131D01*
X0041721Y0133118D01*
X0041804Y0133108D01*
X0041887Y0133102D01*
X0041970Y0133100D01*
X0037882Y0133100D02*
X0034327Y0133100D01*
X0036104Y0133100D02*
X0036104Y0139500D01*
X0037882Y0138078D01*
X0039481Y0143100D02*
X0041615Y0149500D01*
X0043748Y0143100D01*
X0043215Y0144700D02*
X0040015Y0144700D01*
X0035461Y0143100D02*
X0033683Y0149500D01*
X0037238Y0149500D01*
X0037238Y0148789D01*
X0037238Y0153100D02*
X0033683Y0153100D01*
X0035461Y0153100D02*
X0035461Y0159500D01*
X0037238Y0158078D01*
X0040015Y0154700D02*
X0043215Y0154700D01*
X0043748Y0153100D02*
X0041615Y0159500D01*
X0039481Y0153100D01*
X0028062Y0153989D02*
X0028002Y0154116D01*
X0027946Y0154245D01*
X0027893Y0154375D01*
X0027843Y0154507D01*
X0027797Y0154640D01*
X0027755Y0154774D01*
X0027716Y0154909D01*
X0027680Y0155046D01*
X0027649Y0155183D01*
X0027621Y0155321D01*
X0027596Y0155459D01*
X0027576Y0155598D01*
X0027559Y0155738D01*
X0027546Y0155878D01*
X0027537Y0156019D01*
X0027531Y0156159D01*
X0027529Y0156300D01*
X0031084Y0156300D02*
X0031082Y0156441D01*
X0031076Y0156581D01*
X0031067Y0156722D01*
X0031054Y0156862D01*
X0031037Y0157002D01*
X0031017Y0157141D01*
X0030992Y0157279D01*
X0030964Y0157417D01*
X0030933Y0157554D01*
X0030897Y0157691D01*
X0030858Y0157826D01*
X0030816Y0157960D01*
X0030770Y0158093D01*
X0030720Y0158225D01*
X0030667Y0158355D01*
X0030611Y0158484D01*
X0030551Y0158611D01*
X0029307Y0159500D02*
X0029236Y0159498D01*
X0029165Y0159492D01*
X0029095Y0159483D01*
X0029025Y0159469D01*
X0028956Y0159452D01*
X0028889Y0159432D01*
X0028822Y0159407D01*
X0028757Y0159379D01*
X0028693Y0159348D01*
X0028631Y0159313D01*
X0028571Y0159275D01*
X0028514Y0159234D01*
X0028458Y0159190D01*
X0028405Y0159142D01*
X0028355Y0159092D01*
X0028307Y0159040D01*
X0028262Y0158985D01*
X0028221Y0158927D01*
X0028182Y0158867D01*
X0028147Y0158806D01*
X0028115Y0158742D01*
X0028087Y0158677D01*
X0028062Y0158611D01*
X0027884Y0158078D02*
X0030729Y0154522D01*
X0029307Y0153100D02*
X0029236Y0153102D01*
X0029165Y0153108D01*
X0029095Y0153117D01*
X0029025Y0153131D01*
X0028956Y0153148D01*
X0028889Y0153168D01*
X0028822Y0153193D01*
X0028757Y0153221D01*
X0028693Y0153252D01*
X0028631Y0153287D01*
X0028571Y0153325D01*
X0028514Y0153366D01*
X0028458Y0153410D01*
X0028405Y0153458D01*
X0028355Y0153508D01*
X0028307Y0153560D01*
X0028262Y0153615D01*
X0028221Y0153673D01*
X0028182Y0153733D01*
X0028147Y0153794D01*
X0028115Y0153858D01*
X0028087Y0153923D01*
X0028062Y0153989D01*
X0029307Y0153100D02*
X0029378Y0153102D01*
X0029449Y0153108D01*
X0029519Y0153117D01*
X0029589Y0153131D01*
X0029658Y0153148D01*
X0029725Y0153168D01*
X0029792Y0153193D01*
X0029857Y0153221D01*
X0029921Y0153252D01*
X0029983Y0153287D01*
X0030043Y0153325D01*
X0030101Y0153366D01*
X0030156Y0153410D01*
X0030209Y0153458D01*
X0030259Y0153508D01*
X0030307Y0153560D01*
X0030352Y0153615D01*
X0030393Y0153673D01*
X0030432Y0153733D01*
X0030467Y0153794D01*
X0030499Y0153858D01*
X0030527Y0153923D01*
X0030552Y0153989D01*
X0027529Y0156300D02*
X0027531Y0156441D01*
X0027537Y0156581D01*
X0027546Y0156722D01*
X0027559Y0156862D01*
X0027576Y0157002D01*
X0027596Y0157141D01*
X0027621Y0157279D01*
X0027649Y0157417D01*
X0027680Y0157554D01*
X0027716Y0157691D01*
X0027755Y0157826D01*
X0027797Y0157960D01*
X0027843Y0158093D01*
X0027893Y0158225D01*
X0027946Y0158355D01*
X0028002Y0158484D01*
X0028062Y0158611D01*
X0029307Y0159500D02*
X0029378Y0159498D01*
X0029449Y0159492D01*
X0029519Y0159483D01*
X0029589Y0159469D01*
X0029658Y0159452D01*
X0029725Y0159432D01*
X0029792Y0159407D01*
X0029857Y0159379D01*
X0029921Y0159348D01*
X0029983Y0159313D01*
X0030043Y0159275D01*
X0030101Y0159234D01*
X0030156Y0159190D01*
X0030209Y0159142D01*
X0030259Y0159092D01*
X0030307Y0159040D01*
X0030352Y0158985D01*
X0030393Y0158927D01*
X0030432Y0158867D01*
X0030467Y0158806D01*
X0030499Y0158742D01*
X0030527Y0158677D01*
X0030552Y0158611D01*
X0031084Y0156300D02*
X0031082Y0156159D01*
X0031076Y0156019D01*
X0031067Y0155878D01*
X0031054Y0155738D01*
X0031037Y0155598D01*
X0031017Y0155459D01*
X0030992Y0155321D01*
X0030964Y0155183D01*
X0030933Y0155046D01*
X0030897Y0154909D01*
X0030858Y0154774D01*
X0030816Y0154640D01*
X0030770Y0154507D01*
X0030720Y0154375D01*
X0030667Y0154245D01*
X0030611Y0154116D01*
X0030551Y0153989D01*
X0029950Y0163100D02*
X0031728Y0163100D01*
X0029950Y0163100D02*
X0029867Y0163102D01*
X0029784Y0163108D01*
X0029701Y0163118D01*
X0029618Y0163131D01*
X0029537Y0163149D01*
X0029456Y0163170D01*
X0029377Y0163195D01*
X0029299Y0163224D01*
X0029222Y0163256D01*
X0029147Y0163292D01*
X0029073Y0163331D01*
X0029002Y0163374D01*
X0028932Y0163420D01*
X0028865Y0163470D01*
X0028800Y0163522D01*
X0028738Y0163577D01*
X0028678Y0163636D01*
X0028621Y0163697D01*
X0028567Y0163760D01*
X0028516Y0163826D01*
X0028469Y0163895D01*
X0028424Y0163965D01*
X0028383Y0164038D01*
X0028346Y0164112D01*
X0028311Y0164188D01*
X0028281Y0164266D01*
X0028254Y0164344D01*
X0028231Y0164425D01*
X0028211Y0164506D01*
X0028196Y0164588D01*
X0028184Y0164670D01*
X0028176Y0164753D01*
X0028172Y0164836D01*
X0028172Y0164920D01*
X0028176Y0165003D01*
X0028184Y0165086D01*
X0028196Y0165168D01*
X0028211Y0165250D01*
X0028231Y0165331D01*
X0028254Y0165412D01*
X0028281Y0165490D01*
X0028311Y0165568D01*
X0028346Y0165644D01*
X0028383Y0165718D01*
X0028424Y0165791D01*
X0028469Y0165861D01*
X0028516Y0165930D01*
X0028567Y0165996D01*
X0028621Y0166059D01*
X0028678Y0166120D01*
X0028738Y0166179D01*
X0028800Y0166234D01*
X0028865Y0166286D01*
X0028932Y0166336D01*
X0029002Y0166382D01*
X0029073Y0166425D01*
X0029147Y0166464D01*
X0029222Y0166500D01*
X0029299Y0166532D01*
X0029377Y0166561D01*
X0029456Y0166586D01*
X0029537Y0166607D01*
X0029618Y0166625D01*
X0029701Y0166638D01*
X0029784Y0166648D01*
X0029867Y0166654D01*
X0029950Y0166656D01*
X0029595Y0166656D02*
X0031017Y0166656D01*
X0029595Y0166656D02*
X0029521Y0166658D01*
X0029446Y0166664D01*
X0029373Y0166674D01*
X0029299Y0166687D01*
X0029227Y0166704D01*
X0029156Y0166726D01*
X0029085Y0166750D01*
X0029017Y0166779D01*
X0028949Y0166811D01*
X0028884Y0166847D01*
X0028821Y0166885D01*
X0028759Y0166928D01*
X0028700Y0166973D01*
X0028643Y0167021D01*
X0028589Y0167072D01*
X0028538Y0167126D01*
X0028490Y0167183D01*
X0028445Y0167242D01*
X0028402Y0167304D01*
X0028364Y0167367D01*
X0028328Y0167432D01*
X0028296Y0167500D01*
X0028267Y0167568D01*
X0028243Y0167639D01*
X0028221Y0167710D01*
X0028204Y0167782D01*
X0028191Y0167856D01*
X0028181Y0167929D01*
X0028175Y0168004D01*
X0028173Y0168078D01*
X0028175Y0168152D01*
X0028181Y0168227D01*
X0028191Y0168300D01*
X0028204Y0168374D01*
X0028221Y0168446D01*
X0028243Y0168517D01*
X0028267Y0168588D01*
X0028296Y0168656D01*
X0028328Y0168724D01*
X0028364Y0168789D01*
X0028402Y0168852D01*
X0028445Y0168914D01*
X0028490Y0168973D01*
X0028538Y0169030D01*
X0028589Y0169084D01*
X0028643Y0169135D01*
X0028700Y0169183D01*
X0028759Y0169228D01*
X0028821Y0169271D01*
X0028884Y0169309D01*
X0028949Y0169345D01*
X0029017Y0169377D01*
X0029085Y0169406D01*
X0029156Y0169430D01*
X0029227Y0169452D01*
X0029299Y0169469D01*
X0029373Y0169482D01*
X0029446Y0169492D01*
X0029521Y0169498D01*
X0029595Y0169500D01*
X0031728Y0169500D01*
X0036104Y0169500D02*
X0036104Y0163100D01*
X0034327Y0163100D02*
X0037882Y0163100D01*
X0041970Y0163100D02*
X0043748Y0163100D01*
X0043748Y0169500D01*
X0041970Y0169500D01*
X0041896Y0169498D01*
X0041821Y0169492D01*
X0041748Y0169482D01*
X0041674Y0169469D01*
X0041602Y0169452D01*
X0041531Y0169430D01*
X0041460Y0169406D01*
X0041392Y0169377D01*
X0041324Y0169345D01*
X0041259Y0169309D01*
X0041196Y0169271D01*
X0041134Y0169228D01*
X0041075Y0169183D01*
X0041018Y0169135D01*
X0040964Y0169084D01*
X0040913Y0169030D01*
X0040865Y0168973D01*
X0040820Y0168914D01*
X0040777Y0168852D01*
X0040739Y0168789D01*
X0040703Y0168724D01*
X0040671Y0168656D01*
X0040642Y0168588D01*
X0040618Y0168517D01*
X0040596Y0168446D01*
X0040579Y0168374D01*
X0040566Y0168300D01*
X0040556Y0168227D01*
X0040550Y0168152D01*
X0040548Y0168078D01*
X0040550Y0168004D01*
X0040556Y0167929D01*
X0040566Y0167856D01*
X0040579Y0167782D01*
X0040596Y0167710D01*
X0040618Y0167639D01*
X0040642Y0167568D01*
X0040671Y0167500D01*
X0040703Y0167432D01*
X0040739Y0167367D01*
X0040777Y0167304D01*
X0040820Y0167242D01*
X0040865Y0167183D01*
X0040913Y0167126D01*
X0040964Y0167072D01*
X0041018Y0167021D01*
X0041075Y0166973D01*
X0041134Y0166928D01*
X0041196Y0166885D01*
X0041259Y0166847D01*
X0041324Y0166811D01*
X0041392Y0166779D01*
X0041460Y0166750D01*
X0041531Y0166726D01*
X0041602Y0166704D01*
X0041674Y0166687D01*
X0041748Y0166674D01*
X0041821Y0166664D01*
X0041896Y0166658D01*
X0041970Y0166656D01*
X0043748Y0166656D01*
X0041970Y0166656D02*
X0041887Y0166654D01*
X0041804Y0166648D01*
X0041721Y0166638D01*
X0041638Y0166625D01*
X0041557Y0166607D01*
X0041476Y0166586D01*
X0041397Y0166561D01*
X0041319Y0166532D01*
X0041242Y0166500D01*
X0041167Y0166464D01*
X0041093Y0166425D01*
X0041022Y0166382D01*
X0040952Y0166336D01*
X0040885Y0166286D01*
X0040820Y0166234D01*
X0040758Y0166179D01*
X0040698Y0166120D01*
X0040641Y0166059D01*
X0040587Y0165996D01*
X0040536Y0165930D01*
X0040489Y0165861D01*
X0040444Y0165791D01*
X0040403Y0165718D01*
X0040366Y0165644D01*
X0040331Y0165568D01*
X0040301Y0165490D01*
X0040274Y0165412D01*
X0040251Y0165331D01*
X0040231Y0165250D01*
X0040216Y0165168D01*
X0040204Y0165086D01*
X0040196Y0165003D01*
X0040192Y0164920D01*
X0040192Y0164836D01*
X0040196Y0164753D01*
X0040204Y0164670D01*
X0040216Y0164588D01*
X0040231Y0164506D01*
X0040251Y0164425D01*
X0040274Y0164344D01*
X0040301Y0164266D01*
X0040331Y0164188D01*
X0040366Y0164112D01*
X0040403Y0164038D01*
X0040444Y0163965D01*
X0040489Y0163895D01*
X0040536Y0163826D01*
X0040587Y0163760D01*
X0040641Y0163697D01*
X0040698Y0163636D01*
X0040758Y0163577D01*
X0040820Y0163522D01*
X0040885Y0163470D01*
X0040952Y0163420D01*
X0041022Y0163374D01*
X0041093Y0163331D01*
X0041167Y0163292D01*
X0041242Y0163256D01*
X0041319Y0163224D01*
X0041397Y0163195D01*
X0041476Y0163170D01*
X0041557Y0163149D01*
X0041638Y0163131D01*
X0041721Y0163118D01*
X0041804Y0163108D01*
X0041887Y0163102D01*
X0041970Y0163100D01*
X0037882Y0168078D02*
X0036104Y0169500D01*
X0040904Y0173100D02*
X0042326Y0173100D01*
X0042400Y0173102D01*
X0042475Y0173108D01*
X0042548Y0173118D01*
X0042622Y0173131D01*
X0042694Y0173148D01*
X0042765Y0173170D01*
X0042836Y0173194D01*
X0042904Y0173223D01*
X0042972Y0173255D01*
X0043037Y0173291D01*
X0043100Y0173329D01*
X0043162Y0173372D01*
X0043221Y0173417D01*
X0043278Y0173465D01*
X0043332Y0173516D01*
X0043383Y0173570D01*
X0043431Y0173627D01*
X0043476Y0173686D01*
X0043519Y0173748D01*
X0043557Y0173811D01*
X0043593Y0173876D01*
X0043625Y0173944D01*
X0043654Y0174012D01*
X0043678Y0174083D01*
X0043700Y0174154D01*
X0043717Y0174226D01*
X0043730Y0174300D01*
X0043740Y0174373D01*
X0043746Y0174448D01*
X0043748Y0174522D01*
X0043748Y0178078D01*
X0043746Y0178152D01*
X0043740Y0178227D01*
X0043730Y0178300D01*
X0043717Y0178374D01*
X0043700Y0178446D01*
X0043678Y0178517D01*
X0043654Y0178588D01*
X0043625Y0178656D01*
X0043593Y0178724D01*
X0043557Y0178789D01*
X0043519Y0178852D01*
X0043476Y0178914D01*
X0043431Y0178973D01*
X0043383Y0179030D01*
X0043332Y0179084D01*
X0043278Y0179135D01*
X0043221Y0179183D01*
X0043162Y0179228D01*
X0043100Y0179271D01*
X0043037Y0179309D01*
X0042972Y0179345D01*
X0042904Y0179377D01*
X0042836Y0179406D01*
X0042765Y0179430D01*
X0042694Y0179452D01*
X0042622Y0179469D01*
X0042548Y0179482D01*
X0042475Y0179492D01*
X0042400Y0179498D01*
X0042326Y0179500D01*
X0040904Y0179500D01*
X0038604Y0177722D02*
X0038604Y0177367D01*
X0038602Y0177293D01*
X0038596Y0177218D01*
X0038586Y0177145D01*
X0038573Y0177071D01*
X0038556Y0176999D01*
X0038534Y0176928D01*
X0038510Y0176857D01*
X0038481Y0176789D01*
X0038449Y0176721D01*
X0038413Y0176656D01*
X0038375Y0176593D01*
X0038332Y0176531D01*
X0038287Y0176472D01*
X0038239Y0176415D01*
X0038188Y0176361D01*
X0038134Y0176310D01*
X0038077Y0176262D01*
X0038018Y0176217D01*
X0037956Y0176174D01*
X0037893Y0176136D01*
X0037828Y0176100D01*
X0037760Y0176068D01*
X0037692Y0176039D01*
X0037621Y0176015D01*
X0037550Y0175993D01*
X0037478Y0175976D01*
X0037404Y0175963D01*
X0037331Y0175953D01*
X0037256Y0175947D01*
X0037182Y0175945D01*
X0037182Y0175944D02*
X0035049Y0175944D01*
X0035049Y0177722D01*
X0035048Y0177722D02*
X0035050Y0177805D01*
X0035056Y0177888D01*
X0035066Y0177971D01*
X0035079Y0178054D01*
X0035097Y0178135D01*
X0035118Y0178216D01*
X0035143Y0178295D01*
X0035172Y0178373D01*
X0035204Y0178450D01*
X0035240Y0178525D01*
X0035279Y0178599D01*
X0035322Y0178670D01*
X0035368Y0178740D01*
X0035418Y0178807D01*
X0035470Y0178872D01*
X0035525Y0178934D01*
X0035584Y0178994D01*
X0035645Y0179051D01*
X0035708Y0179105D01*
X0035774Y0179156D01*
X0035843Y0179203D01*
X0035913Y0179248D01*
X0035986Y0179289D01*
X0036060Y0179326D01*
X0036136Y0179361D01*
X0036214Y0179391D01*
X0036292Y0179418D01*
X0036373Y0179441D01*
X0036454Y0179461D01*
X0036536Y0179476D01*
X0036618Y0179488D01*
X0036701Y0179496D01*
X0036784Y0179500D01*
X0036868Y0179500D01*
X0036951Y0179496D01*
X0037034Y0179488D01*
X0037116Y0179476D01*
X0037198Y0179461D01*
X0037279Y0179441D01*
X0037360Y0179418D01*
X0037438Y0179391D01*
X0037516Y0179361D01*
X0037592Y0179326D01*
X0037666Y0179289D01*
X0037739Y0179248D01*
X0037809Y0179203D01*
X0037878Y0179156D01*
X0037944Y0179105D01*
X0038007Y0179051D01*
X0038068Y0178994D01*
X0038127Y0178934D01*
X0038182Y0178872D01*
X0038234Y0178807D01*
X0038284Y0178740D01*
X0038330Y0178670D01*
X0038373Y0178599D01*
X0038412Y0178525D01*
X0038448Y0178450D01*
X0038480Y0178373D01*
X0038509Y0178295D01*
X0038534Y0178216D01*
X0038555Y0178135D01*
X0038573Y0178054D01*
X0038586Y0177971D01*
X0038596Y0177888D01*
X0038602Y0177805D01*
X0038604Y0177722D01*
X0035049Y0175944D02*
X0035051Y0175840D01*
X0035057Y0175736D01*
X0035066Y0175633D01*
X0035079Y0175530D01*
X0035096Y0175427D01*
X0035117Y0175326D01*
X0035141Y0175225D01*
X0035170Y0175125D01*
X0035201Y0175026D01*
X0035237Y0174928D01*
X0035276Y0174832D01*
X0035318Y0174737D01*
X0035364Y0174644D01*
X0035413Y0174552D01*
X0035465Y0174462D01*
X0035521Y0174375D01*
X0035580Y0174289D01*
X0035642Y0174206D01*
X0035707Y0174125D01*
X0035775Y0174046D01*
X0035846Y0173970D01*
X0035919Y0173897D01*
X0035995Y0173826D01*
X0036074Y0173758D01*
X0036155Y0173693D01*
X0036238Y0173631D01*
X0036324Y0173572D01*
X0036411Y0173516D01*
X0036501Y0173464D01*
X0036593Y0173415D01*
X0036686Y0173369D01*
X0036781Y0173327D01*
X0036877Y0173288D01*
X0036975Y0173252D01*
X0037074Y0173221D01*
X0037174Y0173192D01*
X0037275Y0173168D01*
X0037376Y0173147D01*
X0037479Y0173130D01*
X0037582Y0173117D01*
X0037685Y0173108D01*
X0037789Y0173102D01*
X0037893Y0173100D01*
X0040904Y0183100D02*
X0042326Y0183100D01*
X0042400Y0183102D01*
X0042475Y0183108D01*
X0042548Y0183118D01*
X0042622Y0183131D01*
X0042694Y0183148D01*
X0042765Y0183170D01*
X0042836Y0183194D01*
X0042904Y0183223D01*
X0042972Y0183255D01*
X0043037Y0183291D01*
X0043100Y0183329D01*
X0043162Y0183372D01*
X0043221Y0183417D01*
X0043278Y0183465D01*
X0043332Y0183516D01*
X0043383Y0183570D01*
X0043431Y0183627D01*
X0043476Y0183686D01*
X0043519Y0183748D01*
X0043557Y0183811D01*
X0043593Y0183876D01*
X0043625Y0183944D01*
X0043654Y0184012D01*
X0043678Y0184083D01*
X0043700Y0184154D01*
X0043717Y0184226D01*
X0043730Y0184300D01*
X0043740Y0184373D01*
X0043746Y0184448D01*
X0043748Y0184522D01*
X0043748Y0188078D01*
X0043746Y0188152D01*
X0043740Y0188227D01*
X0043730Y0188300D01*
X0043717Y0188374D01*
X0043700Y0188446D01*
X0043678Y0188517D01*
X0043654Y0188588D01*
X0043625Y0188656D01*
X0043593Y0188724D01*
X0043557Y0188789D01*
X0043519Y0188852D01*
X0043476Y0188914D01*
X0043431Y0188973D01*
X0043383Y0189030D01*
X0043332Y0189084D01*
X0043278Y0189135D01*
X0043221Y0189183D01*
X0043162Y0189228D01*
X0043100Y0189271D01*
X0043037Y0189309D01*
X0042972Y0189345D01*
X0042904Y0189377D01*
X0042836Y0189406D01*
X0042765Y0189430D01*
X0042694Y0189452D01*
X0042622Y0189469D01*
X0042548Y0189482D01*
X0042475Y0189492D01*
X0042400Y0189498D01*
X0042326Y0189500D01*
X0040904Y0189500D01*
X0040904Y0193100D02*
X0042326Y0193100D01*
X0042400Y0193102D01*
X0042475Y0193108D01*
X0042548Y0193118D01*
X0042622Y0193131D01*
X0042694Y0193148D01*
X0042765Y0193170D01*
X0042836Y0193194D01*
X0042904Y0193223D01*
X0042972Y0193255D01*
X0043037Y0193291D01*
X0043100Y0193329D01*
X0043162Y0193372D01*
X0043221Y0193417D01*
X0043278Y0193465D01*
X0043332Y0193516D01*
X0043383Y0193570D01*
X0043431Y0193627D01*
X0043476Y0193686D01*
X0043519Y0193748D01*
X0043557Y0193811D01*
X0043593Y0193876D01*
X0043625Y0193944D01*
X0043654Y0194012D01*
X0043678Y0194083D01*
X0043700Y0194154D01*
X0043717Y0194226D01*
X0043730Y0194300D01*
X0043740Y0194373D01*
X0043746Y0194448D01*
X0043748Y0194522D01*
X0043748Y0198078D01*
X0043746Y0198152D01*
X0043740Y0198227D01*
X0043730Y0198300D01*
X0043717Y0198374D01*
X0043700Y0198446D01*
X0043678Y0198517D01*
X0043654Y0198588D01*
X0043625Y0198656D01*
X0043593Y0198724D01*
X0043557Y0198789D01*
X0043519Y0198852D01*
X0043476Y0198914D01*
X0043431Y0198973D01*
X0043383Y0199030D01*
X0043332Y0199084D01*
X0043278Y0199135D01*
X0043221Y0199183D01*
X0043162Y0199228D01*
X0043100Y0199271D01*
X0043037Y0199309D01*
X0042972Y0199345D01*
X0042904Y0199377D01*
X0042836Y0199406D01*
X0042765Y0199430D01*
X0042694Y0199452D01*
X0042622Y0199469D01*
X0042548Y0199482D01*
X0042475Y0199492D01*
X0042400Y0199498D01*
X0042326Y0199500D01*
X0040904Y0199500D01*
X0038604Y0199500D02*
X0035049Y0199500D01*
X0036826Y0193100D01*
X0035404Y0188078D02*
X0035406Y0188004D01*
X0035412Y0187929D01*
X0035422Y0187856D01*
X0035435Y0187782D01*
X0035452Y0187710D01*
X0035474Y0187639D01*
X0035498Y0187568D01*
X0035527Y0187500D01*
X0035559Y0187432D01*
X0035595Y0187367D01*
X0035633Y0187304D01*
X0035676Y0187242D01*
X0035721Y0187183D01*
X0035769Y0187126D01*
X0035820Y0187072D01*
X0035874Y0187021D01*
X0035931Y0186973D01*
X0035990Y0186928D01*
X0036052Y0186885D01*
X0036115Y0186847D01*
X0036180Y0186811D01*
X0036248Y0186779D01*
X0036316Y0186750D01*
X0036387Y0186726D01*
X0036458Y0186704D01*
X0036530Y0186687D01*
X0036604Y0186674D01*
X0036677Y0186664D01*
X0036752Y0186658D01*
X0036826Y0186656D01*
X0036900Y0186658D01*
X0036975Y0186664D01*
X0037048Y0186674D01*
X0037122Y0186687D01*
X0037194Y0186704D01*
X0037265Y0186726D01*
X0037336Y0186750D01*
X0037404Y0186779D01*
X0037472Y0186811D01*
X0037537Y0186847D01*
X0037600Y0186885D01*
X0037662Y0186928D01*
X0037721Y0186973D01*
X0037778Y0187021D01*
X0037832Y0187072D01*
X0037883Y0187126D01*
X0037931Y0187183D01*
X0037976Y0187242D01*
X0038019Y0187304D01*
X0038057Y0187367D01*
X0038093Y0187432D01*
X0038125Y0187500D01*
X0038154Y0187568D01*
X0038178Y0187639D01*
X0038200Y0187710D01*
X0038217Y0187782D01*
X0038230Y0187856D01*
X0038240Y0187929D01*
X0038246Y0188004D01*
X0038248Y0188078D01*
X0038246Y0188152D01*
X0038240Y0188227D01*
X0038230Y0188300D01*
X0038217Y0188374D01*
X0038200Y0188446D01*
X0038178Y0188517D01*
X0038154Y0188588D01*
X0038125Y0188656D01*
X0038093Y0188724D01*
X0038057Y0188789D01*
X0038019Y0188852D01*
X0037976Y0188914D01*
X0037931Y0188973D01*
X0037883Y0189030D01*
X0037832Y0189084D01*
X0037778Y0189135D01*
X0037721Y0189183D01*
X0037662Y0189228D01*
X0037600Y0189271D01*
X0037537Y0189309D01*
X0037472Y0189345D01*
X0037404Y0189377D01*
X0037336Y0189406D01*
X0037265Y0189430D01*
X0037194Y0189452D01*
X0037122Y0189469D01*
X0037048Y0189482D01*
X0036975Y0189492D01*
X0036900Y0189498D01*
X0036826Y0189500D01*
X0036752Y0189498D01*
X0036677Y0189492D01*
X0036604Y0189482D01*
X0036530Y0189469D01*
X0036458Y0189452D01*
X0036387Y0189430D01*
X0036316Y0189406D01*
X0036248Y0189377D01*
X0036180Y0189345D01*
X0036115Y0189309D01*
X0036052Y0189271D01*
X0035990Y0189228D01*
X0035931Y0189183D01*
X0035874Y0189135D01*
X0035820Y0189084D01*
X0035769Y0189030D01*
X0035721Y0188973D01*
X0035676Y0188914D01*
X0035633Y0188852D01*
X0035595Y0188789D01*
X0035559Y0188724D01*
X0035527Y0188656D01*
X0035498Y0188588D01*
X0035474Y0188517D01*
X0035452Y0188446D01*
X0035435Y0188374D01*
X0035422Y0188300D01*
X0035412Y0188227D01*
X0035406Y0188152D01*
X0035404Y0188078D01*
X0035048Y0184878D02*
X0035050Y0184795D01*
X0035056Y0184712D01*
X0035066Y0184629D01*
X0035079Y0184546D01*
X0035097Y0184465D01*
X0035118Y0184384D01*
X0035143Y0184305D01*
X0035172Y0184227D01*
X0035204Y0184150D01*
X0035240Y0184075D01*
X0035279Y0184001D01*
X0035322Y0183930D01*
X0035368Y0183860D01*
X0035418Y0183793D01*
X0035470Y0183728D01*
X0035525Y0183666D01*
X0035584Y0183606D01*
X0035645Y0183549D01*
X0035708Y0183495D01*
X0035774Y0183444D01*
X0035843Y0183397D01*
X0035913Y0183352D01*
X0035986Y0183311D01*
X0036060Y0183274D01*
X0036136Y0183239D01*
X0036214Y0183209D01*
X0036292Y0183182D01*
X0036373Y0183159D01*
X0036454Y0183139D01*
X0036536Y0183124D01*
X0036618Y0183112D01*
X0036701Y0183104D01*
X0036784Y0183100D01*
X0036868Y0183100D01*
X0036951Y0183104D01*
X0037034Y0183112D01*
X0037116Y0183124D01*
X0037198Y0183139D01*
X0037279Y0183159D01*
X0037360Y0183182D01*
X0037438Y0183209D01*
X0037516Y0183239D01*
X0037592Y0183274D01*
X0037666Y0183311D01*
X0037739Y0183352D01*
X0037809Y0183397D01*
X0037878Y0183444D01*
X0037944Y0183495D01*
X0038007Y0183549D01*
X0038068Y0183606D01*
X0038127Y0183666D01*
X0038182Y0183728D01*
X0038234Y0183793D01*
X0038284Y0183860D01*
X0038330Y0183930D01*
X0038373Y0184001D01*
X0038412Y0184075D01*
X0038448Y0184150D01*
X0038480Y0184227D01*
X0038509Y0184305D01*
X0038534Y0184384D01*
X0038555Y0184465D01*
X0038573Y0184546D01*
X0038586Y0184629D01*
X0038596Y0184712D01*
X0038602Y0184795D01*
X0038604Y0184878D01*
X0038602Y0184961D01*
X0038596Y0185044D01*
X0038586Y0185127D01*
X0038573Y0185210D01*
X0038555Y0185291D01*
X0038534Y0185372D01*
X0038509Y0185451D01*
X0038480Y0185529D01*
X0038448Y0185606D01*
X0038412Y0185681D01*
X0038373Y0185755D01*
X0038330Y0185826D01*
X0038284Y0185896D01*
X0038234Y0185963D01*
X0038182Y0186028D01*
X0038127Y0186090D01*
X0038068Y0186150D01*
X0038007Y0186207D01*
X0037944Y0186261D01*
X0037878Y0186312D01*
X0037809Y0186359D01*
X0037739Y0186404D01*
X0037666Y0186445D01*
X0037592Y0186482D01*
X0037516Y0186517D01*
X0037438Y0186547D01*
X0037360Y0186574D01*
X0037279Y0186597D01*
X0037198Y0186617D01*
X0037116Y0186632D01*
X0037034Y0186644D01*
X0036951Y0186652D01*
X0036868Y0186656D01*
X0036784Y0186656D01*
X0036701Y0186652D01*
X0036618Y0186644D01*
X0036536Y0186632D01*
X0036454Y0186617D01*
X0036373Y0186597D01*
X0036292Y0186574D01*
X0036214Y0186547D01*
X0036136Y0186517D01*
X0036060Y0186482D01*
X0035986Y0186445D01*
X0035913Y0186404D01*
X0035843Y0186359D01*
X0035774Y0186312D01*
X0035708Y0186261D01*
X0035645Y0186207D01*
X0035584Y0186150D01*
X0035525Y0186090D01*
X0035470Y0186028D01*
X0035418Y0185963D01*
X0035368Y0185896D01*
X0035322Y0185826D01*
X0035279Y0185755D01*
X0035240Y0185681D01*
X0035204Y0185606D01*
X0035172Y0185529D01*
X0035143Y0185451D01*
X0035118Y0185372D01*
X0035097Y0185291D01*
X0035079Y0185210D01*
X0035066Y0185127D01*
X0035056Y0185044D01*
X0035050Y0184961D01*
X0035048Y0184878D01*
X0038604Y0198789D02*
X0038604Y0199500D01*
X0040904Y0203100D02*
X0042326Y0203100D01*
X0042400Y0203102D01*
X0042475Y0203108D01*
X0042548Y0203118D01*
X0042622Y0203131D01*
X0042694Y0203148D01*
X0042765Y0203170D01*
X0042836Y0203194D01*
X0042904Y0203223D01*
X0042972Y0203255D01*
X0043037Y0203291D01*
X0043100Y0203329D01*
X0043162Y0203372D01*
X0043221Y0203417D01*
X0043278Y0203465D01*
X0043332Y0203516D01*
X0043383Y0203570D01*
X0043431Y0203627D01*
X0043476Y0203686D01*
X0043519Y0203748D01*
X0043557Y0203811D01*
X0043593Y0203876D01*
X0043625Y0203944D01*
X0043654Y0204012D01*
X0043678Y0204083D01*
X0043700Y0204154D01*
X0043717Y0204226D01*
X0043730Y0204300D01*
X0043740Y0204373D01*
X0043746Y0204448D01*
X0043748Y0204522D01*
X0043748Y0208078D01*
X0043746Y0208152D01*
X0043740Y0208227D01*
X0043730Y0208300D01*
X0043717Y0208374D01*
X0043700Y0208446D01*
X0043678Y0208517D01*
X0043654Y0208588D01*
X0043625Y0208656D01*
X0043593Y0208724D01*
X0043557Y0208789D01*
X0043519Y0208852D01*
X0043476Y0208914D01*
X0043431Y0208973D01*
X0043383Y0209030D01*
X0043332Y0209084D01*
X0043278Y0209135D01*
X0043221Y0209183D01*
X0043162Y0209228D01*
X0043100Y0209271D01*
X0043037Y0209309D01*
X0042972Y0209345D01*
X0042904Y0209377D01*
X0042836Y0209406D01*
X0042765Y0209430D01*
X0042694Y0209452D01*
X0042622Y0209469D01*
X0042548Y0209482D01*
X0042475Y0209492D01*
X0042400Y0209498D01*
X0042326Y0209500D01*
X0040904Y0209500D01*
X0038604Y0206656D02*
X0038604Y0204878D01*
X0038604Y0206656D02*
X0036471Y0206656D01*
X0038604Y0206656D02*
X0038602Y0206760D01*
X0038596Y0206864D01*
X0038587Y0206967D01*
X0038574Y0207070D01*
X0038557Y0207173D01*
X0038536Y0207274D01*
X0038512Y0207375D01*
X0038483Y0207475D01*
X0038452Y0207574D01*
X0038416Y0207672D01*
X0038377Y0207768D01*
X0038335Y0207863D01*
X0038289Y0207956D01*
X0038240Y0208048D01*
X0038188Y0208138D01*
X0038132Y0208225D01*
X0038073Y0208311D01*
X0038011Y0208394D01*
X0037946Y0208475D01*
X0037878Y0208554D01*
X0037807Y0208630D01*
X0037734Y0208703D01*
X0037658Y0208774D01*
X0037579Y0208842D01*
X0037498Y0208907D01*
X0037415Y0208969D01*
X0037329Y0209028D01*
X0037242Y0209084D01*
X0037152Y0209136D01*
X0037060Y0209185D01*
X0036967Y0209231D01*
X0036872Y0209273D01*
X0036776Y0209312D01*
X0036678Y0209348D01*
X0036579Y0209379D01*
X0036479Y0209408D01*
X0036378Y0209432D01*
X0036277Y0209453D01*
X0036174Y0209470D01*
X0036071Y0209483D01*
X0035968Y0209492D01*
X0035864Y0209498D01*
X0035760Y0209500D01*
X0036471Y0206655D02*
X0036397Y0206653D01*
X0036322Y0206647D01*
X0036249Y0206637D01*
X0036175Y0206624D01*
X0036103Y0206607D01*
X0036032Y0206585D01*
X0035961Y0206561D01*
X0035893Y0206532D01*
X0035825Y0206500D01*
X0035760Y0206464D01*
X0035697Y0206426D01*
X0035635Y0206383D01*
X0035576Y0206338D01*
X0035519Y0206290D01*
X0035465Y0206239D01*
X0035414Y0206185D01*
X0035366Y0206128D01*
X0035321Y0206069D01*
X0035278Y0206007D01*
X0035240Y0205944D01*
X0035204Y0205879D01*
X0035172Y0205811D01*
X0035143Y0205743D01*
X0035119Y0205672D01*
X0035097Y0205601D01*
X0035080Y0205529D01*
X0035067Y0205455D01*
X0035057Y0205382D01*
X0035051Y0205307D01*
X0035049Y0205233D01*
X0035049Y0204878D01*
X0035048Y0204878D02*
X0035050Y0204795D01*
X0035056Y0204712D01*
X0035066Y0204629D01*
X0035079Y0204546D01*
X0035097Y0204465D01*
X0035118Y0204384D01*
X0035143Y0204305D01*
X0035172Y0204227D01*
X0035204Y0204150D01*
X0035240Y0204075D01*
X0035279Y0204001D01*
X0035322Y0203930D01*
X0035368Y0203860D01*
X0035418Y0203793D01*
X0035470Y0203728D01*
X0035525Y0203666D01*
X0035584Y0203606D01*
X0035645Y0203549D01*
X0035708Y0203495D01*
X0035774Y0203444D01*
X0035843Y0203397D01*
X0035913Y0203352D01*
X0035986Y0203311D01*
X0036060Y0203274D01*
X0036136Y0203239D01*
X0036214Y0203209D01*
X0036292Y0203182D01*
X0036373Y0203159D01*
X0036454Y0203139D01*
X0036536Y0203124D01*
X0036618Y0203112D01*
X0036701Y0203104D01*
X0036784Y0203100D01*
X0036868Y0203100D01*
X0036951Y0203104D01*
X0037034Y0203112D01*
X0037116Y0203124D01*
X0037198Y0203139D01*
X0037279Y0203159D01*
X0037360Y0203182D01*
X0037438Y0203209D01*
X0037516Y0203239D01*
X0037592Y0203274D01*
X0037666Y0203311D01*
X0037739Y0203352D01*
X0037809Y0203397D01*
X0037878Y0203444D01*
X0037944Y0203495D01*
X0038007Y0203549D01*
X0038068Y0203606D01*
X0038127Y0203666D01*
X0038182Y0203728D01*
X0038234Y0203793D01*
X0038284Y0203860D01*
X0038330Y0203930D01*
X0038373Y0204001D01*
X0038412Y0204075D01*
X0038448Y0204150D01*
X0038480Y0204227D01*
X0038509Y0204305D01*
X0038534Y0204384D01*
X0038555Y0204465D01*
X0038573Y0204546D01*
X0038586Y0204629D01*
X0038596Y0204712D01*
X0038602Y0204795D01*
X0038604Y0204878D01*
X0041970Y0213100D02*
X0043748Y0213100D01*
X0043748Y0219500D01*
X0041970Y0219500D01*
X0041896Y0219498D01*
X0041821Y0219492D01*
X0041748Y0219482D01*
X0041674Y0219469D01*
X0041602Y0219452D01*
X0041531Y0219430D01*
X0041460Y0219406D01*
X0041392Y0219377D01*
X0041324Y0219345D01*
X0041259Y0219309D01*
X0041196Y0219271D01*
X0041134Y0219228D01*
X0041075Y0219183D01*
X0041018Y0219135D01*
X0040964Y0219084D01*
X0040913Y0219030D01*
X0040865Y0218973D01*
X0040820Y0218914D01*
X0040777Y0218852D01*
X0040739Y0218789D01*
X0040703Y0218724D01*
X0040671Y0218656D01*
X0040642Y0218588D01*
X0040618Y0218517D01*
X0040596Y0218446D01*
X0040579Y0218374D01*
X0040566Y0218300D01*
X0040556Y0218227D01*
X0040550Y0218152D01*
X0040548Y0218078D01*
X0040550Y0218004D01*
X0040556Y0217929D01*
X0040566Y0217856D01*
X0040579Y0217782D01*
X0040596Y0217710D01*
X0040618Y0217639D01*
X0040642Y0217568D01*
X0040671Y0217500D01*
X0040703Y0217432D01*
X0040739Y0217367D01*
X0040777Y0217304D01*
X0040820Y0217242D01*
X0040865Y0217183D01*
X0040913Y0217126D01*
X0040964Y0217072D01*
X0041018Y0217021D01*
X0041075Y0216973D01*
X0041134Y0216928D01*
X0041196Y0216885D01*
X0041259Y0216847D01*
X0041324Y0216811D01*
X0041392Y0216779D01*
X0041460Y0216750D01*
X0041531Y0216726D01*
X0041602Y0216704D01*
X0041674Y0216687D01*
X0041748Y0216674D01*
X0041821Y0216664D01*
X0041896Y0216658D01*
X0041970Y0216656D01*
X0043748Y0216656D01*
X0041970Y0216656D02*
X0041887Y0216654D01*
X0041804Y0216648D01*
X0041721Y0216638D01*
X0041638Y0216625D01*
X0041557Y0216607D01*
X0041476Y0216586D01*
X0041397Y0216561D01*
X0041319Y0216532D01*
X0041242Y0216500D01*
X0041167Y0216464D01*
X0041093Y0216425D01*
X0041022Y0216382D01*
X0040952Y0216336D01*
X0040885Y0216286D01*
X0040820Y0216234D01*
X0040758Y0216179D01*
X0040698Y0216120D01*
X0040641Y0216059D01*
X0040587Y0215996D01*
X0040536Y0215930D01*
X0040489Y0215861D01*
X0040444Y0215791D01*
X0040403Y0215718D01*
X0040366Y0215644D01*
X0040331Y0215568D01*
X0040301Y0215490D01*
X0040274Y0215412D01*
X0040251Y0215331D01*
X0040231Y0215250D01*
X0040216Y0215168D01*
X0040204Y0215086D01*
X0040196Y0215003D01*
X0040192Y0214920D01*
X0040192Y0214836D01*
X0040196Y0214753D01*
X0040204Y0214670D01*
X0040216Y0214588D01*
X0040231Y0214506D01*
X0040251Y0214425D01*
X0040274Y0214344D01*
X0040301Y0214266D01*
X0040331Y0214188D01*
X0040366Y0214112D01*
X0040403Y0214038D01*
X0040444Y0213965D01*
X0040489Y0213895D01*
X0040536Y0213826D01*
X0040587Y0213760D01*
X0040641Y0213697D01*
X0040698Y0213636D01*
X0040758Y0213577D01*
X0040820Y0213522D01*
X0040885Y0213470D01*
X0040952Y0213420D01*
X0041022Y0213374D01*
X0041093Y0213331D01*
X0041167Y0213292D01*
X0041242Y0213256D01*
X0041319Y0213224D01*
X0041397Y0213195D01*
X0041476Y0213170D01*
X0041557Y0213149D01*
X0041638Y0213131D01*
X0041721Y0213118D01*
X0041804Y0213108D01*
X0041887Y0213102D01*
X0041970Y0213100D01*
X0037171Y0213100D02*
X0037067Y0213102D01*
X0036963Y0213108D01*
X0036860Y0213117D01*
X0036757Y0213130D01*
X0036654Y0213147D01*
X0036553Y0213168D01*
X0036452Y0213192D01*
X0036352Y0213221D01*
X0036253Y0213252D01*
X0036155Y0213288D01*
X0036059Y0213327D01*
X0035964Y0213369D01*
X0035871Y0213415D01*
X0035779Y0213464D01*
X0035689Y0213516D01*
X0035602Y0213572D01*
X0035516Y0213631D01*
X0035433Y0213693D01*
X0035352Y0213758D01*
X0035273Y0213826D01*
X0035197Y0213897D01*
X0035124Y0213970D01*
X0035053Y0214046D01*
X0034985Y0214125D01*
X0034920Y0214206D01*
X0034858Y0214289D01*
X0034799Y0214375D01*
X0034743Y0214462D01*
X0034691Y0214552D01*
X0034642Y0214644D01*
X0034596Y0214737D01*
X0034554Y0214832D01*
X0034515Y0214928D01*
X0034479Y0215026D01*
X0034448Y0215125D01*
X0034419Y0215225D01*
X0034395Y0215326D01*
X0034374Y0215427D01*
X0034357Y0215530D01*
X0034344Y0215633D01*
X0034335Y0215736D01*
X0034329Y0215840D01*
X0034327Y0215944D01*
X0034327Y0217722D01*
X0034326Y0217722D02*
X0034328Y0217805D01*
X0034334Y0217888D01*
X0034344Y0217971D01*
X0034357Y0218054D01*
X0034375Y0218135D01*
X0034396Y0218216D01*
X0034421Y0218295D01*
X0034450Y0218373D01*
X0034482Y0218450D01*
X0034518Y0218525D01*
X0034557Y0218599D01*
X0034600Y0218670D01*
X0034646Y0218740D01*
X0034696Y0218807D01*
X0034748Y0218872D01*
X0034803Y0218934D01*
X0034862Y0218994D01*
X0034923Y0219051D01*
X0034986Y0219105D01*
X0035052Y0219156D01*
X0035121Y0219203D01*
X0035191Y0219248D01*
X0035264Y0219289D01*
X0035338Y0219326D01*
X0035414Y0219361D01*
X0035492Y0219391D01*
X0035570Y0219418D01*
X0035651Y0219441D01*
X0035732Y0219461D01*
X0035814Y0219476D01*
X0035896Y0219488D01*
X0035979Y0219496D01*
X0036062Y0219500D01*
X0036146Y0219500D01*
X0036229Y0219496D01*
X0036312Y0219488D01*
X0036394Y0219476D01*
X0036476Y0219461D01*
X0036557Y0219441D01*
X0036638Y0219418D01*
X0036716Y0219391D01*
X0036794Y0219361D01*
X0036870Y0219326D01*
X0036944Y0219289D01*
X0037017Y0219248D01*
X0037087Y0219203D01*
X0037156Y0219156D01*
X0037222Y0219105D01*
X0037285Y0219051D01*
X0037346Y0218994D01*
X0037405Y0218934D01*
X0037460Y0218872D01*
X0037512Y0218807D01*
X0037562Y0218740D01*
X0037608Y0218670D01*
X0037651Y0218599D01*
X0037690Y0218525D01*
X0037726Y0218450D01*
X0037758Y0218373D01*
X0037787Y0218295D01*
X0037812Y0218216D01*
X0037833Y0218135D01*
X0037851Y0218054D01*
X0037864Y0217971D01*
X0037874Y0217888D01*
X0037880Y0217805D01*
X0037882Y0217722D01*
X0037882Y0217367D01*
X0037880Y0217293D01*
X0037874Y0217218D01*
X0037864Y0217145D01*
X0037851Y0217071D01*
X0037834Y0216999D01*
X0037812Y0216928D01*
X0037788Y0216857D01*
X0037759Y0216789D01*
X0037727Y0216721D01*
X0037691Y0216656D01*
X0037653Y0216593D01*
X0037610Y0216531D01*
X0037565Y0216472D01*
X0037517Y0216415D01*
X0037466Y0216361D01*
X0037412Y0216310D01*
X0037355Y0216262D01*
X0037296Y0216217D01*
X0037234Y0216174D01*
X0037171Y0216136D01*
X0037106Y0216100D01*
X0037038Y0216068D01*
X0036970Y0216039D01*
X0036899Y0216015D01*
X0036828Y0215993D01*
X0036756Y0215976D01*
X0036682Y0215963D01*
X0036609Y0215953D01*
X0036534Y0215947D01*
X0036460Y0215945D01*
X0036460Y0215944D02*
X0034327Y0215944D01*
X0030306Y0139500D02*
X0031728Y0134522D01*
X0028173Y0134522D01*
X0029239Y0135944D02*
X0029239Y0133100D01*
X0028173Y0129500D02*
X0031728Y0129500D01*
X0031728Y0126656D01*
X0029595Y0126656D01*
X0029595Y0126655D02*
X0029521Y0126653D01*
X0029446Y0126647D01*
X0029373Y0126637D01*
X0029299Y0126624D01*
X0029227Y0126607D01*
X0029156Y0126585D01*
X0029085Y0126561D01*
X0029017Y0126532D01*
X0028949Y0126500D01*
X0028884Y0126464D01*
X0028821Y0126426D01*
X0028759Y0126383D01*
X0028700Y0126338D01*
X0028643Y0126290D01*
X0028589Y0126239D01*
X0028538Y0126185D01*
X0028490Y0126128D01*
X0028445Y0126069D01*
X0028402Y0126007D01*
X0028364Y0125944D01*
X0028328Y0125879D01*
X0028296Y0125811D01*
X0028267Y0125743D01*
X0028243Y0125672D01*
X0028221Y0125601D01*
X0028204Y0125529D01*
X0028191Y0125455D01*
X0028181Y0125382D01*
X0028175Y0125307D01*
X0028173Y0125233D01*
X0028173Y0124522D01*
X0028175Y0124448D01*
X0028181Y0124373D01*
X0028191Y0124300D01*
X0028204Y0124226D01*
X0028221Y0124154D01*
X0028243Y0124083D01*
X0028267Y0124012D01*
X0028296Y0123944D01*
X0028328Y0123876D01*
X0028364Y0123811D01*
X0028402Y0123748D01*
X0028445Y0123686D01*
X0028490Y0123627D01*
X0028538Y0123570D01*
X0028589Y0123516D01*
X0028643Y0123465D01*
X0028700Y0123417D01*
X0028759Y0123372D01*
X0028821Y0123329D01*
X0028884Y0123291D01*
X0028949Y0123255D01*
X0029017Y0123223D01*
X0029085Y0123194D01*
X0029156Y0123170D01*
X0029227Y0123148D01*
X0029299Y0123131D01*
X0029373Y0123118D01*
X0029446Y0123108D01*
X0029521Y0123102D01*
X0029595Y0123100D01*
X0031728Y0123100D01*
X0034327Y0123100D02*
X0037882Y0123100D01*
X0037950Y0089500D02*
X0035816Y0083100D01*
X0033683Y0089500D01*
X0031440Y0089500D02*
X0029307Y0089500D01*
X0029233Y0089498D01*
X0029158Y0089492D01*
X0029085Y0089482D01*
X0029011Y0089469D01*
X0028939Y0089452D01*
X0028868Y0089430D01*
X0028797Y0089406D01*
X0028729Y0089377D01*
X0028661Y0089345D01*
X0028596Y0089309D01*
X0028533Y0089271D01*
X0028471Y0089228D01*
X0028412Y0089183D01*
X0028355Y0089135D01*
X0028301Y0089084D01*
X0028250Y0089030D01*
X0028202Y0088973D01*
X0028157Y0088914D01*
X0028114Y0088852D01*
X0028076Y0088789D01*
X0028040Y0088724D01*
X0028008Y0088656D01*
X0027979Y0088588D01*
X0027955Y0088517D01*
X0027933Y0088446D01*
X0027916Y0088374D01*
X0027903Y0088300D01*
X0027893Y0088227D01*
X0027887Y0088152D01*
X0027885Y0088078D01*
X0027887Y0088004D01*
X0027893Y0087929D01*
X0027903Y0087856D01*
X0027916Y0087782D01*
X0027933Y0087710D01*
X0027955Y0087639D01*
X0027979Y0087568D01*
X0028008Y0087500D01*
X0028040Y0087432D01*
X0028076Y0087367D01*
X0028114Y0087304D01*
X0028157Y0087242D01*
X0028202Y0087183D01*
X0028250Y0087126D01*
X0028301Y0087072D01*
X0028355Y0087021D01*
X0028412Y0086973D01*
X0028471Y0086928D01*
X0028533Y0086885D01*
X0028596Y0086847D01*
X0028661Y0086811D01*
X0028729Y0086779D01*
X0028797Y0086750D01*
X0028868Y0086726D01*
X0028939Y0086704D01*
X0029011Y0086687D01*
X0029085Y0086674D01*
X0029158Y0086664D01*
X0029233Y0086658D01*
X0029307Y0086656D01*
X0030729Y0086656D01*
X0029662Y0086656D02*
X0029579Y0086654D01*
X0029496Y0086648D01*
X0029413Y0086638D01*
X0029330Y0086625D01*
X0029249Y0086607D01*
X0029168Y0086586D01*
X0029089Y0086561D01*
X0029011Y0086532D01*
X0028934Y0086500D01*
X0028859Y0086464D01*
X0028785Y0086425D01*
X0028714Y0086382D01*
X0028644Y0086336D01*
X0028577Y0086286D01*
X0028512Y0086234D01*
X0028450Y0086179D01*
X0028390Y0086120D01*
X0028333Y0086059D01*
X0028279Y0085996D01*
X0028228Y0085930D01*
X0028181Y0085861D01*
X0028136Y0085791D01*
X0028095Y0085718D01*
X0028058Y0085644D01*
X0028023Y0085568D01*
X0027993Y0085490D01*
X0027966Y0085412D01*
X0027943Y0085331D01*
X0027923Y0085250D01*
X0027908Y0085168D01*
X0027896Y0085086D01*
X0027888Y0085003D01*
X0027884Y0084920D01*
X0027884Y0084836D01*
X0027888Y0084753D01*
X0027896Y0084670D01*
X0027908Y0084588D01*
X0027923Y0084506D01*
X0027943Y0084425D01*
X0027966Y0084344D01*
X0027993Y0084266D01*
X0028023Y0084188D01*
X0028058Y0084112D01*
X0028095Y0084038D01*
X0028136Y0083965D01*
X0028181Y0083895D01*
X0028228Y0083826D01*
X0028279Y0083760D01*
X0028333Y0083697D01*
X0028390Y0083636D01*
X0028450Y0083577D01*
X0028512Y0083522D01*
X0028577Y0083470D01*
X0028644Y0083420D01*
X0028714Y0083374D01*
X0028785Y0083331D01*
X0028859Y0083292D01*
X0028934Y0083256D01*
X0029011Y0083224D01*
X0029089Y0083195D01*
X0029168Y0083170D01*
X0029249Y0083149D01*
X0029330Y0083131D01*
X0029413Y0083118D01*
X0029496Y0083108D01*
X0029579Y0083102D01*
X0029662Y0083100D01*
X0031440Y0083100D01*
X0366064Y0075222D02*
X0366064Y0072378D01*
X0366066Y0072296D01*
X0366072Y0072214D01*
X0366081Y0072132D01*
X0366094Y0072051D01*
X0366111Y0071971D01*
X0366132Y0071891D01*
X0366156Y0071813D01*
X0366184Y0071736D01*
X0366215Y0071660D01*
X0366250Y0071585D01*
X0366289Y0071513D01*
X0366330Y0071442D01*
X0366375Y0071373D01*
X0366423Y0071307D01*
X0366474Y0071242D01*
X0366528Y0071180D01*
X0366585Y0071121D01*
X0366644Y0071064D01*
X0366706Y0071010D01*
X0366771Y0070959D01*
X0366837Y0070911D01*
X0366906Y0070866D01*
X0366977Y0070825D01*
X0367049Y0070786D01*
X0367124Y0070751D01*
X0367200Y0070720D01*
X0367277Y0070692D01*
X0367355Y0070668D01*
X0367435Y0070647D01*
X0367515Y0070630D01*
X0367596Y0070617D01*
X0367678Y0070608D01*
X0367760Y0070602D01*
X0367842Y0070600D01*
X0369619Y0070600D01*
X0369619Y0077000D01*
X0367842Y0077000D01*
X0367760Y0076998D01*
X0367678Y0076992D01*
X0367596Y0076983D01*
X0367515Y0076970D01*
X0367435Y0076953D01*
X0367355Y0076932D01*
X0367277Y0076908D01*
X0367200Y0076880D01*
X0367124Y0076849D01*
X0367049Y0076814D01*
X0366977Y0076775D01*
X0366906Y0076734D01*
X0366837Y0076689D01*
X0366771Y0076641D01*
X0366706Y0076590D01*
X0366644Y0076536D01*
X0366585Y0076479D01*
X0366528Y0076420D01*
X0366474Y0076358D01*
X0366423Y0076293D01*
X0366375Y0076227D01*
X0366330Y0076158D01*
X0366289Y0076087D01*
X0366250Y0076015D01*
X0366215Y0075940D01*
X0366184Y0075864D01*
X0366156Y0075787D01*
X0366132Y0075709D01*
X0366111Y0075629D01*
X0366094Y0075549D01*
X0366081Y0075468D01*
X0366072Y0075386D01*
X0366066Y0075304D01*
X0366064Y0075222D01*
X0372628Y0077000D02*
X0372628Y0070600D01*
X0376184Y0077000D01*
X0376184Y0070600D01*
X0379192Y0070600D02*
X0379192Y0074156D01*
X0380259Y0074156D01*
X0382748Y0075578D02*
X0382746Y0075652D01*
X0382740Y0075727D01*
X0382730Y0075800D01*
X0382717Y0075874D01*
X0382700Y0075946D01*
X0382678Y0076017D01*
X0382654Y0076088D01*
X0382625Y0076156D01*
X0382593Y0076224D01*
X0382557Y0076289D01*
X0382519Y0076352D01*
X0382476Y0076414D01*
X0382431Y0076473D01*
X0382383Y0076530D01*
X0382332Y0076584D01*
X0382278Y0076635D01*
X0382221Y0076683D01*
X0382162Y0076728D01*
X0382100Y0076771D01*
X0382037Y0076809D01*
X0381972Y0076845D01*
X0381904Y0076877D01*
X0381836Y0076906D01*
X0381765Y0076930D01*
X0381694Y0076952D01*
X0381622Y0076969D01*
X0381548Y0076982D01*
X0381475Y0076992D01*
X0381400Y0076998D01*
X0381326Y0077000D01*
X0379192Y0077000D01*
X0379904Y0080600D02*
X0381326Y0080600D01*
X0381400Y0080602D01*
X0381475Y0080608D01*
X0381548Y0080618D01*
X0381622Y0080631D01*
X0381694Y0080648D01*
X0381765Y0080670D01*
X0381836Y0080694D01*
X0381904Y0080723D01*
X0381972Y0080755D01*
X0382037Y0080791D01*
X0382100Y0080829D01*
X0382162Y0080872D01*
X0382221Y0080917D01*
X0382278Y0080965D01*
X0382332Y0081016D01*
X0382383Y0081070D01*
X0382431Y0081127D01*
X0382476Y0081186D01*
X0382519Y0081248D01*
X0382557Y0081311D01*
X0382593Y0081376D01*
X0382625Y0081444D01*
X0382654Y0081512D01*
X0382678Y0081583D01*
X0382700Y0081654D01*
X0382717Y0081726D01*
X0382730Y0081800D01*
X0382740Y0081873D01*
X0382746Y0081948D01*
X0382748Y0082022D01*
X0382748Y0085578D01*
X0382746Y0085652D01*
X0382740Y0085727D01*
X0382730Y0085800D01*
X0382717Y0085874D01*
X0382700Y0085946D01*
X0382678Y0086017D01*
X0382654Y0086088D01*
X0382625Y0086156D01*
X0382593Y0086224D01*
X0382557Y0086289D01*
X0382519Y0086352D01*
X0382476Y0086414D01*
X0382431Y0086473D01*
X0382383Y0086530D01*
X0382332Y0086584D01*
X0382278Y0086635D01*
X0382221Y0086683D01*
X0382162Y0086728D01*
X0382100Y0086771D01*
X0382037Y0086809D01*
X0381972Y0086845D01*
X0381904Y0086877D01*
X0381836Y0086906D01*
X0381765Y0086930D01*
X0381694Y0086952D01*
X0381622Y0086969D01*
X0381548Y0086982D01*
X0381475Y0086992D01*
X0381400Y0086998D01*
X0381326Y0087000D01*
X0379904Y0087000D01*
X0374049Y0083800D02*
X0374051Y0083659D01*
X0374057Y0083519D01*
X0374066Y0083378D01*
X0374079Y0083238D01*
X0374096Y0083098D01*
X0374116Y0082959D01*
X0374141Y0082821D01*
X0374169Y0082683D01*
X0374200Y0082546D01*
X0374236Y0082409D01*
X0374275Y0082274D01*
X0374317Y0082140D01*
X0374363Y0082007D01*
X0374413Y0081875D01*
X0374466Y0081745D01*
X0374522Y0081616D01*
X0374582Y0081489D01*
X0374581Y0081489D02*
X0374606Y0081423D01*
X0374634Y0081358D01*
X0374666Y0081294D01*
X0374701Y0081233D01*
X0374740Y0081173D01*
X0374781Y0081115D01*
X0374826Y0081060D01*
X0374874Y0081008D01*
X0374924Y0080958D01*
X0374977Y0080910D01*
X0375033Y0080866D01*
X0375090Y0080825D01*
X0375150Y0080787D01*
X0375212Y0080752D01*
X0375276Y0080721D01*
X0375341Y0080693D01*
X0375408Y0080668D01*
X0375475Y0080648D01*
X0375544Y0080631D01*
X0375614Y0080617D01*
X0375684Y0080608D01*
X0375755Y0080602D01*
X0375826Y0080600D01*
X0375897Y0080602D01*
X0375968Y0080608D01*
X0376038Y0080617D01*
X0376108Y0080631D01*
X0376177Y0080648D01*
X0376244Y0080668D01*
X0376311Y0080693D01*
X0376376Y0080721D01*
X0376440Y0080752D01*
X0376502Y0080787D01*
X0376562Y0080825D01*
X0376620Y0080866D01*
X0376675Y0080910D01*
X0376728Y0080958D01*
X0376778Y0081008D01*
X0376826Y0081060D01*
X0376871Y0081115D01*
X0376912Y0081173D01*
X0376951Y0081233D01*
X0376986Y0081294D01*
X0377018Y0081358D01*
X0377046Y0081423D01*
X0377071Y0081489D01*
X0377249Y0082022D02*
X0374404Y0085578D01*
X0374581Y0086111D02*
X0374606Y0086177D01*
X0374634Y0086242D01*
X0374666Y0086306D01*
X0374701Y0086367D01*
X0374740Y0086427D01*
X0374781Y0086485D01*
X0374826Y0086540D01*
X0374874Y0086592D01*
X0374924Y0086642D01*
X0374977Y0086690D01*
X0375033Y0086734D01*
X0375090Y0086775D01*
X0375150Y0086813D01*
X0375212Y0086848D01*
X0375276Y0086879D01*
X0375341Y0086907D01*
X0375408Y0086932D01*
X0375475Y0086952D01*
X0375544Y0086969D01*
X0375614Y0086983D01*
X0375684Y0086992D01*
X0375755Y0086998D01*
X0375826Y0087000D01*
X0375897Y0086998D01*
X0375968Y0086992D01*
X0376038Y0086983D01*
X0376108Y0086969D01*
X0376177Y0086952D01*
X0376244Y0086932D01*
X0376311Y0086907D01*
X0376376Y0086879D01*
X0376440Y0086848D01*
X0376502Y0086813D01*
X0376562Y0086775D01*
X0376620Y0086734D01*
X0376675Y0086690D01*
X0376728Y0086642D01*
X0376778Y0086592D01*
X0376826Y0086540D01*
X0376871Y0086485D01*
X0376912Y0086427D01*
X0376951Y0086367D01*
X0376986Y0086306D01*
X0377018Y0086242D01*
X0377046Y0086177D01*
X0377071Y0086111D01*
X0374582Y0086111D02*
X0374522Y0085984D01*
X0374466Y0085855D01*
X0374413Y0085725D01*
X0374363Y0085593D01*
X0374317Y0085460D01*
X0374275Y0085326D01*
X0374236Y0085191D01*
X0374200Y0085054D01*
X0374169Y0084917D01*
X0374141Y0084779D01*
X0374116Y0084641D01*
X0374096Y0084502D01*
X0374079Y0084362D01*
X0374066Y0084222D01*
X0374057Y0084081D01*
X0374051Y0083941D01*
X0374049Y0083800D01*
X0377604Y0083800D02*
X0377602Y0083941D01*
X0377596Y0084081D01*
X0377587Y0084222D01*
X0377574Y0084362D01*
X0377557Y0084502D01*
X0377537Y0084641D01*
X0377512Y0084779D01*
X0377484Y0084917D01*
X0377453Y0085054D01*
X0377417Y0085191D01*
X0377378Y0085326D01*
X0377336Y0085460D01*
X0377290Y0085593D01*
X0377240Y0085725D01*
X0377187Y0085855D01*
X0377131Y0085984D01*
X0377071Y0086111D01*
X0377604Y0090600D02*
X0374049Y0090600D01*
X0375826Y0090600D02*
X0375826Y0097000D01*
X0377604Y0095578D01*
X0379904Y0097000D02*
X0381326Y0097000D01*
X0381400Y0096998D01*
X0381475Y0096992D01*
X0381548Y0096982D01*
X0381622Y0096969D01*
X0381694Y0096952D01*
X0381765Y0096930D01*
X0381836Y0096906D01*
X0381904Y0096877D01*
X0381972Y0096845D01*
X0382037Y0096809D01*
X0382100Y0096771D01*
X0382162Y0096728D01*
X0382221Y0096683D01*
X0382278Y0096635D01*
X0382332Y0096584D01*
X0382383Y0096530D01*
X0382431Y0096473D01*
X0382476Y0096414D01*
X0382519Y0096352D01*
X0382557Y0096289D01*
X0382593Y0096224D01*
X0382625Y0096156D01*
X0382654Y0096088D01*
X0382678Y0096017D01*
X0382700Y0095946D01*
X0382717Y0095874D01*
X0382730Y0095800D01*
X0382740Y0095727D01*
X0382746Y0095652D01*
X0382748Y0095578D01*
X0382748Y0092022D01*
X0382746Y0091948D01*
X0382740Y0091873D01*
X0382730Y0091800D01*
X0382717Y0091726D01*
X0382700Y0091654D01*
X0382678Y0091583D01*
X0382654Y0091512D01*
X0382625Y0091444D01*
X0382593Y0091376D01*
X0382557Y0091311D01*
X0382519Y0091248D01*
X0382476Y0091186D01*
X0382431Y0091127D01*
X0382383Y0091070D01*
X0382332Y0091016D01*
X0382278Y0090965D01*
X0382221Y0090917D01*
X0382162Y0090872D01*
X0382100Y0090829D01*
X0382037Y0090791D01*
X0381972Y0090755D01*
X0381904Y0090723D01*
X0381836Y0090694D01*
X0381765Y0090670D01*
X0381694Y0090648D01*
X0381622Y0090631D01*
X0381548Y0090618D01*
X0381475Y0090608D01*
X0381400Y0090602D01*
X0381326Y0090600D01*
X0379904Y0090600D01*
X0377604Y0083800D02*
X0377602Y0083659D01*
X0377596Y0083519D01*
X0377587Y0083378D01*
X0377574Y0083238D01*
X0377557Y0083098D01*
X0377537Y0082959D01*
X0377512Y0082821D01*
X0377484Y0082683D01*
X0377453Y0082546D01*
X0377417Y0082409D01*
X0377378Y0082274D01*
X0377336Y0082140D01*
X0377290Y0082007D01*
X0377240Y0081875D01*
X0377187Y0081745D01*
X0377131Y0081616D01*
X0377071Y0081489D01*
X0382748Y0075578D02*
X0382748Y0072022D01*
X0382746Y0071948D01*
X0382740Y0071873D01*
X0382730Y0071800D01*
X0382717Y0071726D01*
X0382700Y0071654D01*
X0382678Y0071583D01*
X0382654Y0071512D01*
X0382625Y0071444D01*
X0382593Y0071376D01*
X0382557Y0071311D01*
X0382519Y0071248D01*
X0382476Y0071186D01*
X0382431Y0071127D01*
X0382383Y0071070D01*
X0382332Y0071016D01*
X0382278Y0070965D01*
X0382221Y0070917D01*
X0382162Y0070872D01*
X0382100Y0070829D01*
X0382037Y0070791D01*
X0381972Y0070755D01*
X0381904Y0070723D01*
X0381836Y0070694D01*
X0381765Y0070670D01*
X0381694Y0070648D01*
X0381622Y0070631D01*
X0381548Y0070618D01*
X0381475Y0070608D01*
X0381400Y0070602D01*
X0381326Y0070600D01*
X0379192Y0070600D01*
X0379904Y0100600D02*
X0381326Y0100600D01*
X0381400Y0100602D01*
X0381475Y0100608D01*
X0381548Y0100618D01*
X0381622Y0100631D01*
X0381694Y0100648D01*
X0381765Y0100670D01*
X0381836Y0100694D01*
X0381904Y0100723D01*
X0381972Y0100755D01*
X0382037Y0100791D01*
X0382100Y0100829D01*
X0382162Y0100872D01*
X0382221Y0100917D01*
X0382278Y0100965D01*
X0382332Y0101016D01*
X0382383Y0101070D01*
X0382431Y0101127D01*
X0382476Y0101186D01*
X0382519Y0101248D01*
X0382557Y0101311D01*
X0382593Y0101376D01*
X0382625Y0101444D01*
X0382654Y0101512D01*
X0382678Y0101583D01*
X0382700Y0101654D01*
X0382717Y0101726D01*
X0382730Y0101800D01*
X0382740Y0101873D01*
X0382746Y0101948D01*
X0382748Y0102022D01*
X0382748Y0105578D01*
X0382746Y0105652D01*
X0382740Y0105727D01*
X0382730Y0105800D01*
X0382717Y0105874D01*
X0382700Y0105946D01*
X0382678Y0106017D01*
X0382654Y0106088D01*
X0382625Y0106156D01*
X0382593Y0106224D01*
X0382557Y0106289D01*
X0382519Y0106352D01*
X0382476Y0106414D01*
X0382431Y0106473D01*
X0382383Y0106530D01*
X0382332Y0106584D01*
X0382278Y0106635D01*
X0382221Y0106683D01*
X0382162Y0106728D01*
X0382100Y0106771D01*
X0382037Y0106809D01*
X0381972Y0106845D01*
X0381904Y0106877D01*
X0381836Y0106906D01*
X0381765Y0106930D01*
X0381694Y0106952D01*
X0381622Y0106969D01*
X0381548Y0106982D01*
X0381475Y0106992D01*
X0381400Y0106998D01*
X0381326Y0107000D01*
X0379904Y0107000D01*
X0378481Y0110600D02*
X0380615Y0117000D01*
X0382748Y0110600D01*
X0382215Y0112200D02*
X0379015Y0112200D01*
X0376239Y0112378D02*
X0376237Y0112295D01*
X0376231Y0112212D01*
X0376221Y0112129D01*
X0376208Y0112046D01*
X0376190Y0111965D01*
X0376169Y0111884D01*
X0376144Y0111805D01*
X0376115Y0111727D01*
X0376083Y0111650D01*
X0376047Y0111575D01*
X0376008Y0111501D01*
X0375965Y0111430D01*
X0375919Y0111360D01*
X0375869Y0111293D01*
X0375817Y0111228D01*
X0375762Y0111166D01*
X0375703Y0111106D01*
X0375642Y0111049D01*
X0375579Y0110995D01*
X0375513Y0110944D01*
X0375444Y0110897D01*
X0375374Y0110852D01*
X0375301Y0110811D01*
X0375227Y0110774D01*
X0375151Y0110739D01*
X0375073Y0110709D01*
X0374995Y0110682D01*
X0374914Y0110659D01*
X0374833Y0110639D01*
X0374751Y0110624D01*
X0374669Y0110612D01*
X0374586Y0110604D01*
X0374503Y0110600D01*
X0374419Y0110600D01*
X0374336Y0110604D01*
X0374253Y0110612D01*
X0374171Y0110624D01*
X0374089Y0110639D01*
X0374008Y0110659D01*
X0373927Y0110682D01*
X0373849Y0110709D01*
X0373771Y0110739D01*
X0373695Y0110774D01*
X0373621Y0110811D01*
X0373548Y0110852D01*
X0373478Y0110897D01*
X0373409Y0110944D01*
X0373343Y0110995D01*
X0373280Y0111049D01*
X0373219Y0111106D01*
X0373160Y0111166D01*
X0373105Y0111228D01*
X0373053Y0111293D01*
X0373003Y0111360D01*
X0372957Y0111430D01*
X0372914Y0111501D01*
X0372875Y0111575D01*
X0372839Y0111650D01*
X0372807Y0111727D01*
X0372778Y0111805D01*
X0372753Y0111884D01*
X0372732Y0111965D01*
X0372714Y0112046D01*
X0372701Y0112129D01*
X0372691Y0112212D01*
X0372685Y0112295D01*
X0372683Y0112378D01*
X0372685Y0112461D01*
X0372691Y0112544D01*
X0372701Y0112627D01*
X0372714Y0112710D01*
X0372732Y0112791D01*
X0372753Y0112872D01*
X0372778Y0112951D01*
X0372807Y0113029D01*
X0372839Y0113106D01*
X0372875Y0113181D01*
X0372914Y0113255D01*
X0372957Y0113326D01*
X0373003Y0113396D01*
X0373053Y0113463D01*
X0373105Y0113528D01*
X0373160Y0113590D01*
X0373219Y0113650D01*
X0373280Y0113707D01*
X0373343Y0113761D01*
X0373409Y0113812D01*
X0373478Y0113859D01*
X0373548Y0113904D01*
X0373621Y0113945D01*
X0373695Y0113982D01*
X0373771Y0114017D01*
X0373849Y0114047D01*
X0373927Y0114074D01*
X0374008Y0114097D01*
X0374089Y0114117D01*
X0374171Y0114132D01*
X0374253Y0114144D01*
X0374336Y0114152D01*
X0374419Y0114156D01*
X0374503Y0114156D01*
X0374586Y0114152D01*
X0374669Y0114144D01*
X0374751Y0114132D01*
X0374833Y0114117D01*
X0374914Y0114097D01*
X0374995Y0114074D01*
X0375073Y0114047D01*
X0375151Y0114017D01*
X0375227Y0113982D01*
X0375301Y0113945D01*
X0375374Y0113904D01*
X0375444Y0113859D01*
X0375513Y0113812D01*
X0375579Y0113761D01*
X0375642Y0113707D01*
X0375703Y0113650D01*
X0375762Y0113590D01*
X0375817Y0113528D01*
X0375869Y0113463D01*
X0375919Y0113396D01*
X0375965Y0113326D01*
X0376008Y0113255D01*
X0376047Y0113181D01*
X0376083Y0113106D01*
X0376115Y0113029D01*
X0376144Y0112951D01*
X0376169Y0112872D01*
X0376190Y0112791D01*
X0376208Y0112710D01*
X0376221Y0112627D01*
X0376231Y0112544D01*
X0376237Y0112461D01*
X0376239Y0112378D01*
X0375883Y0115578D02*
X0375881Y0115504D01*
X0375875Y0115429D01*
X0375865Y0115356D01*
X0375852Y0115282D01*
X0375835Y0115210D01*
X0375813Y0115139D01*
X0375789Y0115068D01*
X0375760Y0115000D01*
X0375728Y0114932D01*
X0375692Y0114867D01*
X0375654Y0114804D01*
X0375611Y0114742D01*
X0375566Y0114683D01*
X0375518Y0114626D01*
X0375467Y0114572D01*
X0375413Y0114521D01*
X0375356Y0114473D01*
X0375297Y0114428D01*
X0375235Y0114385D01*
X0375172Y0114347D01*
X0375107Y0114311D01*
X0375039Y0114279D01*
X0374971Y0114250D01*
X0374900Y0114226D01*
X0374829Y0114204D01*
X0374757Y0114187D01*
X0374683Y0114174D01*
X0374610Y0114164D01*
X0374535Y0114158D01*
X0374461Y0114156D01*
X0374387Y0114158D01*
X0374312Y0114164D01*
X0374239Y0114174D01*
X0374165Y0114187D01*
X0374093Y0114204D01*
X0374022Y0114226D01*
X0373951Y0114250D01*
X0373883Y0114279D01*
X0373815Y0114311D01*
X0373750Y0114347D01*
X0373687Y0114385D01*
X0373625Y0114428D01*
X0373566Y0114473D01*
X0373509Y0114521D01*
X0373455Y0114572D01*
X0373404Y0114626D01*
X0373356Y0114683D01*
X0373311Y0114742D01*
X0373268Y0114804D01*
X0373230Y0114867D01*
X0373194Y0114932D01*
X0373162Y0115000D01*
X0373133Y0115068D01*
X0373109Y0115139D01*
X0373087Y0115210D01*
X0373070Y0115282D01*
X0373057Y0115356D01*
X0373047Y0115429D01*
X0373041Y0115504D01*
X0373039Y0115578D01*
X0373041Y0115652D01*
X0373047Y0115727D01*
X0373057Y0115800D01*
X0373070Y0115874D01*
X0373087Y0115946D01*
X0373109Y0116017D01*
X0373133Y0116088D01*
X0373162Y0116156D01*
X0373194Y0116224D01*
X0373230Y0116289D01*
X0373268Y0116352D01*
X0373311Y0116414D01*
X0373356Y0116473D01*
X0373404Y0116530D01*
X0373455Y0116584D01*
X0373509Y0116635D01*
X0373566Y0116683D01*
X0373625Y0116728D01*
X0373687Y0116771D01*
X0373750Y0116809D01*
X0373815Y0116845D01*
X0373883Y0116877D01*
X0373951Y0116906D01*
X0374022Y0116930D01*
X0374093Y0116952D01*
X0374165Y0116969D01*
X0374239Y0116982D01*
X0374312Y0116992D01*
X0374387Y0116998D01*
X0374461Y0117000D01*
X0374535Y0116998D01*
X0374610Y0116992D01*
X0374683Y0116982D01*
X0374757Y0116969D01*
X0374829Y0116952D01*
X0374900Y0116930D01*
X0374971Y0116906D01*
X0375039Y0116877D01*
X0375107Y0116845D01*
X0375172Y0116809D01*
X0375235Y0116771D01*
X0375297Y0116728D01*
X0375356Y0116683D01*
X0375413Y0116635D01*
X0375467Y0116584D01*
X0375518Y0116530D01*
X0375566Y0116473D01*
X0375611Y0116414D01*
X0375654Y0116352D01*
X0375692Y0116289D01*
X0375728Y0116224D01*
X0375760Y0116156D01*
X0375789Y0116088D01*
X0375813Y0116017D01*
X0375835Y0115946D01*
X0375852Y0115874D01*
X0375865Y0115800D01*
X0375875Y0115727D01*
X0375881Y0115652D01*
X0375883Y0115578D01*
X0374393Y0120600D02*
X0374393Y0123444D01*
X0373327Y0122022D02*
X0376882Y0122022D01*
X0375460Y0127000D01*
X0373750Y0130600D02*
X0373750Y0133444D01*
X0372683Y0132022D02*
X0376238Y0132022D01*
X0374816Y0137000D01*
X0378481Y0140600D02*
X0380615Y0147000D01*
X0382748Y0140600D01*
X0382215Y0142200D02*
X0379015Y0142200D01*
X0375527Y0140600D02*
X0375423Y0140602D01*
X0375319Y0140608D01*
X0375216Y0140617D01*
X0375113Y0140630D01*
X0375010Y0140647D01*
X0374909Y0140668D01*
X0374808Y0140692D01*
X0374708Y0140721D01*
X0374609Y0140752D01*
X0374511Y0140788D01*
X0374415Y0140827D01*
X0374320Y0140869D01*
X0374227Y0140915D01*
X0374135Y0140964D01*
X0374045Y0141016D01*
X0373958Y0141072D01*
X0373872Y0141131D01*
X0373789Y0141193D01*
X0373708Y0141258D01*
X0373629Y0141326D01*
X0373553Y0141397D01*
X0373480Y0141470D01*
X0373409Y0141546D01*
X0373341Y0141625D01*
X0373276Y0141706D01*
X0373214Y0141789D01*
X0373155Y0141875D01*
X0373099Y0141962D01*
X0373047Y0142052D01*
X0372998Y0142144D01*
X0372952Y0142237D01*
X0372910Y0142332D01*
X0372871Y0142428D01*
X0372835Y0142526D01*
X0372804Y0142625D01*
X0372775Y0142725D01*
X0372751Y0142826D01*
X0372730Y0142927D01*
X0372713Y0143030D01*
X0372700Y0143133D01*
X0372691Y0143236D01*
X0372685Y0143340D01*
X0372683Y0143444D01*
X0372683Y0145222D01*
X0372683Y0143444D02*
X0374816Y0143444D01*
X0374816Y0143445D02*
X0374890Y0143447D01*
X0374965Y0143453D01*
X0375038Y0143463D01*
X0375112Y0143476D01*
X0375184Y0143493D01*
X0375255Y0143515D01*
X0375326Y0143539D01*
X0375394Y0143568D01*
X0375462Y0143600D01*
X0375527Y0143636D01*
X0375590Y0143674D01*
X0375652Y0143717D01*
X0375711Y0143762D01*
X0375768Y0143810D01*
X0375822Y0143861D01*
X0375873Y0143915D01*
X0375921Y0143972D01*
X0375966Y0144031D01*
X0376009Y0144093D01*
X0376047Y0144156D01*
X0376083Y0144221D01*
X0376115Y0144289D01*
X0376144Y0144357D01*
X0376168Y0144428D01*
X0376190Y0144499D01*
X0376207Y0144571D01*
X0376220Y0144645D01*
X0376230Y0144718D01*
X0376236Y0144793D01*
X0376238Y0144867D01*
X0376238Y0145222D01*
X0376239Y0145222D02*
X0376237Y0145305D01*
X0376231Y0145388D01*
X0376221Y0145471D01*
X0376208Y0145554D01*
X0376190Y0145635D01*
X0376169Y0145716D01*
X0376144Y0145795D01*
X0376115Y0145873D01*
X0376083Y0145950D01*
X0376047Y0146025D01*
X0376008Y0146099D01*
X0375965Y0146170D01*
X0375919Y0146240D01*
X0375869Y0146307D01*
X0375817Y0146372D01*
X0375762Y0146434D01*
X0375703Y0146494D01*
X0375642Y0146551D01*
X0375579Y0146605D01*
X0375513Y0146656D01*
X0375444Y0146703D01*
X0375374Y0146748D01*
X0375301Y0146789D01*
X0375227Y0146826D01*
X0375151Y0146861D01*
X0375073Y0146891D01*
X0374995Y0146918D01*
X0374914Y0146941D01*
X0374833Y0146961D01*
X0374751Y0146976D01*
X0374669Y0146988D01*
X0374586Y0146996D01*
X0374503Y0147000D01*
X0374419Y0147000D01*
X0374336Y0146996D01*
X0374253Y0146988D01*
X0374171Y0146976D01*
X0374089Y0146961D01*
X0374008Y0146941D01*
X0373927Y0146918D01*
X0373849Y0146891D01*
X0373771Y0146861D01*
X0373695Y0146826D01*
X0373621Y0146789D01*
X0373548Y0146748D01*
X0373478Y0146703D01*
X0373409Y0146656D01*
X0373343Y0146605D01*
X0373280Y0146551D01*
X0373219Y0146494D01*
X0373160Y0146434D01*
X0373105Y0146372D01*
X0373053Y0146307D01*
X0373003Y0146240D01*
X0372957Y0146170D01*
X0372914Y0146099D01*
X0372875Y0146025D01*
X0372839Y0145950D01*
X0372807Y0145873D01*
X0372778Y0145795D01*
X0372753Y0145716D01*
X0372732Y0145635D01*
X0372714Y0145554D01*
X0372701Y0145471D01*
X0372691Y0145388D01*
X0372685Y0145305D01*
X0372683Y0145222D01*
X0375826Y0150600D02*
X0377604Y0150600D01*
X0379904Y0150600D02*
X0381326Y0150600D01*
X0381400Y0150602D01*
X0381475Y0150608D01*
X0381548Y0150618D01*
X0381622Y0150631D01*
X0381694Y0150648D01*
X0381765Y0150670D01*
X0381836Y0150694D01*
X0381904Y0150723D01*
X0381972Y0150755D01*
X0382037Y0150791D01*
X0382100Y0150829D01*
X0382162Y0150872D01*
X0382221Y0150917D01*
X0382278Y0150965D01*
X0382332Y0151016D01*
X0382383Y0151070D01*
X0382431Y0151127D01*
X0382476Y0151186D01*
X0382519Y0151248D01*
X0382557Y0151311D01*
X0382593Y0151376D01*
X0382625Y0151444D01*
X0382654Y0151512D01*
X0382678Y0151583D01*
X0382700Y0151654D01*
X0382717Y0151726D01*
X0382730Y0151800D01*
X0382740Y0151873D01*
X0382746Y0151948D01*
X0382748Y0152022D01*
X0382748Y0155578D01*
X0382746Y0155652D01*
X0382740Y0155727D01*
X0382730Y0155800D01*
X0382717Y0155874D01*
X0382700Y0155946D01*
X0382678Y0156017D01*
X0382654Y0156088D01*
X0382625Y0156156D01*
X0382593Y0156224D01*
X0382557Y0156289D01*
X0382519Y0156352D01*
X0382476Y0156414D01*
X0382431Y0156473D01*
X0382383Y0156530D01*
X0382332Y0156584D01*
X0382278Y0156635D01*
X0382221Y0156683D01*
X0382162Y0156728D01*
X0382100Y0156771D01*
X0382037Y0156809D01*
X0381972Y0156845D01*
X0381904Y0156877D01*
X0381836Y0156906D01*
X0381765Y0156930D01*
X0381694Y0156952D01*
X0381622Y0156969D01*
X0381548Y0156982D01*
X0381475Y0156992D01*
X0381400Y0156998D01*
X0381326Y0157000D01*
X0379904Y0157000D01*
X0377604Y0157000D02*
X0375471Y0157000D01*
X0375397Y0156998D01*
X0375322Y0156992D01*
X0375249Y0156982D01*
X0375175Y0156969D01*
X0375103Y0156952D01*
X0375032Y0156930D01*
X0374961Y0156906D01*
X0374893Y0156877D01*
X0374825Y0156845D01*
X0374760Y0156809D01*
X0374697Y0156771D01*
X0374635Y0156728D01*
X0374576Y0156683D01*
X0374519Y0156635D01*
X0374465Y0156584D01*
X0374414Y0156530D01*
X0374366Y0156473D01*
X0374321Y0156414D01*
X0374278Y0156352D01*
X0374240Y0156289D01*
X0374204Y0156224D01*
X0374172Y0156156D01*
X0374143Y0156088D01*
X0374119Y0156017D01*
X0374097Y0155946D01*
X0374080Y0155874D01*
X0374067Y0155800D01*
X0374057Y0155727D01*
X0374051Y0155652D01*
X0374049Y0155578D01*
X0374051Y0155504D01*
X0374057Y0155429D01*
X0374067Y0155356D01*
X0374080Y0155282D01*
X0374097Y0155210D01*
X0374119Y0155139D01*
X0374143Y0155068D01*
X0374172Y0155000D01*
X0374204Y0154932D01*
X0374240Y0154867D01*
X0374278Y0154804D01*
X0374321Y0154742D01*
X0374366Y0154683D01*
X0374414Y0154626D01*
X0374465Y0154572D01*
X0374519Y0154521D01*
X0374576Y0154473D01*
X0374635Y0154428D01*
X0374697Y0154385D01*
X0374760Y0154347D01*
X0374825Y0154311D01*
X0374893Y0154279D01*
X0374961Y0154250D01*
X0375032Y0154226D01*
X0375103Y0154204D01*
X0375175Y0154187D01*
X0375249Y0154174D01*
X0375322Y0154164D01*
X0375397Y0154158D01*
X0375471Y0154156D01*
X0376893Y0154156D01*
X0375826Y0154156D02*
X0375743Y0154154D01*
X0375660Y0154148D01*
X0375577Y0154138D01*
X0375494Y0154125D01*
X0375413Y0154107D01*
X0375332Y0154086D01*
X0375253Y0154061D01*
X0375175Y0154032D01*
X0375098Y0154000D01*
X0375023Y0153964D01*
X0374949Y0153925D01*
X0374878Y0153882D01*
X0374808Y0153836D01*
X0374741Y0153786D01*
X0374676Y0153734D01*
X0374614Y0153679D01*
X0374554Y0153620D01*
X0374497Y0153559D01*
X0374443Y0153496D01*
X0374392Y0153430D01*
X0374345Y0153361D01*
X0374300Y0153291D01*
X0374259Y0153218D01*
X0374222Y0153144D01*
X0374187Y0153068D01*
X0374157Y0152990D01*
X0374130Y0152912D01*
X0374107Y0152831D01*
X0374087Y0152750D01*
X0374072Y0152668D01*
X0374060Y0152586D01*
X0374052Y0152503D01*
X0374048Y0152420D01*
X0374048Y0152336D01*
X0374052Y0152253D01*
X0374060Y0152170D01*
X0374072Y0152088D01*
X0374087Y0152006D01*
X0374107Y0151925D01*
X0374130Y0151844D01*
X0374157Y0151766D01*
X0374187Y0151688D01*
X0374222Y0151612D01*
X0374259Y0151538D01*
X0374300Y0151465D01*
X0374345Y0151395D01*
X0374392Y0151326D01*
X0374443Y0151260D01*
X0374497Y0151197D01*
X0374554Y0151136D01*
X0374614Y0151077D01*
X0374676Y0151022D01*
X0374741Y0150970D01*
X0374808Y0150920D01*
X0374878Y0150874D01*
X0374949Y0150831D01*
X0375023Y0150792D01*
X0375098Y0150756D01*
X0375175Y0150724D01*
X0375253Y0150695D01*
X0375332Y0150670D01*
X0375413Y0150649D01*
X0375494Y0150631D01*
X0375577Y0150618D01*
X0375660Y0150608D01*
X0375743Y0150602D01*
X0375826Y0150600D01*
X0375115Y0160600D02*
X0375115Y0163444D01*
X0374049Y0162022D02*
X0377604Y0162022D01*
X0376182Y0167000D01*
X0375471Y0170600D02*
X0377604Y0170600D01*
X0379904Y0170600D02*
X0381326Y0170600D01*
X0381400Y0170602D01*
X0381475Y0170608D01*
X0381548Y0170618D01*
X0381622Y0170631D01*
X0381694Y0170648D01*
X0381765Y0170670D01*
X0381836Y0170694D01*
X0381904Y0170723D01*
X0381972Y0170755D01*
X0382037Y0170791D01*
X0382100Y0170829D01*
X0382162Y0170872D01*
X0382221Y0170917D01*
X0382278Y0170965D01*
X0382332Y0171016D01*
X0382383Y0171070D01*
X0382431Y0171127D01*
X0382476Y0171186D01*
X0382519Y0171248D01*
X0382557Y0171311D01*
X0382593Y0171376D01*
X0382625Y0171444D01*
X0382654Y0171512D01*
X0382678Y0171583D01*
X0382700Y0171654D01*
X0382717Y0171726D01*
X0382730Y0171800D01*
X0382740Y0171873D01*
X0382746Y0171948D01*
X0382748Y0172022D01*
X0382748Y0175578D01*
X0382746Y0175652D01*
X0382740Y0175727D01*
X0382730Y0175800D01*
X0382717Y0175874D01*
X0382700Y0175946D01*
X0382678Y0176017D01*
X0382654Y0176088D01*
X0382625Y0176156D01*
X0382593Y0176224D01*
X0382557Y0176289D01*
X0382519Y0176352D01*
X0382476Y0176414D01*
X0382431Y0176473D01*
X0382383Y0176530D01*
X0382332Y0176584D01*
X0382278Y0176635D01*
X0382221Y0176683D01*
X0382162Y0176728D01*
X0382100Y0176771D01*
X0382037Y0176809D01*
X0381972Y0176845D01*
X0381904Y0176877D01*
X0381836Y0176906D01*
X0381765Y0176930D01*
X0381694Y0176952D01*
X0381622Y0176969D01*
X0381548Y0176982D01*
X0381475Y0176992D01*
X0381400Y0176998D01*
X0381326Y0177000D01*
X0379904Y0177000D01*
X0377604Y0177000D02*
X0377604Y0174156D01*
X0375471Y0174156D01*
X0375471Y0174155D02*
X0375397Y0174153D01*
X0375322Y0174147D01*
X0375249Y0174137D01*
X0375175Y0174124D01*
X0375103Y0174107D01*
X0375032Y0174085D01*
X0374961Y0174061D01*
X0374893Y0174032D01*
X0374825Y0174000D01*
X0374760Y0173964D01*
X0374697Y0173926D01*
X0374635Y0173883D01*
X0374576Y0173838D01*
X0374519Y0173790D01*
X0374465Y0173739D01*
X0374414Y0173685D01*
X0374366Y0173628D01*
X0374321Y0173569D01*
X0374278Y0173507D01*
X0374240Y0173444D01*
X0374204Y0173379D01*
X0374172Y0173311D01*
X0374143Y0173243D01*
X0374119Y0173172D01*
X0374097Y0173101D01*
X0374080Y0173029D01*
X0374067Y0172955D01*
X0374057Y0172882D01*
X0374051Y0172807D01*
X0374049Y0172733D01*
X0374049Y0172022D01*
X0374051Y0171948D01*
X0374057Y0171873D01*
X0374067Y0171800D01*
X0374080Y0171726D01*
X0374097Y0171654D01*
X0374119Y0171583D01*
X0374143Y0171512D01*
X0374172Y0171444D01*
X0374204Y0171376D01*
X0374240Y0171311D01*
X0374278Y0171248D01*
X0374321Y0171186D01*
X0374366Y0171127D01*
X0374414Y0171070D01*
X0374465Y0171016D01*
X0374519Y0170965D01*
X0374576Y0170917D01*
X0374635Y0170872D01*
X0374697Y0170829D01*
X0374760Y0170791D01*
X0374825Y0170755D01*
X0374893Y0170723D01*
X0374961Y0170694D01*
X0375032Y0170670D01*
X0375103Y0170648D01*
X0375175Y0170631D01*
X0375249Y0170618D01*
X0375322Y0170608D01*
X0375397Y0170602D01*
X0375471Y0170600D01*
X0379904Y0167000D02*
X0381326Y0167000D01*
X0381400Y0166998D01*
X0381475Y0166992D01*
X0381548Y0166982D01*
X0381622Y0166969D01*
X0381694Y0166952D01*
X0381765Y0166930D01*
X0381836Y0166906D01*
X0381904Y0166877D01*
X0381972Y0166845D01*
X0382037Y0166809D01*
X0382100Y0166771D01*
X0382162Y0166728D01*
X0382221Y0166683D01*
X0382278Y0166635D01*
X0382332Y0166584D01*
X0382383Y0166530D01*
X0382431Y0166473D01*
X0382476Y0166414D01*
X0382519Y0166352D01*
X0382557Y0166289D01*
X0382593Y0166224D01*
X0382625Y0166156D01*
X0382654Y0166088D01*
X0382678Y0166017D01*
X0382700Y0165946D01*
X0382717Y0165874D01*
X0382730Y0165800D01*
X0382740Y0165727D01*
X0382746Y0165652D01*
X0382748Y0165578D01*
X0382748Y0162022D01*
X0382746Y0161948D01*
X0382740Y0161873D01*
X0382730Y0161800D01*
X0382717Y0161726D01*
X0382700Y0161654D01*
X0382678Y0161583D01*
X0382654Y0161512D01*
X0382625Y0161444D01*
X0382593Y0161376D01*
X0382557Y0161311D01*
X0382519Y0161248D01*
X0382476Y0161186D01*
X0382431Y0161127D01*
X0382383Y0161070D01*
X0382332Y0161016D01*
X0382278Y0160965D01*
X0382221Y0160917D01*
X0382162Y0160872D01*
X0382100Y0160829D01*
X0382037Y0160791D01*
X0381972Y0160755D01*
X0381904Y0160723D01*
X0381836Y0160694D01*
X0381765Y0160670D01*
X0381694Y0160648D01*
X0381622Y0160631D01*
X0381548Y0160618D01*
X0381475Y0160608D01*
X0381400Y0160602D01*
X0381326Y0160600D01*
X0379904Y0160600D01*
X0377604Y0177000D02*
X0374049Y0177000D01*
X0375104Y0180600D02*
X0373327Y0187000D01*
X0376882Y0187000D01*
X0376882Y0186289D01*
X0380970Y0187000D02*
X0382748Y0187000D01*
X0382748Y0180600D01*
X0380970Y0180600D01*
X0380887Y0180602D01*
X0380804Y0180608D01*
X0380721Y0180618D01*
X0380638Y0180631D01*
X0380557Y0180649D01*
X0380476Y0180670D01*
X0380397Y0180695D01*
X0380319Y0180724D01*
X0380242Y0180756D01*
X0380167Y0180792D01*
X0380093Y0180831D01*
X0380022Y0180874D01*
X0379952Y0180920D01*
X0379885Y0180970D01*
X0379820Y0181022D01*
X0379758Y0181077D01*
X0379698Y0181136D01*
X0379641Y0181197D01*
X0379587Y0181260D01*
X0379536Y0181326D01*
X0379489Y0181395D01*
X0379444Y0181465D01*
X0379403Y0181538D01*
X0379366Y0181612D01*
X0379331Y0181688D01*
X0379301Y0181766D01*
X0379274Y0181844D01*
X0379251Y0181925D01*
X0379231Y0182006D01*
X0379216Y0182088D01*
X0379204Y0182170D01*
X0379196Y0182253D01*
X0379192Y0182336D01*
X0379192Y0182420D01*
X0379196Y0182503D01*
X0379204Y0182586D01*
X0379216Y0182668D01*
X0379231Y0182750D01*
X0379251Y0182831D01*
X0379274Y0182912D01*
X0379301Y0182990D01*
X0379331Y0183068D01*
X0379366Y0183144D01*
X0379403Y0183218D01*
X0379444Y0183291D01*
X0379489Y0183361D01*
X0379536Y0183430D01*
X0379587Y0183496D01*
X0379641Y0183559D01*
X0379698Y0183620D01*
X0379758Y0183679D01*
X0379820Y0183734D01*
X0379885Y0183786D01*
X0379952Y0183836D01*
X0380022Y0183882D01*
X0380093Y0183925D01*
X0380167Y0183964D01*
X0380242Y0184000D01*
X0380319Y0184032D01*
X0380397Y0184061D01*
X0380476Y0184086D01*
X0380557Y0184107D01*
X0380638Y0184125D01*
X0380721Y0184138D01*
X0380804Y0184148D01*
X0380887Y0184154D01*
X0380970Y0184156D01*
X0382748Y0184156D01*
X0380970Y0184156D02*
X0380896Y0184158D01*
X0380821Y0184164D01*
X0380748Y0184174D01*
X0380674Y0184187D01*
X0380602Y0184204D01*
X0380531Y0184226D01*
X0380460Y0184250D01*
X0380392Y0184279D01*
X0380324Y0184311D01*
X0380259Y0184347D01*
X0380196Y0184385D01*
X0380134Y0184428D01*
X0380075Y0184473D01*
X0380018Y0184521D01*
X0379964Y0184572D01*
X0379913Y0184626D01*
X0379865Y0184683D01*
X0379820Y0184742D01*
X0379777Y0184804D01*
X0379739Y0184867D01*
X0379703Y0184932D01*
X0379671Y0185000D01*
X0379642Y0185068D01*
X0379618Y0185139D01*
X0379596Y0185210D01*
X0379579Y0185282D01*
X0379566Y0185356D01*
X0379556Y0185429D01*
X0379550Y0185504D01*
X0379548Y0185578D01*
X0379550Y0185652D01*
X0379556Y0185727D01*
X0379566Y0185800D01*
X0379579Y0185874D01*
X0379596Y0185946D01*
X0379618Y0186017D01*
X0379642Y0186088D01*
X0379671Y0186156D01*
X0379703Y0186224D01*
X0379739Y0186289D01*
X0379777Y0186352D01*
X0379820Y0186414D01*
X0379865Y0186473D01*
X0379913Y0186530D01*
X0379964Y0186584D01*
X0380018Y0186635D01*
X0380075Y0186683D01*
X0380134Y0186728D01*
X0380196Y0186771D01*
X0380259Y0186809D01*
X0380324Y0186845D01*
X0380392Y0186877D01*
X0380460Y0186906D01*
X0380531Y0186930D01*
X0380602Y0186952D01*
X0380674Y0186969D01*
X0380748Y0186982D01*
X0380821Y0186992D01*
X0380896Y0186998D01*
X0380970Y0187000D01*
X0380970Y0190600D02*
X0382748Y0190600D01*
X0382748Y0197000D01*
X0380970Y0197000D01*
X0380896Y0196998D01*
X0380821Y0196992D01*
X0380748Y0196982D01*
X0380674Y0196969D01*
X0380602Y0196952D01*
X0380531Y0196930D01*
X0380460Y0196906D01*
X0380392Y0196877D01*
X0380324Y0196845D01*
X0380259Y0196809D01*
X0380196Y0196771D01*
X0380134Y0196728D01*
X0380075Y0196683D01*
X0380018Y0196635D01*
X0379964Y0196584D01*
X0379913Y0196530D01*
X0379865Y0196473D01*
X0379820Y0196414D01*
X0379777Y0196352D01*
X0379739Y0196289D01*
X0379703Y0196224D01*
X0379671Y0196156D01*
X0379642Y0196088D01*
X0379618Y0196017D01*
X0379596Y0195946D01*
X0379579Y0195874D01*
X0379566Y0195800D01*
X0379556Y0195727D01*
X0379550Y0195652D01*
X0379548Y0195578D01*
X0379550Y0195504D01*
X0379556Y0195429D01*
X0379566Y0195356D01*
X0379579Y0195282D01*
X0379596Y0195210D01*
X0379618Y0195139D01*
X0379642Y0195068D01*
X0379671Y0195000D01*
X0379703Y0194932D01*
X0379739Y0194867D01*
X0379777Y0194804D01*
X0379820Y0194742D01*
X0379865Y0194683D01*
X0379913Y0194626D01*
X0379964Y0194572D01*
X0380018Y0194521D01*
X0380075Y0194473D01*
X0380134Y0194428D01*
X0380196Y0194385D01*
X0380259Y0194347D01*
X0380324Y0194311D01*
X0380392Y0194279D01*
X0380460Y0194250D01*
X0380531Y0194226D01*
X0380602Y0194204D01*
X0380674Y0194187D01*
X0380748Y0194174D01*
X0380821Y0194164D01*
X0380896Y0194158D01*
X0380970Y0194156D01*
X0382748Y0194156D01*
X0380970Y0194156D02*
X0380887Y0194154D01*
X0380804Y0194148D01*
X0380721Y0194138D01*
X0380638Y0194125D01*
X0380557Y0194107D01*
X0380476Y0194086D01*
X0380397Y0194061D01*
X0380319Y0194032D01*
X0380242Y0194000D01*
X0380167Y0193964D01*
X0380093Y0193925D01*
X0380022Y0193882D01*
X0379952Y0193836D01*
X0379885Y0193786D01*
X0379820Y0193734D01*
X0379758Y0193679D01*
X0379698Y0193620D01*
X0379641Y0193559D01*
X0379587Y0193496D01*
X0379536Y0193430D01*
X0379489Y0193361D01*
X0379444Y0193291D01*
X0379403Y0193218D01*
X0379366Y0193144D01*
X0379331Y0193068D01*
X0379301Y0192990D01*
X0379274Y0192912D01*
X0379251Y0192831D01*
X0379231Y0192750D01*
X0379216Y0192668D01*
X0379204Y0192586D01*
X0379196Y0192503D01*
X0379192Y0192420D01*
X0379192Y0192336D01*
X0379196Y0192253D01*
X0379204Y0192170D01*
X0379216Y0192088D01*
X0379231Y0192006D01*
X0379251Y0191925D01*
X0379274Y0191844D01*
X0379301Y0191766D01*
X0379331Y0191688D01*
X0379366Y0191612D01*
X0379403Y0191538D01*
X0379444Y0191465D01*
X0379489Y0191395D01*
X0379536Y0191326D01*
X0379587Y0191260D01*
X0379641Y0191197D01*
X0379698Y0191136D01*
X0379758Y0191077D01*
X0379820Y0191022D01*
X0379885Y0190970D01*
X0379952Y0190920D01*
X0380022Y0190874D01*
X0380093Y0190831D01*
X0380167Y0190792D01*
X0380242Y0190756D01*
X0380319Y0190724D01*
X0380397Y0190695D01*
X0380476Y0190670D01*
X0380557Y0190649D01*
X0380638Y0190631D01*
X0380721Y0190618D01*
X0380804Y0190608D01*
X0380887Y0190602D01*
X0380970Y0190600D01*
X0376882Y0192378D02*
X0376880Y0192295D01*
X0376874Y0192212D01*
X0376864Y0192129D01*
X0376851Y0192046D01*
X0376833Y0191965D01*
X0376812Y0191884D01*
X0376787Y0191805D01*
X0376758Y0191727D01*
X0376726Y0191650D01*
X0376690Y0191575D01*
X0376651Y0191501D01*
X0376608Y0191430D01*
X0376562Y0191360D01*
X0376512Y0191293D01*
X0376460Y0191228D01*
X0376405Y0191166D01*
X0376346Y0191106D01*
X0376285Y0191049D01*
X0376222Y0190995D01*
X0376156Y0190944D01*
X0376087Y0190897D01*
X0376017Y0190852D01*
X0375944Y0190811D01*
X0375870Y0190774D01*
X0375794Y0190739D01*
X0375716Y0190709D01*
X0375638Y0190682D01*
X0375557Y0190659D01*
X0375476Y0190639D01*
X0375394Y0190624D01*
X0375312Y0190612D01*
X0375229Y0190604D01*
X0375146Y0190600D01*
X0375062Y0190600D01*
X0374979Y0190604D01*
X0374896Y0190612D01*
X0374814Y0190624D01*
X0374732Y0190639D01*
X0374651Y0190659D01*
X0374570Y0190682D01*
X0374492Y0190709D01*
X0374414Y0190739D01*
X0374338Y0190774D01*
X0374264Y0190811D01*
X0374191Y0190852D01*
X0374121Y0190897D01*
X0374052Y0190944D01*
X0373986Y0190995D01*
X0373923Y0191049D01*
X0373862Y0191106D01*
X0373803Y0191166D01*
X0373748Y0191228D01*
X0373696Y0191293D01*
X0373646Y0191360D01*
X0373600Y0191430D01*
X0373557Y0191501D01*
X0373518Y0191575D01*
X0373482Y0191650D01*
X0373450Y0191727D01*
X0373421Y0191805D01*
X0373396Y0191884D01*
X0373375Y0191965D01*
X0373357Y0192046D01*
X0373344Y0192129D01*
X0373334Y0192212D01*
X0373328Y0192295D01*
X0373326Y0192378D01*
X0373328Y0192461D01*
X0373334Y0192544D01*
X0373344Y0192627D01*
X0373357Y0192710D01*
X0373375Y0192791D01*
X0373396Y0192872D01*
X0373421Y0192951D01*
X0373450Y0193029D01*
X0373482Y0193106D01*
X0373518Y0193181D01*
X0373557Y0193255D01*
X0373600Y0193326D01*
X0373646Y0193396D01*
X0373696Y0193463D01*
X0373748Y0193528D01*
X0373803Y0193590D01*
X0373862Y0193650D01*
X0373923Y0193707D01*
X0373986Y0193761D01*
X0374052Y0193812D01*
X0374121Y0193859D01*
X0374191Y0193904D01*
X0374264Y0193945D01*
X0374338Y0193982D01*
X0374414Y0194017D01*
X0374492Y0194047D01*
X0374570Y0194074D01*
X0374651Y0194097D01*
X0374732Y0194117D01*
X0374814Y0194132D01*
X0374896Y0194144D01*
X0374979Y0194152D01*
X0375062Y0194156D01*
X0375146Y0194156D01*
X0375229Y0194152D01*
X0375312Y0194144D01*
X0375394Y0194132D01*
X0375476Y0194117D01*
X0375557Y0194097D01*
X0375638Y0194074D01*
X0375716Y0194047D01*
X0375794Y0194017D01*
X0375870Y0193982D01*
X0375944Y0193945D01*
X0376017Y0193904D01*
X0376087Y0193859D01*
X0376156Y0193812D01*
X0376222Y0193761D01*
X0376285Y0193707D01*
X0376346Y0193650D01*
X0376405Y0193590D01*
X0376460Y0193528D01*
X0376512Y0193463D01*
X0376562Y0193396D01*
X0376608Y0193326D01*
X0376651Y0193255D01*
X0376690Y0193181D01*
X0376726Y0193106D01*
X0376758Y0193029D01*
X0376787Y0192951D01*
X0376812Y0192872D01*
X0376833Y0192791D01*
X0376851Y0192710D01*
X0376864Y0192627D01*
X0376874Y0192544D01*
X0376880Y0192461D01*
X0376882Y0192378D01*
X0376526Y0195578D02*
X0376524Y0195504D01*
X0376518Y0195429D01*
X0376508Y0195356D01*
X0376495Y0195282D01*
X0376478Y0195210D01*
X0376456Y0195139D01*
X0376432Y0195068D01*
X0376403Y0195000D01*
X0376371Y0194932D01*
X0376335Y0194867D01*
X0376297Y0194804D01*
X0376254Y0194742D01*
X0376209Y0194683D01*
X0376161Y0194626D01*
X0376110Y0194572D01*
X0376056Y0194521D01*
X0375999Y0194473D01*
X0375940Y0194428D01*
X0375878Y0194385D01*
X0375815Y0194347D01*
X0375750Y0194311D01*
X0375682Y0194279D01*
X0375614Y0194250D01*
X0375543Y0194226D01*
X0375472Y0194204D01*
X0375400Y0194187D01*
X0375326Y0194174D01*
X0375253Y0194164D01*
X0375178Y0194158D01*
X0375104Y0194156D01*
X0375030Y0194158D01*
X0374955Y0194164D01*
X0374882Y0194174D01*
X0374808Y0194187D01*
X0374736Y0194204D01*
X0374665Y0194226D01*
X0374594Y0194250D01*
X0374526Y0194279D01*
X0374458Y0194311D01*
X0374393Y0194347D01*
X0374330Y0194385D01*
X0374268Y0194428D01*
X0374209Y0194473D01*
X0374152Y0194521D01*
X0374098Y0194572D01*
X0374047Y0194626D01*
X0373999Y0194683D01*
X0373954Y0194742D01*
X0373911Y0194804D01*
X0373873Y0194867D01*
X0373837Y0194932D01*
X0373805Y0195000D01*
X0373776Y0195068D01*
X0373752Y0195139D01*
X0373730Y0195210D01*
X0373713Y0195282D01*
X0373700Y0195356D01*
X0373690Y0195429D01*
X0373684Y0195504D01*
X0373682Y0195578D01*
X0373684Y0195652D01*
X0373690Y0195727D01*
X0373700Y0195800D01*
X0373713Y0195874D01*
X0373730Y0195946D01*
X0373752Y0196017D01*
X0373776Y0196088D01*
X0373805Y0196156D01*
X0373837Y0196224D01*
X0373873Y0196289D01*
X0373911Y0196352D01*
X0373954Y0196414D01*
X0373999Y0196473D01*
X0374047Y0196530D01*
X0374098Y0196584D01*
X0374152Y0196635D01*
X0374209Y0196683D01*
X0374268Y0196728D01*
X0374330Y0196771D01*
X0374393Y0196809D01*
X0374458Y0196845D01*
X0374526Y0196877D01*
X0374594Y0196906D01*
X0374665Y0196930D01*
X0374736Y0196952D01*
X0374808Y0196969D01*
X0374882Y0196982D01*
X0374955Y0196992D01*
X0375030Y0196998D01*
X0375104Y0197000D01*
X0375178Y0196998D01*
X0375253Y0196992D01*
X0375326Y0196982D01*
X0375400Y0196969D01*
X0375472Y0196952D01*
X0375543Y0196930D01*
X0375614Y0196906D01*
X0375682Y0196877D01*
X0375750Y0196845D01*
X0375815Y0196809D01*
X0375878Y0196771D01*
X0375940Y0196728D01*
X0375999Y0196683D01*
X0376056Y0196635D01*
X0376110Y0196584D01*
X0376161Y0196530D01*
X0376209Y0196473D01*
X0376254Y0196414D01*
X0376297Y0196352D01*
X0376335Y0196289D01*
X0376371Y0196224D01*
X0376403Y0196156D01*
X0376432Y0196088D01*
X0376456Y0196017D01*
X0376478Y0195946D01*
X0376495Y0195874D01*
X0376508Y0195800D01*
X0376518Y0195727D01*
X0376524Y0195652D01*
X0376526Y0195578D01*
X0374816Y0200600D02*
X0372683Y0207000D01*
X0372628Y0210600D02*
X0372628Y0217000D01*
X0369619Y0217000D02*
X0369619Y0210600D01*
X0367842Y0210600D01*
X0367760Y0210602D01*
X0367678Y0210608D01*
X0367596Y0210617D01*
X0367515Y0210630D01*
X0367435Y0210647D01*
X0367355Y0210668D01*
X0367277Y0210692D01*
X0367200Y0210720D01*
X0367124Y0210751D01*
X0367049Y0210786D01*
X0366977Y0210825D01*
X0366906Y0210866D01*
X0366837Y0210911D01*
X0366771Y0210959D01*
X0366706Y0211010D01*
X0366644Y0211064D01*
X0366585Y0211121D01*
X0366528Y0211180D01*
X0366474Y0211242D01*
X0366423Y0211307D01*
X0366375Y0211373D01*
X0366330Y0211442D01*
X0366289Y0211513D01*
X0366250Y0211585D01*
X0366215Y0211660D01*
X0366184Y0211736D01*
X0366156Y0211813D01*
X0366132Y0211891D01*
X0366111Y0211971D01*
X0366094Y0212051D01*
X0366081Y0212132D01*
X0366072Y0212214D01*
X0366066Y0212296D01*
X0366064Y0212378D01*
X0366064Y0215222D01*
X0366066Y0215304D01*
X0366072Y0215386D01*
X0366081Y0215468D01*
X0366094Y0215549D01*
X0366111Y0215629D01*
X0366132Y0215709D01*
X0366156Y0215787D01*
X0366184Y0215864D01*
X0366215Y0215940D01*
X0366250Y0216015D01*
X0366289Y0216087D01*
X0366330Y0216158D01*
X0366375Y0216227D01*
X0366423Y0216293D01*
X0366474Y0216358D01*
X0366528Y0216420D01*
X0366585Y0216479D01*
X0366644Y0216536D01*
X0366706Y0216590D01*
X0366771Y0216641D01*
X0366837Y0216689D01*
X0366906Y0216734D01*
X0366977Y0216775D01*
X0367049Y0216814D01*
X0367124Y0216849D01*
X0367200Y0216880D01*
X0367277Y0216908D01*
X0367355Y0216932D01*
X0367435Y0216953D01*
X0367515Y0216970D01*
X0367596Y0216983D01*
X0367678Y0216992D01*
X0367760Y0216998D01*
X0367842Y0217000D01*
X0369619Y0217000D01*
X0376184Y0217000D02*
X0372628Y0210600D01*
X0376184Y0210600D02*
X0376184Y0217000D01*
X0379192Y0217000D02*
X0381326Y0217000D01*
X0381400Y0216998D01*
X0381475Y0216992D01*
X0381548Y0216982D01*
X0381622Y0216969D01*
X0381694Y0216952D01*
X0381765Y0216930D01*
X0381836Y0216906D01*
X0381904Y0216877D01*
X0381972Y0216845D01*
X0382037Y0216809D01*
X0382100Y0216771D01*
X0382162Y0216728D01*
X0382221Y0216683D01*
X0382278Y0216635D01*
X0382332Y0216584D01*
X0382383Y0216530D01*
X0382431Y0216473D01*
X0382476Y0216414D01*
X0382519Y0216352D01*
X0382557Y0216289D01*
X0382593Y0216224D01*
X0382625Y0216156D01*
X0382654Y0216088D01*
X0382678Y0216017D01*
X0382700Y0215946D01*
X0382717Y0215874D01*
X0382730Y0215800D01*
X0382740Y0215727D01*
X0382746Y0215652D01*
X0382748Y0215578D01*
X0382748Y0212022D01*
X0382746Y0211948D01*
X0382740Y0211873D01*
X0382730Y0211800D01*
X0382717Y0211726D01*
X0382700Y0211654D01*
X0382678Y0211583D01*
X0382654Y0211512D01*
X0382625Y0211444D01*
X0382593Y0211376D01*
X0382557Y0211311D01*
X0382519Y0211248D01*
X0382476Y0211186D01*
X0382431Y0211127D01*
X0382383Y0211070D01*
X0382332Y0211016D01*
X0382278Y0210965D01*
X0382221Y0210917D01*
X0382162Y0210872D01*
X0382100Y0210829D01*
X0382037Y0210791D01*
X0381972Y0210755D01*
X0381904Y0210723D01*
X0381836Y0210694D01*
X0381765Y0210670D01*
X0381694Y0210648D01*
X0381622Y0210631D01*
X0381548Y0210618D01*
X0381475Y0210608D01*
X0381400Y0210602D01*
X0381326Y0210600D01*
X0379192Y0210600D01*
X0379192Y0214156D01*
X0380259Y0214156D01*
X0379192Y0207000D02*
X0382748Y0207000D01*
X0382748Y0204156D01*
X0380615Y0204156D01*
X0380615Y0204155D02*
X0380541Y0204153D01*
X0380466Y0204147D01*
X0380393Y0204137D01*
X0380319Y0204124D01*
X0380247Y0204107D01*
X0380176Y0204085D01*
X0380105Y0204061D01*
X0380037Y0204032D01*
X0379969Y0204000D01*
X0379904Y0203964D01*
X0379841Y0203926D01*
X0379779Y0203883D01*
X0379720Y0203838D01*
X0379663Y0203790D01*
X0379609Y0203739D01*
X0379558Y0203685D01*
X0379510Y0203628D01*
X0379465Y0203569D01*
X0379422Y0203507D01*
X0379384Y0203444D01*
X0379348Y0203379D01*
X0379316Y0203311D01*
X0379287Y0203243D01*
X0379263Y0203172D01*
X0379241Y0203101D01*
X0379224Y0203029D01*
X0379211Y0202955D01*
X0379201Y0202882D01*
X0379195Y0202807D01*
X0379193Y0202733D01*
X0379192Y0202733D02*
X0379192Y0202022D01*
X0379193Y0202022D02*
X0379195Y0201948D01*
X0379201Y0201873D01*
X0379211Y0201800D01*
X0379224Y0201726D01*
X0379241Y0201654D01*
X0379263Y0201583D01*
X0379287Y0201512D01*
X0379316Y0201444D01*
X0379348Y0201376D01*
X0379384Y0201311D01*
X0379422Y0201248D01*
X0379465Y0201186D01*
X0379510Y0201127D01*
X0379558Y0201070D01*
X0379609Y0201016D01*
X0379663Y0200965D01*
X0379720Y0200917D01*
X0379779Y0200872D01*
X0379841Y0200829D01*
X0379904Y0200791D01*
X0379969Y0200755D01*
X0380037Y0200723D01*
X0380105Y0200694D01*
X0380176Y0200670D01*
X0380247Y0200648D01*
X0380319Y0200631D01*
X0380393Y0200618D01*
X0380466Y0200608D01*
X0380541Y0200602D01*
X0380615Y0200600D01*
X0382748Y0200600D01*
X0374816Y0200600D02*
X0376950Y0207000D01*
X0380615Y0137000D02*
X0378481Y0130600D01*
X0379015Y0132200D02*
X0382215Y0132200D01*
X0382748Y0130600D02*
X0380615Y0137000D01*
X0380970Y0127000D02*
X0382748Y0127000D01*
X0382748Y0120600D01*
X0380970Y0120600D01*
X0380887Y0120602D01*
X0380804Y0120608D01*
X0380721Y0120618D01*
X0380638Y0120631D01*
X0380557Y0120649D01*
X0380476Y0120670D01*
X0380397Y0120695D01*
X0380319Y0120724D01*
X0380242Y0120756D01*
X0380167Y0120792D01*
X0380093Y0120831D01*
X0380022Y0120874D01*
X0379952Y0120920D01*
X0379885Y0120970D01*
X0379820Y0121022D01*
X0379758Y0121077D01*
X0379698Y0121136D01*
X0379641Y0121197D01*
X0379587Y0121260D01*
X0379536Y0121326D01*
X0379489Y0121395D01*
X0379444Y0121465D01*
X0379403Y0121538D01*
X0379366Y0121612D01*
X0379331Y0121688D01*
X0379301Y0121766D01*
X0379274Y0121844D01*
X0379251Y0121925D01*
X0379231Y0122006D01*
X0379216Y0122088D01*
X0379204Y0122170D01*
X0379196Y0122253D01*
X0379192Y0122336D01*
X0379192Y0122420D01*
X0379196Y0122503D01*
X0379204Y0122586D01*
X0379216Y0122668D01*
X0379231Y0122750D01*
X0379251Y0122831D01*
X0379274Y0122912D01*
X0379301Y0122990D01*
X0379331Y0123068D01*
X0379366Y0123144D01*
X0379403Y0123218D01*
X0379444Y0123291D01*
X0379489Y0123361D01*
X0379536Y0123430D01*
X0379587Y0123496D01*
X0379641Y0123559D01*
X0379698Y0123620D01*
X0379758Y0123679D01*
X0379820Y0123734D01*
X0379885Y0123786D01*
X0379952Y0123836D01*
X0380022Y0123882D01*
X0380093Y0123925D01*
X0380167Y0123964D01*
X0380242Y0124000D01*
X0380319Y0124032D01*
X0380397Y0124061D01*
X0380476Y0124086D01*
X0380557Y0124107D01*
X0380638Y0124125D01*
X0380721Y0124138D01*
X0380804Y0124148D01*
X0380887Y0124154D01*
X0380970Y0124156D01*
X0382748Y0124156D01*
X0380970Y0124156D02*
X0380896Y0124158D01*
X0380821Y0124164D01*
X0380748Y0124174D01*
X0380674Y0124187D01*
X0380602Y0124204D01*
X0380531Y0124226D01*
X0380460Y0124250D01*
X0380392Y0124279D01*
X0380324Y0124311D01*
X0380259Y0124347D01*
X0380196Y0124385D01*
X0380134Y0124428D01*
X0380075Y0124473D01*
X0380018Y0124521D01*
X0379964Y0124572D01*
X0379913Y0124626D01*
X0379865Y0124683D01*
X0379820Y0124742D01*
X0379777Y0124804D01*
X0379739Y0124867D01*
X0379703Y0124932D01*
X0379671Y0125000D01*
X0379642Y0125068D01*
X0379618Y0125139D01*
X0379596Y0125210D01*
X0379579Y0125282D01*
X0379566Y0125356D01*
X0379556Y0125429D01*
X0379550Y0125504D01*
X0379548Y0125578D01*
X0379550Y0125652D01*
X0379556Y0125727D01*
X0379566Y0125800D01*
X0379579Y0125874D01*
X0379596Y0125946D01*
X0379618Y0126017D01*
X0379642Y0126088D01*
X0379671Y0126156D01*
X0379703Y0126224D01*
X0379739Y0126289D01*
X0379777Y0126352D01*
X0379820Y0126414D01*
X0379865Y0126473D01*
X0379913Y0126530D01*
X0379964Y0126584D01*
X0380018Y0126635D01*
X0380075Y0126683D01*
X0380134Y0126728D01*
X0380196Y0126771D01*
X0380259Y0126809D01*
X0380324Y0126845D01*
X0380392Y0126877D01*
X0380460Y0126906D01*
X0380531Y0126930D01*
X0380602Y0126952D01*
X0380674Y0126969D01*
X0380748Y0126982D01*
X0380821Y0126992D01*
X0380896Y0126998D01*
X0380970Y0127000D01*
X0374048Y0105400D02*
X0374050Y0105318D01*
X0374056Y0105236D01*
X0374066Y0105155D01*
X0374079Y0105074D01*
X0374097Y0104994D01*
X0374118Y0104915D01*
X0374143Y0104837D01*
X0374171Y0104761D01*
X0374204Y0104685D01*
X0374239Y0104612D01*
X0374279Y0104540D01*
X0374321Y0104470D01*
X0374367Y0104402D01*
X0374416Y0104337D01*
X0374468Y0104274D01*
X0374524Y0104213D01*
X0374581Y0104155D01*
X0374582Y0104156D02*
X0377604Y0100600D01*
X0374049Y0100600D01*
X0377605Y0105577D02*
X0377576Y0105662D01*
X0377543Y0105744D01*
X0377506Y0105826D01*
X0377466Y0105906D01*
X0377423Y0105983D01*
X0377376Y0106059D01*
X0377326Y0106133D01*
X0377273Y0106205D01*
X0377217Y0106274D01*
X0377158Y0106341D01*
X0377096Y0106405D01*
X0377031Y0106466D01*
X0376964Y0106525D01*
X0376894Y0106580D01*
X0376822Y0106633D01*
X0376748Y0106682D01*
X0376671Y0106728D01*
X0376593Y0106770D01*
X0376513Y0106810D01*
X0376431Y0106845D01*
X0376348Y0106878D01*
X0376264Y0106906D01*
X0376178Y0106931D01*
X0376091Y0106952D01*
X0376004Y0106969D01*
X0375916Y0106983D01*
X0375827Y0106992D01*
X0375738Y0106998D01*
X0375649Y0107000D01*
X0375570Y0106998D01*
X0375492Y0106992D01*
X0375414Y0106983D01*
X0375337Y0106969D01*
X0375260Y0106952D01*
X0375185Y0106931D01*
X0375110Y0106906D01*
X0375037Y0106878D01*
X0374965Y0106846D01*
X0374895Y0106811D01*
X0374826Y0106772D01*
X0374760Y0106730D01*
X0374696Y0106685D01*
X0374634Y0106637D01*
X0374575Y0106586D01*
X0374518Y0106531D01*
X0374463Y0106474D01*
X0374412Y0106415D01*
X0374364Y0106353D01*
X0374319Y0106289D01*
X0374277Y0106223D01*
X0374238Y0106154D01*
X0374203Y0106084D01*
X0374171Y0106012D01*
X0374143Y0105939D01*
X0374118Y0105864D01*
X0374097Y0105789D01*
X0374080Y0105712D01*
X0374066Y0105635D01*
X0374057Y0105557D01*
X0374051Y0105479D01*
X0374049Y0105400D01*
D12*
X0366973Y0043101D03*
X0371573Y0039901D03*
X0372873Y0037701D03*
X0375173Y0037701D03*
X0379273Y0036201D03*
X0376873Y0033601D03*
X0376073Y0032601D03*
X0376073Y0032501D03*
X0376173Y0031901D03*
X0380273Y0031801D03*
X0383773Y0033301D03*
X0383773Y0035201D03*
X0371873Y0031201D03*
X0371873Y0031101D03*
X0367673Y0034401D03*
X0367573Y0034301D03*
X0364473Y0029001D03*
X0361873Y0034101D03*
X0350273Y0039401D03*
X0348073Y0037601D03*
X0347873Y0037501D03*
X0347673Y0037401D03*
X0347373Y0037201D03*
X0347173Y0037101D03*
X0346973Y0037001D03*
X0346673Y0036801D03*
X0346473Y0036701D03*
X0345273Y0036001D03*
X0345073Y0035901D03*
X0344773Y0035701D03*
X0344573Y0035601D03*
X0344073Y0035301D03*
X0343873Y0035201D03*
X0343373Y0034901D03*
X0343173Y0034801D03*
X0342873Y0034601D03*
X0342673Y0034501D03*
X0342173Y0034201D03*
X0341973Y0034101D03*
X0341473Y0033801D03*
X0345273Y0041601D03*
X0345273Y0041701D03*
X0369673Y0015901D03*
X0367173Y0015001D03*
X0368273Y0012401D03*
X0362773Y0014001D03*
X0360673Y0011401D03*
X0354773Y0012001D03*
X0339873Y0008801D03*
X0339873Y0008701D03*
X0339873Y0008601D03*
X0339873Y0008501D03*
X0339873Y0008401D03*
X0339873Y0008301D03*
X0339873Y0008201D03*
X0339873Y0008101D03*
X0339873Y0008001D03*
X0339873Y0007901D03*
X0339873Y0007801D03*
X0339873Y0007701D03*
X0371573Y0022801D03*
X0371573Y0022901D03*
X0371673Y0022701D03*
X0375973Y0013201D03*
D13*
X0360173Y0007801D03*
X0360173Y0007701D03*
X0354773Y0024601D03*
X0352673Y0028101D03*
X0354473Y0061401D03*
X0354473Y0061501D03*
D14*
X0354773Y0060501D03*
X0354773Y0060401D03*
X0344473Y0060601D03*
X0344473Y0060701D03*
X0379873Y0060201D03*
X0379873Y0060101D03*
X0379873Y0060001D03*
X0379873Y0059901D03*
X0379873Y0059801D03*
X0379873Y0059701D03*
X0379873Y0059601D03*
X0379873Y0059501D03*
X0379873Y0059401D03*
X0379873Y0059301D03*
X0379873Y0059201D03*
X0379873Y0059101D03*
X0379873Y0059001D03*
X0379873Y0058901D03*
X0379873Y0058801D03*
X0379873Y0058701D03*
X0379873Y0058601D03*
X0379873Y0058501D03*
X0379873Y0058401D03*
X0379873Y0058301D03*
X0379873Y0058201D03*
X0379873Y0058101D03*
X0379873Y0058001D03*
X0379873Y0057901D03*
X0379873Y0057801D03*
X0379873Y0057701D03*
X0379873Y0057601D03*
X0379873Y0057501D03*
X0379873Y0057401D03*
X0379873Y0057301D03*
X0379873Y0057201D03*
X0379873Y0057101D03*
X0379873Y0057001D03*
X0379873Y0056901D03*
X0379873Y0056801D03*
X0379873Y0056701D03*
X0379873Y0056601D03*
X0379873Y0056501D03*
X0379873Y0056401D03*
X0379873Y0056301D03*
X0379873Y0056201D03*
X0379873Y0056101D03*
X0379873Y0056001D03*
X0379873Y0055901D03*
X0379873Y0055801D03*
X0379873Y0055701D03*
X0379873Y0055601D03*
X0379873Y0055501D03*
X0379873Y0055401D03*
X0379873Y0055301D03*
X0379873Y0055201D03*
X0379873Y0055101D03*
X0379873Y0055001D03*
X0379873Y0054901D03*
X0379873Y0054801D03*
X0379873Y0054701D03*
X0379873Y0054601D03*
X0379873Y0054501D03*
X0379873Y0054401D03*
X0379873Y0054301D03*
X0379873Y0054201D03*
X0379873Y0054101D03*
X0379873Y0054001D03*
X0379873Y0053901D03*
X0379873Y0053801D03*
X0379873Y0053701D03*
X0379873Y0053601D03*
X0379873Y0053501D03*
X0379873Y0053401D03*
X0379873Y0053301D03*
X0379873Y0053201D03*
X0379873Y0053101D03*
X0379873Y0053001D03*
X0379873Y0052901D03*
X0379873Y0052801D03*
X0379873Y0052701D03*
X0379873Y0052601D03*
X0379873Y0052501D03*
X0379873Y0052401D03*
X0379873Y0052301D03*
X0379873Y0052201D03*
X0379873Y0052101D03*
X0379873Y0052001D03*
X0379873Y0051901D03*
X0379873Y0051801D03*
X0379873Y0051701D03*
X0379873Y0051601D03*
X0379873Y0051501D03*
X0379873Y0051401D03*
X0379873Y0051301D03*
X0379873Y0051201D03*
X0379873Y0051101D03*
X0379873Y0051001D03*
X0379873Y0050901D03*
X0379873Y0050801D03*
X0379873Y0050701D03*
X0379873Y0050601D03*
X0379873Y0050501D03*
X0379873Y0050401D03*
X0379873Y0050301D03*
X0379873Y0050201D03*
X0379873Y0050101D03*
X0379873Y0050001D03*
X0379873Y0049901D03*
X0379873Y0049801D03*
X0379873Y0049701D03*
X0379873Y0049601D03*
X0379873Y0049501D03*
X0379873Y0049401D03*
X0379873Y0049301D03*
X0379873Y0049201D03*
X0379873Y0049101D03*
X0379873Y0049001D03*
X0379873Y0048901D03*
X0379873Y0048801D03*
X0379873Y0048701D03*
X0379873Y0048601D03*
X0379873Y0048501D03*
X0379873Y0048401D03*
X0379873Y0048301D03*
X0379873Y0048201D03*
X0379873Y0048101D03*
X0379873Y0048001D03*
X0379873Y0047901D03*
X0379873Y0047801D03*
X0379873Y0047701D03*
X0379873Y0047601D03*
X0379873Y0047501D03*
X0379873Y0047401D03*
X0379873Y0047301D03*
X0379873Y0047201D03*
X0379873Y0047101D03*
X0379873Y0047001D03*
X0379873Y0046901D03*
X0379873Y0046801D03*
X0379873Y0046701D03*
X0379873Y0046601D03*
X0379873Y0046501D03*
X0379873Y0046401D03*
X0379873Y0046301D03*
X0379873Y0046201D03*
X0379873Y0046101D03*
X0379873Y0046001D03*
X0379873Y0045901D03*
X0379873Y0045801D03*
X0379873Y0045701D03*
X0379873Y0045601D03*
X0379873Y0045501D03*
X0379873Y0045401D03*
X0379873Y0045301D03*
X0379873Y0045201D03*
X0379873Y0045101D03*
X0379873Y0045001D03*
X0379873Y0044901D03*
X0379873Y0044801D03*
X0379873Y0044701D03*
X0379873Y0044601D03*
X0379873Y0044501D03*
X0379873Y0044401D03*
X0379873Y0044301D03*
X0379873Y0044201D03*
X0379873Y0044101D03*
X0379873Y0044001D03*
X0379873Y0043901D03*
X0379873Y0043801D03*
X0379873Y0043701D03*
X0379873Y0043601D03*
X0379873Y0043501D03*
X0379873Y0043401D03*
X0379873Y0043301D03*
X0379873Y0043201D03*
X0379873Y0043101D03*
X0379873Y0043001D03*
X0379873Y0042901D03*
X0379873Y0042801D03*
X0379873Y0042701D03*
X0379873Y0042601D03*
X0379873Y0042501D03*
X0379873Y0042401D03*
X0379873Y0042301D03*
X0379873Y0042201D03*
X0379873Y0042101D03*
X0379873Y0042001D03*
X0379873Y0041901D03*
X0379873Y0041801D03*
X0379873Y0041701D03*
X0379873Y0041601D03*
X0379873Y0041501D03*
X0379873Y0041401D03*
X0379873Y0041301D03*
X0379873Y0041201D03*
X0379873Y0041101D03*
X0379873Y0041001D03*
X0379873Y0040901D03*
X0379873Y0040801D03*
X0379873Y0040701D03*
X0379873Y0040601D03*
X0379873Y0040501D03*
X0379873Y0040401D03*
X0379873Y0040301D03*
X0379873Y0040201D03*
X0379873Y0040101D03*
X0379873Y0040001D03*
X0379873Y0039901D03*
X0379873Y0039801D03*
X0379873Y0039701D03*
X0379873Y0039601D03*
X0379873Y0039501D03*
X0379873Y0039401D03*
X0379873Y0039301D03*
X0379873Y0039201D03*
X0379873Y0012301D03*
X0379873Y0012201D03*
X0379873Y0012101D03*
X0379873Y0012001D03*
X0379873Y0011901D03*
X0379873Y0011801D03*
X0379873Y0011701D03*
X0379873Y0011601D03*
X0379873Y0011501D03*
X0379873Y0011401D03*
X0379873Y0011301D03*
X0379873Y0011201D03*
X0379873Y0011101D03*
X0379873Y0011001D03*
X0379873Y0010901D03*
X0379873Y0010801D03*
X0379873Y0010701D03*
X0379873Y0010601D03*
X0379873Y0010501D03*
X0379873Y0010401D03*
X0379873Y0010301D03*
X0379873Y0010201D03*
X0379873Y0010101D03*
X0379873Y0010001D03*
X0379873Y0009901D03*
X0379873Y0009801D03*
X0379873Y0009701D03*
X0379873Y0009601D03*
X0379873Y0009501D03*
X0379873Y0009401D03*
X0379873Y0009301D03*
X0379873Y0009201D03*
X0379873Y0009101D03*
X0379873Y0009001D03*
X0379873Y0008901D03*
X0379873Y0008801D03*
X0379873Y0008701D03*
X0379873Y0008601D03*
X0379873Y0008501D03*
X0379873Y0008401D03*
X0379873Y0008301D03*
X0379873Y0008201D03*
X0379873Y0008101D03*
X0379873Y0008001D03*
X0379873Y0007901D03*
X0379873Y0007801D03*
X0379873Y0007701D03*
X0354773Y0024101D03*
D15*
X0354823Y0024501D03*
X0360123Y0008001D03*
X0360123Y0007901D03*
X0354523Y0061301D03*
D16*
X0354573Y0061201D03*
X0354573Y0061101D03*
X0352673Y0028001D03*
X0354773Y0024401D03*
X0363373Y0022601D03*
X0360073Y0008101D03*
D17*
X0360023Y0008201D03*
X0354823Y0024301D03*
X0352623Y0027901D03*
X0364123Y0040901D03*
X0354623Y0060901D03*
X0354623Y0061001D03*
X0344623Y0060201D03*
X0344623Y0060101D03*
D18*
X0344573Y0060301D03*
X0354673Y0060801D03*
X0363373Y0022701D03*
X0360073Y0008301D03*
D19*
X0360123Y0008401D03*
X0354823Y0024001D03*
X0352623Y0027601D03*
X0352623Y0027701D03*
X0379923Y0039101D03*
X0344423Y0060801D03*
D20*
X0344423Y0060901D03*
X0352623Y0027501D03*
X0360223Y0008501D03*
X0368423Y0010401D03*
X0368423Y0010501D03*
D21*
X0368523Y0010201D03*
X0368523Y0010101D03*
X0360223Y0008601D03*
X0363223Y0023001D03*
X0354823Y0023701D03*
D22*
X0354773Y0023401D03*
X0352573Y0027101D03*
X0352573Y0027201D03*
X0363173Y0023201D03*
X0360273Y0008701D03*
X0380273Y0038701D03*
X0355173Y0060101D03*
X0355173Y0060201D03*
D23*
X0355223Y0060001D03*
X0355223Y0059901D03*
X0360323Y0008801D03*
D24*
X0360373Y0008901D03*
X0354773Y0023101D03*
X0380473Y0038401D03*
X0355373Y0059401D03*
X0355373Y0059501D03*
D25*
X0355723Y0058301D03*
X0355723Y0058201D03*
X0364223Y0041201D03*
X0356223Y0039101D03*
X0356023Y0039001D03*
X0351323Y0030001D03*
X0351123Y0029701D03*
X0363123Y0023801D03*
X0360123Y0009001D03*
X0380823Y0024901D03*
X0380823Y0025001D03*
X0380823Y0025101D03*
X0380823Y0026101D03*
X0380823Y0026201D03*
X0380823Y0026301D03*
X0380823Y0037601D03*
D26*
X0380973Y0037301D03*
X0380973Y0027001D03*
X0380973Y0026901D03*
X0380973Y0024301D03*
X0380973Y0024201D03*
X0363073Y0024001D03*
X0352473Y0026101D03*
X0350873Y0029201D03*
X0350873Y0029301D03*
X0356773Y0039301D03*
X0355873Y0057701D03*
X0355873Y0057801D03*
X0360173Y0009101D03*
D27*
X0360223Y0009201D03*
X0357523Y0015901D03*
X0350823Y0029101D03*
X0354523Y0038001D03*
X0357023Y0039401D03*
X0355923Y0057501D03*
X0355923Y0057601D03*
X0381023Y0027201D03*
X0381023Y0027101D03*
X0381023Y0024101D03*
X0381023Y0024001D03*
X0381023Y0023901D03*
D28*
X0381173Y0023301D03*
X0381173Y0023201D03*
X0381173Y0027601D03*
X0381173Y0027701D03*
X0381173Y0037201D03*
X0370473Y0036501D03*
X0363073Y0024201D03*
X0352473Y0025801D03*
X0355673Y0038701D03*
X0356073Y0057001D03*
X0356073Y0057101D03*
X0381173Y0014501D03*
X0381173Y0014401D03*
X0381173Y0014301D03*
X0381173Y0014201D03*
X0381173Y0014101D03*
X0381173Y0014001D03*
X0381173Y0013901D03*
X0381173Y0013801D03*
X0381173Y0013701D03*
X0381173Y0013601D03*
X0381173Y0013501D03*
X0381173Y0013401D03*
X0381173Y0013301D03*
X0381173Y0013201D03*
X0381173Y0013101D03*
X0381173Y0013001D03*
X0381173Y0012901D03*
X0381173Y0012801D03*
X0381173Y0012701D03*
X0381173Y0012601D03*
X0381173Y0012501D03*
X0360273Y0009301D03*
D29*
X0360273Y0009401D03*
X0357273Y0015501D03*
X0363073Y0024401D03*
X0372473Y0017201D03*
X0372473Y0017101D03*
X0372473Y0017001D03*
X0381273Y0015601D03*
X0381273Y0015501D03*
X0381273Y0015401D03*
X0381273Y0015301D03*
X0381273Y0020601D03*
X0381273Y0020701D03*
X0381273Y0020801D03*
X0381273Y0020901D03*
X0381273Y0022601D03*
X0381273Y0022701D03*
X0381273Y0022801D03*
X0381273Y0027901D03*
X0381273Y0028001D03*
X0355573Y0038601D03*
X0356173Y0056701D03*
X0356173Y0056801D03*
D30*
X0356473Y0055801D03*
X0356473Y0055701D03*
X0359073Y0040101D03*
X0362473Y0038001D03*
X0381573Y0029401D03*
X0381573Y0029301D03*
X0381573Y0029201D03*
X0381573Y0029101D03*
X0381573Y0029001D03*
X0381573Y0019901D03*
X0381573Y0019801D03*
X0381573Y0017301D03*
X0381573Y0017201D03*
X0381573Y0017101D03*
X0360173Y0009501D03*
X0356973Y0015101D03*
X0345673Y0032101D03*
D31*
X0344723Y0043401D03*
X0344723Y0043501D03*
X0362023Y0038601D03*
X0363623Y0033401D03*
X0372323Y0030001D03*
X0372423Y0029901D03*
X0375923Y0030201D03*
X0377423Y0033901D03*
X0380023Y0032601D03*
X0372723Y0040801D03*
X0372023Y0022201D03*
X0375423Y0016301D03*
X0375423Y0014301D03*
X0369123Y0015001D03*
X0367723Y0015701D03*
X0362223Y0011301D03*
X0361123Y0012101D03*
X0363323Y0009501D03*
D32*
X0360223Y0009601D03*
X0356823Y0014901D03*
X0363123Y0025001D03*
X0371423Y0039201D03*
X0381723Y0030301D03*
X0381723Y0030201D03*
X0381723Y0019201D03*
X0381723Y0019101D03*
X0381723Y0019001D03*
X0381723Y0018901D03*
X0381723Y0018801D03*
X0381723Y0018701D03*
X0381723Y0018601D03*
X0381723Y0018501D03*
X0381723Y0018401D03*
X0381723Y0018301D03*
X0381723Y0018201D03*
X0381723Y0018101D03*
X0381723Y0018001D03*
X0381723Y0017901D03*
X0356623Y0055201D03*
D33*
X0344623Y0043801D03*
X0363523Y0033301D03*
X0362723Y0031801D03*
X0372523Y0029701D03*
X0371523Y0024901D03*
X0375523Y0016001D03*
X0369023Y0014801D03*
X0367823Y0015801D03*
X0368123Y0011701D03*
X0363323Y0009601D03*
X0362323Y0013001D03*
X0354123Y0011101D03*
X0377323Y0032901D03*
X0384423Y0034201D03*
D34*
X0371173Y0039101D03*
X0359673Y0040301D03*
X0356673Y0055001D03*
X0356673Y0055101D03*
X0363173Y0025101D03*
X0356773Y0014801D03*
X0360273Y0009701D03*
D35*
X0346373Y0009801D03*
D36*
X0356673Y0014701D03*
X0360273Y0009801D03*
X0363173Y0025201D03*
X0363173Y0025301D03*
X0359973Y0040401D03*
X0364273Y0041501D03*
X0356773Y0054701D03*
X0381873Y0036901D03*
D37*
X0363223Y0023101D03*
X0354823Y0023501D03*
X0368623Y0009801D03*
X0355123Y0060301D03*
D38*
X0346323Y0010601D03*
X0346323Y0010501D03*
X0346323Y0010401D03*
X0346323Y0010301D03*
X0346323Y0010201D03*
X0346323Y0010101D03*
X0346323Y0010001D03*
X0346323Y0009901D03*
D39*
X0356573Y0014501D03*
X0360373Y0009901D03*
X0363173Y0025401D03*
X0371173Y0035201D03*
X0360273Y0040501D03*
X0356873Y0054301D03*
X0356873Y0054401D03*
X0345773Y0032001D03*
D40*
X0352573Y0027301D03*
X0354773Y0023601D03*
X0368573Y0010001D03*
X0368573Y0009901D03*
X0380173Y0038801D03*
D41*
X0363223Y0025501D03*
X0364923Y0016701D03*
X0360423Y0010001D03*
X0360623Y0040601D03*
X0356923Y0054201D03*
D42*
X0357073Y0053701D03*
X0357073Y0053601D03*
X0370473Y0038901D03*
X0371373Y0035401D03*
X0371273Y0034901D03*
X0363273Y0025701D03*
X0358273Y0025901D03*
X0358173Y0025801D03*
X0364773Y0016501D03*
X0360473Y0010101D03*
D43*
X0360523Y0010201D03*
X0356323Y0014201D03*
X0358323Y0026001D03*
X0358423Y0026101D03*
X0358523Y0026201D03*
X0363223Y0025801D03*
X0364323Y0041601D03*
X0357123Y0053501D03*
X0382223Y0036701D03*
D44*
X0371623Y0036301D03*
X0371623Y0035701D03*
X0371423Y0034801D03*
X0363223Y0043001D03*
X0363223Y0043101D03*
X0363123Y0043201D03*
X0363023Y0043301D03*
X0363023Y0043401D03*
X0362923Y0043501D03*
X0362923Y0043601D03*
X0362823Y0043701D03*
X0362723Y0043901D03*
X0362623Y0044001D03*
X0362623Y0044101D03*
X0362523Y0044201D03*
X0362423Y0044401D03*
X0362323Y0044501D03*
X0362323Y0044601D03*
X0362223Y0044701D03*
X0362123Y0044901D03*
X0362023Y0045101D03*
X0361923Y0045201D03*
X0361923Y0045301D03*
X0361823Y0045401D03*
X0361723Y0045601D03*
X0361623Y0045701D03*
X0361623Y0045801D03*
X0361523Y0045901D03*
X0361423Y0046101D03*
X0361323Y0046301D03*
X0361223Y0046401D03*
X0361123Y0046601D03*
X0361023Y0046801D03*
X0360923Y0046901D03*
X0360823Y0047101D03*
X0360723Y0047301D03*
X0360623Y0047401D03*
X0360623Y0047501D03*
X0360523Y0047601D03*
X0360423Y0047801D03*
X0360323Y0048001D03*
X0360223Y0048101D03*
X0360123Y0048301D03*
X0360023Y0048501D03*
X0359923Y0048601D03*
X0359823Y0048801D03*
X0359723Y0049001D03*
X0359523Y0049301D03*
X0359423Y0049501D03*
X0359323Y0049701D03*
X0359223Y0049801D03*
X0359123Y0050001D03*
X0359023Y0050201D03*
X0358923Y0050301D03*
X0358823Y0050501D03*
X0358723Y0050701D03*
X0358523Y0051001D03*
X0358423Y0051201D03*
X0358223Y0051501D03*
X0358123Y0051701D03*
X0358023Y0051901D03*
X0357823Y0052201D03*
X0357723Y0052401D03*
X0357523Y0052701D03*
X0357423Y0052901D03*
X0357223Y0053201D03*
X0359323Y0027201D03*
X0359223Y0027101D03*
X0359123Y0027001D03*
X0359023Y0026801D03*
X0358923Y0026701D03*
X0358823Y0026601D03*
X0363323Y0026001D03*
X0360623Y0010301D03*
D45*
X0368473Y0010301D03*
X0354773Y0023801D03*
X0352573Y0027401D03*
X0364173Y0041001D03*
X0380073Y0038901D03*
D46*
X0382373Y0036601D03*
X0371673Y0037001D03*
X0371673Y0036201D03*
X0371673Y0036101D03*
X0371673Y0036001D03*
X0371673Y0035901D03*
X0371673Y0035801D03*
X0371573Y0035601D03*
X0370073Y0038801D03*
X0371473Y0039501D03*
X0359573Y0027501D03*
X0359473Y0027401D03*
X0359373Y0027301D03*
X0359073Y0026901D03*
X0364473Y0016201D03*
X0360673Y0010401D03*
X0356173Y0014001D03*
X0343173Y0030601D03*
X0374173Y0021201D03*
D47*
X0364323Y0016001D03*
X0360723Y0010501D03*
X0360323Y0028401D03*
X0360423Y0028501D03*
X0360523Y0028601D03*
X0360623Y0028701D03*
X0358523Y0030901D03*
X0358623Y0031001D03*
X0358723Y0031101D03*
X0358423Y0030801D03*
X0358023Y0030501D03*
X0357923Y0030401D03*
X0357823Y0030301D03*
X0357723Y0030201D03*
X0356923Y0029501D03*
X0356823Y0029401D03*
X0359123Y0031401D03*
X0359223Y0031501D03*
X0359323Y0031601D03*
X0359723Y0031901D03*
X0359823Y0032001D03*
X0360223Y0032301D03*
X0360323Y0032401D03*
X0360623Y0032601D03*
X0371723Y0037201D03*
X0382523Y0036501D03*
X0342823Y0030801D03*
D48*
X0360673Y0032701D03*
X0361073Y0029201D03*
X0360973Y0029101D03*
X0360873Y0029001D03*
X0360773Y0028901D03*
X0360673Y0028801D03*
X0363373Y0026401D03*
X0371373Y0034501D03*
X0368773Y0038101D03*
X0369673Y0038701D03*
X0374273Y0021301D03*
X0360773Y0010601D03*
X0355973Y0013701D03*
D49*
X0363273Y0022901D03*
X0354773Y0023901D03*
X0368373Y0010701D03*
X0368373Y0010601D03*
X0379973Y0039001D03*
D50*
X0374973Y0038001D03*
X0372473Y0041801D03*
X0372473Y0041901D03*
X0372473Y0042001D03*
X0372473Y0042101D03*
X0372473Y0042201D03*
X0372473Y0042301D03*
X0372473Y0042401D03*
X0372473Y0042501D03*
X0372473Y0042601D03*
X0372473Y0042701D03*
X0372473Y0042801D03*
X0372473Y0042901D03*
X0372473Y0043001D03*
X0372473Y0043101D03*
X0372473Y0043201D03*
X0372473Y0043301D03*
X0372473Y0043401D03*
X0372473Y0043501D03*
X0372473Y0043601D03*
X0372473Y0043701D03*
X0372473Y0043801D03*
X0372473Y0043901D03*
X0372473Y0044001D03*
X0372473Y0044101D03*
X0372473Y0044201D03*
X0372473Y0044301D03*
X0372473Y0044401D03*
X0372473Y0044501D03*
X0372473Y0044601D03*
X0372473Y0044701D03*
X0372473Y0044801D03*
X0372473Y0044901D03*
X0372473Y0045001D03*
X0372473Y0045101D03*
X0372473Y0045201D03*
X0372473Y0045301D03*
X0372473Y0045401D03*
X0372473Y0045501D03*
X0372473Y0045601D03*
X0372473Y0045701D03*
X0372473Y0045801D03*
X0372473Y0045901D03*
X0372473Y0046001D03*
X0372473Y0046101D03*
X0372473Y0046201D03*
X0372473Y0046301D03*
X0372473Y0046401D03*
X0372473Y0046501D03*
X0372473Y0046601D03*
X0372473Y0046701D03*
X0372473Y0046801D03*
X0372473Y0046901D03*
X0372473Y0047001D03*
X0372473Y0047101D03*
X0372473Y0047201D03*
X0372473Y0047301D03*
X0372473Y0047401D03*
X0372473Y0047501D03*
X0372473Y0047601D03*
X0372473Y0047701D03*
X0372473Y0047801D03*
X0372473Y0047901D03*
X0372473Y0048001D03*
X0372473Y0048101D03*
X0372473Y0048201D03*
X0372473Y0048301D03*
X0372473Y0048401D03*
X0372473Y0048501D03*
X0372473Y0048601D03*
X0372473Y0048701D03*
X0372473Y0048801D03*
X0372473Y0048901D03*
X0372473Y0049001D03*
X0372473Y0049101D03*
X0372473Y0049201D03*
X0372473Y0049301D03*
X0372473Y0049401D03*
X0372473Y0049501D03*
X0372473Y0049601D03*
X0372473Y0049701D03*
X0372473Y0049801D03*
X0372473Y0049901D03*
X0372473Y0050001D03*
X0372473Y0050101D03*
X0372473Y0050201D03*
X0372473Y0050301D03*
X0372473Y0050401D03*
X0372473Y0050501D03*
X0372473Y0050601D03*
X0372473Y0050701D03*
X0372473Y0050801D03*
X0372473Y0050901D03*
X0372473Y0051001D03*
X0372473Y0051101D03*
X0372473Y0051201D03*
X0372473Y0051301D03*
X0372473Y0051401D03*
X0372473Y0051501D03*
X0372473Y0051601D03*
X0372473Y0051701D03*
X0372473Y0051801D03*
X0372473Y0051901D03*
X0372473Y0052001D03*
X0372473Y0052101D03*
X0372473Y0052201D03*
X0372473Y0052301D03*
X0372473Y0052401D03*
X0372473Y0052501D03*
X0372473Y0052601D03*
X0372473Y0052701D03*
X0372473Y0052801D03*
X0372473Y0052901D03*
X0372473Y0053001D03*
X0372473Y0053101D03*
X0372473Y0053201D03*
X0372473Y0053301D03*
X0372473Y0053401D03*
X0372473Y0053501D03*
X0372473Y0053601D03*
X0372473Y0053701D03*
X0372473Y0053801D03*
X0372473Y0053901D03*
X0372473Y0054001D03*
X0372473Y0054101D03*
X0372473Y0054201D03*
X0372473Y0054301D03*
X0372473Y0054401D03*
X0372473Y0054501D03*
X0372473Y0054601D03*
X0372473Y0054701D03*
X0372473Y0054801D03*
X0372473Y0054901D03*
X0372473Y0055001D03*
X0372473Y0055101D03*
X0372473Y0055201D03*
X0372473Y0055301D03*
X0372473Y0055401D03*
X0372473Y0055501D03*
X0372473Y0055601D03*
X0372473Y0055701D03*
X0372473Y0055801D03*
X0372473Y0055901D03*
X0372473Y0056001D03*
X0372473Y0056101D03*
X0372473Y0056201D03*
X0372473Y0056301D03*
X0372473Y0056401D03*
X0372473Y0056501D03*
X0372473Y0056601D03*
X0372473Y0056701D03*
X0372473Y0056801D03*
X0372473Y0056901D03*
X0372473Y0057001D03*
X0372473Y0057101D03*
X0372473Y0057201D03*
X0372473Y0057301D03*
X0372473Y0057401D03*
X0372473Y0057501D03*
X0372473Y0057601D03*
X0372473Y0057701D03*
X0372473Y0057801D03*
X0372473Y0057901D03*
X0372473Y0058001D03*
X0372473Y0058101D03*
X0372473Y0058201D03*
X0372473Y0058301D03*
X0372473Y0058401D03*
X0372473Y0058501D03*
X0372473Y0058601D03*
X0372473Y0058701D03*
X0372473Y0058801D03*
X0372473Y0058901D03*
X0372473Y0059001D03*
X0372473Y0059101D03*
X0372473Y0059201D03*
X0372473Y0059301D03*
X0372473Y0059401D03*
X0372473Y0059501D03*
X0372473Y0059601D03*
X0372473Y0059701D03*
X0372473Y0059801D03*
X0372473Y0059901D03*
X0372473Y0060001D03*
X0360673Y0053701D03*
X0360673Y0053601D03*
X0360773Y0053501D03*
X0360773Y0053401D03*
X0360873Y0053301D03*
X0360873Y0053201D03*
X0360973Y0053101D03*
X0361073Y0053001D03*
X0361073Y0052901D03*
X0361173Y0052801D03*
X0361173Y0052701D03*
X0361273Y0052601D03*
X0361373Y0052401D03*
X0361473Y0052301D03*
X0361473Y0052201D03*
X0361573Y0052101D03*
X0361673Y0051901D03*
X0361773Y0051701D03*
X0361873Y0051601D03*
X0361973Y0051401D03*
X0362073Y0051201D03*
X0362273Y0050901D03*
X0362373Y0050701D03*
X0362673Y0050201D03*
X0362773Y0050001D03*
X0363073Y0049501D03*
X0361873Y0038501D03*
X0365973Y0037001D03*
X0368273Y0034801D03*
X0363873Y0033701D03*
X0362573Y0031501D03*
X0372073Y0030501D03*
X0376173Y0030901D03*
X0380373Y0032101D03*
X0384073Y0034801D03*
X0375673Y0024201D03*
X0375673Y0024101D03*
X0371373Y0024401D03*
X0369273Y0015301D03*
X0367473Y0015401D03*
X0367573Y0013801D03*
X0367673Y0013301D03*
X0367773Y0013001D03*
X0367773Y0012901D03*
X0363973Y0011201D03*
X0363673Y0011701D03*
X0362173Y0011001D03*
X0354473Y0011601D03*
X0352373Y0011601D03*
X0352373Y0011701D03*
X0352373Y0011801D03*
X0352373Y0011901D03*
X0352373Y0012001D03*
X0352373Y0012101D03*
X0352373Y0012201D03*
X0352373Y0012301D03*
X0352373Y0012401D03*
X0352373Y0012501D03*
X0352373Y0012601D03*
X0352373Y0012701D03*
X0352373Y0012801D03*
X0352373Y0012901D03*
X0352373Y0013001D03*
X0352373Y0013101D03*
X0352373Y0013201D03*
X0352373Y0013301D03*
X0352373Y0013401D03*
X0352373Y0013501D03*
X0352373Y0013601D03*
X0352373Y0013701D03*
X0352373Y0013801D03*
X0352373Y0013901D03*
X0352373Y0014001D03*
X0352373Y0014101D03*
X0352373Y0014201D03*
X0352373Y0014301D03*
X0352373Y0014401D03*
X0352373Y0014501D03*
X0352373Y0014601D03*
X0352373Y0014701D03*
X0352373Y0014801D03*
X0352373Y0014901D03*
X0352373Y0015001D03*
X0352373Y0015101D03*
X0352373Y0015201D03*
X0352373Y0015301D03*
X0352373Y0015401D03*
X0352373Y0015501D03*
X0352373Y0015601D03*
X0352373Y0015701D03*
X0352373Y0015801D03*
X0352373Y0015901D03*
X0352373Y0016001D03*
X0352373Y0016101D03*
X0352373Y0016201D03*
X0352373Y0016301D03*
X0352373Y0016401D03*
X0352373Y0016501D03*
X0352373Y0016601D03*
X0352373Y0016701D03*
X0352373Y0016801D03*
X0352373Y0016901D03*
X0352373Y0017001D03*
X0352373Y0017101D03*
X0352373Y0017201D03*
X0352373Y0011501D03*
X0352373Y0011401D03*
X0352373Y0011301D03*
X0352373Y0011201D03*
X0352373Y0011101D03*
X0352373Y0011001D03*
X0352373Y0010901D03*
X0352373Y0010801D03*
X0352373Y0010701D03*
X0340273Y0010701D03*
X0340273Y0010801D03*
X0340273Y0010901D03*
X0340273Y0011001D03*
X0340273Y0011101D03*
X0340273Y0011201D03*
X0340273Y0011301D03*
X0340273Y0011401D03*
X0340273Y0011501D03*
X0340273Y0011601D03*
X0340273Y0011701D03*
X0340273Y0011801D03*
X0340273Y0011901D03*
X0340273Y0012001D03*
X0340273Y0012101D03*
X0340273Y0012201D03*
X0340273Y0012301D03*
X0340273Y0012401D03*
X0340273Y0012501D03*
X0340273Y0012601D03*
X0340273Y0012701D03*
X0340273Y0012801D03*
X0340273Y0012901D03*
X0340273Y0013001D03*
X0340273Y0013101D03*
X0340273Y0013201D03*
X0340273Y0013301D03*
X0340273Y0013401D03*
X0340273Y0013501D03*
X0340273Y0013601D03*
X0340273Y0013701D03*
X0340273Y0013801D03*
X0340273Y0013901D03*
X0340273Y0014001D03*
X0340273Y0014101D03*
X0340273Y0014201D03*
X0340273Y0014301D03*
X0340273Y0014401D03*
X0340273Y0014501D03*
X0340273Y0014601D03*
X0340273Y0014701D03*
X0340273Y0014801D03*
X0340273Y0014901D03*
X0340273Y0015001D03*
X0340273Y0015101D03*
X0340273Y0015201D03*
X0340273Y0015301D03*
X0340273Y0015401D03*
X0340273Y0015501D03*
X0340273Y0015601D03*
X0340273Y0015701D03*
X0340273Y0015801D03*
X0340273Y0015901D03*
X0340273Y0016001D03*
X0340273Y0016101D03*
X0340273Y0016201D03*
X0340273Y0016301D03*
X0340273Y0016401D03*
X0340273Y0016501D03*
X0340273Y0016601D03*
X0340273Y0016701D03*
X0340273Y0016801D03*
X0340273Y0016901D03*
X0340273Y0017001D03*
X0340273Y0017101D03*
X0340273Y0017201D03*
X0340273Y0017301D03*
X0340273Y0017401D03*
X0340273Y0017501D03*
X0340273Y0017601D03*
X0340273Y0017701D03*
X0340273Y0017801D03*
X0340273Y0017901D03*
X0340273Y0018001D03*
X0340273Y0018101D03*
X0340273Y0018201D03*
X0340273Y0018301D03*
X0340273Y0018401D03*
X0340273Y0018501D03*
X0340273Y0018601D03*
X0340273Y0018701D03*
X0340273Y0018801D03*
X0340273Y0018901D03*
X0340273Y0019001D03*
X0340273Y0019101D03*
X0340273Y0019201D03*
X0340273Y0019301D03*
X0340273Y0019401D03*
X0340273Y0019501D03*
X0340273Y0019601D03*
X0340273Y0019701D03*
X0340273Y0019801D03*
X0340273Y0019901D03*
X0340273Y0020001D03*
X0340273Y0020101D03*
X0340273Y0020201D03*
X0340273Y0020301D03*
X0340273Y0020401D03*
X0340273Y0020501D03*
X0340273Y0020601D03*
X0340273Y0020701D03*
X0340273Y0020801D03*
X0340273Y0020901D03*
X0340273Y0021001D03*
X0340273Y0021101D03*
X0340273Y0021201D03*
X0340273Y0021301D03*
X0340273Y0021401D03*
X0340273Y0021501D03*
X0340273Y0021601D03*
X0340273Y0021701D03*
X0340273Y0021801D03*
X0340273Y0021901D03*
X0340273Y0022001D03*
X0340273Y0022101D03*
X0340273Y0022201D03*
X0340273Y0022301D03*
X0340273Y0022401D03*
X0340273Y0022501D03*
X0340273Y0022601D03*
X0340273Y0022701D03*
X0340273Y0022801D03*
X0340273Y0022901D03*
X0340273Y0023001D03*
X0340273Y0023101D03*
X0340273Y0023201D03*
X0340273Y0023301D03*
X0340273Y0023401D03*
X0340273Y0023501D03*
X0340273Y0023601D03*
X0340273Y0023701D03*
X0340273Y0023801D03*
X0340273Y0023901D03*
X0340273Y0024001D03*
X0340273Y0024101D03*
X0340273Y0024201D03*
X0340273Y0024301D03*
X0340273Y0024401D03*
X0340273Y0024501D03*
X0340273Y0024601D03*
X0340273Y0024701D03*
X0340273Y0024801D03*
X0340273Y0024901D03*
X0340273Y0025001D03*
X0340273Y0025101D03*
X0340273Y0025201D03*
X0340273Y0025301D03*
X0340273Y0025401D03*
X0340273Y0025501D03*
X0340273Y0025601D03*
X0340273Y0025701D03*
X0340273Y0025801D03*
X0340273Y0025901D03*
X0340273Y0026001D03*
X0340273Y0026101D03*
X0340273Y0026201D03*
X0340273Y0026301D03*
X0340273Y0026401D03*
X0340273Y0026501D03*
X0340273Y0026601D03*
X0340273Y0026701D03*
X0340273Y0026801D03*
X0340273Y0026901D03*
X0340273Y0027001D03*
X0340273Y0027101D03*
X0340273Y0027201D03*
X0340273Y0027301D03*
X0340273Y0027401D03*
X0340273Y0027501D03*
X0340273Y0027601D03*
X0340273Y0027701D03*
X0340273Y0027801D03*
X0340273Y0027901D03*
X0340273Y0028001D03*
X0340273Y0028101D03*
X0340273Y0028201D03*
X0340273Y0028301D03*
X0340273Y0028401D03*
X0340273Y0028501D03*
X0340273Y0028601D03*
X0340273Y0028701D03*
X0340273Y0028801D03*
X0340273Y0028901D03*
X0340273Y0029001D03*
X0340273Y0029101D03*
X0340273Y0029201D03*
X0340273Y0029301D03*
X0340273Y0029401D03*
X0340273Y0029501D03*
X0340273Y0029601D03*
X0340273Y0029701D03*
X0340273Y0029801D03*
X0340273Y0029901D03*
X0340273Y0030001D03*
X0340273Y0030101D03*
X0340273Y0030201D03*
X0340273Y0030301D03*
X0340273Y0030401D03*
X0340273Y0030501D03*
X0340273Y0030601D03*
X0340273Y0030701D03*
X0340273Y0030801D03*
X0340273Y0030901D03*
X0340273Y0031001D03*
X0340273Y0031101D03*
X0340273Y0031201D03*
X0340273Y0031301D03*
X0340273Y0031401D03*
X0340273Y0031501D03*
X0340273Y0031601D03*
X0340273Y0031701D03*
X0340273Y0031801D03*
X0340273Y0031901D03*
X0340273Y0032001D03*
X0340273Y0032101D03*
X0340273Y0032201D03*
X0340273Y0032301D03*
X0340273Y0032401D03*
X0340273Y0032501D03*
X0340273Y0032601D03*
X0340273Y0032701D03*
X0340273Y0032801D03*
X0340273Y0032901D03*
X0340273Y0033001D03*
X0340273Y0033101D03*
X0340273Y0033201D03*
X0340273Y0033301D03*
X0340273Y0033801D03*
X0340273Y0033901D03*
X0340273Y0034001D03*
X0340273Y0034101D03*
X0340273Y0034201D03*
X0340273Y0034301D03*
X0340273Y0034401D03*
X0340273Y0034501D03*
X0340273Y0034601D03*
X0340273Y0034701D03*
X0340273Y0034801D03*
X0340273Y0034901D03*
X0340273Y0035001D03*
X0340273Y0035101D03*
X0340273Y0035201D03*
X0340273Y0035301D03*
X0340273Y0035401D03*
X0340273Y0035501D03*
X0340273Y0035601D03*
X0340273Y0035701D03*
X0340273Y0035801D03*
X0340273Y0035901D03*
X0340273Y0036001D03*
X0340273Y0036101D03*
X0340273Y0036201D03*
X0340273Y0036301D03*
X0340273Y0036401D03*
X0340273Y0036501D03*
X0340273Y0036601D03*
X0340273Y0036701D03*
X0340273Y0036801D03*
X0340273Y0036901D03*
X0340273Y0037001D03*
X0340273Y0037101D03*
X0340273Y0037201D03*
X0340273Y0037301D03*
X0340273Y0037401D03*
X0340273Y0037501D03*
X0340273Y0037601D03*
X0340273Y0037701D03*
X0340273Y0037801D03*
X0340273Y0037901D03*
X0340273Y0038001D03*
X0340273Y0038101D03*
X0340273Y0038201D03*
X0340273Y0038301D03*
X0340273Y0038401D03*
X0340273Y0038501D03*
X0340273Y0038601D03*
X0340273Y0038701D03*
X0340273Y0038801D03*
X0340273Y0038901D03*
X0340273Y0039001D03*
X0340273Y0039101D03*
X0340273Y0039201D03*
X0340273Y0039301D03*
X0340273Y0039401D03*
X0340273Y0039501D03*
X0340273Y0039601D03*
X0340273Y0039701D03*
X0340273Y0039801D03*
X0340273Y0039901D03*
X0340273Y0040001D03*
X0340273Y0040101D03*
X0340273Y0040201D03*
X0340273Y0040301D03*
X0340273Y0040401D03*
X0340273Y0040501D03*
X0340273Y0040601D03*
X0340273Y0040701D03*
X0340273Y0040801D03*
X0340273Y0040901D03*
X0340273Y0041001D03*
X0340273Y0041101D03*
X0340273Y0041201D03*
X0340273Y0041301D03*
X0340273Y0041401D03*
X0340273Y0041501D03*
X0340273Y0041601D03*
X0340273Y0041701D03*
X0340273Y0041801D03*
X0340273Y0041901D03*
X0340273Y0042001D03*
X0340273Y0042101D03*
X0340273Y0042201D03*
X0340273Y0042301D03*
X0340273Y0042401D03*
X0340273Y0042501D03*
X0340273Y0042601D03*
X0340273Y0042701D03*
X0340273Y0042801D03*
X0340273Y0042901D03*
X0340273Y0043001D03*
X0340273Y0043101D03*
X0340273Y0043201D03*
X0340273Y0043301D03*
X0340273Y0043401D03*
X0340273Y0043501D03*
X0340273Y0043601D03*
X0340273Y0043701D03*
X0340273Y0043801D03*
X0340273Y0043901D03*
X0340273Y0044001D03*
X0340273Y0044101D03*
X0340273Y0044201D03*
X0340273Y0044301D03*
X0340273Y0044401D03*
X0340273Y0044501D03*
X0340273Y0044601D03*
X0340273Y0044701D03*
X0340273Y0044801D03*
X0340273Y0044901D03*
X0340273Y0045001D03*
X0340273Y0045101D03*
X0340273Y0045201D03*
X0340273Y0045301D03*
X0340273Y0045401D03*
X0340273Y0045501D03*
X0340273Y0045601D03*
X0340273Y0045701D03*
X0340273Y0045801D03*
X0340273Y0045901D03*
X0340273Y0046001D03*
X0340273Y0046101D03*
X0340273Y0046201D03*
X0340273Y0046301D03*
X0340273Y0046401D03*
X0340273Y0046501D03*
X0340273Y0046601D03*
X0340273Y0046701D03*
X0340273Y0046801D03*
X0340273Y0046901D03*
X0340273Y0047001D03*
X0340273Y0047101D03*
X0340273Y0047201D03*
X0340273Y0047301D03*
X0340273Y0047401D03*
X0340273Y0047501D03*
X0340273Y0047601D03*
X0340273Y0047701D03*
X0340273Y0047801D03*
X0340273Y0047901D03*
X0340273Y0048001D03*
X0340273Y0048101D03*
X0340273Y0048201D03*
X0340273Y0048301D03*
X0340273Y0048401D03*
X0340273Y0048501D03*
X0340273Y0048601D03*
X0340273Y0048701D03*
X0340273Y0048801D03*
X0340273Y0048901D03*
X0340273Y0049001D03*
X0340273Y0049101D03*
X0340273Y0049201D03*
X0340273Y0049301D03*
X0340273Y0049401D03*
X0340273Y0049501D03*
X0340273Y0049601D03*
X0340273Y0049701D03*
X0340273Y0049801D03*
X0340273Y0049901D03*
X0340273Y0050001D03*
X0340273Y0050101D03*
X0340273Y0050201D03*
X0340273Y0050301D03*
X0340273Y0050401D03*
X0340273Y0050501D03*
X0340273Y0050601D03*
X0340273Y0050701D03*
X0340273Y0050801D03*
X0340273Y0050901D03*
X0340273Y0051001D03*
X0340273Y0051101D03*
X0340273Y0051201D03*
X0340273Y0051301D03*
X0340273Y0051401D03*
X0340273Y0051501D03*
X0340273Y0051601D03*
X0340273Y0051701D03*
X0340273Y0051801D03*
X0340273Y0051901D03*
X0340273Y0052001D03*
X0340273Y0052101D03*
X0340273Y0052201D03*
X0340273Y0052301D03*
X0340273Y0052401D03*
X0340273Y0052501D03*
X0340273Y0052601D03*
X0340273Y0052701D03*
X0340273Y0052801D03*
X0340273Y0052901D03*
X0340273Y0053001D03*
X0340273Y0053101D03*
X0340273Y0053201D03*
X0340273Y0053301D03*
X0340273Y0053401D03*
X0340273Y0053501D03*
X0340273Y0053601D03*
X0340273Y0053701D03*
X0340273Y0053801D03*
X0340273Y0053901D03*
X0340273Y0054001D03*
X0340273Y0054101D03*
X0340273Y0054201D03*
X0340273Y0054301D03*
X0340273Y0054401D03*
X0340273Y0054501D03*
X0340273Y0054601D03*
X0340273Y0054701D03*
X0340273Y0054801D03*
X0340273Y0054901D03*
X0340273Y0055001D03*
X0340273Y0055101D03*
X0340273Y0055201D03*
X0340273Y0055301D03*
X0340273Y0055401D03*
X0340273Y0055501D03*
X0340273Y0055601D03*
X0340273Y0055701D03*
X0340273Y0055801D03*
X0340273Y0055901D03*
X0340273Y0056001D03*
X0340273Y0056101D03*
X0340273Y0056201D03*
X0340273Y0056301D03*
X0340273Y0056401D03*
X0340273Y0056501D03*
X0340273Y0056601D03*
X0340273Y0056701D03*
X0340273Y0056801D03*
X0340273Y0056901D03*
X0340273Y0057001D03*
X0340273Y0057101D03*
X0340273Y0057201D03*
X0340273Y0057301D03*
X0340273Y0057401D03*
X0340273Y0057501D03*
X0340273Y0057601D03*
X0340273Y0057701D03*
X0340273Y0057801D03*
X0340273Y0057901D03*
X0340273Y0058001D03*
X0340273Y0058101D03*
X0340273Y0058201D03*
X0340273Y0058301D03*
X0340273Y0058401D03*
X0340273Y0058501D03*
X0340273Y0058601D03*
X0340273Y0058701D03*
X0340273Y0058801D03*
X0340273Y0058901D03*
X0340273Y0059001D03*
X0340273Y0059101D03*
X0340273Y0059201D03*
X0340273Y0059301D03*
X0340273Y0059401D03*
X0340273Y0059501D03*
X0340273Y0059601D03*
X0340273Y0059701D03*
X0340273Y0059801D03*
X0340273Y0059901D03*
X0340273Y0060001D03*
X0344973Y0042701D03*
X0344973Y0042601D03*
X0344973Y0041001D03*
X0344973Y0040901D03*
X0344973Y0040801D03*
X0344973Y0040701D03*
X0344973Y0040601D03*
X0344973Y0040501D03*
X0344973Y0040401D03*
X0344973Y0040301D03*
X0344973Y0040201D03*
X0344973Y0040101D03*
X0344973Y0040001D03*
X0344973Y0039901D03*
X0344973Y0039801D03*
X0344973Y0039701D03*
X0344973Y0039601D03*
X0344973Y0039501D03*
X0344973Y0039401D03*
X0344973Y0039301D03*
X0344973Y0039201D03*
X0344973Y0039101D03*
X0344973Y0039001D03*
X0344973Y0038901D03*
X0344973Y0038801D03*
X0344973Y0038701D03*
X0344973Y0038601D03*
X0344973Y0038501D03*
X0344973Y0038401D03*
X0344973Y0038301D03*
X0344973Y0038201D03*
X0344973Y0038101D03*
X0344973Y0038001D03*
X0344973Y0037901D03*
X0344973Y0037801D03*
X0344973Y0037701D03*
X0344973Y0037601D03*
X0344973Y0037501D03*
X0344973Y0037401D03*
X0344973Y0037301D03*
X0344973Y0037201D03*
X0344973Y0037101D03*
X0344973Y0037001D03*
X0344973Y0036901D03*
X0344973Y0036801D03*
X0344973Y0036701D03*
X0344973Y0036601D03*
X0347573Y0038301D03*
X0347273Y0038801D03*
X0347073Y0039101D03*
X0346773Y0039601D03*
X0346473Y0040101D03*
X0346173Y0040601D03*
X0341173Y0033301D03*
X0341273Y0033101D03*
X0341373Y0033001D03*
X0341473Y0032901D03*
X0341573Y0032701D03*
X0341673Y0032601D03*
X0341773Y0032401D03*
X0341773Y0032301D03*
X0372473Y0015101D03*
X0372473Y0015001D03*
X0372473Y0014901D03*
X0372473Y0014801D03*
X0372473Y0014701D03*
X0372473Y0014601D03*
X0372473Y0014501D03*
X0372473Y0014401D03*
X0372473Y0014301D03*
X0372473Y0014201D03*
X0372473Y0014101D03*
X0372473Y0014001D03*
X0372473Y0013901D03*
X0372473Y0013801D03*
X0372473Y0013701D03*
X0372473Y0013601D03*
X0372473Y0013501D03*
X0372473Y0013401D03*
X0372473Y0013301D03*
X0372473Y0013201D03*
X0372473Y0013101D03*
X0372473Y0013001D03*
X0372473Y0012901D03*
X0372473Y0012801D03*
X0372473Y0012701D03*
X0372473Y0012601D03*
X0372473Y0012501D03*
X0372473Y0012401D03*
X0372473Y0012301D03*
X0372473Y0012201D03*
X0372473Y0012101D03*
X0372473Y0012001D03*
X0372473Y0011901D03*
X0372473Y0011801D03*
X0372473Y0011701D03*
X0372473Y0011601D03*
X0372473Y0011501D03*
X0372473Y0011401D03*
X0372473Y0011301D03*
X0372473Y0011201D03*
X0372473Y0011101D03*
X0372473Y0011001D03*
X0372473Y0010901D03*
X0372473Y0010801D03*
X0375673Y0013901D03*
D51*
X0364223Y0015901D03*
X0360823Y0010701D03*
X0355923Y0013601D03*
X0363423Y0026501D03*
X0371323Y0034401D03*
X0368923Y0038201D03*
X0369023Y0038301D03*
X0369223Y0038401D03*
X0369323Y0038501D03*
X0369523Y0038601D03*
X0371523Y0039601D03*
X0364323Y0041701D03*
X0382623Y0032601D03*
D52*
X0382723Y0032401D03*
X0382723Y0032301D03*
X0371223Y0034301D03*
X0363523Y0026701D03*
X0360823Y0032901D03*
X0357823Y0042001D03*
X0357423Y0041901D03*
X0356723Y0041701D03*
X0356323Y0041601D03*
X0346223Y0031901D03*
X0355823Y0013501D03*
X0360923Y0010801D03*
X0364023Y0015701D03*
X0374323Y0021401D03*
D53*
X0375523Y0022601D03*
X0375623Y0023701D03*
X0375623Y0023801D03*
X0375623Y0023901D03*
X0375623Y0024001D03*
X0371423Y0024301D03*
X0372023Y0030601D03*
X0371823Y0033101D03*
X0370323Y0037501D03*
X0370223Y0037601D03*
X0370223Y0037701D03*
X0370223Y0037801D03*
X0370223Y0037901D03*
X0372923Y0038001D03*
X0372423Y0041001D03*
X0366623Y0043401D03*
X0366523Y0043501D03*
X0366423Y0043701D03*
X0366323Y0043901D03*
X0366223Y0044101D03*
X0366123Y0044201D03*
X0366023Y0044401D03*
X0365923Y0044601D03*
X0365823Y0044801D03*
X0365723Y0044901D03*
X0365623Y0045101D03*
X0365523Y0045301D03*
X0365423Y0045401D03*
X0365423Y0045501D03*
X0365323Y0045601D03*
X0365223Y0045801D03*
X0365123Y0046001D03*
X0365023Y0046101D03*
X0364923Y0046301D03*
X0364823Y0046501D03*
X0364723Y0046701D03*
X0364623Y0046801D03*
X0364523Y0047001D03*
X0364423Y0047201D03*
X0364323Y0047301D03*
X0364323Y0047401D03*
X0364223Y0047501D03*
X0364123Y0047701D03*
X0364023Y0047801D03*
X0364023Y0047901D03*
X0363923Y0048001D03*
X0363923Y0048101D03*
X0363823Y0048201D03*
X0363723Y0048401D03*
X0363623Y0048501D03*
X0363623Y0048601D03*
X0363523Y0048701D03*
X0363523Y0048801D03*
X0363423Y0048901D03*
X0363323Y0049001D03*
X0363323Y0049101D03*
X0363223Y0049201D03*
X0363223Y0049301D03*
X0363123Y0049401D03*
X0363023Y0049601D03*
X0362923Y0049701D03*
X0362923Y0049801D03*
X0362823Y0049901D03*
X0362723Y0050101D03*
X0362623Y0050301D03*
X0362523Y0050401D03*
X0362523Y0050501D03*
X0362423Y0050601D03*
X0362323Y0050801D03*
X0362223Y0051001D03*
X0362123Y0051101D03*
X0362023Y0051301D03*
X0361923Y0051501D03*
X0361723Y0051801D03*
X0361623Y0052001D03*
X0361323Y0052501D03*
X0355423Y0048901D03*
X0355023Y0049601D03*
X0354723Y0050101D03*
X0354623Y0050301D03*
X0354323Y0050801D03*
X0354223Y0051001D03*
X0354023Y0051301D03*
X0353923Y0051501D03*
X0353623Y0052001D03*
X0353523Y0052201D03*
X0353323Y0052501D03*
X0353223Y0052701D03*
X0353123Y0052901D03*
X0352923Y0053201D03*
X0352823Y0053401D03*
X0352723Y0053601D03*
X0352623Y0053701D03*
X0352523Y0053901D03*
X0352423Y0054101D03*
X0352223Y0054401D03*
X0352123Y0054601D03*
X0352023Y0054801D03*
X0351923Y0054901D03*
X0351823Y0055101D03*
X0351723Y0055301D03*
X0351623Y0055501D03*
X0351523Y0055601D03*
X0351423Y0055801D03*
X0351323Y0056001D03*
X0351223Y0056101D03*
X0351223Y0056201D03*
X0351123Y0056301D03*
X0351023Y0056501D03*
X0350923Y0056701D03*
X0350823Y0056801D03*
X0350723Y0057001D03*
X0350623Y0057201D03*
X0350523Y0057301D03*
X0350523Y0057401D03*
X0350423Y0057501D03*
X0350323Y0057701D03*
X0350223Y0057901D03*
X0350123Y0058001D03*
X0350123Y0058101D03*
X0350023Y0058201D03*
X0349923Y0058401D03*
X0349823Y0058501D03*
X0349823Y0058601D03*
X0349723Y0058701D03*
X0349723Y0058801D03*
X0349623Y0058901D03*
X0349523Y0059101D03*
X0349423Y0059201D03*
X0349423Y0059301D03*
X0349323Y0059401D03*
X0349223Y0059601D03*
X0349123Y0059701D03*
X0349123Y0059801D03*
X0349023Y0059901D03*
X0349023Y0060001D03*
X0356123Y0047701D03*
X0350723Y0039801D03*
X0350423Y0039501D03*
X0348723Y0038301D03*
X0348723Y0038201D03*
X0347623Y0038201D03*
X0347523Y0038401D03*
X0347423Y0038501D03*
X0347423Y0038601D03*
X0347323Y0038701D03*
X0347223Y0038901D03*
X0347123Y0039001D03*
X0347023Y0039201D03*
X0346923Y0039301D03*
X0346923Y0039401D03*
X0346823Y0039501D03*
X0346723Y0039701D03*
X0346623Y0039801D03*
X0346623Y0039901D03*
X0346523Y0040001D03*
X0346423Y0040201D03*
X0346323Y0040301D03*
X0346323Y0040401D03*
X0346223Y0040501D03*
X0346123Y0040701D03*
X0346023Y0040801D03*
X0346023Y0040901D03*
X0345923Y0041001D03*
X0345023Y0042501D03*
X0341723Y0032201D03*
X0341623Y0032101D03*
X0341623Y0032001D03*
X0341623Y0031901D03*
X0341623Y0031801D03*
X0341523Y0031701D03*
X0341523Y0031601D03*
X0341523Y0031501D03*
X0341523Y0031401D03*
X0341423Y0031301D03*
X0344923Y0029901D03*
X0345023Y0029701D03*
X0345323Y0029201D03*
X0345423Y0029001D03*
X0345623Y0028701D03*
X0345723Y0028501D03*
X0345923Y0028201D03*
X0346023Y0028001D03*
X0346323Y0027501D03*
X0346623Y0027001D03*
X0346723Y0026801D03*
X0346923Y0026501D03*
X0347023Y0026301D03*
X0347223Y0026001D03*
X0347323Y0025801D03*
X0347523Y0025501D03*
X0347623Y0025301D03*
X0347823Y0025001D03*
X0347923Y0024801D03*
X0348023Y0024601D03*
X0348223Y0024301D03*
X0348323Y0024101D03*
X0348523Y0023801D03*
X0348623Y0023601D03*
X0348823Y0023301D03*
X0348923Y0023101D03*
X0349123Y0022801D03*
X0349223Y0022601D03*
X0349423Y0022301D03*
X0349523Y0022101D03*
X0349623Y0021901D03*
X0349823Y0021601D03*
X0349923Y0021401D03*
X0350123Y0021101D03*
X0350223Y0020901D03*
X0350423Y0020601D03*
X0350523Y0020401D03*
X0350723Y0020101D03*
X0350823Y0019901D03*
X0350923Y0019701D03*
X0351023Y0019601D03*
X0351123Y0019401D03*
X0351223Y0019201D03*
X0351323Y0019101D03*
X0351423Y0018901D03*
X0351523Y0018701D03*
X0351723Y0018401D03*
X0351823Y0018201D03*
X0352023Y0017901D03*
X0352123Y0017701D03*
X0352223Y0017501D03*
X0352323Y0017401D03*
X0352323Y0017301D03*
X0354523Y0011701D03*
X0360923Y0011701D03*
X0362623Y0013601D03*
X0363523Y0012001D03*
X0363523Y0011901D03*
X0363623Y0011801D03*
X0363723Y0011601D03*
X0363823Y0011501D03*
X0363823Y0011401D03*
X0363923Y0011301D03*
X0364023Y0011101D03*
X0364123Y0011001D03*
X0364123Y0010901D03*
X0364223Y0010801D03*
X0364723Y0013301D03*
X0364823Y0013401D03*
X0365223Y0013701D03*
X0365323Y0013801D03*
X0365423Y0013901D03*
X0365723Y0014101D03*
X0365823Y0014201D03*
X0366123Y0014401D03*
X0367523Y0014401D03*
X0367523Y0014501D03*
X0367523Y0014601D03*
X0367523Y0014301D03*
X0367523Y0014201D03*
X0367523Y0014101D03*
X0367523Y0014001D03*
X0367523Y0013901D03*
X0367623Y0013701D03*
X0367623Y0013601D03*
X0367623Y0013501D03*
X0367623Y0013401D03*
X0367723Y0013201D03*
X0367723Y0013101D03*
X0368223Y0012101D03*
X0368923Y0012901D03*
X0369023Y0013001D03*
X0369123Y0013101D03*
X0369223Y0013201D03*
X0369323Y0013301D03*
X0369423Y0013401D03*
X0370123Y0014201D03*
X0369323Y0015401D03*
X0369423Y0015501D03*
X0367423Y0015301D03*
X0372423Y0015901D03*
X0375223Y0016701D03*
X0375723Y0013801D03*
X0376123Y0031001D03*
X0377123Y0033401D03*
X0384023Y0032701D03*
X0366323Y0030201D03*
X0364723Y0029501D03*
X0364623Y0031401D03*
X0362123Y0034301D03*
D54*
X0364723Y0034601D03*
X0365823Y0033101D03*
X0364823Y0032201D03*
X0362323Y0030801D03*
X0363823Y0027801D03*
X0367523Y0036201D03*
X0367623Y0042801D03*
X0375423Y0036901D03*
X0375423Y0035901D03*
X0375423Y0035801D03*
X0375423Y0035701D03*
X0375423Y0035601D03*
X0375423Y0035501D03*
X0375623Y0034701D03*
X0380023Y0035801D03*
X0381323Y0035201D03*
X0381523Y0035101D03*
X0380823Y0033701D03*
X0380923Y0033601D03*
X0380623Y0033801D03*
X0380523Y0031001D03*
X0380523Y0030901D03*
X0383323Y0035801D03*
X0376423Y0012501D03*
X0360423Y0010901D03*
X0355223Y0012601D03*
X0345723Y0036501D03*
D55*
X0348673Y0038401D03*
X0345073Y0042301D03*
X0345073Y0042401D03*
X0353973Y0051401D03*
X0353873Y0051601D03*
X0353773Y0051701D03*
X0353773Y0051801D03*
X0353673Y0051901D03*
X0353573Y0052101D03*
X0353473Y0052301D03*
X0353373Y0052401D03*
X0353273Y0052601D03*
X0353173Y0052801D03*
X0353073Y0053001D03*
X0352973Y0053101D03*
X0352873Y0053301D03*
X0352773Y0053501D03*
X0352573Y0053801D03*
X0352473Y0054001D03*
X0352373Y0054201D03*
X0352273Y0054301D03*
X0352173Y0054501D03*
X0352073Y0054701D03*
X0351873Y0055001D03*
X0351773Y0055201D03*
X0351673Y0055401D03*
X0351473Y0055701D03*
X0351373Y0055901D03*
X0351073Y0056401D03*
X0350973Y0056601D03*
X0350773Y0056901D03*
X0350673Y0057101D03*
X0350373Y0057601D03*
X0350273Y0057801D03*
X0349973Y0058301D03*
X0349573Y0059001D03*
X0349273Y0059501D03*
X0354073Y0051201D03*
X0354173Y0051101D03*
X0354273Y0050901D03*
X0354373Y0050701D03*
X0354473Y0050601D03*
X0354473Y0050501D03*
X0354573Y0050401D03*
X0354673Y0050201D03*
X0354773Y0050001D03*
X0354873Y0049901D03*
X0354873Y0049801D03*
X0354973Y0049701D03*
X0355073Y0049501D03*
X0355173Y0049401D03*
X0355173Y0049301D03*
X0355273Y0049201D03*
X0355273Y0049101D03*
X0355373Y0049001D03*
X0355473Y0048801D03*
X0355573Y0048701D03*
X0355573Y0048601D03*
X0355673Y0048501D03*
X0355673Y0048401D03*
X0355773Y0048301D03*
X0355873Y0048201D03*
X0355873Y0048101D03*
X0355973Y0048001D03*
X0355973Y0047901D03*
X0356073Y0047801D03*
X0356173Y0047601D03*
X0356273Y0047501D03*
X0356273Y0047401D03*
X0356373Y0047301D03*
X0356373Y0047201D03*
X0356473Y0047101D03*
X0356573Y0047001D03*
X0356573Y0046901D03*
X0356673Y0046801D03*
X0356673Y0046701D03*
X0356773Y0046601D03*
X0356773Y0046501D03*
X0356873Y0046401D03*
X0356973Y0046301D03*
X0356973Y0046201D03*
X0357073Y0046101D03*
X0357073Y0046001D03*
X0357173Y0045901D03*
X0357273Y0045701D03*
X0357373Y0045601D03*
X0357373Y0045501D03*
X0357473Y0045401D03*
X0357473Y0045301D03*
X0357573Y0045201D03*
X0357673Y0045101D03*
X0357673Y0045001D03*
X0357773Y0044901D03*
X0357773Y0044801D03*
X0357873Y0044701D03*
X0357973Y0044501D03*
X0358073Y0044401D03*
X0358073Y0044301D03*
X0358173Y0044201D03*
X0358173Y0044101D03*
X0358273Y0044001D03*
X0358373Y0043801D03*
X0358473Y0043701D03*
X0358473Y0043601D03*
X0358573Y0043501D03*
X0358673Y0043301D03*
X0358773Y0043101D03*
X0358873Y0043001D03*
X0358873Y0042901D03*
X0358973Y0042801D03*
X0361773Y0042701D03*
X0365673Y0045001D03*
X0365573Y0045201D03*
X0365273Y0045701D03*
X0365173Y0045901D03*
X0364973Y0046201D03*
X0364873Y0046401D03*
X0364773Y0046601D03*
X0364573Y0046901D03*
X0364473Y0047101D03*
X0364173Y0047601D03*
X0363773Y0048301D03*
X0365873Y0044701D03*
X0365973Y0044501D03*
X0366073Y0044301D03*
X0366273Y0044001D03*
X0366373Y0043801D03*
X0366473Y0043601D03*
X0366673Y0043301D03*
X0366773Y0043201D03*
X0370373Y0037401D03*
X0368173Y0034701D03*
X0363973Y0033801D03*
X0362473Y0031401D03*
X0371973Y0030701D03*
X0376173Y0031101D03*
X0376173Y0031201D03*
X0376073Y0032901D03*
X0379773Y0034601D03*
X0383973Y0034901D03*
X0383973Y0032801D03*
X0375573Y0023601D03*
X0375573Y0023501D03*
X0375573Y0023401D03*
X0375473Y0022701D03*
X0371373Y0023901D03*
X0371373Y0024001D03*
X0371373Y0024101D03*
X0371373Y0024201D03*
X0375173Y0016801D03*
X0375773Y0013701D03*
X0370973Y0014901D03*
X0370673Y0014701D03*
X0370573Y0014601D03*
X0370473Y0014501D03*
X0370373Y0014401D03*
X0370273Y0014301D03*
X0370073Y0014101D03*
X0369973Y0014001D03*
X0369873Y0013901D03*
X0369773Y0013801D03*
X0369673Y0013701D03*
X0369573Y0013601D03*
X0369473Y0013501D03*
X0368273Y0012201D03*
X0366473Y0014601D03*
X0366273Y0014501D03*
X0365973Y0014301D03*
X0365573Y0014001D03*
X0365073Y0013601D03*
X0364973Y0013501D03*
X0364573Y0013201D03*
X0364473Y0013101D03*
X0364373Y0013001D03*
X0364273Y0012901D03*
X0364173Y0012801D03*
X0363973Y0012701D03*
X0363873Y0012601D03*
X0363773Y0012501D03*
X0363673Y0012401D03*
X0363573Y0012301D03*
X0363473Y0012201D03*
X0363473Y0012101D03*
X0362173Y0010901D03*
X0362673Y0013701D03*
X0369473Y0015601D03*
X0352173Y0017601D03*
X0352073Y0017801D03*
X0351973Y0018001D03*
X0351873Y0018101D03*
X0351773Y0018301D03*
X0351673Y0018501D03*
X0351573Y0018601D03*
X0351473Y0018801D03*
X0351373Y0019001D03*
X0351173Y0019301D03*
X0351073Y0019501D03*
X0350873Y0019801D03*
X0350773Y0020001D03*
X0350673Y0020201D03*
X0350573Y0020301D03*
X0350473Y0020501D03*
X0350373Y0020701D03*
X0350273Y0020801D03*
X0350173Y0021001D03*
X0350073Y0021201D03*
X0349973Y0021301D03*
X0349873Y0021501D03*
X0349773Y0021701D03*
X0349673Y0021801D03*
X0349573Y0022001D03*
X0349473Y0022201D03*
X0349373Y0022401D03*
X0349273Y0022501D03*
X0349173Y0022701D03*
X0349073Y0022901D03*
X0348973Y0023001D03*
X0348873Y0023201D03*
X0348773Y0023401D03*
X0348673Y0023501D03*
X0348573Y0023701D03*
X0348473Y0023901D03*
X0348373Y0024001D03*
X0348273Y0024201D03*
X0348173Y0024401D03*
X0348073Y0024501D03*
X0347973Y0024701D03*
X0347873Y0024901D03*
X0347773Y0025101D03*
X0347673Y0025201D03*
X0347573Y0025401D03*
X0347473Y0025601D03*
X0347373Y0025701D03*
X0347273Y0025901D03*
X0347173Y0026101D03*
X0347073Y0026201D03*
X0346973Y0026401D03*
X0346873Y0026601D03*
X0346773Y0026701D03*
X0346673Y0026901D03*
X0346573Y0027101D03*
X0346473Y0027201D03*
X0346473Y0027301D03*
X0346373Y0027401D03*
X0346273Y0027601D03*
X0346173Y0027701D03*
X0346173Y0027801D03*
X0346073Y0027901D03*
X0345973Y0028101D03*
X0345873Y0028301D03*
X0345773Y0028401D03*
X0345673Y0028601D03*
X0345573Y0028801D03*
X0345473Y0028901D03*
X0345373Y0029101D03*
X0345273Y0029301D03*
X0345173Y0029401D03*
X0345173Y0029501D03*
X0345073Y0029601D03*
X0344973Y0029801D03*
X0344873Y0030001D03*
D56*
X0340923Y0033701D03*
X0345623Y0036401D03*
X0349123Y0038701D03*
X0351223Y0040101D03*
X0358623Y0042401D03*
X0364323Y0041901D03*
X0365923Y0039101D03*
X0365623Y0038901D03*
X0365323Y0038701D03*
X0367923Y0036401D03*
X0366223Y0033401D03*
X0364823Y0032101D03*
X0366323Y0030401D03*
X0363923Y0028001D03*
X0362323Y0030901D03*
X0361423Y0033701D03*
X0364623Y0034501D03*
X0367423Y0042901D03*
X0375423Y0037501D03*
X0375423Y0037401D03*
X0375423Y0037301D03*
X0375423Y0037201D03*
X0375723Y0034501D03*
X0380523Y0031101D03*
X0382423Y0034601D03*
X0382623Y0034501D03*
X0382923Y0034301D03*
X0383223Y0034101D03*
X0383423Y0033901D03*
X0374723Y0021601D03*
X0370123Y0016501D03*
X0371823Y0015201D03*
X0376323Y0012601D03*
X0363223Y0014601D03*
X0360523Y0011001D03*
X0355123Y0012501D03*
D57*
X0360523Y0011101D03*
X0363123Y0014401D03*
X0368323Y0012801D03*
X0371923Y0015301D03*
X0364023Y0028201D03*
X0364023Y0028301D03*
X0364123Y0028401D03*
X0364723Y0032001D03*
X0364423Y0034301D03*
X0364523Y0034401D03*
X0366623Y0033701D03*
X0366823Y0033801D03*
X0372723Y0037301D03*
X0375823Y0034301D03*
X0379723Y0036001D03*
X0380323Y0034101D03*
X0380423Y0031401D03*
X0380423Y0031301D03*
X0383523Y0033801D03*
X0361523Y0033801D03*
X0348323Y0037901D03*
X0348223Y0038101D03*
X0345523Y0036301D03*
X0341923Y0031101D03*
D58*
X0347173Y0031701D03*
X0350573Y0039601D03*
X0350573Y0039701D03*
X0344873Y0042901D03*
X0344873Y0043001D03*
X0360573Y0053901D03*
X0360573Y0054001D03*
X0360573Y0054101D03*
X0360573Y0054201D03*
X0360573Y0054301D03*
X0360573Y0054401D03*
X0360573Y0054501D03*
X0360573Y0054601D03*
X0360573Y0054701D03*
X0360573Y0054801D03*
X0360573Y0054901D03*
X0360573Y0055001D03*
X0360573Y0055101D03*
X0360573Y0055201D03*
X0360573Y0055301D03*
X0360573Y0055401D03*
X0360573Y0055501D03*
X0360573Y0055601D03*
X0360573Y0055701D03*
X0360573Y0055801D03*
X0360573Y0055901D03*
X0360573Y0056001D03*
X0360573Y0056101D03*
X0360573Y0056201D03*
X0360573Y0056301D03*
X0360573Y0056401D03*
X0360573Y0056501D03*
X0360573Y0056601D03*
X0360573Y0056701D03*
X0360573Y0056801D03*
X0360573Y0056901D03*
X0360573Y0057001D03*
X0360573Y0057101D03*
X0360573Y0057201D03*
X0360573Y0057301D03*
X0360573Y0057401D03*
X0360573Y0057501D03*
X0360573Y0057601D03*
X0360573Y0057701D03*
X0360573Y0057801D03*
X0360573Y0057901D03*
X0360573Y0058001D03*
X0360573Y0058101D03*
X0360573Y0058201D03*
X0360573Y0058301D03*
X0360573Y0058401D03*
X0360573Y0058501D03*
X0360573Y0058601D03*
X0360573Y0058701D03*
X0360573Y0058801D03*
X0360573Y0058901D03*
X0360573Y0059001D03*
X0360573Y0059101D03*
X0360573Y0059201D03*
X0360573Y0059301D03*
X0360573Y0059401D03*
X0360573Y0059501D03*
X0360573Y0059601D03*
X0360573Y0059701D03*
X0360573Y0059801D03*
X0360573Y0059901D03*
X0360573Y0060001D03*
X0372573Y0040901D03*
X0372873Y0038101D03*
X0377173Y0033301D03*
X0376073Y0030601D03*
X0372173Y0030301D03*
X0371473Y0024601D03*
X0375573Y0024701D03*
X0374873Y0021701D03*
X0375273Y0016601D03*
X0375573Y0014101D03*
X0372573Y0016001D03*
X0369173Y0015201D03*
X0367573Y0015501D03*
X0362473Y0013401D03*
X0362173Y0011101D03*
X0362573Y0031601D03*
X0363773Y0033601D03*
X0365773Y0036901D03*
X0380273Y0032301D03*
X0384173Y0034601D03*
D59*
X0384373Y0034301D03*
X0379973Y0032701D03*
X0379873Y0032801D03*
X0379273Y0034901D03*
X0377573Y0034801D03*
X0377273Y0033001D03*
X0375873Y0030101D03*
X0372473Y0029801D03*
X0375573Y0025001D03*
X0375473Y0016201D03*
X0375473Y0016101D03*
X0375373Y0014401D03*
X0369073Y0014901D03*
X0368173Y0011801D03*
X0362273Y0011401D03*
X0362373Y0013101D03*
X0354173Y0011201D03*
X0364573Y0031101D03*
X0362573Y0034601D03*
X0365373Y0036701D03*
X0344673Y0043601D03*
X0344673Y0043701D03*
D60*
X0345423Y0041201D03*
X0345423Y0041101D03*
X0350123Y0039301D03*
X0351023Y0040001D03*
X0358823Y0042501D03*
X0367223Y0043001D03*
X0367123Y0034001D03*
X0364323Y0034201D03*
X0361623Y0033901D03*
X0364223Y0028601D03*
X0371723Y0031801D03*
X0375923Y0034201D03*
X0379523Y0036101D03*
X0383623Y0035401D03*
X0383623Y0033601D03*
X0369923Y0016201D03*
X0372023Y0015501D03*
X0368323Y0012701D03*
X0368323Y0012601D03*
X0367023Y0014801D03*
X0362923Y0014201D03*
X0360623Y0011201D03*
X0354923Y0012201D03*
X0376123Y0012901D03*
D61*
X0375323Y0016501D03*
X0375623Y0022501D03*
X0375623Y0024801D03*
X0371423Y0024701D03*
X0372223Y0030201D03*
X0376023Y0030501D03*
X0377223Y0033201D03*
X0377323Y0035301D03*
X0378723Y0036401D03*
X0379423Y0034801D03*
X0380123Y0032401D03*
X0384223Y0034501D03*
X0374923Y0038101D03*
X0365223Y0042901D03*
X0361523Y0042601D03*
X0362423Y0034501D03*
X0363723Y0033501D03*
X0364723Y0029701D03*
X0369123Y0015101D03*
X0362423Y0013301D03*
X0361023Y0011901D03*
X0362223Y0011201D03*
X0354323Y0011401D03*
X0344823Y0043101D03*
X0344823Y0043201D03*
D62*
X0344773Y0043301D03*
X0362673Y0031701D03*
X0364573Y0031201D03*
X0365573Y0036801D03*
X0372273Y0030101D03*
X0375973Y0030301D03*
X0375973Y0030401D03*
X0375973Y0033101D03*
X0377273Y0033101D03*
X0377473Y0034901D03*
X0380073Y0032501D03*
X0384273Y0034401D03*
X0375573Y0024901D03*
X0371473Y0024801D03*
X0375373Y0016401D03*
X0375473Y0014201D03*
X0368173Y0011901D03*
X0367673Y0015601D03*
X0362373Y0013201D03*
X0361073Y0012001D03*
X0354273Y0011301D03*
D63*
X0360673Y0011301D03*
X0362873Y0014101D03*
X0369773Y0016101D03*
X0371873Y0022401D03*
X0371773Y0031501D03*
X0371773Y0031601D03*
X0371773Y0031701D03*
X0371773Y0032901D03*
X0375973Y0034101D03*
X0376773Y0033701D03*
X0380173Y0034301D03*
X0380373Y0031601D03*
X0383673Y0033501D03*
X0372773Y0037501D03*
X0366873Y0037401D03*
X0367273Y0034101D03*
X0364673Y0031801D03*
X0362373Y0031101D03*
X0361773Y0034001D03*
X0364373Y0028801D03*
X0364273Y0028701D03*
X0348973Y0038601D03*
X0348273Y0037801D03*
X0345373Y0036101D03*
X0345373Y0041301D03*
X0345373Y0041401D03*
X0340673Y0033401D03*
X0376073Y0013001D03*
D64*
X0375623Y0014001D03*
X0368223Y0012001D03*
X0362523Y0013501D03*
X0360923Y0011801D03*
X0354423Y0011501D03*
X0371423Y0024501D03*
X0375623Y0024501D03*
X0375623Y0024601D03*
X0375623Y0024401D03*
X0375623Y0024301D03*
X0376123Y0030701D03*
X0376123Y0030801D03*
X0376023Y0033001D03*
X0379623Y0034701D03*
X0380323Y0032201D03*
X0384123Y0034701D03*
X0372123Y0030401D03*
X0368423Y0034901D03*
X0364623Y0031301D03*
X0364723Y0029601D03*
X0362223Y0034401D03*
X0344923Y0042801D03*
X0341223Y0033201D03*
X0341523Y0032801D03*
X0341723Y0032501D03*
X0360623Y0053801D03*
D65*
X0358973Y0042601D03*
X0364273Y0042001D03*
X0372273Y0041101D03*
X0372873Y0037801D03*
X0375073Y0037801D03*
X0376973Y0033501D03*
X0376073Y0032801D03*
X0376073Y0032701D03*
X0376173Y0031601D03*
X0376173Y0031501D03*
X0376173Y0031401D03*
X0380273Y0031901D03*
X0379873Y0034501D03*
X0383873Y0035101D03*
X0383873Y0033101D03*
X0383873Y0033001D03*
X0371873Y0031001D03*
X0371873Y0030901D03*
X0371373Y0023801D03*
X0371373Y0023701D03*
X0371373Y0023601D03*
X0371373Y0023501D03*
X0375473Y0022901D03*
X0375073Y0016901D03*
X0375873Y0013401D03*
X0371273Y0015101D03*
X0367273Y0015101D03*
X0368273Y0012301D03*
X0360773Y0011501D03*
X0354673Y0011901D03*
X0364673Y0029301D03*
X0362473Y0031301D03*
X0361973Y0034201D03*
X0364073Y0033901D03*
X0350873Y0039901D03*
X0345173Y0042001D03*
D66*
X0345123Y0042101D03*
X0345123Y0042201D03*
X0357223Y0045801D03*
X0357923Y0044601D03*
X0358323Y0043901D03*
X0358623Y0043401D03*
X0358723Y0043201D03*
X0359023Y0042701D03*
X0366223Y0037101D03*
X0370123Y0038001D03*
X0370423Y0037301D03*
X0372923Y0037901D03*
X0375023Y0037901D03*
X0379023Y0036301D03*
X0380323Y0032001D03*
X0383923Y0032901D03*
X0383923Y0035001D03*
X0376123Y0031301D03*
X0371923Y0030801D03*
X0364623Y0031501D03*
X0364723Y0029401D03*
X0375523Y0023301D03*
X0375523Y0023201D03*
X0375523Y0023101D03*
X0375523Y0023001D03*
X0375423Y0022801D03*
X0372323Y0015801D03*
X0371123Y0015001D03*
X0370823Y0014801D03*
X0369523Y0015701D03*
X0367323Y0015201D03*
X0362723Y0013801D03*
X0360823Y0011601D03*
X0354623Y0011801D03*
X0375823Y0013501D03*
X0375823Y0013601D03*
D67*
X0376023Y0013101D03*
X0372123Y0015601D03*
X0369723Y0016001D03*
X0367123Y0014901D03*
X0368323Y0012501D03*
X0371823Y0022501D03*
X0371723Y0022601D03*
X0371823Y0031301D03*
X0371823Y0031401D03*
X0376123Y0032001D03*
X0376123Y0032101D03*
X0376123Y0032201D03*
X0376123Y0032301D03*
X0376123Y0032401D03*
X0376223Y0033901D03*
X0376123Y0034001D03*
X0380023Y0034401D03*
X0380323Y0031701D03*
X0383723Y0033401D03*
X0383723Y0035301D03*
X0372823Y0037601D03*
X0372123Y0041201D03*
X0366623Y0037301D03*
X0367423Y0034201D03*
X0364223Y0034101D03*
X0364623Y0031701D03*
X0366323Y0030301D03*
X0364423Y0028901D03*
X0362423Y0031201D03*
X0348223Y0037701D03*
X0347523Y0037301D03*
X0346823Y0036901D03*
X0346323Y0036601D03*
X0344923Y0035801D03*
X0344423Y0035501D03*
X0344223Y0035401D03*
X0343723Y0035101D03*
X0343523Y0035001D03*
X0343023Y0034701D03*
X0342523Y0034401D03*
X0342323Y0034301D03*
X0341823Y0034001D03*
X0341623Y0033901D03*
X0345323Y0041501D03*
X0354823Y0012101D03*
D68*
X0354973Y0012301D03*
X0362973Y0014301D03*
X0366973Y0014701D03*
X0369973Y0016301D03*
X0371973Y0015401D03*
X0376173Y0012801D03*
X0380373Y0031501D03*
X0380273Y0034201D03*
X0383573Y0033701D03*
X0383573Y0035501D03*
X0376673Y0033801D03*
X0375273Y0037601D03*
X0372773Y0037401D03*
X0371973Y0041301D03*
X0367073Y0037501D03*
X0366973Y0033901D03*
X0364673Y0031901D03*
X0362373Y0031001D03*
X0364173Y0028501D03*
X0371773Y0031901D03*
X0371773Y0032001D03*
X0371773Y0032101D03*
X0371773Y0032201D03*
X0371773Y0032301D03*
X0371773Y0032401D03*
X0371773Y0032501D03*
X0371773Y0032601D03*
X0371773Y0032701D03*
X0371773Y0032801D03*
X0361573Y0038301D03*
X0345473Y0036201D03*
X0340773Y0033501D03*
X0344373Y0030201D03*
D69*
X0346673Y0031801D03*
X0348273Y0038001D03*
X0349973Y0039201D03*
X0340873Y0033601D03*
X0355073Y0012401D03*
X0363173Y0014501D03*
X0370073Y0016401D03*
X0376273Y0012701D03*
X0380473Y0031201D03*
X0380473Y0034001D03*
X0383473Y0035601D03*
X0375773Y0034401D03*
X0367273Y0037601D03*
X0366473Y0039401D03*
X0365473Y0038801D03*
X0365173Y0038601D03*
X0365073Y0038501D03*
X0364873Y0038401D03*
X0364773Y0038301D03*
X0364573Y0038201D03*
X0366473Y0033601D03*
X0366373Y0033501D03*
X0363973Y0028101D03*
X0362173Y0042801D03*
D70*
X0367673Y0037801D03*
X0367873Y0037901D03*
X0371573Y0039801D03*
X0375473Y0036001D03*
X0375473Y0035401D03*
X0375473Y0035301D03*
X0375673Y0034801D03*
X0380873Y0035401D03*
X0381073Y0035301D03*
X0381073Y0033501D03*
X0381373Y0033301D03*
X0381473Y0033201D03*
X0380573Y0030801D03*
X0383273Y0030501D03*
X0383273Y0030401D03*
X0366373Y0030501D03*
X0364873Y0032301D03*
X0365273Y0032701D03*
X0365373Y0032801D03*
X0365573Y0032901D03*
X0365673Y0033001D03*
X0361273Y0033501D03*
X0349773Y0039101D03*
X0349273Y0038801D03*
X0344073Y0030301D03*
X0355273Y0012701D03*
X0363373Y0014801D03*
X0376473Y0012401D03*
D71*
X0381123Y0012401D03*
X0381123Y0023401D03*
X0381123Y0023501D03*
X0381123Y0023601D03*
X0381123Y0027401D03*
X0381123Y0027501D03*
X0364223Y0041301D03*
X0357323Y0039501D03*
X0350723Y0028801D03*
X0357423Y0015701D03*
X0356023Y0057201D03*
X0356023Y0057301D03*
D72*
X0351423Y0040201D03*
X0342223Y0031001D03*
X0355323Y0012801D03*
X0363423Y0014901D03*
X0370423Y0016701D03*
X0363823Y0027701D03*
X0366523Y0030601D03*
X0366623Y0030701D03*
X0364923Y0032401D03*
X0365023Y0032501D03*
X0365123Y0032601D03*
X0364823Y0034701D03*
X0367323Y0036101D03*
X0369323Y0033301D03*
X0375523Y0036101D03*
X0375523Y0036801D03*
X0380223Y0035701D03*
X0380623Y0035501D03*
X0381223Y0033401D03*
X0381623Y0033101D03*
X0381723Y0033001D03*
X0383223Y0030701D03*
X0383223Y0030601D03*
X0383223Y0035901D03*
X0371623Y0041501D03*
X0370723Y0041801D03*
X0369423Y0042201D03*
D73*
X0375623Y0036701D03*
X0380323Y0035601D03*
X0383123Y0036001D03*
X0381823Y0032901D03*
X0381923Y0032801D03*
X0383123Y0031101D03*
X0383123Y0031001D03*
X0368623Y0032701D03*
X0368523Y0032601D03*
X0368423Y0032501D03*
X0368323Y0032401D03*
X0368223Y0032301D03*
X0368123Y0032201D03*
X0368023Y0032101D03*
X0367923Y0032001D03*
X0367823Y0031901D03*
X0367723Y0031801D03*
X0367623Y0031701D03*
X0367523Y0031601D03*
X0367423Y0031501D03*
X0367323Y0031401D03*
X0367223Y0031301D03*
X0367123Y0031201D03*
X0367023Y0031101D03*
X0363723Y0027501D03*
X0363723Y0027401D03*
X0355423Y0012901D03*
X0349423Y0038901D03*
X0349623Y0039001D03*
D74*
X0361373Y0038101D03*
X0361073Y0033301D03*
X0362273Y0030601D03*
X0363673Y0027301D03*
X0365073Y0034901D03*
X0366773Y0035801D03*
X0366973Y0035901D03*
X0369673Y0033501D03*
X0369873Y0033601D03*
X0371473Y0041601D03*
X0368673Y0042401D03*
X0362573Y0042901D03*
X0380573Y0030501D03*
X0383073Y0031201D03*
X0383073Y0031301D03*
X0382073Y0032701D03*
X0370573Y0016801D03*
X0363573Y0015101D03*
X0355473Y0013001D03*
D75*
X0355573Y0013101D03*
X0363773Y0015301D03*
X0363673Y0027201D03*
X0362273Y0030501D03*
X0365273Y0035101D03*
X0366073Y0035501D03*
X0370073Y0033701D03*
X0375773Y0036301D03*
X0375773Y0036401D03*
X0375773Y0036501D03*
X0382973Y0031601D03*
X0382973Y0031501D03*
X0358373Y0042201D03*
X0352673Y0040601D03*
X0352273Y0040501D03*
X0351973Y0040401D03*
X0343773Y0030401D03*
D76*
X0353023Y0040701D03*
X0360923Y0033101D03*
X0365623Y0035301D03*
X0365823Y0035401D03*
X0370323Y0033801D03*
X0370823Y0034001D03*
X0371023Y0034101D03*
X0371523Y0039701D03*
X0371323Y0041701D03*
X0382923Y0036201D03*
X0382923Y0031801D03*
X0382923Y0031701D03*
X0374423Y0021501D03*
X0363623Y0027101D03*
X0363823Y0015401D03*
X0355623Y0013201D03*
D77*
X0355723Y0013301D03*
X0363523Y0026801D03*
X0363523Y0026901D03*
X0371123Y0034201D03*
X0375923Y0035201D03*
X0376023Y0035101D03*
X0376023Y0035001D03*
X0382823Y0032101D03*
X0382823Y0032001D03*
X0370923Y0016901D03*
X0354823Y0041201D03*
X0354123Y0041001D03*
D78*
X0361723Y0038401D03*
X0364123Y0034001D03*
X0364623Y0031601D03*
X0364623Y0029201D03*
X0364523Y0029101D03*
X0367823Y0034501D03*
X0368023Y0034601D03*
X0366423Y0037201D03*
X0371823Y0033001D03*
X0376123Y0031801D03*
X0376123Y0031701D03*
X0383823Y0033201D03*
X0371423Y0023401D03*
X0371423Y0023301D03*
X0371423Y0023201D03*
X0371523Y0023101D03*
X0371523Y0023001D03*
X0371823Y0022301D03*
X0372223Y0015701D03*
X0369623Y0015801D03*
X0362723Y0013901D03*
X0375923Y0013301D03*
X0348823Y0038501D03*
X0345223Y0041801D03*
X0345223Y0041901D03*
X0341623Y0031201D03*
X0344723Y0030101D03*
D79*
X0354473Y0041101D03*
X0355173Y0041301D03*
X0355573Y0041401D03*
X0355973Y0041501D03*
X0357073Y0041801D03*
X0358173Y0042101D03*
X0362173Y0030301D03*
X0362073Y0030201D03*
X0361973Y0030101D03*
X0361873Y0030001D03*
X0363973Y0015601D03*
X0355773Y0013401D03*
X0382773Y0032201D03*
X0382773Y0036301D03*
D80*
X0371673Y0037101D03*
X0371473Y0034601D03*
X0363373Y0026301D03*
X0363373Y0026201D03*
X0360273Y0028301D03*
X0360173Y0028201D03*
X0360073Y0028101D03*
X0359973Y0028001D03*
X0358173Y0030601D03*
X0358273Y0030701D03*
X0358873Y0031201D03*
X0358973Y0031301D03*
X0359473Y0031701D03*
X0359573Y0031801D03*
X0359973Y0032101D03*
X0360073Y0032201D03*
X0360473Y0032501D03*
X0357573Y0030101D03*
X0357473Y0030001D03*
X0357373Y0029901D03*
X0357273Y0029801D03*
X0357173Y0029701D03*
X0357073Y0029601D03*
X0356673Y0029301D03*
X0356573Y0029201D03*
X0356473Y0029101D03*
X0356373Y0029001D03*
X0356273Y0028901D03*
X0356173Y0028801D03*
X0364373Y0016101D03*
X0356073Y0013801D03*
D81*
X0356123Y0013901D03*
X0359623Y0027601D03*
X0359723Y0027701D03*
X0359823Y0027801D03*
X0359923Y0027901D03*
X0363323Y0026101D03*
X0371423Y0034701D03*
D82*
X0371473Y0035501D03*
X0371573Y0036401D03*
X0362773Y0043801D03*
X0362473Y0044301D03*
X0362173Y0044801D03*
X0362073Y0045001D03*
X0361773Y0045501D03*
X0361473Y0046001D03*
X0361373Y0046201D03*
X0361173Y0046501D03*
X0361073Y0046701D03*
X0360873Y0047001D03*
X0360773Y0047201D03*
X0360473Y0047701D03*
X0360373Y0047901D03*
X0360173Y0048201D03*
X0360073Y0048401D03*
X0359873Y0048701D03*
X0359773Y0048901D03*
X0359673Y0049101D03*
X0359573Y0049201D03*
X0359473Y0049401D03*
X0359373Y0049601D03*
X0359173Y0049901D03*
X0359073Y0050101D03*
X0358873Y0050401D03*
X0358773Y0050601D03*
X0358673Y0050801D03*
X0358573Y0050901D03*
X0358473Y0051101D03*
X0358373Y0051301D03*
X0358273Y0051401D03*
X0358173Y0051601D03*
X0358073Y0051801D03*
X0357973Y0052001D03*
X0357873Y0052101D03*
X0357773Y0052301D03*
X0357673Y0052501D03*
X0357573Y0052601D03*
X0357473Y0052801D03*
X0357373Y0053001D03*
X0357273Y0053101D03*
X0357173Y0053301D03*
X0357173Y0053401D03*
X0343073Y0030701D03*
X0358573Y0026301D03*
X0358673Y0026401D03*
X0358773Y0026501D03*
X0363273Y0025901D03*
X0364673Y0016401D03*
X0364573Y0016301D03*
X0356273Y0014101D03*
X0374073Y0021101D03*
D83*
X0374023Y0021001D03*
X0364823Y0016601D03*
X0356423Y0014301D03*
X0363223Y0025601D03*
X0371523Y0039401D03*
X0357023Y0053801D03*
X0357023Y0053901D03*
D84*
X0356973Y0054001D03*
X0356973Y0054101D03*
X0371273Y0035301D03*
X0382073Y0036801D03*
X0356473Y0014401D03*
D85*
X0356623Y0014601D03*
X0373823Y0020901D03*
X0371023Y0035101D03*
X0371223Y0036901D03*
X0370823Y0039001D03*
X0371423Y0039301D03*
X0356823Y0054501D03*
X0356823Y0054601D03*
D86*
X0356123Y0056901D03*
X0357923Y0039701D03*
X0357623Y0039601D03*
X0354723Y0038101D03*
X0361723Y0037701D03*
X0363123Y0024301D03*
X0372523Y0017301D03*
X0381223Y0015201D03*
X0381223Y0015101D03*
X0381223Y0015001D03*
X0381223Y0014901D03*
X0381223Y0014801D03*
X0381223Y0014701D03*
X0381223Y0014601D03*
X0381223Y0022901D03*
X0381223Y0023001D03*
X0381223Y0023101D03*
X0381223Y0027801D03*
X0357323Y0015601D03*
D87*
X0363273Y0014701D03*
X0370273Y0016601D03*
X0363873Y0027901D03*
X0365973Y0033201D03*
X0366073Y0033301D03*
X0367773Y0036301D03*
X0367473Y0037701D03*
X0366273Y0039301D03*
X0366073Y0039201D03*
X0365773Y0039001D03*
X0364373Y0038101D03*
X0361473Y0038201D03*
X0361373Y0033601D03*
X0371773Y0041401D03*
X0375373Y0037101D03*
X0375373Y0037001D03*
X0375673Y0034601D03*
X0379873Y0035901D03*
X0381673Y0035001D03*
X0381873Y0034901D03*
X0382073Y0034801D03*
X0382273Y0034701D03*
X0382773Y0034401D03*
X0383073Y0034201D03*
X0383373Y0034001D03*
X0383373Y0035701D03*
X0380573Y0033901D03*
D88*
X0381623Y0029901D03*
X0381623Y0029801D03*
X0381623Y0029701D03*
X0381623Y0029601D03*
X0381623Y0029501D03*
X0381623Y0019701D03*
X0381623Y0019601D03*
X0381623Y0017501D03*
X0381623Y0017401D03*
X0363123Y0024801D03*
X0363123Y0024901D03*
X0356923Y0015001D03*
X0356523Y0055501D03*
X0356523Y0055601D03*
D89*
X0358473Y0042301D03*
X0361173Y0033401D03*
X0362273Y0030701D03*
X0363773Y0027601D03*
X0366773Y0030801D03*
X0366873Y0030901D03*
X0366973Y0031001D03*
X0368773Y0032801D03*
X0368873Y0032901D03*
X0368973Y0033001D03*
X0369073Y0033101D03*
X0369173Y0033201D03*
X0369473Y0033401D03*
X0367173Y0036001D03*
X0368073Y0038001D03*
X0369073Y0042301D03*
X0369773Y0042101D03*
X0370073Y0042001D03*
X0370373Y0041901D03*
X0367873Y0042701D03*
X0364973Y0034801D03*
X0375573Y0036201D03*
X0375673Y0034901D03*
X0380573Y0030701D03*
X0380573Y0030601D03*
X0383173Y0030801D03*
X0383173Y0030901D03*
X0363473Y0015001D03*
D90*
X0357023Y0015201D03*
X0363123Y0024701D03*
X0370823Y0036701D03*
X0381523Y0028901D03*
X0381523Y0028801D03*
X0381523Y0028701D03*
X0381523Y0020001D03*
X0381523Y0017001D03*
X0381523Y0016901D03*
X0381523Y0016801D03*
X0355223Y0038301D03*
X0356423Y0055901D03*
D91*
X0364323Y0041801D03*
X0368023Y0042601D03*
X0368323Y0042501D03*
X0366523Y0035701D03*
X0366323Y0035601D03*
X0365123Y0035001D03*
X0361023Y0033201D03*
X0351623Y0040301D03*
X0375723Y0036601D03*
X0383023Y0036101D03*
X0383023Y0031401D03*
X0380523Y0030401D03*
X0363623Y0015201D03*
D92*
X0357123Y0015301D03*
X0363123Y0024601D03*
X0354923Y0038201D03*
X0358523Y0039901D03*
X0356323Y0056201D03*
X0356323Y0056301D03*
X0381423Y0037101D03*
X0381423Y0028501D03*
X0381423Y0028401D03*
X0381423Y0020301D03*
X0381423Y0016401D03*
X0381423Y0016301D03*
D93*
X0381373Y0016201D03*
X0381373Y0016101D03*
X0381373Y0016001D03*
X0381373Y0020401D03*
X0381373Y0028201D03*
X0381373Y0028301D03*
X0363073Y0024501D03*
X0357173Y0015401D03*
X0345873Y0032201D03*
X0355473Y0038501D03*
X0361973Y0037801D03*
X0356273Y0056401D03*
D94*
X0353773Y0040901D03*
X0353373Y0040801D03*
X0360873Y0033001D03*
X0362273Y0030401D03*
X0363573Y0027001D03*
X0365373Y0035201D03*
X0370473Y0033901D03*
X0382873Y0031901D03*
X0363873Y0015501D03*
X0342473Y0030901D03*
D95*
X0358223Y0039801D03*
X0370623Y0036601D03*
X0381323Y0028101D03*
X0381323Y0022501D03*
X0381323Y0022401D03*
X0381323Y0022301D03*
X0381323Y0022201D03*
X0381323Y0022101D03*
X0381323Y0022001D03*
X0381323Y0021901D03*
X0381323Y0021801D03*
X0381323Y0021701D03*
X0381323Y0021601D03*
X0381323Y0021501D03*
X0381323Y0021401D03*
X0381323Y0021301D03*
X0381323Y0021201D03*
X0381323Y0021101D03*
X0381323Y0021001D03*
X0381323Y0020501D03*
X0381323Y0015901D03*
X0381323Y0015801D03*
X0381323Y0015701D03*
X0356223Y0056501D03*
X0356223Y0056601D03*
D96*
X0355973Y0057401D03*
X0355773Y0038801D03*
X0350773Y0029001D03*
X0350773Y0028901D03*
X0352473Y0026001D03*
X0352473Y0025901D03*
X0363073Y0024101D03*
X0357473Y0015801D03*
X0381073Y0023701D03*
X0381073Y0023801D03*
X0381073Y0027301D03*
D97*
X0382673Y0032501D03*
X0382673Y0036401D03*
X0363473Y0026601D03*
X0361173Y0029301D03*
X0361273Y0029401D03*
X0361373Y0029501D03*
X0361473Y0029601D03*
X0361573Y0029701D03*
X0361673Y0029801D03*
X0361773Y0029901D03*
X0360773Y0032801D03*
X0343473Y0030501D03*
X0364173Y0015801D03*
D98*
X0357623Y0016001D03*
X0363123Y0023901D03*
X0352523Y0026201D03*
X0350923Y0029401D03*
X0351023Y0029501D03*
X0355923Y0038901D03*
X0356523Y0039201D03*
X0355823Y0057901D03*
X0355823Y0058001D03*
X0380923Y0026801D03*
X0380923Y0026701D03*
X0380923Y0024601D03*
X0380923Y0024501D03*
X0380923Y0024401D03*
D99*
X0380873Y0024701D03*
X0380873Y0024801D03*
X0380873Y0026401D03*
X0380873Y0026501D03*
X0380873Y0026601D03*
X0380873Y0037401D03*
X0380873Y0037501D03*
X0357673Y0016101D03*
X0352473Y0026301D03*
X0351073Y0029601D03*
X0351173Y0029801D03*
X0355773Y0058101D03*
D100*
X0355673Y0058401D03*
X0355673Y0058501D03*
X0354273Y0037901D03*
X0352573Y0031401D03*
X0352473Y0031301D03*
X0352373Y0031201D03*
X0352273Y0031101D03*
X0352173Y0031001D03*
X0352073Y0030901D03*
X0351973Y0030801D03*
X0351873Y0030701D03*
X0351773Y0030601D03*
X0351673Y0030501D03*
X0351573Y0030401D03*
X0351473Y0030201D03*
X0351373Y0030101D03*
X0352473Y0026401D03*
X0354773Y0022601D03*
X0357773Y0016201D03*
X0363073Y0023701D03*
X0380773Y0025201D03*
X0380773Y0025301D03*
X0380773Y0025401D03*
X0380773Y0025501D03*
X0380773Y0025601D03*
X0380773Y0025701D03*
X0380773Y0025801D03*
X0380773Y0025901D03*
X0380773Y0026001D03*
X0380773Y0037701D03*
X0380773Y0037801D03*
D101*
X0380723Y0037901D03*
X0354823Y0022701D03*
X0352523Y0026501D03*
X0351523Y0030301D03*
X0352723Y0031501D03*
X0352823Y0031601D03*
X0352923Y0031701D03*
X0353023Y0031801D03*
X0353123Y0031901D03*
X0353223Y0032001D03*
X0357823Y0016301D03*
X0355623Y0058601D03*
D102*
X0355573Y0058701D03*
X0355573Y0058801D03*
X0353473Y0032201D03*
X0353373Y0032101D03*
X0363073Y0023601D03*
X0357873Y0016401D03*
X0380673Y0038001D03*
D103*
X0380573Y0038201D03*
X0354773Y0022901D03*
X0357973Y0016501D03*
X0355473Y0059101D03*
D104*
X0356373Y0056101D03*
X0356373Y0056001D03*
X0358773Y0040001D03*
X0355373Y0038401D03*
X0362273Y0037901D03*
X0364273Y0041401D03*
X0381473Y0028601D03*
X0381473Y0020201D03*
X0381473Y0020101D03*
X0381473Y0016701D03*
X0381473Y0016601D03*
X0381473Y0016501D03*
D105*
X0363123Y0023401D03*
X0358023Y0016601D03*
X0354823Y0023001D03*
X0352523Y0026801D03*
X0380523Y0038301D03*
X0355423Y0059201D03*
X0355423Y0059301D03*
D106*
X0355323Y0059601D03*
X0364223Y0041101D03*
X0380423Y0038501D03*
X0358123Y0016701D03*
X0354823Y0023201D03*
X0352523Y0026901D03*
D107*
X0360823Y0016801D03*
D108*
X0360873Y0016901D03*
D109*
X0360973Y0017001D03*
D110*
X0361073Y0017101D03*
D111*
X0361173Y0017201D03*
X0357273Y0037201D03*
D112*
X0356973Y0037001D03*
X0361273Y0017301D03*
D113*
X0364923Y0017401D03*
D114*
X0364973Y0017501D03*
X0364973Y0017601D03*
D115*
X0381673Y0017601D03*
X0381673Y0017701D03*
X0381673Y0017801D03*
X0381673Y0019301D03*
X0381673Y0019401D03*
X0381673Y0019501D03*
X0381673Y0030001D03*
X0381673Y0030101D03*
X0381673Y0037001D03*
X0370973Y0036801D03*
X0359373Y0040201D03*
X0356573Y0055301D03*
X0356573Y0055401D03*
D116*
X0364923Y0017701D03*
D117*
X0364973Y0017801D03*
D118*
X0364923Y0017901D03*
X0364923Y0018001D03*
D119*
X0364923Y0018101D03*
D120*
X0364873Y0018201D03*
D121*
X0364923Y0018301D03*
D122*
X0364873Y0018401D03*
X0364873Y0018501D03*
D123*
X0364873Y0018601D03*
D124*
X0364823Y0018701D03*
D125*
X0364873Y0018801D03*
D126*
X0364823Y0018901D03*
X0364823Y0019001D03*
D127*
X0364823Y0019101D03*
D128*
X0364773Y0019201D03*
X0364773Y0019301D03*
D129*
X0364773Y0019401D03*
X0364773Y0019501D03*
D130*
X0364723Y0019601D03*
X0364723Y0019701D03*
D131*
X0364673Y0019801D03*
D132*
X0364623Y0019901D03*
X0364623Y0020001D03*
D133*
X0364573Y0020101D03*
X0364573Y0020201D03*
D134*
X0364523Y0020301D03*
D135*
X0364473Y0020401D03*
X0364473Y0020501D03*
X0364373Y0020601D03*
X0364373Y0020701D03*
D136*
X0364323Y0020801D03*
D137*
X0361523Y0020901D03*
X0361123Y0021701D03*
D138*
X0361573Y0021001D03*
D139*
X0361523Y0021101D03*
X0361523Y0021201D03*
D140*
X0361473Y0021301D03*
D141*
X0361423Y0021401D03*
X0361423Y0021501D03*
D142*
X0361373Y0021601D03*
D143*
X0360823Y0021801D03*
D144*
X0360623Y0021901D03*
D145*
X0360473Y0022001D03*
D146*
X0360323Y0022101D03*
D147*
X0360223Y0022201D03*
D148*
X0360023Y0022301D03*
D149*
X0359873Y0022401D03*
D150*
X0359773Y0022501D03*
D151*
X0359423Y0022801D03*
D152*
X0363173Y0023301D03*
X0354773Y0023301D03*
X0352573Y0027001D03*
X0380373Y0038601D03*
X0355273Y0059701D03*
X0355273Y0059801D03*
D153*
X0355523Y0059001D03*
X0355523Y0058901D03*
X0354123Y0037801D03*
X0354223Y0037701D03*
X0352523Y0026701D03*
X0352523Y0026601D03*
X0363123Y0023501D03*
X0380623Y0038101D03*
D154*
X0354823Y0024201D03*
X0352623Y0027801D03*
X0354723Y0060601D03*
X0354723Y0060701D03*
X0344523Y0060501D03*
X0344523Y0060401D03*
D155*
X0354423Y0061601D03*
X0354423Y0061701D03*
X0352723Y0028201D03*
X0354823Y0024701D03*
D156*
X0354823Y0024801D03*
X0352723Y0028301D03*
D157*
X0354773Y0024901D03*
X0364073Y0040801D03*
D158*
X0352723Y0028401D03*
X0354823Y0025001D03*
D159*
X0354823Y0025101D03*
X0354823Y0025201D03*
D160*
X0354823Y0025301D03*
X0363923Y0040701D03*
X0379123Y0060301D03*
X0379123Y0060401D03*
X0379123Y0060501D03*
X0379123Y0060601D03*
X0379123Y0060701D03*
X0379123Y0060801D03*
X0379123Y0060901D03*
X0379123Y0061001D03*
X0379123Y0061101D03*
X0379123Y0061201D03*
X0379123Y0061301D03*
X0379123Y0061401D03*
X0379123Y0061501D03*
X0379123Y0061601D03*
X0379123Y0061701D03*
D161*
X0354773Y0025401D03*
D162*
X0354823Y0025501D03*
D163*
X0354823Y0025601D03*
X0354823Y0025701D03*
D164*
X0352773Y0028501D03*
D165*
X0352773Y0028601D03*
X0352773Y0028701D03*
D166*
X0350073Y0032301D03*
X0356673Y0036801D03*
D167*
X0356523Y0036701D03*
X0356423Y0036601D03*
X0350123Y0032401D03*
D168*
X0350273Y0032501D03*
X0356273Y0036501D03*
D169*
X0356123Y0036401D03*
X0350323Y0032601D03*
D170*
X0350373Y0032701D03*
D171*
X0350423Y0032801D03*
X0355623Y0036001D03*
X0355723Y0036101D03*
D172*
X0353723Y0034901D03*
X0353523Y0034801D03*
X0353323Y0034701D03*
X0353123Y0034601D03*
X0352923Y0034501D03*
X0352623Y0034301D03*
X0352423Y0034201D03*
X0352223Y0034101D03*
X0351923Y0033901D03*
X0351723Y0033801D03*
X0350423Y0032901D03*
D173*
X0350473Y0033001D03*
X0351073Y0033401D03*
X0351273Y0033501D03*
X0351373Y0033601D03*
X0351573Y0033701D03*
X0352073Y0034001D03*
X0352773Y0034401D03*
X0353873Y0035001D03*
X0354073Y0035101D03*
X0354273Y0035201D03*
X0354473Y0035301D03*
X0354673Y0035401D03*
X0355373Y0035801D03*
D174*
X0355223Y0035701D03*
X0355023Y0035601D03*
X0354823Y0035501D03*
X0350923Y0033301D03*
X0350723Y0033201D03*
X0350623Y0033101D03*
D175*
X0370923Y0035001D03*
X0356723Y0054801D03*
X0356723Y0054901D03*
D176*
X0355473Y0035901D03*
D177*
X0355873Y0036201D03*
D178*
X0356023Y0036301D03*
D179*
X0356823Y0036901D03*
X0357623Y0037601D03*
D180*
X0357623Y0037501D03*
X0357123Y0037101D03*
D181*
X0357423Y0037301D03*
X0357523Y0037401D03*
D182*
X0366573Y0060101D03*
X0366573Y0060201D03*
X0366573Y0060301D03*
X0366573Y0060401D03*
X0366573Y0060501D03*
X0366573Y0060601D03*
X0366573Y0060701D03*
X0366573Y0060801D03*
D183*
X0366623Y0060901D03*
D184*
X0043217Y0316446D02*
X0007784Y0316446D01*
X0007784Y0347154D01*
X0043217Y0347154D01*
X0043217Y0316446D01*
X0029438Y0328847D02*
X0009753Y0326879D01*
X0009753Y0323926D02*
X0027469Y0325894D01*
X0029438Y0328847D02*
X0029438Y0334753D01*
X0009753Y0336721D01*
X0009753Y0339674D02*
X0025501Y0337706D01*
X0025501Y0345580D02*
X0009753Y0343611D01*
X0009753Y0339674D01*
X0009753Y0323926D02*
X0009753Y0319989D01*
X0027469Y0318020D01*
M02*
