G75*
%MOIN*%
%OFA0B0*%
%FSLAX25Y25*%
%IPPOS*%
%LPD*%
%AMOC8*
5,1,8,0,0,1.08239X$1,22.5*
%
%ADD10C,0.00000*%
%ADD11OC8,0.05200*%
%ADD12C,0.05200*%
%ADD13C,0.05150*%
%ADD14C,0.11220*%
%ADD15R,0.05906X0.01969*%
%ADD16R,0.01969X0.05906*%
%ADD17C,0.05937*%
%ADD18C,0.07400*%
%ADD19C,0.02578*%
%ADD20C,0.01600*%
D10*
X0007548Y0002300D02*
X0007548Y0396001D01*
X0401249Y0396001D01*
X0401249Y0002300D01*
X0007548Y0002300D01*
D11*
X0137548Y0017300D03*
X0177548Y0017300D03*
X0197548Y0092300D03*
X0207548Y0092300D03*
X0252548Y0152300D03*
X0252548Y0162300D03*
X0207548Y0217300D03*
X0197548Y0217300D03*
X0153248Y0157500D03*
X0082548Y0232300D03*
X0067548Y0252300D03*
X0057548Y0252300D03*
X0042548Y0232300D03*
X0042548Y0272300D03*
X0047548Y0282300D03*
X0022548Y0282300D03*
X0015048Y0287300D03*
X0022548Y0292300D03*
X0072548Y0287300D03*
X0072548Y0297300D03*
X0097548Y0297300D03*
X0097548Y0287300D03*
X0082548Y0272300D03*
X0122548Y0272300D03*
X0122548Y0312300D03*
X0042548Y0362300D03*
X0042548Y0372300D03*
D12*
X0047548Y0302300D03*
X0153248Y0137500D03*
D13*
X0042627Y0325501D03*
X0037902Y0328650D03*
X0042627Y0331800D03*
X0037902Y0334950D03*
X0042627Y0338099D03*
X0017548Y0364426D03*
X0017548Y0372300D03*
X0017548Y0380174D03*
D14*
X0022548Y0346170D03*
X0022548Y0317430D03*
D15*
X0179713Y0173048D03*
X0179713Y0169898D03*
X0179713Y0166749D03*
X0179713Y0163599D03*
X0179713Y0160450D03*
X0179713Y0157300D03*
X0179713Y0154150D03*
X0179713Y0151001D03*
X0179713Y0147851D03*
X0179713Y0144702D03*
X0179713Y0141552D03*
X0225383Y0141552D03*
X0225383Y0144702D03*
X0225383Y0147851D03*
X0225383Y0151001D03*
X0225383Y0154150D03*
X0225383Y0157300D03*
X0225383Y0160450D03*
X0225383Y0163599D03*
X0225383Y0166749D03*
X0225383Y0169898D03*
X0225383Y0173048D03*
D16*
X0218296Y0180135D03*
X0215146Y0180135D03*
X0211997Y0180135D03*
X0208847Y0180135D03*
X0205698Y0180135D03*
X0202548Y0180135D03*
X0199398Y0180135D03*
X0196249Y0180135D03*
X0193099Y0180135D03*
X0189950Y0180135D03*
X0186800Y0180135D03*
X0186800Y0134465D03*
X0189950Y0134465D03*
X0193099Y0134465D03*
X0196249Y0134465D03*
X0199398Y0134465D03*
X0202548Y0134465D03*
X0205698Y0134465D03*
X0208847Y0134465D03*
X0211997Y0134465D03*
X0215146Y0134465D03*
X0218296Y0134465D03*
D17*
X0017548Y0356552D03*
X0017548Y0388048D03*
D18*
X0022548Y0267300D03*
X0022548Y0247300D03*
X0017548Y0217300D03*
X0017548Y0207300D03*
X0017548Y0197300D03*
X0017548Y0187300D03*
X0017548Y0177300D03*
X0017548Y0167300D03*
X0017548Y0157300D03*
X0017548Y0147300D03*
X0017548Y0137300D03*
X0017548Y0127300D03*
X0017548Y0117300D03*
X0017548Y0107300D03*
X0017548Y0097300D03*
X0017548Y0087300D03*
X0017548Y0077300D03*
X0027548Y0011800D03*
X0037548Y0011800D03*
X0047548Y0011800D03*
X0057548Y0011800D03*
X0067548Y0011800D03*
X0097548Y0017300D03*
X0117548Y0017300D03*
X0129048Y0140300D03*
X0129048Y0150300D03*
X0129048Y0160300D03*
X0392548Y0162300D03*
X0392548Y0152300D03*
X0392548Y0142300D03*
X0392548Y0132300D03*
X0392548Y0122300D03*
X0392548Y0112300D03*
X0392548Y0102300D03*
X0392548Y0092300D03*
X0392548Y0082300D03*
X0392548Y0072300D03*
X0392548Y0172300D03*
X0392548Y0182300D03*
X0392548Y0192300D03*
X0392548Y0202300D03*
X0392548Y0212300D03*
D19*
X0233548Y0160300D03*
X0225383Y0166749D03*
X0213548Y0163800D03*
X0212548Y0173300D03*
X0218548Y0185800D03*
X0202548Y0187300D03*
X0199398Y0180135D03*
X0193146Y0186702D03*
X0192548Y0172800D03*
X0172548Y0157300D03*
X0166548Y0153890D03*
X0168648Y0141300D03*
X0197548Y0122300D03*
X0202548Y0127300D03*
X0205958Y0124300D03*
X0202341Y0141593D03*
X0227548Y0107300D03*
X0218548Y0087300D03*
X0202548Y0102300D03*
X0187548Y0097300D03*
X0145048Y0087400D03*
X0135048Y0034800D03*
X0107548Y0147300D03*
X0091548Y0151300D03*
X0042548Y0222300D03*
X0027510Y0297396D03*
X0038048Y0313300D03*
X0027169Y0357300D03*
X0177548Y0207300D03*
X0197548Y0207300D03*
X0218548Y0216300D03*
D20*
X0216548Y0216300D01*
X0202548Y0202300D01*
X0147548Y0202300D01*
X0130348Y0219500D01*
X0065348Y0219500D01*
X0057548Y0227300D01*
X0057548Y0252300D01*
X0067548Y0252300D02*
X0082548Y0237300D01*
X0082548Y0232300D01*
X0080891Y0268300D02*
X0139659Y0268300D01*
X0183728Y0224231D01*
X0184091Y0224114D01*
X0184348Y0223611D01*
X0190659Y0217300D01*
X0197548Y0217300D01*
X0197548Y0207300D01*
X0199348Y0200100D02*
X0186800Y0187552D01*
X0186800Y0180135D01*
X0189950Y0180135D02*
X0189950Y0187590D01*
X0200104Y0197744D01*
X0207189Y0197744D01*
X0221745Y0212300D01*
X0360048Y0212300D01*
X0390048Y0182300D01*
X0392548Y0182300D01*
X0392548Y0172300D02*
X0357548Y0207300D01*
X0222548Y0207300D01*
X0205698Y0190450D01*
X0205698Y0180135D01*
X0208847Y0180135D02*
X0208847Y0188599D01*
X0222548Y0202300D01*
X0352548Y0202300D01*
X0392548Y0162300D01*
X0392548Y0152300D02*
X0347548Y0197300D01*
X0220659Y0197300D01*
X0211997Y0188638D01*
X0211997Y0180135D01*
X0215146Y0180135D02*
X0215146Y0187898D01*
X0222348Y0195100D01*
X0339748Y0195100D01*
X0392548Y0142300D01*
X0392548Y0132300D02*
X0295659Y0132300D01*
X0252459Y0175500D01*
X0222931Y0175500D01*
X0218296Y0180135D01*
X0218548Y0180387D01*
X0218548Y0185800D01*
X0212548Y0173300D02*
X0225131Y0173300D01*
X0225383Y0173048D01*
X0251800Y0173048D01*
X0302548Y0122300D01*
X0392548Y0122300D01*
X0392548Y0112300D02*
X0309437Y0112300D01*
X0251838Y0169898D01*
X0225383Y0169898D01*
X0225383Y0163599D02*
X0213749Y0163599D01*
X0213548Y0163800D01*
X0225383Y0160450D02*
X0233398Y0160450D01*
X0233548Y0160300D01*
X0227548Y0160526D02*
X0227472Y0160450D01*
X0225383Y0160450D01*
X0225383Y0157300D02*
X0201398Y0157300D01*
X0199398Y0159300D01*
X0199398Y0180135D01*
X0196249Y0180135D02*
X0196249Y0176501D01*
X0192548Y0172800D01*
X0193099Y0180135D02*
X0193099Y0186654D01*
X0193146Y0186702D01*
X0202548Y0187300D02*
X0202548Y0180135D01*
X0199348Y0200100D02*
X0206434Y0200100D01*
X0223634Y0217300D01*
X0367548Y0217300D01*
X0392548Y0192300D01*
X0392548Y0202300D02*
X0362548Y0232300D01*
X0222548Y0232300D01*
X0132548Y0322300D01*
X0082548Y0322300D01*
X0062548Y0342300D01*
X0062548Y0357300D01*
X0047548Y0372300D01*
X0042548Y0372300D01*
X0025422Y0372300D01*
X0017548Y0380174D01*
X0017548Y0372300D02*
X0027548Y0362300D01*
X0027548Y0357300D01*
X0027169Y0357300D01*
X0030058Y0359810D02*
X0042548Y0372300D01*
X0030058Y0359810D02*
X0030058Y0314026D01*
X0015048Y0299016D01*
X0015048Y0287300D01*
X0018548Y0283800D01*
X0018548Y0280643D01*
X0020891Y0278300D01*
X0021548Y0278300D01*
X0033748Y0266100D01*
X0118748Y0266100D01*
X0177548Y0207300D01*
X0147548Y0177300D02*
X0017548Y0177300D01*
X0017548Y0167300D02*
X0042548Y0167300D01*
X0079848Y0130000D01*
X0163848Y0130000D01*
X0175400Y0141552D01*
X0179713Y0141552D01*
X0179713Y0144702D02*
X0172050Y0144702D01*
X0168648Y0141300D01*
X0157848Y0147851D02*
X0148099Y0147851D01*
X0132548Y0132300D01*
X0122548Y0132300D01*
X0107548Y0147300D01*
X0101548Y0151300D02*
X0117548Y0167300D01*
X0137548Y0167300D01*
X0153847Y0151001D01*
X0179713Y0151001D01*
X0179713Y0154150D02*
X0177624Y0154150D01*
X0177364Y0153890D01*
X0166548Y0153890D01*
X0172548Y0157300D02*
X0179713Y0157300D01*
X0179713Y0160450D02*
X0164398Y0160450D01*
X0147548Y0177300D01*
X0142548Y0187300D02*
X0166249Y0163599D01*
X0179713Y0163599D01*
X0179713Y0166749D02*
X0168099Y0166749D01*
X0137548Y0197300D01*
X0017548Y0197300D01*
X0017548Y0187300D02*
X0142548Y0187300D01*
X0132548Y0207300D02*
X0169950Y0169898D01*
X0179713Y0169898D01*
X0179713Y0173048D02*
X0171800Y0173048D01*
X0127548Y0217300D01*
X0017548Y0217300D01*
X0017548Y0207300D02*
X0132548Y0207300D01*
X0101548Y0151300D02*
X0091548Y0151300D01*
X0070048Y0127800D02*
X0182940Y0127800D01*
X0186800Y0131660D01*
X0186800Y0134465D01*
X0189950Y0134465D02*
X0189950Y0131698D01*
X0183807Y0125556D01*
X0064292Y0125556D01*
X0042548Y0147300D01*
X0017548Y0147300D01*
X0017548Y0157300D02*
X0040548Y0157300D01*
X0070048Y0127800D01*
X0056992Y0122856D02*
X0186992Y0122856D01*
X0193099Y0128962D01*
X0193099Y0134465D01*
X0196249Y0134465D02*
X0196249Y0129001D01*
X0187548Y0120300D01*
X0024548Y0120300D01*
X0017548Y0127300D01*
X0017548Y0137300D02*
X0042548Y0137300D01*
X0056992Y0122856D01*
X0022548Y0112300D02*
X0017548Y0117300D01*
X0022548Y0112300D02*
X0167548Y0112300D01*
X0172548Y0117300D01*
X0206634Y0117300D01*
X0208847Y0119514D01*
X0208847Y0134465D01*
X0205958Y0134205D02*
X0205698Y0134465D01*
X0205958Y0134205D02*
X0205958Y0124300D01*
X0202548Y0127300D02*
X0202548Y0134465D01*
X0202548Y0137300D01*
X0199398Y0140450D01*
X0199398Y0155150D01*
X0188950Y0144702D01*
X0179713Y0144702D01*
X0179713Y0147851D02*
X0157848Y0147851D01*
X0176548Y0113300D02*
X0170548Y0107300D01*
X0017548Y0107300D01*
X0017548Y0097300D02*
X0187548Y0097300D01*
X0202548Y0097300D02*
X0202548Y0102300D01*
X0201548Y0105189D02*
X0215146Y0118787D01*
X0215146Y0134465D01*
X0212048Y0134414D02*
X0211997Y0134465D01*
X0212048Y0134414D02*
X0212048Y0118800D01*
X0206548Y0113300D01*
X0176548Y0113300D01*
X0197548Y0122300D02*
X0199398Y0124150D01*
X0199398Y0134465D01*
X0202341Y0141593D02*
X0225342Y0141593D01*
X0225383Y0141552D01*
X0225383Y0144702D02*
X0235146Y0144702D01*
X0307548Y0072300D01*
X0392548Y0072300D01*
X0392548Y0082300D02*
X0302548Y0082300D01*
X0236997Y0147851D01*
X0225383Y0147851D01*
X0225383Y0151001D02*
X0238847Y0151001D01*
X0297548Y0092300D01*
X0392548Y0092300D01*
X0392548Y0102300D02*
X0292548Y0102300D01*
X0240698Y0154150D01*
X0225383Y0154150D01*
X0225383Y0157300D02*
X0247548Y0157300D01*
X0252548Y0152300D01*
X0218296Y0134465D02*
X0218296Y0087552D01*
X0218548Y0087300D01*
X0207548Y0087300D02*
X0207548Y0092300D01*
X0202548Y0097300D01*
X0201548Y0105189D02*
X0201351Y0105189D01*
X0132862Y0036700D01*
X0065236Y0036700D01*
X0040336Y0011800D01*
X0037548Y0011800D01*
X0047548Y0011800D02*
X0050336Y0011800D01*
X0073036Y0034500D01*
X0134748Y0034500D01*
X0135048Y0034800D01*
X0137548Y0017300D02*
X0207548Y0087300D01*
X0227548Y0107300D02*
X0242548Y0092300D01*
X0242548Y0072300D01*
X0187548Y0017300D01*
X0177548Y0017300D01*
X0170548Y0010300D01*
X0132048Y0010300D01*
X0125048Y0017300D01*
X0117548Y0017300D01*
X0102548Y0032300D01*
X0078048Y0032300D01*
X0057548Y0011800D01*
X0027548Y0011800D02*
X0027548Y0077300D01*
X0017548Y0087300D01*
X0144948Y0087300D01*
X0145048Y0087400D01*
X0199398Y0155150D02*
X0199398Y0159300D01*
X0080891Y0268300D02*
X0076891Y0272300D01*
X0042548Y0272300D01*
X0022548Y0292300D01*
X0047548Y0302300D01*
X0072548Y0297300D01*
X0097548Y0287300D01*
X0097548Y0297300D02*
X0112548Y0312300D01*
X0122548Y0312300D01*
X0047102Y0311854D02*
X0047102Y0327300D01*
X0047102Y0327325D01*
X0042627Y0331800D01*
X0037902Y0328650D02*
X0037902Y0313446D01*
X0038048Y0313300D01*
X0047102Y0311854D02*
X0036548Y0301300D01*
X0030048Y0301300D01*
X0027510Y0298762D01*
X0027510Y0297396D01*
X0022548Y0247300D02*
X0037548Y0232300D01*
X0042548Y0232300D01*
X0042548Y0222300D01*
M02*
